<?xml version="1.0" encoding="utf-8" standalone="no"?>
<!DOCTYPE svg PUBLIC "-//W3C//DTD SVG 1.1//EN"
  "http://www.w3.org/Graphics/SVG/1.1/DTD/svg11.dtd">
<svg xmlns:xlink="http://www.w3.org/1999/xlink" width="460.8pt" height="345.6pt" viewBox="0 0 460.8 345.6" xmlns="http://www.w3.org/2000/svg" version="1.1">
 <metadata>
  <rdf:RDF xmlns:dc="http://purl.org/dc/elements/1.1/" xmlns:cc="http://creativecommons.org/ns#" xmlns:rdf="http://www.w3.org/1999/02/22-rdf-syntax-ns#">
   <cc:Work>
    <dc:type rdf:resource="http://purl.org/dc/dcmitype/StillImage"/>
    <dc:date>2024-04-08T13:38:56.949591</dc:date>
    <dc:format>image/svg+xml</dc:format>
    <dc:creator>
     <cc:Agent>
      <dc:title>Matplotlib v3.5.1, https://matplotlib.org/</dc:title>
     </cc:Agent>
    </dc:creator>
   </cc:Work>
  </rdf:RDF>
 </metadata>
 <defs>
  <style type="text/css">*{stroke-linejoin: round; stroke-linecap: butt}</style>
 </defs>
 <g id="figure_1">
  <g id="patch_1">
   <path d="M 0 345.6 
L 460.8 345.6 
L 460.8 0 
L 0 0 
z
" style="fill: #ffffff"/>
  </g>
  <g id="axes_1">
   <g id="patch_2">
    <path d="M 57.6 307.584 
L 414.72 307.584 
L 414.72 41.472 
L 57.6 41.472 
z
" style="fill: #ffffff"/>
   </g>
   <g id="matplotlib.axis_1">
    <g id="xtick_1">
     <g id="line2d_1">
      <defs>
       <path id="meaa5aeeeb0" d="M 0 0 
L 0 3.5 
" style="stroke: #000000; stroke-width: 0.8"/>
      </defs>
      <g>
       <use xlink:href="#meaa5aeeeb0" x="73.832727" y="307.584" style="stroke: #000000; stroke-width: 0.8"/>
      </g>
     </g>
     <g id="text_1">
      <!-- 0.0 -->
      <g transform="translate(65.881165 322.182437)scale(0.1 -0.1)">
       <defs>
        <path id="DejaVuSans-30" d="M 2034 4250 
Q 1547 4250 1301 3770 
Q 1056 3291 1056 2328 
Q 1056 1369 1301 889 
Q 1547 409 2034 409 
Q 2525 409 2770 889 
Q 3016 1369 3016 2328 
Q 3016 3291 2770 3770 
Q 2525 4250 2034 4250 
z
M 2034 4750 
Q 2819 4750 3233 4129 
Q 3647 3509 3647 2328 
Q 3647 1150 3233 529 
Q 2819 -91 2034 -91 
Q 1250 -91 836 529 
Q 422 1150 422 2328 
Q 422 3509 836 4129 
Q 1250 4750 2034 4750 
z
" transform="scale(0.015625)"/>
        <path id="DejaVuSans-2e" d="M 684 794 
L 1344 794 
L 1344 0 
L 684 0 
L 684 794 
z
" transform="scale(0.015625)"/>
       </defs>
       <use xlink:href="#DejaVuSans-30"/>
       <use xlink:href="#DejaVuSans-2e" x="63.623047"/>
       <use xlink:href="#DejaVuSans-30" x="95.410156"/>
      </g>
     </g>
    </g>
    <g id="xtick_2">
     <g id="line2d_2">
      <g>
       <use xlink:href="#meaa5aeeeb0" x="138.763636" y="307.584" style="stroke: #000000; stroke-width: 0.8"/>
      </g>
     </g>
     <g id="text_2">
      <!-- 0.2 -->
      <g transform="translate(130.812074 322.182437)scale(0.1 -0.1)">
       <defs>
        <path id="DejaVuSans-32" d="M 1228 531 
L 3431 531 
L 3431 0 
L 469 0 
L 469 531 
Q 828 903 1448 1529 
Q 2069 2156 2228 2338 
Q 2531 2678 2651 2914 
Q 2772 3150 2772 3378 
Q 2772 3750 2511 3984 
Q 2250 4219 1831 4219 
Q 1534 4219 1204 4116 
Q 875 4013 500 3803 
L 500 4441 
Q 881 4594 1212 4672 
Q 1544 4750 1819 4750 
Q 2544 4750 2975 4387 
Q 3406 4025 3406 3419 
Q 3406 3131 3298 2873 
Q 3191 2616 2906 2266 
Q 2828 2175 2409 1742 
Q 1991 1309 1228 531 
z
" transform="scale(0.015625)"/>
       </defs>
       <use xlink:href="#DejaVuSans-30"/>
       <use xlink:href="#DejaVuSans-2e" x="63.623047"/>
       <use xlink:href="#DejaVuSans-32" x="95.410156"/>
      </g>
     </g>
    </g>
    <g id="xtick_3">
     <g id="line2d_3">
      <g>
       <use xlink:href="#meaa5aeeeb0" x="203.694545" y="307.584" style="stroke: #000000; stroke-width: 0.8"/>
      </g>
     </g>
     <g id="text_3">
      <!-- 0.4 -->
      <g transform="translate(195.742983 322.182437)scale(0.1 -0.1)">
       <defs>
        <path id="DejaVuSans-34" d="M 2419 4116 
L 825 1625 
L 2419 1625 
L 2419 4116 
z
M 2253 4666 
L 3047 4666 
L 3047 1625 
L 3713 1625 
L 3713 1100 
L 3047 1100 
L 3047 0 
L 2419 0 
L 2419 1100 
L 313 1100 
L 313 1709 
L 2253 4666 
z
" transform="scale(0.015625)"/>
       </defs>
       <use xlink:href="#DejaVuSans-30"/>
       <use xlink:href="#DejaVuSans-2e" x="63.623047"/>
       <use xlink:href="#DejaVuSans-34" x="95.410156"/>
      </g>
     </g>
    </g>
    <g id="xtick_4">
     <g id="line2d_4">
      <g>
       <use xlink:href="#meaa5aeeeb0" x="268.625455" y="307.584" style="stroke: #000000; stroke-width: 0.8"/>
      </g>
     </g>
     <g id="text_4">
      <!-- 0.6 -->
      <g transform="translate(260.673892 322.182437)scale(0.1 -0.1)">
       <defs>
        <path id="DejaVuSans-36" d="M 2113 2584 
Q 1688 2584 1439 2293 
Q 1191 2003 1191 1497 
Q 1191 994 1439 701 
Q 1688 409 2113 409 
Q 2538 409 2786 701 
Q 3034 994 3034 1497 
Q 3034 2003 2786 2293 
Q 2538 2584 2113 2584 
z
M 3366 4563 
L 3366 3988 
Q 3128 4100 2886 4159 
Q 2644 4219 2406 4219 
Q 1781 4219 1451 3797 
Q 1122 3375 1075 2522 
Q 1259 2794 1537 2939 
Q 1816 3084 2150 3084 
Q 2853 3084 3261 2657 
Q 3669 2231 3669 1497 
Q 3669 778 3244 343 
Q 2819 -91 2113 -91 
Q 1303 -91 875 529 
Q 447 1150 447 2328 
Q 447 3434 972 4092 
Q 1497 4750 2381 4750 
Q 2619 4750 2861 4703 
Q 3103 4656 3366 4563 
z
" transform="scale(0.015625)"/>
       </defs>
       <use xlink:href="#DejaVuSans-30"/>
       <use xlink:href="#DejaVuSans-2e" x="63.623047"/>
       <use xlink:href="#DejaVuSans-36" x="95.410156"/>
      </g>
     </g>
    </g>
    <g id="xtick_5">
     <g id="line2d_5">
      <g>
       <use xlink:href="#meaa5aeeeb0" x="333.556364" y="307.584" style="stroke: #000000; stroke-width: 0.8"/>
      </g>
     </g>
     <g id="text_5">
      <!-- 0.8 -->
      <g transform="translate(325.604801 322.182437)scale(0.1 -0.1)">
       <defs>
        <path id="DejaVuSans-38" d="M 2034 2216 
Q 1584 2216 1326 1975 
Q 1069 1734 1069 1313 
Q 1069 891 1326 650 
Q 1584 409 2034 409 
Q 2484 409 2743 651 
Q 3003 894 3003 1313 
Q 3003 1734 2745 1975 
Q 2488 2216 2034 2216 
z
M 1403 2484 
Q 997 2584 770 2862 
Q 544 3141 544 3541 
Q 544 4100 942 4425 
Q 1341 4750 2034 4750 
Q 2731 4750 3128 4425 
Q 3525 4100 3525 3541 
Q 3525 3141 3298 2862 
Q 3072 2584 2669 2484 
Q 3125 2378 3379 2068 
Q 3634 1759 3634 1313 
Q 3634 634 3220 271 
Q 2806 -91 2034 -91 
Q 1263 -91 848 271 
Q 434 634 434 1313 
Q 434 1759 690 2068 
Q 947 2378 1403 2484 
z
M 1172 3481 
Q 1172 3119 1398 2916 
Q 1625 2713 2034 2713 
Q 2441 2713 2670 2916 
Q 2900 3119 2900 3481 
Q 2900 3844 2670 4047 
Q 2441 4250 2034 4250 
Q 1625 4250 1398 4047 
Q 1172 3844 1172 3481 
z
" transform="scale(0.015625)"/>
       </defs>
       <use xlink:href="#DejaVuSans-30"/>
       <use xlink:href="#DejaVuSans-2e" x="63.623047"/>
       <use xlink:href="#DejaVuSans-38" x="95.410156"/>
      </g>
     </g>
    </g>
    <g id="xtick_6">
     <g id="line2d_6">
      <g>
       <use xlink:href="#meaa5aeeeb0" x="398.487273" y="307.584" style="stroke: #000000; stroke-width: 0.8"/>
      </g>
     </g>
     <g id="text_6">
      <!-- 1.0 -->
      <g transform="translate(390.53571 322.182437)scale(0.1 -0.1)">
       <defs>
        <path id="DejaVuSans-31" d="M 794 531 
L 1825 531 
L 1825 4091 
L 703 3866 
L 703 4441 
L 1819 4666 
L 2450 4666 
L 2450 531 
L 3481 531 
L 3481 0 
L 794 0 
L 794 531 
z
" transform="scale(0.015625)"/>
       </defs>
       <use xlink:href="#DejaVuSans-31"/>
       <use xlink:href="#DejaVuSans-2e" x="63.623047"/>
       <use xlink:href="#DejaVuSans-30" x="95.410156"/>
      </g>
     </g>
    </g>
    <g id="text_7">
     <!-- Recall -->
     <g transform="translate(221.242812 335.860562)scale(0.1 -0.1)">
      <defs>
       <path id="DejaVuSans-52" d="M 2841 2188 
Q 3044 2119 3236 1894 
Q 3428 1669 3622 1275 
L 4263 0 
L 3584 0 
L 2988 1197 
Q 2756 1666 2539 1819 
Q 2322 1972 1947 1972 
L 1259 1972 
L 1259 0 
L 628 0 
L 628 4666 
L 2053 4666 
Q 2853 4666 3247 4331 
Q 3641 3997 3641 3322 
Q 3641 2881 3436 2590 
Q 3231 2300 2841 2188 
z
M 1259 4147 
L 1259 2491 
L 2053 2491 
Q 2509 2491 2742 2702 
Q 2975 2913 2975 3322 
Q 2975 3731 2742 3939 
Q 2509 4147 2053 4147 
L 1259 4147 
z
" transform="scale(0.015625)"/>
       <path id="DejaVuSans-65" d="M 3597 1894 
L 3597 1613 
L 953 1613 
Q 991 1019 1311 708 
Q 1631 397 2203 397 
Q 2534 397 2845 478 
Q 3156 559 3463 722 
L 3463 178 
Q 3153 47 2828 -22 
Q 2503 -91 2169 -91 
Q 1331 -91 842 396 
Q 353 884 353 1716 
Q 353 2575 817 3079 
Q 1281 3584 2069 3584 
Q 2775 3584 3186 3129 
Q 3597 2675 3597 1894 
z
M 3022 2063 
Q 3016 2534 2758 2815 
Q 2500 3097 2075 3097 
Q 1594 3097 1305 2825 
Q 1016 2553 972 2059 
L 3022 2063 
z
" transform="scale(0.015625)"/>
       <path id="DejaVuSans-63" d="M 3122 3366 
L 3122 2828 
Q 2878 2963 2633 3030 
Q 2388 3097 2138 3097 
Q 1578 3097 1268 2742 
Q 959 2388 959 1747 
Q 959 1106 1268 751 
Q 1578 397 2138 397 
Q 2388 397 2633 464 
Q 2878 531 3122 666 
L 3122 134 
Q 2881 22 2623 -34 
Q 2366 -91 2075 -91 
Q 1284 -91 818 406 
Q 353 903 353 1747 
Q 353 2603 823 3093 
Q 1294 3584 2113 3584 
Q 2378 3584 2631 3529 
Q 2884 3475 3122 3366 
z
" transform="scale(0.015625)"/>
       <path id="DejaVuSans-61" d="M 2194 1759 
Q 1497 1759 1228 1600 
Q 959 1441 959 1056 
Q 959 750 1161 570 
Q 1363 391 1709 391 
Q 2188 391 2477 730 
Q 2766 1069 2766 1631 
L 2766 1759 
L 2194 1759 
z
M 3341 1997 
L 3341 0 
L 2766 0 
L 2766 531 
Q 2569 213 2275 61 
Q 1981 -91 1556 -91 
Q 1019 -91 701 211 
Q 384 513 384 1019 
Q 384 1609 779 1909 
Q 1175 2209 1959 2209 
L 2766 2209 
L 2766 2266 
Q 2766 2663 2505 2880 
Q 2244 3097 1772 3097 
Q 1472 3097 1187 3025 
Q 903 2953 641 2809 
L 641 3341 
Q 956 3463 1253 3523 
Q 1550 3584 1831 3584 
Q 2591 3584 2966 3190 
Q 3341 2797 3341 1997 
z
" transform="scale(0.015625)"/>
       <path id="DejaVuSans-6c" d="M 603 4863 
L 1178 4863 
L 1178 0 
L 603 0 
L 603 4863 
z
" transform="scale(0.015625)"/>
      </defs>
      <use xlink:href="#DejaVuSans-52"/>
      <use xlink:href="#DejaVuSans-65" x="64.982422"/>
      <use xlink:href="#DejaVuSans-63" x="126.505859"/>
      <use xlink:href="#DejaVuSans-61" x="181.486328"/>
      <use xlink:href="#DejaVuSans-6c" x="242.765625"/>
      <use xlink:href="#DejaVuSans-6c" x="270.548828"/>
     </g>
    </g>
   </g>
   <g id="matplotlib.axis_2">
    <g id="ytick_1">
     <g id="line2d_7">
      <defs>
       <path id="m75aa7e1617" d="M 0 0 
L -3.5 0 
" style="stroke: #000000; stroke-width: 0.8"/>
      </defs>
      <g>
       <use xlink:href="#m75aa7e1617" x="57.6" y="295.488" style="stroke: #000000; stroke-width: 0.8"/>
      </g>
     </g>
     <g id="text_8">
      <!-- 0.0 -->
      <g transform="translate(34.696875 299.287219)scale(0.1 -0.1)">
       <use xlink:href="#DejaVuSans-30"/>
       <use xlink:href="#DejaVuSans-2e" x="63.623047"/>
       <use xlink:href="#DejaVuSans-30" x="95.410156"/>
      </g>
     </g>
    </g>
    <g id="ytick_2">
     <g id="line2d_8">
      <g>
       <use xlink:href="#m75aa7e1617" x="57.6" y="247.104" style="stroke: #000000; stroke-width: 0.8"/>
      </g>
     </g>
     <g id="text_9">
      <!-- 0.2 -->
      <g transform="translate(34.696875 250.903219)scale(0.1 -0.1)">
       <use xlink:href="#DejaVuSans-30"/>
       <use xlink:href="#DejaVuSans-2e" x="63.623047"/>
       <use xlink:href="#DejaVuSans-32" x="95.410156"/>
      </g>
     </g>
    </g>
    <g id="ytick_3">
     <g id="line2d_9">
      <g>
       <use xlink:href="#m75aa7e1617" x="57.6" y="198.72" style="stroke: #000000; stroke-width: 0.8"/>
      </g>
     </g>
     <g id="text_10">
      <!-- 0.4 -->
      <g transform="translate(34.696875 202.519219)scale(0.1 -0.1)">
       <use xlink:href="#DejaVuSans-30"/>
       <use xlink:href="#DejaVuSans-2e" x="63.623047"/>
       <use xlink:href="#DejaVuSans-34" x="95.410156"/>
      </g>
     </g>
    </g>
    <g id="ytick_4">
     <g id="line2d_10">
      <g>
       <use xlink:href="#m75aa7e1617" x="57.6" y="150.336" style="stroke: #000000; stroke-width: 0.8"/>
      </g>
     </g>
     <g id="text_11">
      <!-- 0.6 -->
      <g transform="translate(34.696875 154.135219)scale(0.1 -0.1)">
       <use xlink:href="#DejaVuSans-30"/>
       <use xlink:href="#DejaVuSans-2e" x="63.623047"/>
       <use xlink:href="#DejaVuSans-36" x="95.410156"/>
      </g>
     </g>
    </g>
    <g id="ytick_5">
     <g id="line2d_11">
      <g>
       <use xlink:href="#m75aa7e1617" x="57.6" y="101.952" style="stroke: #000000; stroke-width: 0.8"/>
      </g>
     </g>
     <g id="text_12">
      <!-- 0.8 -->
      <g transform="translate(34.696875 105.751219)scale(0.1 -0.1)">
       <use xlink:href="#DejaVuSans-30"/>
       <use xlink:href="#DejaVuSans-2e" x="63.623047"/>
       <use xlink:href="#DejaVuSans-38" x="95.410156"/>
      </g>
     </g>
    </g>
    <g id="ytick_6">
     <g id="line2d_12">
      <g>
       <use xlink:href="#m75aa7e1617" x="57.6" y="53.568" style="stroke: #000000; stroke-width: 0.8"/>
      </g>
     </g>
     <g id="text_13">
      <!-- 1.0 -->
      <g transform="translate(34.696875 57.367219)scale(0.1 -0.1)">
       <use xlink:href="#DejaVuSans-31"/>
       <use xlink:href="#DejaVuSans-2e" x="63.623047"/>
       <use xlink:href="#DejaVuSans-30" x="95.410156"/>
      </g>
     </g>
    </g>
    <g id="text_14">
     <!-- Precision -->
     <g transform="translate(28.617187 196.835031)rotate(-90)scale(0.1 -0.1)">
      <defs>
       <path id="DejaVuSans-50" d="M 1259 4147 
L 1259 2394 
L 2053 2394 
Q 2494 2394 2734 2622 
Q 2975 2850 2975 3272 
Q 2975 3691 2734 3919 
Q 2494 4147 2053 4147 
L 1259 4147 
z
M 628 4666 
L 2053 4666 
Q 2838 4666 3239 4311 
Q 3641 3956 3641 3272 
Q 3641 2581 3239 2228 
Q 2838 1875 2053 1875 
L 1259 1875 
L 1259 0 
L 628 0 
L 628 4666 
z
" transform="scale(0.015625)"/>
       <path id="DejaVuSans-72" d="M 2631 2963 
Q 2534 3019 2420 3045 
Q 2306 3072 2169 3072 
Q 1681 3072 1420 2755 
Q 1159 2438 1159 1844 
L 1159 0 
L 581 0 
L 581 3500 
L 1159 3500 
L 1159 2956 
Q 1341 3275 1631 3429 
Q 1922 3584 2338 3584 
Q 2397 3584 2469 3576 
Q 2541 3569 2628 3553 
L 2631 2963 
z
" transform="scale(0.015625)"/>
       <path id="DejaVuSans-69" d="M 603 3500 
L 1178 3500 
L 1178 0 
L 603 0 
L 603 3500 
z
M 603 4863 
L 1178 4863 
L 1178 4134 
L 603 4134 
L 603 4863 
z
" transform="scale(0.015625)"/>
       <path id="DejaVuSans-73" d="M 2834 3397 
L 2834 2853 
Q 2591 2978 2328 3040 
Q 2066 3103 1784 3103 
Q 1356 3103 1142 2972 
Q 928 2841 928 2578 
Q 928 2378 1081 2264 
Q 1234 2150 1697 2047 
L 1894 2003 
Q 2506 1872 2764 1633 
Q 3022 1394 3022 966 
Q 3022 478 2636 193 
Q 2250 -91 1575 -91 
Q 1294 -91 989 -36 
Q 684 19 347 128 
L 347 722 
Q 666 556 975 473 
Q 1284 391 1588 391 
Q 1994 391 2212 530 
Q 2431 669 2431 922 
Q 2431 1156 2273 1281 
Q 2116 1406 1581 1522 
L 1381 1569 
Q 847 1681 609 1914 
Q 372 2147 372 2553 
Q 372 3047 722 3315 
Q 1072 3584 1716 3584 
Q 2034 3584 2315 3537 
Q 2597 3491 2834 3397 
z
" transform="scale(0.015625)"/>
       <path id="DejaVuSans-6f" d="M 1959 3097 
Q 1497 3097 1228 2736 
Q 959 2375 959 1747 
Q 959 1119 1226 758 
Q 1494 397 1959 397 
Q 2419 397 2687 759 
Q 2956 1122 2956 1747 
Q 2956 2369 2687 2733 
Q 2419 3097 1959 3097 
z
M 1959 3584 
Q 2709 3584 3137 3096 
Q 3566 2609 3566 1747 
Q 3566 888 3137 398 
Q 2709 -91 1959 -91 
Q 1206 -91 779 398 
Q 353 888 353 1747 
Q 353 2609 779 3096 
Q 1206 3584 1959 3584 
z
" transform="scale(0.015625)"/>
       <path id="DejaVuSans-6e" d="M 3513 2113 
L 3513 0 
L 2938 0 
L 2938 2094 
Q 2938 2591 2744 2837 
Q 2550 3084 2163 3084 
Q 1697 3084 1428 2787 
Q 1159 2491 1159 1978 
L 1159 0 
L 581 0 
L 581 3500 
L 1159 3500 
L 1159 2956 
Q 1366 3272 1645 3428 
Q 1925 3584 2291 3584 
Q 2894 3584 3203 3211 
Q 3513 2838 3513 2113 
z
" transform="scale(0.015625)"/>
      </defs>
      <use xlink:href="#DejaVuSans-50"/>
      <use xlink:href="#DejaVuSans-72" x="58.552734"/>
      <use xlink:href="#DejaVuSans-65" x="97.416016"/>
      <use xlink:href="#DejaVuSans-63" x="158.939453"/>
      <use xlink:href="#DejaVuSans-69" x="213.919922"/>
      <use xlink:href="#DejaVuSans-73" x="241.703125"/>
      <use xlink:href="#DejaVuSans-69" x="293.802734"/>
      <use xlink:href="#DejaVuSans-6f" x="321.585938"/>
      <use xlink:href="#DejaVuSans-6e" x="382.767578"/>
     </g>
    </g>
   </g>
   <g id="line2d_13">
    <path d="M 256.202201 188.505727 
L 256.008088 186.175569 
L 255.619861 182.716432 
L 255.522805 182.692423 
L 254.940465 180.387867 
L 254.649295 178.149557 
L 254.455181 177.969566 
L 254.261068 176.763269 
L 254.066955 176.514102 
L 253.775785 176.169117 
L 253.484615 173.837927 
L 253.193445 173.304846 
L 253.096388 171.884614 
L 252.902275 171.641607 
L 252.708161 170.772319 
L 252.611105 170.770217 
L 252.514048 170.593238 
L 252.222878 169.667694 
L 252.125821 169.629308 
L 251.834651 168.830484 
L 251.737595 168.7186 
L 251.543481 168.092107 
L 251.155255 167.966984 
L 251.058198 167.741927 
L 250.864085 167.62301 
L 250.669971 166.831187 
L 250.475858 166.78458 
L 250.281745 166.511296 
L 249.699405 165.295235 
L 249.505291 164.426881 
L 249.117065 163.69086 
L 248.922951 163.478417 
L 248.728838 162.457838 
L 247.661215 159.408 
L 247.175932 158.713983 
L 246.981818 157.38071 
L 246.399478 156.958609 
L 246.011252 156.464327 
L 245.817138 156.44089 
L 245.720082 156.248377 
L 245.428912 155.57483 
L 245.331855 155.424881 
L 244.943628 154.587782 
L 244.749515 154.374678 
L 244.555402 154.207363 
L 244.361288 153.80352 
L 244.264232 153.552978 
L 244.070118 153.524909 
L 243.778948 152.764981 
L 243.584835 152.203855 
L 243.293665 152.109752 
L 243.099552 151.786202 
L 242.905438 151.361926 
L 242.711325 150.983778 
L 242.517212 150.252435 
L 241.934872 149.340306 
L 241.352532 149.234438 
L 240.479022 146.447225 
L 240.284908 146.406865 
L 240.090795 145.719673 
L 239.896682 145.242947 
L 239.605512 144.630256 
L 239.120228 144.576 
L 238.926115 143.864595 
L 238.732002 143.59514 
L 238.634945 143.23442 
L 238.343775 143.05142 
L 238.052605 142.58227 
L 237.470265 142.380973 
L 237.373208 142.299274 
L 237.179095 141.845977 
L 236.111472 139.854972 
L 236.014415 139.82827 
L 235.917358 139.500973 
L 235.723245 138.169263 
L 235.335018 137.993915 
L 235.237962 137.841856 
L 235.043848 137.100487 
L 234.752678 136.446224 
L 234.655622 136.163103 
L 234.170338 135.946347 
L 233.976225 135.628969 
L 233.490942 135.408193 
L 232.811545 134.600887 
L 232.520375 134.240874 
L 231.743922 133.377687 
L 231.452752 132.603224 
L 231.258638 132.330312 
L 231.064525 132.260012 
L 230.870412 131.711197 
L 230.385128 131.668957 
L 229.802788 131.10515 
L 229.414562 130.608 
L 229.317505 130.570621 
L 229.123392 130.354894 
L 228.346938 130.122332 
L 228.152825 130.117063 
L 228.055768 129.936372 
L 227.861655 129.930846 
L 227.764598 129.749287 
L 227.570485 129.743502 
L 226.891088 129.108654 
L 226.502862 128.876722 
L 226.405805 128.617337 
L 226.308748 127.766764 
L 225.920522 127.303155 
L 225.629352 127.17711 
L 225.532295 126.984898 
L 224.949955 126.804865 
L 224.367615 126.62305 
L 223.397049 126.571498 
L 222.620595 125.911704 
L 222.038255 125.799511 
L 221.844142 125.318258 
L 221.747085 125.27282 
L 221.552972 124.866017 
L 220.776519 124.813778 
L 220.582405 124.561346 
L 220.097122 124.487325 
L 219.903009 124.071051 
L 219.805952 123.130027 
L 219.611839 123.114262 
L 219.514782 122.819469 
L 219.320669 122.8032 
L 218.835385 122.638416 
L 218.058932 121.651868 
L 217.476592 121.51249 
L 216.797195 121.064035 
L 216.700139 120.926118 
L 216.506025 120.906557 
L 216.311912 120.715087 
L 215.923685 120.415889 
L 215.632515 120.341756 
L 215.535459 120.114018 
L 214.661949 119.97504 
L 214.467835 119.689565 
L 213.788439 119.301818 
L 213.206099 119.144284 
L 212.720815 118.228645 
L 212.332589 117.905778 
L 212.041419 117.27068 
L 211.847305 116.781382 
L 211.459079 116.726895 
L 211.264965 116.231736 
L 211.167909 116.170661 
L 210.973795 115.670557 
L 210.585569 115.421819 
L 210.391455 115.010036 
L 210.197342 114.97945 
L 210.100285 114.820085 
L 209.420889 114.56603 
L 209.129719 114.372812 
L 208.644435 114.243728 
L 208.062095 113.058687 
L 207.770925 113.056525 
L 207.673869 112.689271 
L 207.479755 112.65384 
L 207.382699 112.283861 
L 206.606245 112.03647 
L 206.315075 112.032 
L 206.120962 111.790529 
L 205.732735 111.612564 
L 205.441565 111.297366 
L 205.150395 110.875614 
L 204.956282 110.836068 
L 204.859225 110.554818 
L 204.568055 110.546888 
L 204.373942 110.401311 
L 204.179829 110.043616 
L 203.597489 109.812317 
L 203.500432 109.737931 
L 203.403375 109.44929 
L 203.015149 109.255773 
L 202.918092 108.964174 
L 202.238695 108.755118 
L 201.656355 108.730298 
L 201.268129 108.310062 
L 200.976959 107.964213 
L 200.491675 107.456076 
L 200.200506 107.328 
L 200.006392 106.941237 
L 199.909336 106.860101 
L 199.132882 106.661688 
L 198.550542 105.934829 
L 197.774089 105.842917 
L 197.385862 105.738055 
L 197.094692 105.365228 
L 196.512352 105.08521 
L 195.832956 103.872726 
L 195.347672 103.42469 
L 194.862389 103.338803 
L 194.765332 103.002483 
L 194.474162 102.85087 
L 194.377106 102.635214 
L 194.280049 102.045526 
L 194.085936 101.983236 
L 193.794766 101.575471 
L 193.697709 101.480727 
L 193.309482 101.35272 
L 193.018312 100.810569 
L 191.174236 100.630385 
L 190.980122 100.302545 
L 190.300726 100.260024 
L 189.815442 99.889624 
L 189.524272 99.851202 
L 189.330159 99.113648 
L 189.038989 98.938349 
L 188.844876 98.595692 
L 187.680196 98.424 
L 187.389026 98.243122 
L 186.321402 98.033577 
L 185.642006 97.693933 
L 185.447892 97.334154 
L 185.156722 97.144726 
L 184.865552 96.95394 
L 184.089099 96.917827 
L 183.603816 96.642419 
L 181.468569 96.460344 
L 179.624492 96.173714 
L 178.168642 96.052417 
L 178.071586 95.931871 
L 177.974529 95.503285 
L 177.683359 95.44596 
L 177.101019 95.018467 
L 176.906906 94.613066 
L 176.518679 94.584264 
L 176.227509 94.364596 
L 176.130453 93.760405 
L 175.742226 93.567491 
L 174.092263 93.464265 
L 173.898149 93.365212 
L 173.218753 93.262629 
L 173.121696 93.129733 
L 172.442299 93.024474 
L 170.112939 92.79827 
L 169.821769 92.726237 
L 169.627656 92.2752 
L 169.142373 92.092932 
L 168.948259 91.283349 
L 168.657089 91.027931 
L 168.365919 90.948 
L 167.686523 90.100256 
L 167.298296 89.866676 
L 167.104183 88.83456 
L 166.910069 88.344 
L 166.424786 88.128 
L 165.939503 87.533217 
L 165.357163 87.339679 
L 165.065993 87.05097 
L 164.871879 86.344258 
L 164.095426 86.004201 
L 163.513086 85.003932 
L 163.221916 84.894125 
L 162.639576 83.86582 
L 161.863123 83.691243 
L 161.571953 83.368039 
L 161.280783 83.248545 
L 161.086669 82.475189 
L 160.989613 82.294516 
L 159.339649 82.143135 
L 158.854366 81.857032 
L 157.786743 81.300897 
L 157.495573 80.945778 
L 155.748553 80.78718 
L 155.457383 80.646691 
L 154.972099 80.562261 
L 154.875043 79.672615 
L 154.583873 79.525082 
L 153.807419 79.516082 
L 151.866286 79.132405 
L 151.76923 78.919706 
L 150.992776 78.660041 
L 150.798663 78.471529 
L 150.216323 78.394454 
L 149.925153 78.231093 
L 147.498736 78.189444 
L 147.40168 77.960883 
L 146.52817 77.439769 
L 146.334056 76.970177 
L 145.460546 76.692706 
L 144.975263 76.294724 
L 140.607713 76.198198 
L 139.54009 75.353806 
L 138.860693 75.261913 
L 138.763636 74.991433 
L 138.278353 74.835692 
L 137.307786 74.824569 
L 137.21073 74.236235 
L 137.016616 73.98319 
L 135.075483 73.287825 
L 133.328463 73.153727 
L 132.746123 72.994909 
L 131.872613 72.9216 
L 131.484386 72.003583 
L 130.80499 71.854866 
L 130.707933 71.530464 
L 130.22265 71.316517 
L 128.18446 70.819343 
L 127.990347 70.5024 
L 125.758043 70.397217 
L 123.428683 69.902015 
L 122.9434 69.636487 
L 122.166947 69.453929 
L 121.293437 68.42681 
L 120.32287 68.272941 
L 107.608447 67.952432 
L 107.51139 67.373217 
L 105.4732 66.89113 
L 104.01735 66.106537 
L 103.14384 65.740075 
L 102.464444 65.273806 
L 95.088137 65.138087 
L 94.11757 64.614575 
L 91.691154 63.648 
L 86.353037 62.594866 
L 84.120734 62.365091 
L 83.829564 60.414792 
L 81.59726 59.468488 
L 80.238467 57.178746 
L 78.685561 53.568 
L 78.685561 53.568 
" clip-path="url(#p3f9c727e4e)" style="fill: none; stroke: #1f77b4; stroke-width: 1.5; stroke-linecap: square"/>
   </g>
   <g id="line2d_14">
    <path d="M 287.260334 258.92817 
L 287.066221 257.715401 
L 286.775051 255.744647 
L 286.580938 254.627417 
L 286.192711 253.501726 
L 285.707428 251.82078 
L 285.513314 251.730534 
L 285.319201 250.157905 
L 285.125088 249.707416 
L 284.833918 249.325086 
L 284.639804 248.349735 
L 284.445691 248.052706 
L 284.251578 247.716567 
L 283.960408 246.761905 
L 283.378068 246.036639 
L 282.989841 244.306221 
L 282.310444 242.544122 
L 282.116331 242.523266 
L 281.825161 242.101679 
L 281.631048 240.966872 
L 281.533991 240.779261 
L 281.242821 239.610023 
L 281.048708 239.163115 
L 280.660481 237.31473 
L 280.466368 236.786418 
L 280.272254 236.151764 
L 280.078141 235.780683 
L 279.786971 235.242226 
L 279.301688 234.329099 
L 278.525234 232.900993 
L 278.428178 232.42006 
L 277.845838 232.216152 
L 277.554668 230.718857 
L 277.069384 229.82624 
L 276.875271 229.409316 
L 276.584101 229.279317 
L 275.710591 227.745189 
L 275.516478 227.63677 
L 274.642968 224.601089 
L 274.448854 224.468452 
L 274.060628 223.863293 
L 273.769458 223.833766 
L 273.187118 222.133456 
L 272.993004 221.987876 
L 272.701834 220.188884 
L 272.604778 220.099662 
L 272.313608 218.69098 
L 272.119494 218.407127 
L 271.731268 218.050813 
L 271.440098 217.884546 
L 271.148928 217.741658 
L 270.857758 217.597818 
L 270.663645 216.10066 
L 270.372475 215.440941 
L 269.984248 214.460436 
L 269.887191 214.366088 
L 269.693078 213.397104 
L 269.498965 213.14616 
L 269.304851 212.612191 
L 269.207795 212.61105 
L 269.013681 212.225785 
L 268.528398 211.759304 
L 268.334285 211.727171 
L 268.140171 211.213798 
L 267.849001 211.149304 
L 267.654888 210.641804 
L 266.878435 208.143858 
L 266.781378 208.076702 
L 266.490208 206.773572 
L 266.199038 206.6944 
L 265.907868 206.581838 
L 265.713755 206.340593 
L 265.325528 205.140061 
L 265.131415 205.077625 
L 264.937301 204.928973 
L 264.646131 203.812071 
L 264.452018 203.604248 
L 263.966735 202.671455 
L 263.772621 200.914001 
L 263.481451 200.508759 
L 263.287338 200.472338 
L 262.996168 199.751537 
L 262.802055 199.596664 
L 262.607941 198.789603 
L 262.316771 198.500254 
L 262.219715 198.490124 
L 261.831488 197.352075 
L 261.637375 197.350642 
L 260.957978 195.931594 
L 260.860921 195.363464 
L 260.569751 195.325728 
L 260.181525 194.49074 
L 260.084468 193.880541 
L 259.793298 193.794556 
L 259.502128 192.047464 
L 259.308015 191.621651 
L 259.210958 191.605986 
L 258.337448 190.394325 
L 258.143335 188.350388 
L 257.172768 186.160995 
L 257.075711 186.0618 
L 256.784541 184.937891 
L 256.396315 184.662009 
L 256.202201 184.074353 
L 255.522805 183.279318 
L 255.328691 182.163752 
L 254.843408 180.916949 
L 254.649295 180.455596 
L 254.455181 180.226065 
L 254.358125 179.992312 
L 254.066955 178.313915 
L 253.775785 178.166608 
L 253.678728 177.458047 
L 253.484615 177.21174 
L 253.193445 177.027968 
L 252.999331 176.208 
L 252.902275 176.113194 
L 252.611105 176.019732 
L 252.416991 175.214344 
L 252.125821 174.692392 
L 251.931708 174.528 
L 251.640538 172.820566 
L 251.349368 171.823472 
L 250.961141 170.59295 
L 250.669971 170.409044 
L 250.475858 170.404364 
L 250.281745 168.668346 
L 250.184688 168.518433 
L 249.990575 167.549538 
L 249.893518 167.470824 
L 249.699405 166.558871 
L 249.505291 166.092255 
L 249.408235 166.048994 
L 249.214121 165.306511 
L 248.728838 164.888887 
L 248.534725 164.40552 
L 248.243555 163.270774 
L 247.758272 162.465404 
L 247.564158 161.917118 
L 247.272988 161.852439 
L 246.884762 161.280358 
L 246.302422 161.020737 
L 245.525968 159.585656 
L 245.234798 158.379297 
L 245.137742 158.324878 
L 244.943628 157.415821 
L 244.458345 157.000419 
L 244.264232 156.387961 
L 243.973062 155.894267 
L 243.778948 155.73151 
L 243.584835 155.336268 
L 243.293665 155.065021 
L 242.711325 154.469307 
L 242.420155 152.606313 
L 242.128985 151.482068 
L 241.934872 151.351282 
L 241.643702 151.154087 
L 241.352532 150.049505 
L 241.158418 149.710272 
L 240.673135 149.572042 
L 240.479022 149.382956 
L 240.187852 148.916462 
L 239.896682 147.446112 
L 239.799625 147.054846 
L 239.605512 146.96199 
L 239.120228 146.216348 
L 238.926115 145.412902 
L 238.440832 145.196308 
L 238.052605 144.499937 
L 237.955548 144.477767 
L 237.761435 143.251458 
L 237.373208 143.044021 
L 237.082038 142.629458 
L 236.984982 142.547977 
L 236.693812 141.954808 
L 236.596755 141.93015 
L 236.111472 140.925432 
L 235.917358 140.814799 
L 235.820302 140.551515 
L 235.529132 139.271442 
L 235.237962 138.763045 
L 235.043848 137.846133 
L 234.849735 137.726491 
L 234.267395 137.614427 
L 233.976225 136.520258 
L 233.879168 136.489961 
L 232.811545 134.273614 
L 232.132148 134.043025 
L 231.938035 133.445368 
L 231.840978 133.278049 
L 231.452752 133.208743 
L 231.355695 132.770984 
L 230.870412 132.461528 
L 230.773355 131.331626 
L 230.288072 131.08031 
L 229.996902 130.900567 
L 229.802788 130.826653 
L 229.608675 130.472445 
L 229.220448 130.322149 
L 229.026335 129.892932 
L 228.735165 129.564356 
L 228.443995 129.089658 
L 228.249882 127.923908 
L 228.055768 127.622987 
L 227.861655 127.540913 
L 227.667542 127.089581 
L 226.794032 126.935427 
L 226.405805 126.014631 
L 226.211692 126.003663 
L 226.017578 125.613141 
L 225.629352 125.51366 
L 224.270558 124.266082 
L 224.173502 123.906462 
L 223.785275 123.878083 
L 223.688219 123.594544 
L 223.105879 123.391349 
L 223.008822 123.344 
L 222.911765 123.056854 
L 222.620595 122.913147 
L 222.232369 122.072304 
L 222.038255 122.055211 
L 221.844142 121.793085 
L 221.067689 121.39282 
L 220.970632 121.176821 
L 220.291235 120.819445 
L 219.903009 120.27645 
L 219.611839 120.034673 
L 217.767762 119.362639 
L 217.670705 118.961442 
L 217.476592 118.938888 
L 216.311912 118.184675 
L 215.826629 118.168882 
L 215.341345 117.526668 
L 215.147232 117.50138 
L 215.050175 117.353587 
L 214.759005 117.179452 
L 214.661949 116.848855 
L 213.982552 116.251222 
L 212.235532 115.154534 
L 211.750249 114.366651 
L 211.264965 114.24 
L 210.100285 112.680853 
L 209.809115 112.677903 
L 209.712059 112.512311 
L 209.129719 112.406306 
L 207.965039 111.788308 
L 207.867982 111.516899 
L 207.479755 111.136124 
L 207.091529 110.442786 
L 205.926849 110.09773 
L 205.538622 110.016 
L 205.344509 109.659429 
L 203.985715 109.256817 
L 202.626922 107.53259 
L 202.044582 107.169603 
L 201.753412 106.483519 
L 201.171072 106.447476 
L 200.879902 106.316387 
L 200.782845 105.894615 
L 200.006392 105.804043 
L 199.715222 105.669343 
L 199.326996 105.102997 
L 198.647599 104.974148 
L 198.259372 104.39654 
L 197.968202 104.254576 
L 197.482919 104.055652 
L 197.288806 103.041321 
L 195.541786 102.8736 
L 194.765332 102.01411 
L 194.377106 101.389395 
L 194.280049 100.917216 
L 194.085936 100.852364 
L 193.891822 100.024225 
L 193.115369 100.01155 
L 192.921256 99.556752 
L 191.465406 98.175052 
L 190.786009 97.851661 
L 190.203669 97.222737 
L 190.106612 96.708741 
L 189.621329 96.58341 
L 189.524272 96.338387 
L 188.844876 96.269654 
L 188.747819 95.882927 
L 188.456649 95.832151 
L 188.359592 95.582118 
L 187.291969 95.343287 
L 186.321402 94.926283 
L 184.574382 94.884279 
L 184.477326 94.329138 
L 184.186156 94.124135 
L 184.089099 93.858418 
L 183.021476 93.288892 
L 181.662682 93.098602 
L 181.565626 92.975783 
L 181.177399 92.941808 
L 180.886229 92.569551 
L 180.789172 92.134957 
L 180.206832 91.37382 
L 179.915662 90.353353 
L 178.653926 89.760756 
L 177.003962 89.759232 
L 176.518679 89.24194 
L 176.227509 88.994796 
L 175.353999 88.917943 
L 174.965773 88.695022 
L 173.704036 88.558923 
L 173.606979 87.897215 
L 172.442299 87.894486 
L 172.054073 87.658594 
L 171.083506 87.594484 
L 170.986449 87.266229 
L 170.404109 87.080727 
L 169.433543 85.72462 
L 168.462976 85.637466 
L 168.074749 85.188698 
L 167.589466 84.952216 
L 167.492409 84.600195 
L 166.618899 84.277479 
L 166.230673 83.418166 
L 166.133616 83.054094 
L 162.833689 82.996966 
L 161.474896 82.570105 
L 161.377839 82.182194 
L 160.504329 81.380408 
L 160.213159 81.037004 
L 159.630819 80.771855 
L 157.883799 80.613415 
L 157.689686 80.004619 
L 157.301459 79.890902 
L 157.204403 79.694355 
L 156.427949 79.687245 
L 156.136779 79.315018 
L 155.651496 79.222295 
L 155.457383 79.046809 
L 155.069156 78.924321 
L 154.972099 78.719383 
L 153.128023 78.291692 
L 152.739796 76.9536 
L 151.963343 76.426583 
L 151.283946 76.359555 
L 150.992776 75.434911 
L 150.410436 75.078208 
L 150.31338 74.848 
L 149.536926 74.530623 
L 148.85753 73.91909 
L 148.081076 73.848719 
L 147.886963 73.631077 
L 147.498736 73.45985 
L 147.207566 72.992234 
L 145.36349 72.897438 
L 144.878206 72.739019 
L 144.684093 72.506182 
L 144.587036 71.964958 
L 144.392923 71.727389 
L 144.101753 70.936615 
L 143.422356 70.803233 
L 143.228243 70.55588 
L 142.354733 70.460964 
L 141.86945 70.274295 
L 141.772393 69.996655 
L 139.83126 69.828741 
L 139.734203 69.54071 
L 139.345976 69.316255 
L 138.472466 69.197663 
L 136.240163 69.062148 
L 135.17254 68.643134 
L 134.784313 68.394188 
L 133.910803 68.252067 
L 133.71669 67.950439 
L 128.7668 67.656519 
L 127.116837 67.285113 
L 127.01978 66.91531 
L 124.10808 66.811796 
L 123.81691 66.464471 
L 123.040457 66.229234 
L 120.225813 66.048 
L 119.837587 65.68824 
L 116.731773 65.533935 
L 115.761207 65.290996 
L 115.08181 64.958852 
L 114.596527 64.038342 
L 94.40874 63.419946 
L 92.95289 63.00878 
L 92.467607 62.077749 
L 89.555907 60.811114 
L 86.644207 58.944 
L 82.76194 58.715234 
L 82.664884 56.197565 
L 80.917864 53.568 
L 80.917864 53.568 
" clip-path="url(#p3f9c727e4e)" style="fill: none; stroke: #ff7f0e; stroke-width: 1.5; stroke-linecap: square"/>
   </g>
   <g id="line2d_15">
    <path d="M 294.539584 273.841424 
L 294.442528 273.725923 
L 293.860188 271.253239 
L 293.666074 269.553278 
L 293.374904 268.778558 
L 293.083734 268.60271 
L 292.598451 268.177188 
L 292.501394 268.167411 
L 292.210224 267.139476 
L 292.113168 266.948445 
L 291.821998 265.635117 
L 291.530828 265.402251 
L 291.433771 264.558219 
L 291.045544 264.291402 
L 290.560261 263.234889 
L 290.463204 263.214649 
L 290.074978 262.134178 
L 289.686751 260.727044 
L 289.201468 259.110655 
L 289.104411 259.023266 
L 288.910298 258.680947 
L 288.522071 258.52916 
L 288.425014 258.345779 
L 288.230901 257.387239 
L 288.133844 257.380034 
L 288.036788 256.438966 
L 287.842674 256.394295 
L 287.745618 256.065325 
L 287.260334 255.329317 
L 287.163278 254.853722 
L 286.969164 254.622129 
L 286.775051 254.615331 
L 286.580938 254.326109 
L 286.483881 254.312927 
L 286.289768 252.79853 
L 286.095654 252.223707 
L 285.901541 251.967895 
L 285.610371 251.214794 
L 285.513314 251.205371 
L 285.222144 250.808804 
L 285.125088 250.719227 
L 284.833918 249.618989 
L 284.057464 249.202449 
L 283.669238 248.167721 
L 283.475124 248.130088 
L 282.989841 247.715838 
L 282.892784 247.694211 
L 282.795728 247.447624 
L 282.601614 246.594838 
L 282.116331 245.356644 
L 281.922218 244.979043 
L 281.825161 244.968164 
L 281.533991 243.79466 
L 281.145764 243.606361 
L 280.854594 242.208149 
L 280.757538 242.084248 
L 280.369311 241.907051 
L 279.981084 240.806923 
L 279.786971 240.477901 
L 279.495801 239.615686 
L 279.398744 239.538387 
L 279.107574 238.28724 
L 278.719348 238.28671 
L 278.428178 238.09802 
L 278.331121 237.445932 
L 278.039951 237.015894 
L 277.845838 236.337617 
L 277.554668 236.152866 
L 277.360554 235.861032 
L 276.875271 233.014646 
L 276.778214 232.796871 
L 276.584101 232.150379 
L 276.389988 232.107754 
L 276.098818 231.694342 
L 275.904704 231.504585 
L 275.807648 230.969799 
L 275.613534 230.857869 
L 275.225308 230.082919 
L 275.128251 229.986423 
L 274.642968 228.980894 
L 274.448854 227.444914 
L 274.254741 227.222791 
L 273.963571 226.137376 
L 273.284174 225.830497 
L 273.187118 225.005209 
L 272.701834 224.745303 
L 272.604778 224.597721 
L 272.410664 224.514625 
L 272.022438 222.71242 
L 271.828325 222.482556 
L 271.440098 221.686813 
L 271.343041 221.523577 
L 271.148928 221.46281 
L 270.954815 221.008764 
L 270.372475 218.194216 
L 270.178361 217.792467 
L 269.498965 217.291636 
L 269.401908 216.952669 
L 269.207795 214.994618 
L 268.431341 214.008141 
L 268.043115 212.568863 
L 267.654888 212.407305 
L 267.557831 212.26285 
L 267.363718 210.947432 
L 267.266661 210.915721 
L 267.072548 210.373542 
L 266.781378 210.18524 
L 266.490208 209.736 
L 266.199038 208.938282 
L 266.101981 208.93508 
L 266.004925 208.728065 
L 265.713755 207.827472 
L 265.519641 207.269388 
L 265.228471 206.31674 
L 264.743188 205.380702 
L 264.452018 205.313227 
L 264.063791 204.843152 
L 263.772621 204.65196 
L 263.675565 204.541331 
L 263.578508 203.723623 
L 263.093225 203.58385 
L 262.899111 203.445 
L 262.802055 203.366302 
L 262.510885 202.764719 
L 262.413828 202.647676 
L 262.025601 200.397207 
L 261.443261 198.909859 
L 261.346205 198.880013 
L 260.957978 196.899592 
L 260.860921 196.804715 
L 260.666808 196.277092 
L 260.569751 196.265216 
L 260.375638 195.943954 
L 260.181525 195.855568 
L 259.793298 195.159273 
L 259.696241 195.124742 
L 259.308015 193.769822 
L 259.113901 193.674667 
L 258.628618 191.535014 
L 258.531561 191.51922 
L 258.434505 191.362216 
L 258.240391 190.209026 
L 258.046278 189.689806 
L 257.852165 189.654977 
L 257.658051 189.301098 
L 257.463938 189.142126 
L 257.366881 188.602318 
L 257.172768 188.339845 
L 257.075711 188.018598 
L 256.687485 187.790155 
L 256.590428 187.207667 
L 256.396315 187.1424 
L 256.202201 186.583429 
L 256.105145 186.406185 
L 255.911031 186.365153 
L 255.716918 185.901807 
L 255.522805 185.886296 
L 255.328691 185.256421 
L 255.231635 184.476834 
L 254.940465 183.97053 
L 254.552238 182.648561 
L 254.066955 182.242363 
L 253.969898 181.844993 
L 253.581671 181.367817 
L 252.999331 180.507485 
L 252.514048 178.530353 
L 252.319935 178.040566 
L 252.222878 177.980347 
L 251.349368 174.857771 
L 251.252311 174.825037 
L 250.961141 174.395296 
L 250.767028 173.994843 
L 250.572915 173.624564 
L 250.281745 171.597701 
L 250.087631 171.419454 
L 249.893518 170.710383 
L 249.311178 169.256727 
L 249.214121 169.21722 
L 249.020008 167.919902 
L 248.825895 167.537938 
L 248.631781 166.773696 
L 248.049442 164.612051 
L 247.758272 163.718809 
L 247.661215 163.712234 
L 247.564158 163.585228 
L 247.078875 162.208 
L 246.884762 161.113121 
L 246.787705 160.97897 
L 246.399478 159.627684 
L 246.302422 159.57531 
L 246.108308 159.168 
L 245.623025 158.639678 
L 245.331855 158.257618 
L 245.137742 156.900269 
L 244.846572 156.820778 
L 243.681892 155.07009 
L 243.293665 154.971593 
L 243.099552 154.570004 
L 242.905438 153.498566 
L 242.808382 153.484386 
L 242.614268 153.263903 
L 242.420155 153.235109 
L 242.128985 152.023814 
L 242.031928 151.069343 
L 241.837815 150.787406 
L 241.352532 149.948119 
L 241.061362 149.488644 
L 240.381965 148.068 
L 239.896682 147.710378 
L 239.799625 147.691215 
L 239.217285 145.803294 
L 238.926115 145.193654 
L 238.829058 145.172211 
L 238.634945 144.687648 
L 238.246718 144.321464 
L 237.955548 143.9744 
L 237.082038 143.712752 
L 236.790868 143.188157 
L 236.596755 143.083853 
L 236.305585 142.494392 
L 236.014415 141.722949 
L 235.820302 140.966576 
L 235.335018 140.241228 
L 235.140905 139.343907 
L 234.946792 139.228389 
L 234.752678 139.112421 
L 234.461508 138.600226 
L 234.364452 138.572047 
L 233.976225 137.401663 
L 233.393885 136.337748 
L 233.199772 136.276521 
L 232.908602 135.927887 
L 232.520375 135.867661 
L 232.423318 135.707369 
L 232.229205 135.059946 
L 232.035092 134.930345 
L 231.549808 133.77677 
L 231.064525 133.608446 
L 230.967468 133.373563 
L 230.773355 132.4944 
L 230.676298 132.459343 
L 230.579242 132.219801 
L 230.288072 132.044982 
L 230.093958 131.353487 
L 229.802788 130.966019 
L 229.608675 129.909493 
L 228.832222 128.887638 
L 228.638108 128.664654 
L 228.152825 128.538 
L 228.055768 128.352835 
L 227.861655 127.614349 
L 227.764598 127.426187 
L 227.085202 127.283826 
L 226.988145 127.242182 
L 226.599918 127.223714 
L 226.114635 126.187161 
L 225.338182 125.915876 
L 225.144068 125.445944 
L 224.949955 125.357268 
L 224.755842 124.959623 
L 224.464672 124.669146 
L 224.173502 124.220139 
L 223.882332 122.416126 
L 223.591162 122.029561 
L 223.494105 121.65732 
L 222.911765 121.441574 
L 222.717652 121.260169 
L 222.523539 120.666566 
L 222.329425 120.647376 
L 220.485349 119.577933 
L 220.194179 118.992906 
L 219.708895 118.722925 
L 219.223612 118.709385 
L 219.126555 118.222097 
L 218.835385 118.056247 
L 218.350102 117.161822 
L 217.767762 117.085534 
L 217.476592 116.4672 
L 216.991309 116.35547 
L 216.894252 116.02646 
L 216.603082 115.758545 
L 216.311912 115.397452 
L 214.953119 115.194981 
L 214.856062 114.670222 
L 214.564892 114.391459 
L 213.691382 114.205254 
L 212.429645 113.474428 
L 212.332589 113.121471 
L 212.138475 113.088 
L 212.041419 112.926219 
L 211.750249 112.923836 
L 211.653192 112.761191 
L 211.070852 112.462382 
L 210.488512 111.466736 
L 209.420889 111.412706 
L 209.226775 111.073574 
L 208.547379 110.990769 
L 208.450322 110.920871 
L 208.256209 109.962419 
L 207.965039 109.95335 
L 207.382699 109.416496 
L 207.091529 108.883416 
L 206.509189 108.754719 
L 206.315075 108.500005 
L 206.023905 108.48741 
L 205.732735 107.941349 
L 205.441565 107.712659 
L 205.053339 107.621349 
L 204.956282 107.328 
L 204.470999 107.048 
L 204.373942 106.751109 
L 203.888659 106.686136 
L 203.694545 106.085449 
L 203.209262 105.794259 
L 202.141639 104.893101 
L 200.879902 104.720964 
L 200.006392 104.421171 
L 199.424052 103.436172 
L 199.132882 103.173517 
L 198.841712 103.146667 
L 198.453486 102.792417 
L 198.259372 102.253458 
L 197.774089 102.163945 
L 197.482919 101.525709 
L 196.997636 101.432071 
L 196.609409 101.060554 
L 196.318239 101.027465 
L 195.735899 100.711385 
L 195.541786 100.019134 
L 194.280049 99.903166 
L 194.085936 99.066716 
L 193.406539 99.017703 
L 193.018312 98.747762 
L 191.465406 98.572594 
L 191.077179 98.295449 
L 190.980122 97.791697 
L 190.786009 97.583316 
L 190.494839 96.590709 
L 190.397782 96.483945 
L 190.300726 96.103385 
L 189.524272 96.062938 
L 189.136046 95.487332 
L 188.747819 95.185007 
L 188.553706 94.680809 
L 187.291969 94.489791 
L 186.903742 94.176 
L 186.806686 93.047396 
L 186.224346 92.779346 
L 186.127289 92.513787 
L 185.836119 92.303371 
L 185.739062 92.035221 
L 184.865552 91.690887 
L 183.894986 91.368 
L 183.603816 90.842136 
L 181.759739 90.758137 
L 181.371512 90.558826 
L 181.274456 90.11573 
L 180.692116 89.809297 
L 180.400946 89.414951 
L 179.042152 89.323472 
L 178.945096 89.189291 
L 178.459812 89.166987 
L 178.168642 88.265689 
L 177.877472 88.183252 
L 177.489246 86.788032 
L 177.101019 86.047089 
L 174.480489 85.729605 
L 174.286376 85.607698 
L 174.189319 85.281882 
L 173.898149 85.007392 
L 171.083506 84.518601 
L 168.851203 84.400941 
L 168.074749 84.243108 
L 167.201239 82.757616 
L 166.230673 82.634174 
L 165.842446 82.148316 
L 165.551276 82.029176 
L 165.357163 81.481846 
L 165.065993 81.359186 
L 164.580709 81.288 
L 164.095426 80.396604 
L 158.660253 80.39331 
L 158.563196 79.981714 
L 157.980856 79.701333 
L 157.301459 78.993515 
L 156.913233 78.419321 
L 155.069156 78.227227 
L 154.777986 77.603248 
L 154.195646 77.523082 
L 154.098589 77.311511 
L 153.128023 77.091713 
L 152.545683 76.518 
L 152.35157 76.078493 
L 152.0604 75.907459 
L 151.963343 75.68484 
L 151.47806 75.560727 
L 150.60455 75.535448 
L 150.02221 75.178023 
L 149.828096 74.457242 
L 149.245756 73.823094 
L 148.178133 73.558994 
L 147.98402 73.072982 
L 147.40168 72.674683 
L 146.52817 72.612133 
L 146.042886 71.621731 
L 145.169376 71.544423 
L 144.392923 71.156571 
L 144.295866 70.892194 
L 143.228243 70.848 
L 142.45179 70.438737 
L 142.063563 69.631745 
L 141.675336 68.809609 
L 139.83126 68.583724 
L 139.345976 68.372562 
L 139.054806 68.117035 
L 137.016616 67.90141 
L 136.822503 67.281488 
L 135.948993 67.126938 
L 133.71669 66.90509 
L 132.454953 66.100747 
L 131.6785 65.895134 
L 131.484386 65.567232 
L 128.087403 65.499429 
L 127.699177 65.186799 
L 126.72861 64.987301 
L 122.36106 64.648305 
L 121.972833 64.288925 
L 121.099323 64.024267 
L 119.74053 63.852049 
L 113.723017 63.71849 
L 113.140677 63.313592 
L 112.75245 62.291077 
L 98.096894 61.974486 
L 97.514554 61.248 
L 94.602854 61.230624 
L 89.45885 60.854747 
L 89.264737 59.504687 
L 86.450094 57.233455 
L 82.373714 56.286202 
L 80.820807 53.568 
L 80.820807 53.568 
" clip-path="url(#p3f9c727e4e)" style="fill: none; stroke: #2ca02c; stroke-width: 1.5; stroke-linecap: square"/>
   </g>
   <g id="line2d_16">
    <path d="M 298.130681 279.417486 
L 298.033624 279.39298 
L 297.839511 278.526114 
L 297.645397 278.495904 
L 297.451284 277.834751 
L 297.063057 276.798762 
L 296.966001 276.780496 
L 296.868944 276.624938 
L 296.577774 275.088 
L 296.189547 274.495699 
L 295.995434 274.484591 
L 295.801321 273.454985 
L 294.927811 272.494143 
L 294.733698 271.77117 
L 294.442528 271.351218 
L 293.763131 269.482748 
L 293.471961 269.278456 
L 293.083734 268.987308 
L 292.986678 268.202517 
L 292.501394 267.522594 
L 292.307281 266.914072 
L 291.724941 266.100499 
L 291.530828 265.355472 
L 291.142601 264.779973 
L 290.948488 263.454435 
L 290.754374 262.967177 
L 290.560261 262.870722 
L 290.074978 262.014037 
L 289.977921 261.970777 
L 289.880864 261.740183 
L 289.686751 261.161722 
L 289.395581 260.867876 
L 289.201468 260.829825 
L 289.007354 259.851014 
L 288.716184 259.381024 
L 288.522071 258.66142 
L 288.230901 258.276018 
L 287.648561 257.354789 
L 287.551504 257.030893 
L 287.163278 256.773755 
L 286.969164 256.407794 
L 286.677994 255.925691 
L 286.483881 254.762167 
L 286.289768 254.645575 
L 286.095654 254.137547 
L 285.901541 253.849938 
L 285.416258 252.998023 
L 285.222144 252.803152 
L 284.639804 251.194799 
L 283.863351 250.46608 
L 283.669238 250.15683 
L 283.378068 248.891044 
L 283.086898 248.784963 
L 282.504558 247.769835 
L 281.825161 247.257043 
L 281.631048 246.698369 
L 281.145764 245.609514 
L 280.854594 244.458 
L 280.757538 244.421323 
L 280.369311 242.562559 
L 280.272254 242.511181 
L 280.078141 242.171261 
L 279.884028 242.16614 
L 279.592858 241.393453 
L 279.495801 241.36188 
L 279.301688 241.056643 
L 279.204631 241.036057 
L 279.010518 239.97743 
L 278.913461 239.943399 
L 278.719348 239.564531 
L 278.622291 239.394462 
L 278.525234 238.583106 
L 277.942894 238.394771 
L 277.651724 237.730838 
L 277.457611 237.608178 
L 276.972328 236.570318 
L 276.778214 236.06656 
L 276.584101 234.811943 
L 276.389988 234.650906 
L 276.098818 233.566939 
L 275.807648 233.274021 
L 275.516478 232.022559 
L 275.225308 231.80869 
L 274.934138 231.453989 
L 274.837081 231.370222 
L 274.642968 230.668979 
L 274.545911 230.532072 
L 274.351798 230.162328 
L 274.254741 230.031396 
L 274.060628 229.445793 
L 273.963571 229.434102 
L 273.575344 229.016523 
L 273.284174 228.187932 
L 273.090061 226.334316 
L 272.895948 225.168 
L 272.701834 225.136867 
L 272.507721 224.985403 
L 272.313608 224.984024 
L 272.119494 224.75055 
L 272.022438 223.976616 
L 271.634211 223.585862 
L 271.537155 223.36872 
L 270.954815 223.029731 
L 270.760701 222.76864 
L 270.566588 221.625695 
L 270.469531 221.394286 
L 270.275418 221.310439 
L 269.984248 220.419626 
L 269.790135 220.39014 
L 269.498965 219.979296 
L 269.304851 219.925519 
L 268.722511 216.985195 
L 268.431341 216.218577 
L 268.237228 216.090038 
L 268.140171 215.81637 
L 267.363718 215.317071 
L 266.684321 212.936903 
L 266.296095 212.230909 
L 266.101981 212.08328 
L 265.810811 211.16769 
L 265.422585 210.25686 
L 265.228471 210.251938 
L 265.034358 208.377344 
L 264.937301 208.357859 
L 264.646131 207.606492 
L 264.452018 207.549655 
L 264.257905 207.34556 
L 263.772621 206.092713 
L 263.675565 206.087751 
L 263.578508 205.82855 
L 263.384395 205.630685 
L 263.190281 204.999902 
L 263.093225 204.959503 
L 262.996168 204.779635 
L 262.802055 203.635769 
L 262.316771 202.548605 
L 262.122658 201.397222 
L 262.025601 201.313561 
L 261.928545 200.465511 
L 261.346205 200.141317 
L 260.763865 198.639544 
L 260.375638 196.74724 
L 260.278581 196.735701 
L 260.084468 196.120603 
L 259.599185 195.738995 
L 259.502128 195.251275 
L 259.308015 195.029695 
L 259.113901 194.121608 
L 258.822731 194.080584 
L 258.531561 193.15998 
L 258.434505 193.008748 
L 258.240391 192.543319 
L 257.560995 191.690502 
L 257.172768 190.191484 
L 257.075711 190.15014 
L 256.687485 189.022856 
L 256.493371 188.259211 
L 256.202201 187.334852 
L 255.911031 187.043097 
L 255.813975 186.423321 
L 255.619861 186.355977 
L 255.328691 185.095028 
L 255.134578 184.943342 
L 254.843408 183.615746 
L 254.552238 183.462375 
L 254.358125 182.938925 
L 254.066955 182.384918 
L 253.775785 182.139585 
L 252.611105 178.12781 
L 252.416991 178.100658 
L 252.319935 177.823128 
L 252.028765 177.484514 
L 251.737595 176.95302 
L 251.252311 174.857951 
L 250.767028 173.961365 
L 250.572915 172.261057 
L 250.378801 171.912465 
L 250.184688 171.351135 
L 249.796461 170.494851 
L 249.505291 170.165962 
L 249.311178 169.256727 
L 249.020008 168.254434 
L 248.825895 168.024014 
L 248.534725 166.502218 
L 248.437668 166.344356 
L 248.243555 165.872544 
L 248.049442 165.668448 
L 247.952385 165.663148 
L 247.758272 165.262515 
L 247.564158 164.54249 
L 246.690648 162.053649 
L 246.496535 160.827274 
L 245.914195 159.451159 
L 245.817138 159.3984 
L 245.428912 158.443924 
L 245.331855 158.433611 
L 245.137742 157.214425 
L 244.846572 156.095247 
L 243.778948 155.639231 
L 243.293665 154.924832 
L 243.099552 153.479087 
L 242.808382 153.436492 
L 242.517212 153.05678 
L 242.226042 152.332748 
L 241.934872 152.042112 
L 241.837815 151.632445 
L 241.546645 151.585157 
L 240.964305 150.285407 
L 240.770192 150.25156 
L 240.479022 149.844017 
L 240.284908 149.706974 
L 240.090795 148.534468 
L 239.896682 147.868485 
L 238.246718 145.373538 
L 238.052605 145.330759 
L 237.858492 144.900597 
L 237.761435 144.878756 
L 237.470265 144.085951 
L 237.373208 144.063334 
L 237.179095 142.882543 
L 236.984982 141.970627 
L 236.887925 141.946028 
L 236.499698 141.204164 
L 236.402642 141.061171 
L 236.208528 140.536943 
L 235.529132 140.234256 
L 234.558565 138.258989 
L 233.976225 136.773089 
L 233.685055 135.791711 
L 233.296828 135.667107 
L 233.102715 135.346524 
L 232.811545 135.251461 
L 232.617432 135.057874 
L 232.423318 134.6673 
L 232.132148 134.372639 
L 231.840978 133.278049 
L 231.646865 132.941752 
L 231.452752 132.872901 
L 231.258638 132.465881 
L 230.773355 132.426458 
L 230.579242 131.809408 
L 229.996902 131.039635 
L 229.511618 130.364732 
L 229.317505 130.289432 
L 229.123392 130.001895 
L 228.929278 129.070368 
L 228.832222 128.887638 
L 228.249882 128.650237 
L 227.085202 126.614578 
L 226.988145 126.497402 
L 226.794032 125.885722 
L 226.017578 125.689182 
L 225.726408 125.098801 
L 225.435238 125.041884 
L 225.047012 124.939873 
L 224.561728 124.86958 
L 224.173502 123.827863 
L 223.591162 123.705874 
L 223.299992 123.644458 
L 223.105879 123.62982 
L 222.717652 123.041309 
L 222.523539 122.865066 
L 222.329425 122.849194 
L 221.941199 121.679186 
L 221.747085 120.423385 
L 221.650029 120.371954 
L 221.552972 119.818992 
L 220.776519 119.651764 
L 220.291235 118.790381 
L 219.903009 118.401619 
L 219.805952 118.346968 
L 219.320669 118.245537 
L 219.126555 117.699959 
L 218.835385 117.619654 
L 218.350102 116.896587 
L 217.864819 116.787512 
L 216.991309 115.814284 
L 216.700139 115.089702 
L 216.214855 114.879023 
L 216.020742 114.849468 
L 215.632515 114.141094 
L 215.050175 113.673124 
L 214.953119 113.421913 
L 214.564892 113.167834 
L 213.982552 113.164159 
L 213.497269 112.842208 
L 213.400212 112.392758 
L 213.109042 112.389266 
L 212.914929 112.160998 
L 212.623759 112.156998 
L 212.429645 111.927022 
L 210.973795 111.310759 
L 210.876739 110.943948 
L 210.294399 110.83028 
L 210.197342 110.660594 
L 209.420889 110.100046 
L 209.323832 109.62101 
L 207.965039 109.540592 
L 207.867982 109.260843 
L 206.897415 109.155236 
L 206.703302 108.058187 
L 206.509189 108.013714 
L 205.829792 106.726554 
L 204.762169 106.518643 
L 204.470999 105.951143 
L 204.179829 105.82159 
L 203.694545 105.52969 
L 203.112205 104.814959 
L 202.432809 104.574361 
L 202.238695 104.064459 
L 201.947525 104.040518 
L 201.850469 103.840865 
L 201.656355 103.786051 
L 201.365185 103.297625 
L 200.782845 102.894354 
L 199.618166 102.666155 
L 199.326996 102.519117 
L 198.841712 102.311955 
L 198.550542 101.921873 
L 198.453486 101.468462 
L 198.065259 100.979457 
L 197.288806 100.727089 
L 197.191749 100.2624 
L 196.512352 100.097022 
L 196.221182 99.180973 
L 195.930012 99.142606 
L 193.600652 97.917332 
L 193.212426 97.772651 
L 193.115369 97.670515 
L 193.018312 97.039263 
L 191.853632 96.989538 
L 189.912499 96.631423 
L 189.815442 95.974957 
L 189.621329 95.895635 
L 189.524272 95.37097 
L 189.330159 95.15063 
L 189.136046 94.648755 
L 188.359592 94.59736 
L 188.165479 93.94503 
L 187.486082 92.994562 
L 186.612572 92.666182 
L 186.030232 92.099258 
L 185.933176 91.085952 
L 185.253779 90.978309 
L 185.156722 90.704059 
L 184.671439 90.53797 
L 184.574382 90.260699 
L 182.730306 89.7001 
L 182.439136 89.155317 
L 182.245022 89.052064 
L 181.371512 88.980018 
L 180.303889 88.800897 
L 180.109776 88.37119 
L 179.624492 88.18234 
L 179.333322 87.773118 
L 177.586302 87.767133 
L 177.392189 87.487484 
L 177.101019 87.401597 
L 176.615736 86.179765 
L 176.518679 86.035169 
L 176.130453 84.583385 
L 175.936339 84.45994 
L 175.451056 84.4128 
L 175.353999 84.262357 
L 173.315809 84.091581 
L 173.121696 83.963077 
L 173.024639 83.626612 
L 172.054073 83.336319 
L 169.821769 83.190857 
L 168.657089 83.128755 
L 166.910069 83.032615 
L 165.842446 81.750665 
L 164.774823 81.639849 
L 164.386596 81.137231 
L 164.095426 81.011737 
L 163.804256 80.473772 
L 162.833689 80.108738 
L 162.542519 79.766166 
L 162.445463 79.580903 
L 156.330893 79.260871 
L 155.457383 78.816307 
L 155.360326 78.612013 
L 155.069156 78.46009 
L 154.583873 77.890768 
L 152.35157 77.78691 
L 152.254513 77.328 
L 151.672173 77.242961 
L 151.575116 77.023603 
L 150.60455 76.79232 
L 150.31338 76.369655 
L 149.536926 75.816754 
L 149.43987 75.58639 
L 149.051643 75.431662 
L 148.081076 75.429974 
L 147.498736 75.059092 
L 147.304623 74.044904 
L 146.916396 73.605223 
L 146.139943 73.255694 
L 145.94583 72.753725 
L 145.460546 72.3168 
L 144.78115 72.200727 
L 144.48998 71.704315 
L 144.392923 71.442344 
L 143.519413 71.360826 
L 143.03413 71.185061 
L 142.74296 70.667058 
L 141.675336 70.618213 
L 140.898883 70.195925 
L 140.219486 68.501333 
L 138.278353 68.281663 
L 137.79307 68.062494 
L 137.598956 67.778201 
L 135.75488 67.504307 
L 135.46371 66.888 
L 134.5902 66.72377 
L 132.357896 66.480527 
L 132.066726 66.179943 
L 131.581443 65.914794 
L 131.290273 65.605753 
L 130.610876 65.368976 
L 130.416763 65.031529 
L 127.116837 64.908 
L 126.72861 64.583622 
L 125.758043 64.368 
L 121.390493 63.963 
L 121.002267 63.588355 
L 120.0317 63.322839 
L 118.769963 63.104266 
L 113.04362 62.784 
L 112.558337 62.333217 
L 112.17011 61.276235 
L 97.805724 61.157647 
L 89.264737 60.94361 
L 89.070624 59.578435 
L 86.25598 57.289846 
L 82.1796 56.34869 
L 80.626694 53.568 
L 80.626694 53.568 
" clip-path="url(#p3f9c727e4e)" style="fill: none; stroke: #d62728; stroke-width: 1.5; stroke-linecap: square"/>
   </g>
   <g id="line2d_17">
    <path d="M 334.8181 295.131584 
L 330.838777 295.022606 
L 330.353494 294.982455 
L 328.800587 294.88015 
L 328.41236 294.844658 
L 326.66534 294.721049 
L 325.79183 294.670032 
L 325.112434 294.554553 
L 322.00662 294.255441 
L 320.065487 293.952912 
L 318.803751 293.758923 
L 318.318467 293.685159 
L 317.639071 293.615269 
L 317.347901 293.52212 
L 315.892051 293.294699 
L 315.794994 293.235686 
L 312.883294 292.836259 
L 312.495067 292.567076 
L 311.815671 292.460512 
L 311.524501 292.348646 
L 310.359821 292.221039 
L 310.068651 292.112146 
L 308.612801 291.762078 
L 308.321631 291.663028 
L 308.030461 291.528098 
L 307.254007 291.33397 
L 305.604044 290.711447 
L 305.409931 290.615291 
L 304.924647 290.327115 
L 304.536421 290.170069 
L 304.148194 289.5883 
L 303.371741 289.371725 
L 303.177627 289.030423 
L 302.983514 288.965749 
L 302.692344 288.79936 
L 302.207061 288.592411 
L 302.012947 288.376087 
L 300.654154 287.793419 
L 300.460041 287.552687 
L 299.877701 287.179514 
L 299.586531 287.06804 
L 299.198304 286.987633 
L 298.907134 286.352626 
L 298.713021 286.300361 
L 298.421851 286.010257 
L 298.033624 285.922835 
L 297.548341 285.547795 
L 297.451284 285.529563 
L 297.257171 285.319285 
L 296.868944 284.869489 
L 295.801321 284.095383 
L 295.510151 284.00296 
L 295.316038 283.956931 
L 294.927811 283.626062 
L 294.830754 283.609281 
L 294.636641 283.379226 
L 294.248414 283.213915 
L 293.957244 283.150194 
L 293.763131 282.854549 
L 293.471961 282.580657 
L 293.083734 282.479567 
L 292.113168 281.868002 
L 291.821998 281.547668 
L 291.336714 281.279416 
L 291.045544 280.927126 
L 290.948488 280.54543 
L 290.366148 280.426649 
L 290.172034 280.170867 
L 289.977921 280.093217 
L 289.686751 279.619715 
L 289.492638 279.560704 
L 289.007354 278.544811 
L 288.910298 278.446398 
L 288.813241 278.104292 
L 288.425014 277.829781 
L 288.327958 277.75934 
L 287.939731 276.905336 
L 287.648561 276.71952 
L 287.260334 276.650108 
L 286.872108 276.094464 
L 286.483881 275.269556 
L 286.289768 275.237029 
L 286.095654 274.559241 
L 285.222144 273.958079 
L 285.125088 273.764694 
L 284.930974 273.06509 
L 284.542748 272.855564 
L 284.348634 272.848121 
L 284.154521 272.649251 
L 283.960408 272.200605 
L 282.892784 271.357614 
L 282.795728 271.337503 
L 282.504558 270.633601 
L 282.213388 270.296311 
L 282.019274 269.95319 
L 281.825161 269.815297 
L 281.631048 268.728818 
L 281.533991 268.698411 
L 281.145764 267.584705 
L 280.757538 267.406471 
L 280.272254 266.231471 
L 279.689914 265.610725 
L 279.495801 265.560481 
L 279.301688 264.737796 
L 279.010518 264.210471 
L 277.942894 262.408822 
L 277.554668 261.895113 
L 277.263498 260.759946 
L 276.972328 260.515037 
L 276.778214 259.746128 
L 276.584101 258.768471 
L 276.389988 258.712777 
L 276.098818 257.233104 
L 276.001761 257.196255 
L 275.613534 255.647087 
L 275.225308 253.662971 
L 274.934138 252.871248 
L 274.740024 252.719668 
L 274.545911 252.448551 
L 274.448854 252.398931 
L 274.157684 250.949343 
L 274.060628 250.895348 
L 273.769458 249.543942 
L 273.575344 249.405867 
L 273.090061 248.177869 
L 272.895948 248.029567 
L 272.701834 247.714862 
L 272.604778 247.604347 
L 272.216551 246.039552 
L 271.925381 244.95492 
L 271.828325 244.881273 
L 271.440098 243.787662 
L 271.245985 242.41225 
L 270.954815 242.09894 
L 270.663645 241.216566 
L 270.469531 241.149871 
L 270.081305 241.064075 
L 269.984248 240.817272 
L 269.693078 239.438108 
L 269.401908 238.333726 
L 269.207795 237.747312 
L 268.528398 236.284447 
L 268.334285 236.082574 
L 268.043115 235.271316 
L 267.946058 235.136247 
L 267.751945 234.3733 
L 267.460775 234.131478 
L 266.975491 231.092494 
L 266.684321 230.555535 
L 266.490208 227.985723 
L 266.296095 226.867293 
L 265.616698 225.579559 
L 265.519641 225.563809 
L 265.034358 224.536325 
L 264.937301 224.498361 
L 264.840245 224.269068 
L 264.452018 222.33467 
L 264.160848 222.11882 
L 263.869678 221.637149 
L 263.675565 220.863253 
L 263.481451 220.54956 
L 263.287338 219.810462 
L 263.190281 219.654787 
L 262.996168 216.323782 
L 262.899111 216.151273 
L 262.704998 214.944575 
L 262.510885 214.723363 
L 262.316771 214.023003 
L 262.122658 213.652813 
L 261.928545 213.608685 
L 261.346205 210.861992 
L 261.249148 210.844492 
L 261.152091 210.487891 
L 260.860921 210.278744 
L 260.666808 209.343716 
L 260.375638 208.545173 
L 260.181525 206.913172 
L 260.084468 206.891725 
L 259.890355 206.644966 
L 259.793298 206.572074 
L 259.405071 206.037016 
L 259.210958 205.099268 
L 259.113901 205.040432 
L 258.531561 203.376403 
L 258.337448 202.954817 
L 257.658051 199.871038 
L 256.978655 198.607049 
L 256.881598 198.596702 
L 256.590428 198.296756 
L 256.396315 198.171593 
L 256.008088 197.371354 
L 255.813975 195.795692 
L 255.716918 195.783122 
L 255.619861 195.218879 
L 255.425748 195.192782 
L 255.231635 194.516924 
L 254.940465 193.678636 
L 254.746351 193.534828 
L 254.552238 191.935117 
L 254.358125 191.760199 
L 254.066955 190.695502 
L 253.969898 190.605141 
L 253.678728 189.737172 
L 253.484615 189.701579 
L 253.387558 188.826418 
L 253.096388 188.129461 
L 252.902275 187.935614 
L 252.708161 187.453457 
L 252.611105 187.328621 
L 252.416991 187.288486 
L 252.125821 186.910663 
L 251.737595 185.9968 
L 251.446425 185.823992 
L 251.155255 184.602942 
L 250.961141 183.96893 
L 250.864085 183.860861 
L 250.572915 182.876466 
L 250.281745 182.513286 
L 250.184688 182.02165 
L 249.796461 181.447189 
L 249.602348 181.424704 
L 249.408235 180.108807 
L 249.311178 179.959379 
L 249.020008 179.845627 
L 248.922951 179.448734 
L 248.728838 179.361245 
L 248.340611 178.086607 
L 248.146498 177.131062 
L 248.049442 177.100214 
L 247.952385 176.907541 
L 247.758272 176.421634 
L 247.661215 176.291653 
L 247.467102 174.460349 
L 246.787705 173.466647 
L 246.593592 172.419237 
L 246.399478 172.13447 
L 246.108308 172.02394 
L 245.525968 168.422537 
L 245.137742 167.914412 
L 244.943628 167.600456 
L 244.749515 166.194792 
L 244.652458 166.189731 
L 244.458345 165.8643 
L 244.264232 165.774559 
L 244.167175 165.570742 
L 243.876005 164.672 
L 243.584835 164.247901 
L 243.390722 162.164896 
L 243.293665 162.030711 
L 243.002495 161.964707 
L 242.614268 160.128 
L 242.517212 160.07513 
L 242.323098 159.574369 
L 241.934872 159.403089 
L 241.643702 158.392071 
L 241.449588 158.009935 
L 241.352532 157.999057 
L 241.158418 157.568 
L 240.964305 156.995234 
L 240.867248 156.891356 
L 240.479022 155.771673 
L 239.896682 154.888435 
L 239.702568 154.670125 
L 239.605512 154.368 
L 239.411398 153.221361 
L 239.217285 153.142807 
L 238.926115 152.255866 
L 238.246718 152.096649 
L 238.052605 150.848905 
L 237.955548 150.678542 
L 237.858492 150.25006 
L 237.373208 149.955976 
L 237.082038 149.275481 
L 236.887925 147.965096 
L 236.693812 147.442136 
L 236.499698 146.805228 
L 236.305585 146.600471 
L 235.917358 146.408148 
L 235.820302 146.222018 
L 235.432075 146.138056 
L 235.140905 144.560432 
L 234.752678 143.497337 
L 234.558565 143.450231 
L 234.073282 141.513474 
L 233.976225 141.488 
L 233.685055 140.873239 
L 233.490942 140.338526 
L 233.296828 140.285126 
L 233.102715 139.988306 
L 233.005658 139.961226 
L 232.714488 139.265893 
L 232.326262 139.15426 
L 232.132148 138.53831 
L 231.743922 138.360719 
L 231.549808 137.924874 
L 231.355695 137.866097 
L 231.064525 136.562453 
L 230.288072 136.314514 
L 230.093958 135.466965 
L 229.996902 135.237164 
L 229.802788 135.172355 
L 229.705732 134.274921 
L 229.414562 134.174456 
L 229.123392 133.19366 
L 228.832222 133.089412 
L 228.541052 132.641514 
L 228.443995 132.122777 
L 227.764598 131.869612 
L 227.570485 131.376103 
L 227.279315 131.053125 
L 226.891088 130.5473 
L 226.502862 130.394655 
L 226.405805 130.212798 
L 226.017578 129.98601 
L 225.823465 129.618158 
L 225.629352 129.393672 
L 225.047012 129.154655 
L 224.755842 128.812945 
L 224.561728 127.764 
L 224.173502 127.671574 
L 223.979389 126.982714 
L 223.882332 126.939861 
L 223.202935 125.636321 
L 223.008822 125.001508 
L 222.717652 124.943294 
L 222.426482 124.569901 
L 222.329425 124.207297 
L 221.844142 124.053056 
L 221.650029 122.914623 
L 221.261802 122.231762 
L 221.067689 121.557839 
L 220.582405 121.554077 
L 220.388292 120.703694 
L 220.097122 120.043611 
L 219.805952 119.970547 
L 219.320669 119.876339 
L 218.932442 118.977312 
L 218.835385 118.836739 
L 218.447159 118.531299 
L 217.767762 117.704373 
L 217.379535 117.655157 
L 217.282479 117.421386 
L 216.408969 116.725183 
L 216.117799 116.097651 
L 215.826629 115.554619 
L 215.632515 115.158857 
L 215.147232 114.76172 
L 214.661949 114.266565 
L 214.467835 113.388218 
L 213.885495 113.290422 
L 213.691382 112.780075 
L 212.914929 112.257894 
L 212.623759 111.278415 
L 212.526702 111.210985 
L 211.847305 111.032107 
L 211.362022 110.390462 
L 211.070852 110.282326 
L 210.973795 109.910932 
L 209.129719 109.580348 
L 209.032662 109.097204 
L 208.450322 109.0752 
L 207.285642 108.085183 
L 206.606245 107.343281 
L 206.412132 106.002495 
L 206.315075 105.814939 
L 205.732735 105.117832 
L 205.538622 104.624372 
L 205.150395 104.074105 
L 204.762169 103.968 
L 204.568055 103.463109 
L 204.276885 103.097183 
L 204.179829 102.898456 
L 203.985715 102.268989 
L 203.694545 102.009841 
L 203.209262 101.806703 
L 202.044582 100.62439 
L 201.850469 100.324404 
L 200.976959 99.861333 
L 200.879902 99.648 
L 200.103449 99.511711 
L 199.715222 99.258957 
L 199.424052 99.221868 
L 199.326996 98.880483 
L 198.550542 98.112 
L 198.162316 98.099771 
L 198.065259 97.750069 
L 197.191749 97.369237 
L 196.900579 97.198045 
L 196.415296 96.824177 
L 196.221182 96.621559 
L 195.930012 96.576 
L 195.832956 96.082466 
L 194.765332 95.996061 
L 194.571219 95.787615 
L 194.474162 95.417102 
L 193.988879 95.289497 
L 193.697709 94.430665 
L 193.212426 94.296925 
L 192.047746 93.805207 
L 191.562462 93.666157 
L 191.271292 93.470609 
L 190.591896 93.10291 
L 190.494839 92.84839 
L 189.330159 92.609353 
L 188.068422 92.537294 
L 187.777252 92.330575 
L 187.486082 92.268258 
L 185.836119 92.155385 
L 185.739062 91.886715 
L 185.350836 91.700551 
L 184.477326 90.745016 
L 184.283212 90.648 
L 183.894986 89.529081 
L 183.215589 89.252115 
L 181.759739 89.188123 
L 181.177399 88.715573 
L 180.789172 88.503652 
L 180.012719 87.585031 
L 179.624492 87.528379 
L 179.430379 87.253063 
L 177.877472 87.016746 
L 177.683359 86.397208 
L 177.295132 85.99432 
L 176.906906 85.758171 
L 176.033396 85.30503 
L 175.936339 84.634777 
L 173.315809 83.730528 
L 173.218753 83.575186 
L 173.121696 82.872742 
L 172.830526 82.765241 
L 172.733469 82.606756 
L 172.054073 82.5984 
L 171.957016 82.438244 
L 171.568789 82.352882 
L 171.180563 81.514667 
L 170.501166 81.498373 
L 170.404109 81.142141 
L 170.209996 81 
L 168.462976 80.863796 
L 168.268863 80.128293 
L 167.783579 79.853967 
L 167.686523 79.679292 
L 164.968936 79.553703 
L 164.677766 79.215679 
L 164.580709 78.825931 
L 164.192483 78.505803 
L 163.998369 77.923934 
L 163.416029 76.788529 
L 162.154293 76.653805 
L 161.474896 76.156916 
L 159.339649 75.764784 
L 155.554439 75.750524 
L 155.263269 75.584555 
L 155.166213 75.369694 
L 154.486816 75.054316 
L 154.389759 74.835692 
L 154.001533 74.685878 
L 153.904476 74.464744 
L 153.516249 74.311697 
L 153.322136 73.615122 
L 152.254513 73.613585 
L 152.157456 73.131007 
L 147.98402 73.072982 
L 147.886963 72.828217 
L 147.304623 72.697927 
L 147.207566 72.449561 
L 146.916396 72.245647 
L 146.81934 71.994339 
L 145.07232 71.849108 
L 144.878206 71.329215 
L 144.19881 71.201555 
L 143.422356 70.803233 
L 143.228243 70.55588 
L 142.840016 70.350408 
L 142.74296 70.076976 
L 142.354733 69.866441 
L 142.257676 69.589192 
L 141.86945 69.37344 
L 140.99594 69.260108 
L 140.510656 68.749883 
L 140.12243 68.521846 
L 140.025373 68.229818 
L 138.95775 68.137412 
L 138.860693 67.838562 
L 138.472466 67.274516 
L 137.404843 67.162928 
L 136.822503 66.94931 
L 136.33722 66.375529 
L 135.17254 66.262453 
L 134.88137 65.974154 
L 134.201973 64.699288 
L 134.00786 64.021333 
L 132.163783 63.59977 
L 131.6785 63.30713 
L 131.484386 62.962951 
L 129.93148 62.82617 
L 129.737366 62.468067 
L 126.631553 62.146723 
L 125.758043 61.864895 
L 125.27276 61.514277 
L 122.749287 61.461743 
L 122.264003 61.083961 
L 117.70234 60.835983 
L 117.314113 60.390039 
L 116.343547 60.0192 
L 113.431847 59.919122 
L 111.199543 59.692557 
L 109.452523 59.358638 
L 109.064297 58.144865 
L 95.767534 57.775304 
L 87.323604 56.999489 
L 85.0913 53.568 
L 85.0913 53.568 
" clip-path="url(#p3f9c727e4e)" style="fill: none; stroke: #9467bd; stroke-width: 1.5; stroke-linecap: square"/>
   </g>
   <g id="patch_3">
    <path d="M 57.6 307.584 
L 57.6 41.472 
" style="fill: none; stroke: #000000; stroke-width: 0.8; stroke-linejoin: miter; stroke-linecap: square"/>
   </g>
   <g id="patch_4">
    <path d="M 414.72 307.584 
L 414.72 41.472 
" style="fill: none; stroke: #000000; stroke-width: 0.8; stroke-linejoin: miter; stroke-linecap: square"/>
   </g>
   <g id="patch_5">
    <path d="M 57.6 307.584 
L 414.72 307.584 
" style="fill: none; stroke: #000000; stroke-width: 0.8; stroke-linejoin: miter; stroke-linecap: square"/>
   </g>
   <g id="patch_6">
    <path d="M 57.6 41.472 
L 414.72 41.472 
" style="fill: none; stroke: #000000; stroke-width: 0.8; stroke-linejoin: miter; stroke-linecap: square"/>
   </g>
   <g id="text_15">
    <!-- Czech -->
    <g transform="translate(218.027812 35.472)scale(0.12 -0.12)">
     <defs>
      <path id="DejaVuSans-43" d="M 4122 4306 
L 4122 3641 
Q 3803 3938 3442 4084 
Q 3081 4231 2675 4231 
Q 1875 4231 1450 3742 
Q 1025 3253 1025 2328 
Q 1025 1406 1450 917 
Q 1875 428 2675 428 
Q 3081 428 3442 575 
Q 3803 722 4122 1019 
L 4122 359 
Q 3791 134 3420 21 
Q 3050 -91 2638 -91 
Q 1578 -91 968 557 
Q 359 1206 359 2328 
Q 359 3453 968 4101 
Q 1578 4750 2638 4750 
Q 3056 4750 3426 4639 
Q 3797 4528 4122 4306 
z
" transform="scale(0.015625)"/>
      <path id="DejaVuSans-7a" d="M 353 3500 
L 3084 3500 
L 3084 2975 
L 922 459 
L 3084 459 
L 3084 0 
L 275 0 
L 275 525 
L 2438 3041 
L 353 3041 
L 353 3500 
z
" transform="scale(0.015625)"/>
      <path id="DejaVuSans-68" d="M 3513 2113 
L 3513 0 
L 2938 0 
L 2938 2094 
Q 2938 2591 2744 2837 
Q 2550 3084 2163 3084 
Q 1697 3084 1428 2787 
Q 1159 2491 1159 1978 
L 1159 0 
L 581 0 
L 581 4863 
L 1159 4863 
L 1159 2956 
Q 1366 3272 1645 3428 
Q 1925 3584 2291 3584 
Q 2894 3584 3203 3211 
Q 3513 2838 3513 2113 
z
" transform="scale(0.015625)"/>
     </defs>
     <use xlink:href="#DejaVuSans-43"/>
     <use xlink:href="#DejaVuSans-7a" x="69.824219"/>
     <use xlink:href="#DejaVuSans-65" x="122.314453"/>
     <use xlink:href="#DejaVuSans-63" x="183.837891"/>
     <use xlink:href="#DejaVuSans-68" x="238.818359"/>
    </g>
   </g>
   <g id="legend_1">
    <g id="patch_7">
     <path d="M 356.52625 122.862625 
L 407.72 122.862625 
Q 409.72 122.862625 409.72 120.862625 
L 409.72 48.472 
Q 409.72 46.472 407.72 46.472 
L 356.52625 46.472 
Q 354.52625 46.472 354.52625 48.472 
L 354.52625 120.862625 
Q 354.52625 122.862625 356.52625 122.862625 
z
" style="fill: #ffffff; opacity: 0.8; stroke: #cccccc; stroke-linejoin: miter"/>
    </g>
    <g id="line2d_18">
     <path d="M 358.52625 54.570438 
L 368.52625 54.570438 
L 378.52625 54.570438 
" style="fill: none; stroke: #1f77b4; stroke-width: 1.5; stroke-linecap: square"/>
    </g>
    <g id="text_16">
     <!-- K1 -->
     <g transform="translate(386.52625 58.070438)scale(0.1 -0.1)">
      <defs>
       <path id="DejaVuSans-4b" d="M 628 4666 
L 1259 4666 
L 1259 2694 
L 3353 4666 
L 4166 4666 
L 1850 2491 
L 4331 0 
L 3500 0 
L 1259 2247 
L 1259 0 
L 628 0 
L 628 4666 
z
" transform="scale(0.015625)"/>
      </defs>
      <use xlink:href="#DejaVuSans-4b"/>
      <use xlink:href="#DejaVuSans-31" x="65.576172"/>
     </g>
    </g>
    <g id="line2d_19">
     <path d="M 358.52625 69.248563 
L 368.52625 69.248563 
L 378.52625 69.248563 
" style="fill: none; stroke: #ff7f0e; stroke-width: 1.5; stroke-linecap: square"/>
    </g>
    <g id="text_17">
     <!-- K3 -->
     <g transform="translate(386.52625 72.748563)scale(0.1 -0.1)">
      <defs>
       <path id="DejaVuSans-33" d="M 2597 2516 
Q 3050 2419 3304 2112 
Q 3559 1806 3559 1356 
Q 3559 666 3084 287 
Q 2609 -91 1734 -91 
Q 1441 -91 1130 -33 
Q 819 25 488 141 
L 488 750 
Q 750 597 1062 519 
Q 1375 441 1716 441 
Q 2309 441 2620 675 
Q 2931 909 2931 1356 
Q 2931 1769 2642 2001 
Q 2353 2234 1838 2234 
L 1294 2234 
L 1294 2753 
L 1863 2753 
Q 2328 2753 2575 2939 
Q 2822 3125 2822 3475 
Q 2822 3834 2567 4026 
Q 2313 4219 1838 4219 
Q 1578 4219 1281 4162 
Q 984 4106 628 3988 
L 628 4550 
Q 988 4650 1302 4700 
Q 1616 4750 1894 4750 
Q 2613 4750 3031 4423 
Q 3450 4097 3450 3541 
Q 3450 3153 3228 2886 
Q 3006 2619 2597 2516 
z
" transform="scale(0.015625)"/>
      </defs>
      <use xlink:href="#DejaVuSans-4b"/>
      <use xlink:href="#DejaVuSans-33" x="65.576172"/>
     </g>
    </g>
    <g id="line2d_20">
     <path d="M 358.52625 83.926688 
L 368.52625 83.926688 
L 378.52625 83.926688 
" style="fill: none; stroke: #2ca02c; stroke-width: 1.5; stroke-linecap: square"/>
    </g>
    <g id="text_18">
     <!-- K5 -->
     <g transform="translate(386.52625 87.426688)scale(0.1 -0.1)">
      <defs>
       <path id="DejaVuSans-35" d="M 691 4666 
L 3169 4666 
L 3169 4134 
L 1269 4134 
L 1269 2991 
Q 1406 3038 1543 3061 
Q 1681 3084 1819 3084 
Q 2600 3084 3056 2656 
Q 3513 2228 3513 1497 
Q 3513 744 3044 326 
Q 2575 -91 1722 -91 
Q 1428 -91 1123 -41 
Q 819 9 494 109 
L 494 744 
Q 775 591 1075 516 
Q 1375 441 1709 441 
Q 2250 441 2565 725 
Q 2881 1009 2881 1497 
Q 2881 1984 2565 2268 
Q 2250 2553 1709 2553 
Q 1456 2553 1204 2497 
Q 953 2441 691 2322 
L 691 4666 
z
" transform="scale(0.015625)"/>
      </defs>
      <use xlink:href="#DejaVuSans-4b"/>
      <use xlink:href="#DejaVuSans-35" x="65.576172"/>
     </g>
    </g>
    <g id="line2d_21">
     <path d="M 358.52625 98.604813 
L 368.52625 98.604813 
L 378.52625 98.604813 
" style="fill: none; stroke: #d62728; stroke-width: 1.5; stroke-linecap: square"/>
    </g>
    <g id="text_19">
     <!-- K7 -->
     <g transform="translate(386.52625 102.104813)scale(0.1 -0.1)">
      <defs>
       <path id="DejaVuSans-37" d="M 525 4666 
L 3525 4666 
L 3525 4397 
L 1831 0 
L 1172 0 
L 2766 4134 
L 525 4134 
L 525 4666 
z
" transform="scale(0.015625)"/>
      </defs>
      <use xlink:href="#DejaVuSans-4b"/>
      <use xlink:href="#DejaVuSans-37" x="65.576172"/>
     </g>
    </g>
    <g id="line2d_22">
     <path d="M 358.52625 113.282938 
L 368.52625 113.282938 
L 378.52625 113.282938 
" style="fill: none; stroke: #9467bd; stroke-width: 1.5; stroke-linecap: square"/>
    </g>
    <g id="text_20">
     <!-- Kinf -->
     <g transform="translate(386.52625 116.782938)scale(0.1 -0.1)">
      <defs>
       <path id="DejaVuSans-66" d="M 2375 4863 
L 2375 4384 
L 1825 4384 
Q 1516 4384 1395 4259 
Q 1275 4134 1275 3809 
L 1275 3500 
L 2222 3500 
L 2222 3053 
L 1275 3053 
L 1275 0 
L 697 0 
L 697 3053 
L 147 3053 
L 147 3500 
L 697 3500 
L 697 3744 
Q 697 4328 969 4595 
Q 1241 4863 1831 4863 
L 2375 4863 
z
" transform="scale(0.015625)"/>
      </defs>
      <use xlink:href="#DejaVuSans-4b"/>
      <use xlink:href="#DejaVuSans-69" x="65.576172"/>
      <use xlink:href="#DejaVuSans-6e" x="93.359375"/>
      <use xlink:href="#DejaVuSans-66" x="156.738281"/>
     </g>
    </g>
   </g>
  </g>
 </g>
 <defs>
  <clipPath id="p3f9c727e4e">
   <rect x="57.6" y="41.472" width="357.12" height="266.112"/>
  </clipPath>
 </defs>
</svg>
