<?xml version="1.0" encoding="utf-8" standalone="no"?>
<!DOCTYPE svg PUBLIC "-//W3C//DTD SVG 1.1//EN"
  "http://www.w3.org/Graphics/SVG/1.1/DTD/svg11.dtd">
<svg xmlns:xlink="http://www.w3.org/1999/xlink" width="460.8pt" height="345.6pt" viewBox="0 0 460.8 345.6" xmlns="http://www.w3.org/2000/svg" version="1.1">
 <metadata>
  <rdf:RDF xmlns:dc="http://purl.org/dc/elements/1.1/" xmlns:cc="http://creativecommons.org/ns#" xmlns:rdf="http://www.w3.org/1999/02/22-rdf-syntax-ns#">
   <cc:Work>
    <dc:type rdf:resource="http://purl.org/dc/dcmitype/StillImage"/>
    <dc:date>2024-04-08T13:42:56.652752</dc:date>
    <dc:format>image/svg+xml</dc:format>
    <dc:creator>
     <cc:Agent>
      <dc:title>Matplotlib v3.5.1, https://matplotlib.org/</dc:title>
     </cc:Agent>
    </dc:creator>
   </cc:Work>
  </rdf:RDF>
 </metadata>
 <defs>
  <style type="text/css">*{stroke-linejoin: round; stroke-linecap: butt}</style>
 </defs>
 <g id="figure_1">
  <g id="patch_1">
   <path d="M 0 345.6 
L 460.8 345.6 
L 460.8 0 
L 0 0 
z
" style="fill: #ffffff"/>
  </g>
  <g id="axes_1">
   <g id="patch_2">
    <path d="M 57.6 307.584 
L 414.72 307.584 
L 414.72 41.472 
L 57.6 41.472 
z
" style="fill: #ffffff"/>
   </g>
   <g id="matplotlib.axis_1">
    <g id="xtick_1">
     <g id="line2d_1">
      <defs>
       <path id="me448651078" d="M 0 0 
L 0 3.5 
" style="stroke: #000000; stroke-width: 0.8"/>
      </defs>
      <g>
       <use xlink:href="#me448651078" x="73.832727" y="307.584" style="stroke: #000000; stroke-width: 0.8"/>
      </g>
     </g>
     <g id="text_1">
      <!-- 0.0 -->
      <g transform="translate(65.881165 322.182437)scale(0.1 -0.1)">
       <defs>
        <path id="DejaVuSans-30" d="M 2034 4250 
Q 1547 4250 1301 3770 
Q 1056 3291 1056 2328 
Q 1056 1369 1301 889 
Q 1547 409 2034 409 
Q 2525 409 2770 889 
Q 3016 1369 3016 2328 
Q 3016 3291 2770 3770 
Q 2525 4250 2034 4250 
z
M 2034 4750 
Q 2819 4750 3233 4129 
Q 3647 3509 3647 2328 
Q 3647 1150 3233 529 
Q 2819 -91 2034 -91 
Q 1250 -91 836 529 
Q 422 1150 422 2328 
Q 422 3509 836 4129 
Q 1250 4750 2034 4750 
z
" transform="scale(0.015625)"/>
        <path id="DejaVuSans-2e" d="M 684 794 
L 1344 794 
L 1344 0 
L 684 0 
L 684 794 
z
" transform="scale(0.015625)"/>
       </defs>
       <use xlink:href="#DejaVuSans-30"/>
       <use xlink:href="#DejaVuSans-2e" x="63.623047"/>
       <use xlink:href="#DejaVuSans-30" x="95.410156"/>
      </g>
     </g>
    </g>
    <g id="xtick_2">
     <g id="line2d_2">
      <g>
       <use xlink:href="#me448651078" x="138.763636" y="307.584" style="stroke: #000000; stroke-width: 0.8"/>
      </g>
     </g>
     <g id="text_2">
      <!-- 0.2 -->
      <g transform="translate(130.812074 322.182437)scale(0.1 -0.1)">
       <defs>
        <path id="DejaVuSans-32" d="M 1228 531 
L 3431 531 
L 3431 0 
L 469 0 
L 469 531 
Q 828 903 1448 1529 
Q 2069 2156 2228 2338 
Q 2531 2678 2651 2914 
Q 2772 3150 2772 3378 
Q 2772 3750 2511 3984 
Q 2250 4219 1831 4219 
Q 1534 4219 1204 4116 
Q 875 4013 500 3803 
L 500 4441 
Q 881 4594 1212 4672 
Q 1544 4750 1819 4750 
Q 2544 4750 2975 4387 
Q 3406 4025 3406 3419 
Q 3406 3131 3298 2873 
Q 3191 2616 2906 2266 
Q 2828 2175 2409 1742 
Q 1991 1309 1228 531 
z
" transform="scale(0.015625)"/>
       </defs>
       <use xlink:href="#DejaVuSans-30"/>
       <use xlink:href="#DejaVuSans-2e" x="63.623047"/>
       <use xlink:href="#DejaVuSans-32" x="95.410156"/>
      </g>
     </g>
    </g>
    <g id="xtick_3">
     <g id="line2d_3">
      <g>
       <use xlink:href="#me448651078" x="203.694545" y="307.584" style="stroke: #000000; stroke-width: 0.8"/>
      </g>
     </g>
     <g id="text_3">
      <!-- 0.4 -->
      <g transform="translate(195.742983 322.182437)scale(0.1 -0.1)">
       <defs>
        <path id="DejaVuSans-34" d="M 2419 4116 
L 825 1625 
L 2419 1625 
L 2419 4116 
z
M 2253 4666 
L 3047 4666 
L 3047 1625 
L 3713 1625 
L 3713 1100 
L 3047 1100 
L 3047 0 
L 2419 0 
L 2419 1100 
L 313 1100 
L 313 1709 
L 2253 4666 
z
" transform="scale(0.015625)"/>
       </defs>
       <use xlink:href="#DejaVuSans-30"/>
       <use xlink:href="#DejaVuSans-2e" x="63.623047"/>
       <use xlink:href="#DejaVuSans-34" x="95.410156"/>
      </g>
     </g>
    </g>
    <g id="xtick_4">
     <g id="line2d_4">
      <g>
       <use xlink:href="#me448651078" x="268.625455" y="307.584" style="stroke: #000000; stroke-width: 0.8"/>
      </g>
     </g>
     <g id="text_4">
      <!-- 0.6 -->
      <g transform="translate(260.673892 322.182437)scale(0.1 -0.1)">
       <defs>
        <path id="DejaVuSans-36" d="M 2113 2584 
Q 1688 2584 1439 2293 
Q 1191 2003 1191 1497 
Q 1191 994 1439 701 
Q 1688 409 2113 409 
Q 2538 409 2786 701 
Q 3034 994 3034 1497 
Q 3034 2003 2786 2293 
Q 2538 2584 2113 2584 
z
M 3366 4563 
L 3366 3988 
Q 3128 4100 2886 4159 
Q 2644 4219 2406 4219 
Q 1781 4219 1451 3797 
Q 1122 3375 1075 2522 
Q 1259 2794 1537 2939 
Q 1816 3084 2150 3084 
Q 2853 3084 3261 2657 
Q 3669 2231 3669 1497 
Q 3669 778 3244 343 
Q 2819 -91 2113 -91 
Q 1303 -91 875 529 
Q 447 1150 447 2328 
Q 447 3434 972 4092 
Q 1497 4750 2381 4750 
Q 2619 4750 2861 4703 
Q 3103 4656 3366 4563 
z
" transform="scale(0.015625)"/>
       </defs>
       <use xlink:href="#DejaVuSans-30"/>
       <use xlink:href="#DejaVuSans-2e" x="63.623047"/>
       <use xlink:href="#DejaVuSans-36" x="95.410156"/>
      </g>
     </g>
    </g>
    <g id="xtick_5">
     <g id="line2d_5">
      <g>
       <use xlink:href="#me448651078" x="333.556364" y="307.584" style="stroke: #000000; stroke-width: 0.8"/>
      </g>
     </g>
     <g id="text_5">
      <!-- 0.8 -->
      <g transform="translate(325.604801 322.182437)scale(0.1 -0.1)">
       <defs>
        <path id="DejaVuSans-38" d="M 2034 2216 
Q 1584 2216 1326 1975 
Q 1069 1734 1069 1313 
Q 1069 891 1326 650 
Q 1584 409 2034 409 
Q 2484 409 2743 651 
Q 3003 894 3003 1313 
Q 3003 1734 2745 1975 
Q 2488 2216 2034 2216 
z
M 1403 2484 
Q 997 2584 770 2862 
Q 544 3141 544 3541 
Q 544 4100 942 4425 
Q 1341 4750 2034 4750 
Q 2731 4750 3128 4425 
Q 3525 4100 3525 3541 
Q 3525 3141 3298 2862 
Q 3072 2584 2669 2484 
Q 3125 2378 3379 2068 
Q 3634 1759 3634 1313 
Q 3634 634 3220 271 
Q 2806 -91 2034 -91 
Q 1263 -91 848 271 
Q 434 634 434 1313 
Q 434 1759 690 2068 
Q 947 2378 1403 2484 
z
M 1172 3481 
Q 1172 3119 1398 2916 
Q 1625 2713 2034 2713 
Q 2441 2713 2670 2916 
Q 2900 3119 2900 3481 
Q 2900 3844 2670 4047 
Q 2441 4250 2034 4250 
Q 1625 4250 1398 4047 
Q 1172 3844 1172 3481 
z
" transform="scale(0.015625)"/>
       </defs>
       <use xlink:href="#DejaVuSans-30"/>
       <use xlink:href="#DejaVuSans-2e" x="63.623047"/>
       <use xlink:href="#DejaVuSans-38" x="95.410156"/>
      </g>
     </g>
    </g>
    <g id="xtick_6">
     <g id="line2d_6">
      <g>
       <use xlink:href="#me448651078" x="398.487273" y="307.584" style="stroke: #000000; stroke-width: 0.8"/>
      </g>
     </g>
     <g id="text_6">
      <!-- 1.0 -->
      <g transform="translate(390.53571 322.182437)scale(0.1 -0.1)">
       <defs>
        <path id="DejaVuSans-31" d="M 794 531 
L 1825 531 
L 1825 4091 
L 703 3866 
L 703 4441 
L 1819 4666 
L 2450 4666 
L 2450 531 
L 3481 531 
L 3481 0 
L 794 0 
L 794 531 
z
" transform="scale(0.015625)"/>
       </defs>
       <use xlink:href="#DejaVuSans-31"/>
       <use xlink:href="#DejaVuSans-2e" x="63.623047"/>
       <use xlink:href="#DejaVuSans-30" x="95.410156"/>
      </g>
     </g>
    </g>
    <g id="text_7">
     <!-- Recall -->
     <g transform="translate(221.242812 335.860562)scale(0.1 -0.1)">
      <defs>
       <path id="DejaVuSans-52" d="M 2841 2188 
Q 3044 2119 3236 1894 
Q 3428 1669 3622 1275 
L 4263 0 
L 3584 0 
L 2988 1197 
Q 2756 1666 2539 1819 
Q 2322 1972 1947 1972 
L 1259 1972 
L 1259 0 
L 628 0 
L 628 4666 
L 2053 4666 
Q 2853 4666 3247 4331 
Q 3641 3997 3641 3322 
Q 3641 2881 3436 2590 
Q 3231 2300 2841 2188 
z
M 1259 4147 
L 1259 2491 
L 2053 2491 
Q 2509 2491 2742 2702 
Q 2975 2913 2975 3322 
Q 2975 3731 2742 3939 
Q 2509 4147 2053 4147 
L 1259 4147 
z
" transform="scale(0.015625)"/>
       <path id="DejaVuSans-65" d="M 3597 1894 
L 3597 1613 
L 953 1613 
Q 991 1019 1311 708 
Q 1631 397 2203 397 
Q 2534 397 2845 478 
Q 3156 559 3463 722 
L 3463 178 
Q 3153 47 2828 -22 
Q 2503 -91 2169 -91 
Q 1331 -91 842 396 
Q 353 884 353 1716 
Q 353 2575 817 3079 
Q 1281 3584 2069 3584 
Q 2775 3584 3186 3129 
Q 3597 2675 3597 1894 
z
M 3022 2063 
Q 3016 2534 2758 2815 
Q 2500 3097 2075 3097 
Q 1594 3097 1305 2825 
Q 1016 2553 972 2059 
L 3022 2063 
z
" transform="scale(0.015625)"/>
       <path id="DejaVuSans-63" d="M 3122 3366 
L 3122 2828 
Q 2878 2963 2633 3030 
Q 2388 3097 2138 3097 
Q 1578 3097 1268 2742 
Q 959 2388 959 1747 
Q 959 1106 1268 751 
Q 1578 397 2138 397 
Q 2388 397 2633 464 
Q 2878 531 3122 666 
L 3122 134 
Q 2881 22 2623 -34 
Q 2366 -91 2075 -91 
Q 1284 -91 818 406 
Q 353 903 353 1747 
Q 353 2603 823 3093 
Q 1294 3584 2113 3584 
Q 2378 3584 2631 3529 
Q 2884 3475 3122 3366 
z
" transform="scale(0.015625)"/>
       <path id="DejaVuSans-61" d="M 2194 1759 
Q 1497 1759 1228 1600 
Q 959 1441 959 1056 
Q 959 750 1161 570 
Q 1363 391 1709 391 
Q 2188 391 2477 730 
Q 2766 1069 2766 1631 
L 2766 1759 
L 2194 1759 
z
M 3341 1997 
L 3341 0 
L 2766 0 
L 2766 531 
Q 2569 213 2275 61 
Q 1981 -91 1556 -91 
Q 1019 -91 701 211 
Q 384 513 384 1019 
Q 384 1609 779 1909 
Q 1175 2209 1959 2209 
L 2766 2209 
L 2766 2266 
Q 2766 2663 2505 2880 
Q 2244 3097 1772 3097 
Q 1472 3097 1187 3025 
Q 903 2953 641 2809 
L 641 3341 
Q 956 3463 1253 3523 
Q 1550 3584 1831 3584 
Q 2591 3584 2966 3190 
Q 3341 2797 3341 1997 
z
" transform="scale(0.015625)"/>
       <path id="DejaVuSans-6c" d="M 603 4863 
L 1178 4863 
L 1178 0 
L 603 0 
L 603 4863 
z
" transform="scale(0.015625)"/>
      </defs>
      <use xlink:href="#DejaVuSans-52"/>
      <use xlink:href="#DejaVuSans-65" x="64.982422"/>
      <use xlink:href="#DejaVuSans-63" x="126.505859"/>
      <use xlink:href="#DejaVuSans-61" x="181.486328"/>
      <use xlink:href="#DejaVuSans-6c" x="242.765625"/>
      <use xlink:href="#DejaVuSans-6c" x="270.548828"/>
     </g>
    </g>
   </g>
   <g id="matplotlib.axis_2">
    <g id="ytick_1">
     <g id="line2d_7">
      <defs>
       <path id="m08063c6c42" d="M 0 0 
L -3.5 0 
" style="stroke: #000000; stroke-width: 0.8"/>
      </defs>
      <g>
       <use xlink:href="#m08063c6c42" x="57.6" y="295.488" style="stroke: #000000; stroke-width: 0.8"/>
      </g>
     </g>
     <g id="text_8">
      <!-- 0.0 -->
      <g transform="translate(34.696875 299.287219)scale(0.1 -0.1)">
       <use xlink:href="#DejaVuSans-30"/>
       <use xlink:href="#DejaVuSans-2e" x="63.623047"/>
       <use xlink:href="#DejaVuSans-30" x="95.410156"/>
      </g>
     </g>
    </g>
    <g id="ytick_2">
     <g id="line2d_8">
      <g>
       <use xlink:href="#m08063c6c42" x="57.6" y="247.104" style="stroke: #000000; stroke-width: 0.8"/>
      </g>
     </g>
     <g id="text_9">
      <!-- 0.2 -->
      <g transform="translate(34.696875 250.903219)scale(0.1 -0.1)">
       <use xlink:href="#DejaVuSans-30"/>
       <use xlink:href="#DejaVuSans-2e" x="63.623047"/>
       <use xlink:href="#DejaVuSans-32" x="95.410156"/>
      </g>
     </g>
    </g>
    <g id="ytick_3">
     <g id="line2d_9">
      <g>
       <use xlink:href="#m08063c6c42" x="57.6" y="198.72" style="stroke: #000000; stroke-width: 0.8"/>
      </g>
     </g>
     <g id="text_10">
      <!-- 0.4 -->
      <g transform="translate(34.696875 202.519219)scale(0.1 -0.1)">
       <use xlink:href="#DejaVuSans-30"/>
       <use xlink:href="#DejaVuSans-2e" x="63.623047"/>
       <use xlink:href="#DejaVuSans-34" x="95.410156"/>
      </g>
     </g>
    </g>
    <g id="ytick_4">
     <g id="line2d_10">
      <g>
       <use xlink:href="#m08063c6c42" x="57.6" y="150.336" style="stroke: #000000; stroke-width: 0.8"/>
      </g>
     </g>
     <g id="text_11">
      <!-- 0.6 -->
      <g transform="translate(34.696875 154.135219)scale(0.1 -0.1)">
       <use xlink:href="#DejaVuSans-30"/>
       <use xlink:href="#DejaVuSans-2e" x="63.623047"/>
       <use xlink:href="#DejaVuSans-36" x="95.410156"/>
      </g>
     </g>
    </g>
    <g id="ytick_5">
     <g id="line2d_11">
      <g>
       <use xlink:href="#m08063c6c42" x="57.6" y="101.952" style="stroke: #000000; stroke-width: 0.8"/>
      </g>
     </g>
     <g id="text_12">
      <!-- 0.8 -->
      <g transform="translate(34.696875 105.751219)scale(0.1 -0.1)">
       <use xlink:href="#DejaVuSans-30"/>
       <use xlink:href="#DejaVuSans-2e" x="63.623047"/>
       <use xlink:href="#DejaVuSans-38" x="95.410156"/>
      </g>
     </g>
    </g>
    <g id="ytick_6">
     <g id="line2d_12">
      <g>
       <use xlink:href="#m08063c6c42" x="57.6" y="53.568" style="stroke: #000000; stroke-width: 0.8"/>
      </g>
     </g>
     <g id="text_13">
      <!-- 1.0 -->
      <g transform="translate(34.696875 57.367219)scale(0.1 -0.1)">
       <use xlink:href="#DejaVuSans-31"/>
       <use xlink:href="#DejaVuSans-2e" x="63.623047"/>
       <use xlink:href="#DejaVuSans-30" x="95.410156"/>
      </g>
     </g>
    </g>
    <g id="text_14">
     <!-- Precision -->
     <g transform="translate(28.617187 196.835031)rotate(-90)scale(0.1 -0.1)">
      <defs>
       <path id="DejaVuSans-50" d="M 1259 4147 
L 1259 2394 
L 2053 2394 
Q 2494 2394 2734 2622 
Q 2975 2850 2975 3272 
Q 2975 3691 2734 3919 
Q 2494 4147 2053 4147 
L 1259 4147 
z
M 628 4666 
L 2053 4666 
Q 2838 4666 3239 4311 
Q 3641 3956 3641 3272 
Q 3641 2581 3239 2228 
Q 2838 1875 2053 1875 
L 1259 1875 
L 1259 0 
L 628 0 
L 628 4666 
z
" transform="scale(0.015625)"/>
       <path id="DejaVuSans-72" d="M 2631 2963 
Q 2534 3019 2420 3045 
Q 2306 3072 2169 3072 
Q 1681 3072 1420 2755 
Q 1159 2438 1159 1844 
L 1159 0 
L 581 0 
L 581 3500 
L 1159 3500 
L 1159 2956 
Q 1341 3275 1631 3429 
Q 1922 3584 2338 3584 
Q 2397 3584 2469 3576 
Q 2541 3569 2628 3553 
L 2631 2963 
z
" transform="scale(0.015625)"/>
       <path id="DejaVuSans-69" d="M 603 3500 
L 1178 3500 
L 1178 0 
L 603 0 
L 603 3500 
z
M 603 4863 
L 1178 4863 
L 1178 4134 
L 603 4134 
L 603 4863 
z
" transform="scale(0.015625)"/>
       <path id="DejaVuSans-73" d="M 2834 3397 
L 2834 2853 
Q 2591 2978 2328 3040 
Q 2066 3103 1784 3103 
Q 1356 3103 1142 2972 
Q 928 2841 928 2578 
Q 928 2378 1081 2264 
Q 1234 2150 1697 2047 
L 1894 2003 
Q 2506 1872 2764 1633 
Q 3022 1394 3022 966 
Q 3022 478 2636 193 
Q 2250 -91 1575 -91 
Q 1294 -91 989 -36 
Q 684 19 347 128 
L 347 722 
Q 666 556 975 473 
Q 1284 391 1588 391 
Q 1994 391 2212 530 
Q 2431 669 2431 922 
Q 2431 1156 2273 1281 
Q 2116 1406 1581 1522 
L 1381 1569 
Q 847 1681 609 1914 
Q 372 2147 372 2553 
Q 372 3047 722 3315 
Q 1072 3584 1716 3584 
Q 2034 3584 2315 3537 
Q 2597 3491 2834 3397 
z
" transform="scale(0.015625)"/>
       <path id="DejaVuSans-6f" d="M 1959 3097 
Q 1497 3097 1228 2736 
Q 959 2375 959 1747 
Q 959 1119 1226 758 
Q 1494 397 1959 397 
Q 2419 397 2687 759 
Q 2956 1122 2956 1747 
Q 2956 2369 2687 2733 
Q 2419 3097 1959 3097 
z
M 1959 3584 
Q 2709 3584 3137 3096 
Q 3566 2609 3566 1747 
Q 3566 888 3137 398 
Q 2709 -91 1959 -91 
Q 1206 -91 779 398 
Q 353 888 353 1747 
Q 353 2609 779 3096 
Q 1206 3584 1959 3584 
z
" transform="scale(0.015625)"/>
       <path id="DejaVuSans-6e" d="M 3513 2113 
L 3513 0 
L 2938 0 
L 2938 2094 
Q 2938 2591 2744 2837 
Q 2550 3084 2163 3084 
Q 1697 3084 1428 2787 
Q 1159 2491 1159 1978 
L 1159 0 
L 581 0 
L 581 3500 
L 1159 3500 
L 1159 2956 
Q 1366 3272 1645 3428 
Q 1925 3584 2291 3584 
Q 2894 3584 3203 3211 
Q 3513 2838 3513 2113 
z
" transform="scale(0.015625)"/>
      </defs>
      <use xlink:href="#DejaVuSans-50"/>
      <use xlink:href="#DejaVuSans-72" x="58.552734"/>
      <use xlink:href="#DejaVuSans-65" x="97.416016"/>
      <use xlink:href="#DejaVuSans-63" x="158.939453"/>
      <use xlink:href="#DejaVuSans-69" x="213.919922"/>
      <use xlink:href="#DejaVuSans-73" x="241.703125"/>
      <use xlink:href="#DejaVuSans-69" x="293.802734"/>
      <use xlink:href="#DejaVuSans-6f" x="321.585938"/>
      <use xlink:href="#DejaVuSans-6e" x="382.767578"/>
     </g>
    </g>
   </g>
   <g id="line2d_13">
    <path d="M 334.8181 295.131584 
L 330.838777 295.022606 
L 330.353494 294.982455 
L 328.800587 294.88015 
L 328.41236 294.844658 
L 326.66534 294.721049 
L 325.79183 294.670032 
L 325.112434 294.554553 
L 322.00662 294.255441 
L 320.065487 293.952912 
L 318.803751 293.758923 
L 318.318467 293.685159 
L 317.639071 293.615269 
L 317.347901 293.52212 
L 315.892051 293.294699 
L 315.794994 293.235686 
L 312.883294 292.836259 
L 312.495067 292.567076 
L 311.815671 292.460512 
L 311.524501 292.348646 
L 310.359821 292.221039 
L 310.068651 292.112146 
L 308.612801 291.762078 
L 308.321631 291.663028 
L 308.030461 291.528098 
L 307.254007 291.33397 
L 305.604044 290.711447 
L 305.409931 290.615291 
L 304.924647 290.327115 
L 304.536421 290.170069 
L 304.148194 289.5883 
L 303.371741 289.371725 
L 303.177627 289.030423 
L 302.983514 288.965749 
L 302.692344 288.79936 
L 302.207061 288.592411 
L 302.012947 288.376087 
L 300.654154 287.793419 
L 300.460041 287.552687 
L 299.877701 287.179514 
L 299.586531 287.06804 
L 299.198304 286.987633 
L 298.907134 286.352626 
L 298.713021 286.300361 
L 298.421851 286.010257 
L 298.033624 285.922835 
L 297.548341 285.547795 
L 297.451284 285.529563 
L 297.257171 285.319285 
L 296.868944 284.869489 
L 295.801321 284.095383 
L 295.510151 284.00296 
L 295.316038 283.956931 
L 294.927811 283.626062 
L 294.830754 283.609281 
L 294.636641 283.379226 
L 294.248414 283.213915 
L 293.957244 283.150194 
L 293.763131 282.854549 
L 293.471961 282.580657 
L 293.083734 282.479567 
L 292.113168 281.868002 
L 291.821998 281.547668 
L 291.336714 281.279416 
L 291.045544 280.927126 
L 290.948488 280.54543 
L 290.366148 280.426649 
L 290.172034 280.170867 
L 289.977921 280.093217 
L 289.686751 279.619715 
L 289.492638 279.560704 
L 289.007354 278.544811 
L 288.910298 278.446398 
L 288.813241 278.104292 
L 288.425014 277.829781 
L 288.327958 277.75934 
L 287.939731 276.905336 
L 287.648561 276.71952 
L 287.260334 276.650108 
L 286.872108 276.094464 
L 286.483881 275.269556 
L 286.289768 275.237029 
L 286.095654 274.559241 
L 285.222144 273.958079 
L 285.125088 273.764694 
L 284.930974 273.06509 
L 284.542748 272.855564 
L 284.348634 272.848121 
L 284.154521 272.649251 
L 283.960408 272.200605 
L 282.892784 271.357614 
L 282.795728 271.337503 
L 282.504558 270.633601 
L 282.213388 270.296311 
L 282.019274 269.95319 
L 281.825161 269.815297 
L 281.631048 268.728818 
L 281.533991 268.698411 
L 281.145764 267.584705 
L 280.757538 267.406471 
L 280.272254 266.231471 
L 279.689914 265.610725 
L 279.495801 265.560481 
L 279.301688 264.737796 
L 279.010518 264.210471 
L 277.942894 262.408822 
L 277.554668 261.895113 
L 277.263498 260.759946 
L 276.972328 260.515037 
L 276.778214 259.746128 
L 276.584101 258.768471 
L 276.389988 258.712777 
L 276.098818 257.233104 
L 276.001761 257.196255 
L 275.613534 255.647087 
L 275.225308 253.662971 
L 274.934138 252.871248 
L 274.740024 252.719668 
L 274.545911 252.448551 
L 274.448854 252.398931 
L 274.157684 250.949343 
L 274.060628 250.895348 
L 273.769458 249.543942 
L 273.575344 249.405867 
L 273.090061 248.177869 
L 272.895948 248.029567 
L 272.701834 247.714862 
L 272.604778 247.604347 
L 272.216551 246.039552 
L 271.925381 244.95492 
L 271.828325 244.881273 
L 271.440098 243.787662 
L 271.245985 242.41225 
L 270.954815 242.09894 
L 270.663645 241.216566 
L 270.469531 241.149871 
L 270.081305 241.064075 
L 269.984248 240.817272 
L 269.693078 239.438108 
L 269.401908 238.333726 
L 269.207795 237.747312 
L 268.528398 236.284447 
L 268.334285 236.082574 
L 268.043115 235.271316 
L 267.946058 235.136247 
L 267.751945 234.3733 
L 267.460775 234.131478 
L 266.975491 231.092494 
L 266.684321 230.555535 
L 266.490208 227.985723 
L 266.296095 226.867293 
L 265.616698 225.579559 
L 265.519641 225.563809 
L 265.034358 224.536325 
L 264.937301 224.498361 
L 264.840245 224.269068 
L 264.452018 222.33467 
L 264.160848 222.11882 
L 263.869678 221.637149 
L 263.675565 220.863253 
L 263.481451 220.54956 
L 263.287338 219.810462 
L 263.190281 219.654787 
L 262.996168 216.323782 
L 262.899111 216.151273 
L 262.704998 214.944575 
L 262.510885 214.723363 
L 262.316771 214.023003 
L 262.122658 213.652813 
L 261.928545 213.608685 
L 261.346205 210.861992 
L 261.249148 210.844492 
L 261.152091 210.487891 
L 260.860921 210.278744 
L 260.666808 209.343716 
L 260.375638 208.545173 
L 260.181525 206.913172 
L 260.084468 206.891725 
L 259.890355 206.644966 
L 259.793298 206.572074 
L 259.405071 206.037016 
L 259.210958 205.099268 
L 259.113901 205.040432 
L 258.531561 203.376403 
L 258.337448 202.954817 
L 257.658051 199.871038 
L 256.978655 198.607049 
L 256.881598 198.596702 
L 256.590428 198.296756 
L 256.396315 198.171593 
L 256.008088 197.371354 
L 255.813975 195.795692 
L 255.716918 195.783122 
L 255.619861 195.218879 
L 255.425748 195.192782 
L 255.231635 194.516924 
L 254.940465 193.678636 
L 254.746351 193.534828 
L 254.552238 191.935117 
L 254.358125 191.760199 
L 254.066955 190.695502 
L 253.969898 190.605141 
L 253.678728 189.737172 
L 253.484615 189.701579 
L 253.387558 188.826418 
L 253.096388 188.129461 
L 252.902275 187.935614 
L 252.708161 187.453457 
L 252.611105 187.328621 
L 252.416991 187.288486 
L 252.125821 186.910663 
L 251.737595 185.9968 
L 251.446425 185.823992 
L 251.155255 184.602942 
L 250.961141 183.96893 
L 250.864085 183.860861 
L 250.572915 182.876466 
L 250.281745 182.513286 
L 250.184688 182.02165 
L 249.796461 181.447189 
L 249.602348 181.424704 
L 249.408235 180.108807 
L 249.311178 179.959379 
L 249.020008 179.845627 
L 248.922951 179.448734 
L 248.728838 179.361245 
L 248.340611 178.086607 
L 248.146498 177.131062 
L 248.049442 177.100214 
L 247.952385 176.907541 
L 247.758272 176.421634 
L 247.661215 176.291653 
L 247.467102 174.460349 
L 246.787705 173.466647 
L 246.593592 172.419237 
L 246.399478 172.13447 
L 246.108308 172.02394 
L 245.525968 168.422537 
L 245.137742 167.914412 
L 244.943628 167.600456 
L 244.749515 166.194792 
L 244.652458 166.189731 
L 244.458345 165.8643 
L 244.264232 165.774559 
L 244.167175 165.570742 
L 243.876005 164.672 
L 243.584835 164.247901 
L 243.390722 162.164896 
L 243.293665 162.030711 
L 243.002495 161.964707 
L 242.614268 160.128 
L 242.517212 160.07513 
L 242.323098 159.574369 
L 241.934872 159.403089 
L 241.643702 158.392071 
L 241.449588 158.009935 
L 241.352532 157.999057 
L 241.158418 157.568 
L 240.964305 156.995234 
L 240.867248 156.891356 
L 240.479022 155.771673 
L 239.896682 154.888435 
L 239.702568 154.670125 
L 239.605512 154.368 
L 239.411398 153.221361 
L 239.217285 153.142807 
L 238.926115 152.255866 
L 238.246718 152.096649 
L 238.052605 150.848905 
L 237.955548 150.678542 
L 237.858492 150.25006 
L 237.373208 149.955976 
L 237.082038 149.275481 
L 236.887925 147.965096 
L 236.693812 147.442136 
L 236.499698 146.805228 
L 236.305585 146.600471 
L 235.917358 146.408148 
L 235.820302 146.222018 
L 235.432075 146.138056 
L 235.140905 144.560432 
L 234.752678 143.497337 
L 234.558565 143.450231 
L 234.073282 141.513474 
L 233.976225 141.488 
L 233.685055 140.873239 
L 233.490942 140.338526 
L 233.296828 140.285126 
L 233.102715 139.988306 
L 233.005658 139.961226 
L 232.714488 139.265893 
L 232.326262 139.15426 
L 232.132148 138.53831 
L 231.743922 138.360719 
L 231.549808 137.924874 
L 231.355695 137.866097 
L 231.064525 136.562453 
L 230.288072 136.314514 
L 230.093958 135.466965 
L 229.996902 135.237164 
L 229.802788 135.172355 
L 229.705732 134.274921 
L 229.414562 134.174456 
L 229.123392 133.19366 
L 228.832222 133.089412 
L 228.541052 132.641514 
L 228.443995 132.122777 
L 227.764598 131.869612 
L 227.570485 131.376103 
L 227.279315 131.053125 
L 226.891088 130.5473 
L 226.502862 130.394655 
L 226.405805 130.212798 
L 226.017578 129.98601 
L 225.823465 129.618158 
L 225.629352 129.393672 
L 225.047012 129.154655 
L 224.755842 128.812945 
L 224.561728 127.764 
L 224.173502 127.671574 
L 223.979389 126.982714 
L 223.882332 126.939861 
L 223.202935 125.636321 
L 223.008822 125.001508 
L 222.717652 124.943294 
L 222.426482 124.569901 
L 222.329425 124.207297 
L 221.844142 124.053056 
L 221.650029 122.914623 
L 221.261802 122.231762 
L 221.067689 121.557839 
L 220.582405 121.554077 
L 220.388292 120.703694 
L 220.097122 120.043611 
L 219.805952 119.970547 
L 219.320669 119.876339 
L 218.932442 118.977312 
L 218.835385 118.836739 
L 218.447159 118.531299 
L 217.767762 117.704373 
L 217.379535 117.655157 
L 217.282479 117.421386 
L 216.408969 116.725183 
L 216.117799 116.097651 
L 215.826629 115.554619 
L 215.632515 115.158857 
L 215.147232 114.76172 
L 214.661949 114.266565 
L 214.467835 113.388218 
L 213.885495 113.290422 
L 213.691382 112.780075 
L 212.914929 112.257894 
L 212.623759 111.278415 
L 212.526702 111.210985 
L 211.847305 111.032107 
L 211.362022 110.390462 
L 211.070852 110.282326 
L 210.973795 109.910932 
L 209.129719 109.580348 
L 209.032662 109.097204 
L 208.450322 109.0752 
L 207.285642 108.085183 
L 206.606245 107.343281 
L 206.412132 106.002495 
L 206.315075 105.814939 
L 205.732735 105.117832 
L 205.538622 104.624372 
L 205.150395 104.074105 
L 204.762169 103.968 
L 204.568055 103.463109 
L 204.276885 103.097183 
L 204.179829 102.898456 
L 203.985715 102.268989 
L 203.694545 102.009841 
L 203.209262 101.806703 
L 202.044582 100.62439 
L 201.850469 100.324404 
L 200.976959 99.861333 
L 200.879902 99.648 
L 200.103449 99.511711 
L 199.715222 99.258957 
L 199.424052 99.221868 
L 199.326996 98.880483 
L 198.550542 98.112 
L 198.162316 98.099771 
L 198.065259 97.750069 
L 197.191749 97.369237 
L 196.900579 97.198045 
L 196.415296 96.824177 
L 196.221182 96.621559 
L 195.930012 96.576 
L 195.832956 96.082466 
L 194.765332 95.996061 
L 194.571219 95.787615 
L 194.474162 95.417102 
L 193.988879 95.289497 
L 193.697709 94.430665 
L 193.212426 94.296925 
L 192.047746 93.805207 
L 191.562462 93.666157 
L 191.271292 93.470609 
L 190.591896 93.10291 
L 190.494839 92.84839 
L 189.330159 92.609353 
L 188.068422 92.537294 
L 187.777252 92.330575 
L 187.486082 92.268258 
L 185.836119 92.155385 
L 185.739062 91.886715 
L 185.350836 91.700551 
L 184.477326 90.745016 
L 184.283212 90.648 
L 183.894986 89.529081 
L 183.215589 89.252115 
L 181.759739 89.188123 
L 181.177399 88.715573 
L 180.789172 88.503652 
L 180.012719 87.585031 
L 179.624492 87.528379 
L 179.430379 87.253063 
L 177.877472 87.016746 
L 177.683359 86.397208 
L 177.295132 85.99432 
L 176.906906 85.758171 
L 176.033396 85.30503 
L 175.936339 84.634777 
L 173.315809 83.730528 
L 173.218753 83.575186 
L 173.121696 82.872742 
L 172.830526 82.765241 
L 172.733469 82.606756 
L 172.054073 82.5984 
L 171.957016 82.438244 
L 171.568789 82.352882 
L 171.180563 81.514667 
L 170.501166 81.498373 
L 170.404109 81.142141 
L 170.209996 81 
L 168.462976 80.863796 
L 168.268863 80.128293 
L 167.783579 79.853967 
L 167.686523 79.679292 
L 164.968936 79.553703 
L 164.677766 79.215679 
L 164.580709 78.825931 
L 164.192483 78.505803 
L 163.998369 77.923934 
L 163.416029 76.788529 
L 162.154293 76.653805 
L 161.474896 76.156916 
L 159.339649 75.764784 
L 155.554439 75.750524 
L 155.263269 75.584555 
L 155.166213 75.369694 
L 154.486816 75.054316 
L 154.389759 74.835692 
L 154.001533 74.685878 
L 153.904476 74.464744 
L 153.516249 74.311697 
L 153.322136 73.615122 
L 152.254513 73.613585 
L 152.157456 73.131007 
L 147.98402 73.072982 
L 147.886963 72.828217 
L 147.304623 72.697927 
L 147.207566 72.449561 
L 146.916396 72.245647 
L 146.81934 71.994339 
L 145.07232 71.849108 
L 144.878206 71.329215 
L 144.19881 71.201555 
L 143.422356 70.803233 
L 143.228243 70.55588 
L 142.840016 70.350408 
L 142.74296 70.076976 
L 142.354733 69.866441 
L 142.257676 69.589192 
L 141.86945 69.37344 
L 140.99594 69.260108 
L 140.510656 68.749883 
L 140.12243 68.521846 
L 140.025373 68.229818 
L 138.95775 68.137412 
L 138.860693 67.838562 
L 138.472466 67.274516 
L 137.404843 67.162928 
L 136.822503 66.94931 
L 136.33722 66.375529 
L 135.17254 66.262453 
L 134.88137 65.974154 
L 134.201973 64.699288 
L 134.00786 64.021333 
L 132.163783 63.59977 
L 131.6785 63.30713 
L 131.484386 62.962951 
L 129.93148 62.82617 
L 129.737366 62.468067 
L 126.631553 62.146723 
L 125.758043 61.864895 
L 125.27276 61.514277 
L 122.749287 61.461743 
L 122.264003 61.083961 
L 117.70234 60.835983 
L 117.314113 60.390039 
L 116.343547 60.0192 
L 113.431847 59.919122 
L 111.199543 59.692557 
L 109.452523 59.358638 
L 109.064297 58.144865 
L 95.767534 57.775304 
L 87.323604 56.999489 
L 85.0913 53.568 
L 85.0913 53.568 
" clip-path="url(#pa743250ba7)" style="fill: none; stroke: #1f77b4; stroke-width: 1.5; stroke-linecap: square"/>
   </g>
   <g id="line2d_14">
    <path d="M 334.8181 295.132745 
L 328.41236 295.014882 
L 326.180057 294.937243 
L 323.559527 294.821412 
L 318.027297 294.516872 
L 313.950917 294.251789 
L 309.971594 293.797578 
L 307.836347 293.622458 
L 302.595287 292.87871 
L 300.362984 292.417195 
L 299.586531 292.309768 
L 298.421851 291.9251 
L 298.130681 291.785429 
L 295.121924 291.388697 
L 294.539584 291.265972 
L 294.345471 291.239886 
L 294.054301 291.075914 
L 292.889621 290.951912 
L 292.501394 290.784545 
L 291.724941 290.636721 
L 291.433771 290.489985 
L 289.201468 289.835116 
L 288.425014 289.68897 
L 287.551504 289.462507 
L 287.357391 289.27181 
L 286.872108 289.164292 
L 286.095654 288.837017 
L 284.930974 288.681242 
L 284.542748 288.549244 
L 284.348634 288.475404 
L 284.154521 288.29055 
L 283.572181 288.143187 
L 283.281011 288.041335 
L 282.989841 287.934681 
L 282.310444 287.598226 
L 281.436934 287.433665 
L 279.981084 286.935293 
L 279.495801 286.424875 
L 279.204631 286.26868 
L 278.622291 286.096419 
L 277.845838 285.960771 
L 277.360554 285.730797 
L 276.778214 285.377781 
L 276.389988 285.006424 
L 276.098818 284.943781 
L 275.807648 284.609259 
L 275.710591 284.514418 
L 275.225308 284.443248 
L 274.934138 284.207292 
L 274.157684 283.820487 
L 273.866514 283.720585 
L 273.575344 283.360178 
L 273.478288 283.345069 
L 273.284174 283.163502 
L 273.090061 283.077351 
L 272.798891 282.849468 
L 272.119494 282.404839 
L 271.925381 282.337933 
L 271.343041 281.456557 
L 271.148928 281.309922 
L 270.372475 280.358194 
L 269.498965 279.914149 
L 269.304851 279.864242 
L 269.207795 279.680393 
L 269.013681 279.67094 
L 268.722511 279.472724 
L 268.528398 279.302984 
L 268.237228 279.051456 
L 267.849001 278.958688 
L 267.654888 278.667645 
L 266.296095 277.498449 
L 266.004925 277.250047 
L 265.810811 277.154689 
L 265.422585 276.511243 
L 265.131415 276.247248 
L 265.034358 276.213455 
L 263.869678 274.216249 
L 263.772621 274.170631 
L 263.481451 273.706059 
L 263.287338 273.662985 
L 262.899111 273.082249 
L 262.219715 272.712295 
L 261.928545 272.173019 
L 261.831488 272.169975 
L 261.637375 272.043557 
L 261.249148 271.920877 
L 261.055035 271.402133 
L 260.569751 271.008454 
L 259.890355 269.710631 
L 259.696241 269.455363 
L 259.599185 269.292318 
L 259.405071 268.804929 
L 259.210958 268.696836 
L 258.919788 268.22518 
L 258.434505 267.864068 
L 257.852165 267.582645 
L 257.658051 267.465464 
L 257.560995 267.464835 
L 257.366881 267.217655 
L 256.881598 266.88408 
L 256.687485 266.608436 
L 256.008088 266.127866 
L 255.813975 265.40643 
L 255.425748 265.3105 
L 255.231635 264.27521 
L 254.358125 263.568358 
L 253.969898 262.859302 
L 253.872841 262.688585 
L 253.678728 262.134 
L 253.484615 261.612978 
L 253.193445 261.513674 
L 252.999331 260.879792 
L 252.902275 260.879766 
L 252.708161 260.742165 
L 252.319935 260.608276 
L 251.543481 259.174217 
L 250.864085 258.691629 
L 250.669971 258.466478 
L 250.378801 258.201737 
L 249.117065 257.316803 
L 248.825895 257.206294 
L 248.340611 256.532944 
L 247.952385 256.286078 
L 247.564158 255.883391 
L 247.370045 255.767802 
L 247.272988 255.377493 
L 247.078875 255.344168 
L 246.884762 254.69903 
L 246.302422 254.557614 
L 246.108308 253.89079 
L 246.011252 253.877948 
L 245.817138 253.583578 
L 245.623025 253.433551 
L 245.234798 252.294115 
L 245.137742 252.283629 
L 244.555402 251.354285 
L 244.361288 249.979066 
L 244.070118 249.495405 
L 243.973062 249.491714 
L 243.681892 248.83676 
L 243.487778 248.807775 
L 243.002495 248.040429 
L 242.905438 248.024925 
L 242.711325 247.555775 
L 242.614268 247.534178 
L 242.031928 245.386738 
L 241.837815 244.59925 
L 241.255475 244.453146 
L 241.061362 244.36226 
L 240.867248 243.671657 
L 240.673135 243.576818 
L 240.381965 242.591119 
L 239.799625 241.915972 
L 238.829058 241.331561 
L 238.634945 240.658828 
L 238.440832 240.591516 
L 238.149662 240.571057 
L 237.858492 239.111166 
L 237.664378 238.723897 
L 236.887925 237.806251 
L 236.596755 237.794621 
L 236.305585 237.083893 
L 236.014415 236.439166 
L 235.432075 236.383554 
L 235.140905 235.762652 
L 234.946792 235.044412 
L 234.655622 234.474082 
L 234.558565 234.099781 
L 233.976225 233.147222 
L 233.782112 232.732741 
L 233.005658 232.018347 
L 232.811545 231.769563 
L 232.714488 231.695629 
L 232.520375 231.691355 
L 232.229205 231.467659 
L 232.132148 231.454972 
L 231.938035 230.925798 
L 231.743922 230.590417 
L 231.161582 228.998966 
L 230.191015 227.978365 
L 230.093958 227.738617 
L 229.899845 227.574704 
L 229.511618 226.832713 
L 229.123392 226.772928 
L 228.152825 225.968246 
L 227.958712 225.917381 
L 227.570485 225.214521 
L 227.182258 225.004209 
L 226.988145 224.858997 
L 226.891088 224.812224 
L 226.308748 224.20962 
L 226.017578 223.041369 
L 225.823465 222.870266 
L 225.629352 222.865566 
L 225.435238 222.35484 
L 225.144068 221.854013 
L 224.949955 221.790203 
L 224.755842 221.450291 
L 224.464672 219.973149 
L 223.494105 219.496833 
L 223.202935 219.365555 
L 223.105879 219.196641 
L 222.717652 219.160299 
L 222.329425 218.552311 
L 221.455915 218.298925 
L 221.164745 217.881373 
L 220.970632 217.389465 
L 220.582405 216.909474 
L 220.388292 216.367532 
L 219.903009 216.338087 
L 219.805952 216.235619 
L 218.932442 216.122101 
L 218.738329 215.878884 
L 218.544215 215.063759 
L 218.447159 214.956097 
L 217.961875 214.920339 
L 217.379535 213.891722 
L 217.185422 213.890412 
L 216.991309 213.645798 
L 216.700139 213.416961 
L 216.506025 213.015273 
L 216.214855 212.915492 
L 215.923685 212.853637 
L 215.729572 212.579646 
L 215.147232 212.059407 
L 214.953119 211.916681 
L 214.759005 211.713175 
L 214.370779 211.321695 
L 214.176665 210.807216 
L 213.691382 210.503427 
L 213.303155 210.177806 
L 212.138475 210.13618 
L 211.653192 209.044517 
L 211.070852 208.908683 
L 210.294399 208.026051 
L 209.129719 207.482656 
L 208.935605 206.588148 
L 208.741492 206.292032 
L 207.867982 206.277981 
L 207.188585 205.916973 
L 207.091529 205.618909 
L 206.315075 205.165024 
L 206.120962 204.726382 
L 205.247452 204.271158 
L 205.053339 204.228 
L 204.859225 203.825917 
L 204.470999 203.503729 
L 204.179829 203.448748 
L 203.985715 203.246112 
L 203.694545 203.111014 
L 202.918092 202.76362 
L 202.723979 202.55489 
L 202.044582 202.371357 
L 201.850469 202.10419 
L 201.559299 201.296663 
L 201.365185 201.104722 
L 200.879902 200.476515 
L 200.782845 200.463568 
L 200.491675 200.281245 
L 200.297562 199.588469 
L 199.424052 199.462086 
L 199.229939 199.137618 
L 198.647599 198.960194 
L 198.453486 198.478231 
L 198.259372 197.527975 
L 197.968202 196.853738 
L 197.482919 196.830484 
L 197.191749 196.332786 
L 197.094692 196.314856 
L 196.706466 195.137174 
L 195.638842 193.946328 
L 195.541786 193.515671 
L 195.153559 193.256763 
L 194.668276 191.233794 
L 193.988879 190.805386 
L 193.891822 190.523061 
L 193.697709 188.784 
L 193.212426 188.643619 
L 193.115369 188.615362 
L 192.630086 187.811607 
L 192.338916 187.48642 
L 191.756576 185.729673 
L 191.562462 185.37582 
L 190.980122 184.673032 
L 190.203669 182.403368 
L 190.009556 181.120607 
L 189.621329 180.549505 
L 188.941932 180.028394 
L 188.844876 179.846532 
L 188.650762 179.808388 
L 188.553706 179.437091 
L 188.262536 179.022635 
L 187.874309 178.989639 
L 187.194912 177.85163 
L 186.515516 177.426159 
L 186.321402 176.931856 
L 185.447892 176.443071 
L 185.156722 175.573462 
L 184.089099 175.321354 
L 183.603816 174.528 
L 183.409702 174.474407 
L 182.536192 173.162763 
L 182.342079 173.104941 
L 182.245022 172.937143 
L 182.050909 172.878545 
L 181.856796 172.314642 
L 181.662682 172.197578 
L 181.468569 171.28 
L 181.080342 170.746236 
L 180.886229 169.621132 
L 180.400946 169.358769 
L 179.624492 168.223135 
L 179.333322 167.772099 
L 179.236266 167.76553 
L 179.042152 167.127119 
L 178.653926 166.908472 
L 178.556869 166.837591 
L 178.071586 166.73573 
L 177.586302 165.857684 
L 177.392189 165.775116 
L 176.615736 164.442844 
L 176.421623 163.611032 
L 176.324566 163.189958 
L 176.033396 162.879067 
L 175.742226 162.842569 
L 175.451056 162.107147 
L 175.062829 161.771752 
L 173.995206 161.549459 
L 173.704036 160.855399 
L 173.315809 160.576139 
L 173.121696 160.02869 
L 173.024639 160.0128 
L 172.830526 159.831925 
L 172.248186 158.061176 
L 172.054073 157.946966 
L 171.957016 157.540386 
L 171.277619 157.011558 
L 171.180563 156.674636 
L 170.695279 156.651795 
L 170.209996 156.387502 
L 169.918826 155.837388 
L 169.821769 155.815566 
L 169.724713 155.630212 
L 169.530599 155.585877 
L 169.142373 154.666755 
L 168.948259 153.946746 
L 168.754146 153.812695 
L 168.462976 153.139177 
L 168.074749 150.664128 
L 167.783579 149.309124 
L 167.395353 149.274282 
L 167.298296 148.318726 
L 166.715956 148.118528 
L 166.618899 147.708115 
L 166.327729 147.699692 
L 166.133616 147.249649 
L 166.036559 147.214452 
L 165.648333 146.201425 
L 165.065993 145.977941 
L 164.774823 145.269948 
L 164.483653 144.044783 
L 164.386596 144.003866 
L 164.095426 143.470703 
L 163.221916 142.038744 
L 163.124859 141.781923 
L 162.833689 141.432 
L 162.639576 140.693035 
L 162.057236 140.077908 
L 161.960179 139.366209 
L 161.474896 138.440006 
L 161.280783 138.335931 
L 161.086669 138.00351 
L 160.407273 137.513886 
L 160.213159 137.056212 
L 159.921989 137.007173 
L 159.824933 136.834321 
L 159.533763 136.548 
L 158.174969 136.344563 
L 158.077913 135.802403 
L 157.495573 135.691034 
L 157.107346 134.333217 
L 156.622063 134.144951 
L 156.427949 133.891516 
L 156.136779 132.413151 
L 155.748553 132.143616 
L 155.457383 131.013691 
L 155.263269 131.005925 
L 155.069156 130.596274 
L 154.875043 129.775777 
L 154.389759 129.679908 
L 154.292703 129.468397 
L 153.613306 129.079431 
L 153.516249 128.723668 
L 152.933909 128.399186 
L 152.64274 128.305838 
L 152.448626 127.861653 
L 152.254513 127.268241 
L 151.76923 126.858 
L 151.575116 126.249642 
L 150.701606 125.478559 
L 150.507493 125.000221 
L 150.31338 124.822861 
L 150.119266 124.797587 
L 150.02221 124.554427 
L 149.828096 123.90887 
L 149.342813 123.603288 
L 149.1487 122.942118 
L 148.663416 122.784 
L 148.469303 122.108242 
L 147.498736 121.936696 
L 147.304623 121.406783 
L 147.013453 121.26863 
L 146.722283 120.96166 
L 146.431113 120.312627 
L 146.139943 120.166599 
L 146.042886 119.889483 
L 145.751716 118.350925 
L 145.460546 116.95104 
L 145.266433 116.899113 
L 144.878206 115.705827 
L 144.48998 115.592433 
L 144.392923 115.287344 
L 143.131186 114.807163 
L 142.937073 114.556235 
L 142.74296 114.494112 
L 142.45179 112.950711 
L 140.607713 112.585846 
L 140.316543 111.971721 
L 140.219486 111.832861 
L 140.12243 111.488713 
L 138.860693 110.879344 
L 138.763636 110.311249 
L 138.472466 110.080957 
L 137.890126 110.044098 
L 137.5019 109.439325 
L 137.307786 109.351906 
L 137.113673 108.823101 
L 136.33722 108.457412 
L 136.240163 108.072867 
L 136.04605 106.837489 
L 135.851936 106.506484 
L 135.269596 106.432 
L 135.17254 106.028967 
L 134.784313 105.343119 
L 134.29903 103.73716 
L 134.00786 103.684419 
L 133.522576 103.264744 
L 133.42552 102.830568 
L 132.649066 102.079662 
L 132.26084 101.30688 
L 131.484386 101.298162 
L 130.902046 100.892979 
L 129.252083 100.655391 
L 129.155026 99.615273 
L 128.47563 99.515396 
L 127.990347 97.553455 
L 127.213893 97.192918 
L 127.01978 96.729139 
L 126.825667 95.958816 
L 126.72861 94.808548 
L 125.56393 94.641645 
L 125.466873 94.392 
L 125.078647 94.015192 
L 124.69042 92.337231 
L 124.496307 92.134957 
L 124.10808 92.055273 
L 123.81691 90.90869 
L 123.428683 90.477851 
L 123.331627 90.19815 
L 120.61404 89.10669 
L 119.837587 88.128 
L 119.546417 87.560409 
L 118.964077 87.553065 
L 118.769963 86.905207 
L 117.799397 86.7456 
L 117.70234 86.009379 
L 115.95532 83.380364 
L 113.140677 82.493217 
L 111.975997 82.316341 
L 111.684827 81.058909 
L 108.773127 80.977655 
L 108.3849 80.1792 
L 108.09373 79.837091 
L 106.831993 79.601386 
L 106.63788 79.168 
L 106.540823 78.660766 
L 103.72618 76.979613 
L 102.85267 76.956036 
L 102.755614 76.362894 
L 101.97916 76.248 
L 101.590934 75.140484 
L 99.261574 74.641171 
L 98.873347 74.156936 
L 95.961647 73.970892 
L 95.767534 73.236293 
L 95.088137 71.941671 
L 90.817644 70.296511 
L 90.04119 69.786101 
L 89.652964 68.861793 
L 88.87651 68.229818 
L 88.488284 65.740075 
L 87.032434 65.410238 
L 86.353037 64.32 
L 86.158924 62.731636 
L 84.023677 60.288 
L 81.209034 59.771077 
L 78.685561 58.311529 
L 77.035597 53.568 
L 77.035597 53.568 
" clip-path="url(#pa743250ba7)" style="fill: none; stroke: #ff7f0e; stroke-width: 1.5; stroke-linecap: square"/>
   </g>
   <g id="line2d_15">
    <path d="M 334.8181 295.132329 
L 330.644664 295.022573 
L 329.28587 294.934672 
L 323.559527 294.256274 
L 321.812507 294.095541 
L 321.230167 293.928852 
L 320.744884 293.779101 
L 320.162544 293.660635 
L 319.386091 293.501896 
L 317.542014 293.153748 
L 317.056731 292.893467 
L 316.474391 292.549767 
L 315.309711 292.379783 
L 314.824427 292.202413 
L 314.339144 292.107327 
L 313.659747 291.834665 
L 313.271521 291.71698 
L 310.262764 290.038424 
L 310.068651 289.907118 
L 309.874537 289.752258 
L 309.583367 289.690207 
L 309.292197 289.533091 
L 309.001027 289.369101 
L 308.903971 289.357419 
L 308.709857 289.021266 
L 308.030461 288.672835 
L 307.836347 288.457442 
L 307.448121 288.326413 
L 307.254007 288.230068 
L 307.059894 287.999866 
L 306.380497 287.500343 
L 306.089327 287.175756 
L 305.701101 287.101019 
L 305.312874 286.838286 
L 305.215817 286.814215 
L 305.021704 286.666399 
L 304.730534 286.549014 
L 304.633477 286.44888 
L 304.439364 286.080286 
L 304.051137 285.983814 
L 303.857024 285.59207 
L 303.662911 285.481772 
L 303.080571 285.131588 
L 302.886457 284.82476 
L 302.595287 284.775088 
L 302.401174 284.193188 
L 302.207061 284.135486 
L 302.012947 283.971732 
L 301.527664 283.669085 
L 301.333551 283.478078 
L 301.042381 283.382692 
L 300.848267 283.006454 
L 300.654154 282.611826 
L 300.362984 282.118646 
L 300.071814 281.925166 
L 299.877701 281.73503 
L 299.780644 281.681622 
L 299.489474 281.105674 
L 299.004191 280.534375 
L 298.615964 280.425719 
L 298.421851 279.949574 
L 297.839511 279.358136 
L 297.354227 277.695334 
L 296.966001 276.403034 
L 296.771887 275.983938 
L 296.577774 275.920565 
L 296.383661 275.594776 
L 296.286604 275.572026 
L 295.704264 274.814014 
L 295.218981 274.196202 
L 295.024868 274.009342 
L 294.442528 273.468853 
L 293.569018 272.171402 
L 293.471961 271.7265 
L 293.180791 271.585788 
L 292.404338 269.922358 
L 292.307281 269.907301 
L 292.016111 269.673401 
L 291.919054 269.565528 
L 291.627884 268.525227 
L 291.530828 268.375651 
L 291.239658 267.206553 
L 290.754374 266.069033 
L 289.589694 265.449003 
L 289.395581 265.413875 
L 288.910298 263.873049 
L 288.716184 263.608298 
L 288.036788 260.831539 
L 287.842674 260.54312 
L 287.648561 259.939057 
L 287.551504 259.824357 
L 287.357391 259.407463 
L 287.260334 259.333176 
L 286.969164 257.522137 
L 286.775051 257.467049 
L 286.483881 256.534026 
L 285.901541 254.995032 
L 285.610371 254.920106 
L 285.416258 254.350278 
L 285.222144 253.973522 
L 284.736861 251.937991 
L 284.542748 251.862423 
L 284.348634 251.437926 
L 284.057464 251.186451 
L 283.863351 251.009251 
L 283.669238 250.364107 
L 283.378068 248.724164 
L 282.213388 246.199497 
L 281.922218 245.753943 
L 281.728104 245.275535 
L 281.533991 244.866234 
L 281.339878 244.409098 
L 281.145764 244.070973 
L 280.757538 243.263067 
L 280.563424 242.200554 
L 280.466368 241.887451 
L 280.272254 240.816959 
L 279.592858 239.190481 
L 279.398744 239.039112 
L 279.010518 237.992904 
L 278.913461 237.524857 
L 278.622291 237.290394 
L 278.428178 236.613911 
L 278.137008 236.004108 
L 277.942894 234.842183 
L 277.845838 234.820398 
L 277.263498 233.598055 
L 276.389988 232.05998 
L 276.098818 231.991617 
L 275.904704 229.973245 
L 275.807648 229.851035 
L 275.516478 228.930373 
L 275.225308 227.944405 
L 275.128251 227.876886 
L 274.934138 226.434654 
L 274.740024 225.3908 
L 274.157684 224.802428 
L 273.963571 224.153946 
L 273.284174 222.901403 
L 273.090061 221.667881 
L 272.507721 220.795656 
L 272.022438 219.276855 
L 271.731268 219.165104 
L 271.440098 218.755001 
L 271.148928 217.4208 
L 271.051871 217.409626 
L 270.760701 216.686318 
L 270.566588 216.662756 
L 270.275418 216.270061 
L 269.984248 214.688079 
L 269.596021 213.794941 
L 269.304851 213.61489 
L 268.528398 211.831472 
L 268.140171 209.447169 
L 268.043115 208.96755 
L 267.751945 208.942582 
L 267.557831 208.687295 
L 266.878435 205.682311 
L 266.684321 205.588049 
L 266.296095 204.92214 
L 265.713755 204.526448 
L 265.519641 204.079544 
L 265.422585 203.898035 
L 265.228471 203.015381 
L 265.034358 202.89379 
L 264.840245 202.554453 
L 264.549075 202.29592 
L 264.354961 202.262841 
L 263.869678 201.634352 
L 263.578508 199.845209 
L 263.481451 199.622723 
L 263.190281 199.5364 
L 262.899111 198.660353 
L 262.607941 197.582382 
L 262.316771 197.098756 
L 261.249148 194.570411 
L 261.055035 193.951081 
L 260.666808 192.798695 
L 260.569751 192.761432 
L 260.278581 192.00808 
L 259.308015 188.595718 
L 259.113901 188.559248 
L 259.016845 188.143033 
L 258.725675 187.98681 
L 258.240391 185.734418 
L 258.046278 184.417811 
L 257.949221 184.341902 
L 257.560995 182.719086 
L 257.366881 181.148905 
L 257.172768 180.406942 
L 256.784541 179.952353 
L 256.590428 179.398459 
L 256.396315 179.046976 
L 256.299258 178.359594 
L 256.105145 178.151802 
L 256.008088 177.880168 
L 255.813975 176.93076 
L 255.522805 176.716891 
L 255.134578 175.777653 
L 254.940465 174.947888 
L 254.746351 174.787015 
L 254.649295 174.722469 
L 254.358125 173.213217 
L 254.066955 172.977654 
L 253.872841 172.337177 
L 253.775785 172.234447 
L 253.581671 171.823678 
L 253.193445 171.6807 
L 252.611105 170.944501 
L 252.416991 170.661079 
L 252.222878 170.516398 
L 252.028765 170.265243 
L 251.931708 170.262838 
L 251.640538 169.184939 
L 251.446425 168.9984 
L 251.155255 167.634995 
L 250.572915 167.536702 
L 250.281745 166.813173 
L 250.184688 166.733272 
L 249.990575 165.77314 
L 249.893518 165.498995 
L 249.505291 165.400299 
L 249.214121 164.800574 
L 248.728838 164.062061 
L 248.631781 163.257979 
L 248.243555 163.10973 
L 248.146498 162.657575 
L 247.758272 162.546988 
L 247.564158 162.081715 
L 247.467102 161.950549 
L 246.787705 161.355629 
L 246.690648 161.18017 
L 246.593592 160.54046 
L 245.817138 158.964994 
L 245.720082 158.955075 
L 245.623025 158.770759 
L 245.137742 158.324878 
L 244.943628 157.950122 
L 244.652458 157.695379 
L 244.555402 157.595168 
L 244.361288 157.034111 
L 244.167175 156.920898 
L 243.876005 155.651695 
L 243.487778 155.601741 
L 242.808382 153.196541 
L 242.614268 153.071318 
L 241.934872 150.503419 
L 241.643702 150.352788 
L 241.352532 150.251854 
L 241.158418 149.250244 
L 240.867248 149.196953 
L 240.576078 148.418446 
L 240.479022 148.295711 
L 240.381965 147.963224 
L 240.187852 147.767701 
L 239.993738 146.934542 
L 239.508455 145.757239 
L 238.926115 144.918692 
L 238.829058 143.897878 
L 238.537888 143.829987 
L 238.149662 143.4009 
L 237.664378 142.199351 
L 237.567322 142.175062 
L 236.402642 141.237524 
L 236.208528 140.892064 
L 236.111472 140.392049 
L 235.917358 140.041136 
L 235.626188 139.901333 
L 235.043848 138.829474 
L 234.946792 138.801617 
L 234.752678 138.315837 
L 234.558565 138.197258 
L 234.461508 138.04498 
L 234.170338 136.833042 
L 233.199772 136.020862 
L 233.005658 135.958929 
L 232.714488 135.284505 
L 232.520375 135.155937 
L 232.326262 134.372437 
L 231.743922 134.241036 
L 231.452752 133.942737 
L 230.676298 133.606957 
L 230.482185 132.7968 
L 230.288072 132.591158 
L 229.899845 132.587095 
L 229.608675 132.069818 
L 229.414562 132.067115 
L 228.735165 131.467473 
L 228.249882 130.791928 
L 227.861655 130.287036 
L 227.570485 129.671782 
L 227.182258 129.443864 
L 226.891088 127.792246 
L 226.114635 127.684074 
L 226.017578 127.493952 
L 225.920522 126.779215 
L 225.726408 126.769283 
L 225.532295 126.382025 
L 225.338182 126.371511 
L 225.241125 126.252484 
L 225.047012 125.784551 
L 224.949955 125.510816 
L 224.755842 125.345259 
L 224.367615 125.321143 
L 223.882332 123.133935 
L 223.105879 122.752178 
L 222.911765 121.929326 
L 222.232369 121.664842 
L 222.038255 120.825191 
L 221.941199 120.774361 
L 221.747085 120.256973 
L 221.552972 120.237053 
L 221.261802 119.913953 
L 220.970632 119.841103 
L 220.776519 119.651764 
L 220.582405 118.951784 
L 220.485349 118.727304 
L 220.194179 117.616055 
L 220.000065 117.417853 
L 219.029499 116.677565 
L 218.835385 116.296884 
L 217.961875 116.220934 
L 217.476592 115.657965 
L 217.282479 115.176472 
L 216.894252 114.569644 
L 216.117799 114.449348 
L 216.020742 114.017032 
L 215.535459 113.799111 
L 215.244289 113.234929 
L 214.856062 113.16966 
L 214.564892 112.883107 
L 214.467835 112.72362 
L 214.176665 112.625313 
L 214.079609 112.464754 
L 213.594325 112.041555 
L 213.303155 111.552 
L 213.011985 110.664729 
L 212.041419 109.876966 
L 211.556135 109.425951 
L 211.362022 108.879051 
L 211.264965 108.807499 
L 210.585569 108.507594 
L 210.100285 107.521381 
L 209.323832 107.447733 
L 209.129719 107.192925 
L 208.935605 107.147597 
L 208.741492 106.78497 
L 208.450322 106.76863 
L 208.256209 106.50932 
L 207.673869 106.368 
L 207.479755 105.781941 
L 207.188585 105.763068 
L 207.091529 105.358544 
L 206.509189 105.318569 
L 205.926849 105.058202 
L 205.732735 104.786561 
L 205.538622 104.735275 
L 205.150395 104.074105 
L 204.568055 103.463109 
L 203.597489 103.417311 
L 203.306319 103.048358 
L 203.015149 103.022059 
L 202.723979 102.649008 
L 202.626922 102.562615 
L 202.335752 102.53494 
L 200.394619 102.189176 
L 200.103449 101.683862 
L 199.715222 101.563253 
L 199.229939 100.624758 
L 198.453486 99.509905 
L 197.385862 99.332484 
L 197.191749 98.88933 
L 196.803522 98.62696 
L 196.512352 97.951256 
L 196.124126 97.810179 
L 195.930012 97.739228 
L 195.832956 97.381524 
L 194.571219 95.920042 
L 193.309482 95.753915 
L 193.018312 95.165842 
L 192.533029 94.899417 
L 192.435972 94.791299 
L 190.494839 94.667669 
L 189.136046 93.661483 
L 188.941932 93.005911 
L 187.291969 91.738375 
L 187.194912 91.176677 
L 187.000799 91.08313 
L 185.350836 90.950781 
L 185.253779 90.676673 
L 184.671439 89.928 
L 183.797929 89.865074 
L 183.603816 89.610257 
L 183.506759 89.171321 
L 182.342079 88.867251 
L 181.856796 88.048123 
L 178.653926 87.963298 
L 177.974529 86.822277 
L 176.809849 86.807415 
L 175.645169 86.276063 
L 175.548113 86.130312 
L 175.062829 86.091685 
L 174.577546 85.527331 
L 173.995206 85.51202 
L 173.315809 84.988849 
L 170.889393 84.939697 
L 170.598223 84.653874 
L 169.821769 84.501333 
L 167.589466 83.231215 
L 163.027803 82.940696 
L 162.154293 82.785391 
L 161.863123 82.250449 
L 161.766066 81.4455 
L 161.280783 81.372165 
L 161.086669 81.004686 
L 160.019046 80.66304 
L 158.369083 80.475429 
L 157.107346 79.94557 
L 156.816176 79.578188 
L 155.263269 79.331578 
L 152.933909 79.298526 
L 152.157456 78.807156 
L 152.0604 78.352677 
L 151.866286 78.165453 
L 151.672173 77.732848 
L 151.283946 77.596172 
L 149.828096 77.50945 
L 148.663416 76.824084 
L 148.56636 76.594463 
L 147.98402 76.498806 
L 146.237 76.468194 
L 145.848773 76.312615 
L 145.65466 76.099765 
L 145.169376 75.151941 
L 144.878206 74.958187 
L 141.481223 74.494239 
L 141.384166 74.231338 
L 140.801826 73.808319 
L 140.219486 72.778336 
L 139.151863 72.762747 
L 139.054806 72.483556 
L 138.569523 71.996809 
L 138.472466 71.712 
L 138.181296 71.475486 
L 137.987183 70.896539 
L 137.21073 70.454154 
L 134.978426 70.363037 
L 133.328463 69.769644 
L 133.231406 69.449771 
L 131.96967 69.066 
L 130.902046 68.976917 
L 130.22265 68.785548 
L 129.737366 68.170023 
L 128.087403 67.822545 
L 127.699177 67.145143 
L 127.213893 66.869443 
L 124.10808 65.974154 
L 123.622797 65.664 
L 122.749287 65.435774 
L 122.264003 65.109985 
L 120.61404 65.042466 
L 114.887697 65.010162 
L 113.62596 64.282406 
L 111.975997 64.163036 
L 111.781883 63.648 
L 110.811317 63.317924 
L 106.734937 63.162561 
L 104.502634 62.418732 
L 99.6498 62.333217 
L 95.670477 60.86731 
L 92.66172 60.8256 
L 92.37055 59.739429 
L 92.176437 58.581886 
L 84.606017 57.84977 
L 80.626694 56.975324 
L 78.006164 53.568 
L 78.006164 53.568 
" clip-path="url(#pa743250ba7)" style="fill: none; stroke: #2ca02c; stroke-width: 1.5; stroke-linecap: square"/>
   </g>
   <g id="line2d_16">
    <path d="M 334.8181 295.132745 
L 328.41236 295.014749 
L 326.180057 294.936856 
L 323.559527 294.820316 
L 318.027297 294.51259 
L 315.212654 294.355253 
L 302.886457 292.907975 
L 301.333551 292.537879 
L 299.295361 292.191542 
L 299.004191 292.107418 
L 298.615964 291.934482 
L 297.839511 291.709944 
L 297.451284 291.631394 
L 296.674831 291.480899 
L 295.510151 291.370213 
L 294.733698 291.234511 
L 294.248414 291.066801 
L 293.277848 290.858961 
L 291.919054 290.58762 
L 291.724941 290.432707 
L 290.074978 289.915293 
L 289.492638 289.75093 
L 288.619128 289.581719 
L 286.095654 288.700933 
L 285.125088 288.439932 
L 284.542748 288.282508 
L 284.057464 288.169889 
L 283.766294 288.084696 
L 283.475124 287.908041 
L 282.989841 287.603878 
L 282.310444 287.409834 
L 282.019274 287.169867 
L 281.825161 287.044028 
L 280.078141 286.730995 
L 279.884028 286.495683 
L 279.592858 286.094769 
L 279.301688 285.962563 
L 278.913461 285.832585 
L 278.719348 285.744365 
L 278.039951 285.609882 
L 277.748781 285.450004 
L 277.554668 285.372458 
L 277.360554 285.162837 
L 276.875271 284.956168 
L 276.681158 284.789011 
L 276.584101 284.779402 
L 276.389988 284.456317 
L 276.001761 284.355597 
L 275.419421 284.015608 
L 275.128251 283.919926 
L 274.837081 283.650079 
L 274.351798 283.423533 
L 274.254741 283.41976 
L 274.060628 283.249024 
L 273.866514 283.23294 
L 273.575344 282.958521 
L 273.090061 282.688429 
L 272.701834 282.196833 
L 272.604778 281.714727 
L 272.119494 281.595807 
L 271.828325 281.414862 
L 271.148928 280.618507 
L 270.857758 280.465131 
L 270.760701 280.324093 
L 270.566588 279.897873 
L 269.693078 279.707719 
L 269.498965 279.426921 
L 269.304851 279.320934 
L 269.110738 278.974801 
L 268.916625 278.9615 
L 268.722511 278.26803 
L 268.334285 277.781364 
L 267.654888 277.498268 
L 267.169605 277.251306 
L 267.072548 277.123553 
L 266.684321 276.98336 
L 266.490208 276.209378 
L 265.810811 275.101252 
L 265.422585 274.975562 
L 265.034358 274.523657 
L 264.840245 274.3431 
L 264.743188 273.927734 
L 264.160848 273.028827 
L 263.966735 272.583294 
L 263.772621 272.42162 
L 263.481451 271.880745 
L 263.190281 271.793928 
L 262.996168 271.343076 
L 262.607941 270.841077 
L 262.219715 270.74792 
L 261.928545 269.98395 
L 261.443261 269.637731 
L 261.055035 269.085529 
L 260.860921 268.938661 
L 260.666808 268.395324 
L 260.472695 268.379314 
L 260.181525 267.597619 
L 259.696241 267.306432 
L 259.308015 266.741008 
L 259.113901 266.731756 
L 258.919788 266.248461 
L 258.725675 265.405911 
L 257.949221 264.640232 
L 257.755108 264.246457 
L 257.560995 263.780283 
L 257.463938 263.667043 
L 257.269825 263.220618 
L 256.978655 263.08202 
L 256.784541 262.828887 
L 256.493371 262.567289 
L 256.105145 262.140543 
L 255.911031 262.077965 
L 255.619861 261.693537 
L 255.328691 261.562961 
L 255.231635 261.479088 
L 255.037521 261.1252 
L 254.843408 260.346572 
L 254.649295 260.2883 
L 254.261068 259.715706 
L 253.581671 257.643939 
L 253.387558 257.443797 
L 253.193445 257.047058 
L 252.902275 256.970361 
L 252.708161 256.737908 
L 252.125821 256.620846 
L 251.834651 256.011064 
L 251.640538 255.955626 
L 251.155255 254.6841 
L 250.961141 254.016649 
L 250.864085 254.016 
L 250.669971 253.86195 
L 250.475858 253.535222 
L 250.087631 252.901075 
L 249.796461 252.37378 
L 249.214121 252.205877 
L 248.825895 251.366843 
L 248.728838 251.266065 
L 248.631781 250.750561 
L 248.049442 250.154834 
L 247.952385 249.673107 
L 247.661215 249.502146 
L 247.467102 249.105524 
L 247.175932 248.747507 
L 246.496535 248.652035 
L 245.817138 247.142196 
L 245.428912 246.505572 
L 245.234798 246.074315 
L 244.846572 245.841711 
L 244.458345 244.198159 
L 244.361288 244.184024 
L 244.167175 243.91249 
L 244.070118 243.879185 
L 243.876005 243.444306 
L 243.681892 243.407793 
L 243.487778 242.29603 
L 243.293665 242.142165 
L 242.808382 241.260793 
L 242.226042 241.132755 
L 241.934872 240.751822 
L 241.643702 239.754532 
L 241.546645 239.712448 
L 240.867248 236.723805 
L 240.576078 236.037484 
L 240.479022 235.790294 
L 240.187852 234.384127 
L 239.799625 233.624205 
L 239.702568 232.731279 
L 239.411398 232.051861 
L 239.314342 232.020759 
L 239.120228 231.404976 
L 238.537888 229.969609 
L 238.440832 229.945457 
L 238.149662 229.374915 
L 237.955548 228.115352 
L 237.567322 227.524796 
L 236.790868 226.197028 
L 236.693812 226.167344 
L 236.499698 225.521146 
L 236.402642 225.296418 
L 236.208528 225.234197 
L 236.111472 224.970176 
L 235.820302 224.751406 
L 235.335018 222.981718 
L 235.237962 222.946897 
L 235.140905 222.72813 
L 234.849735 222.555912 
L 234.655622 221.921944 
L 234.267395 221.706863 
L 234.073282 220.929493 
L 233.976225 220.849257 
L 233.685055 218.657641 
L 233.490942 218.52834 
L 233.296828 218.487892 
L 232.714488 217.836424 
L 232.520375 216.522298 
L 232.423318 216.507524 
L 232.229205 215.984689 
L 231.938035 215.793828 
L 231.840978 214.399723 
L 231.452752 214.113087 
L 230.773355 214.059057 
L 230.093958 213.247459 
L 229.802788 213.087525 
L 229.317505 210.887293 
L 229.220448 210.773669 
L 229.026335 210.245585 
L 228.541052 209.775513 
L 228.443995 209.772128 
L 227.764598 208.602783 
L 227.376372 208.526528 
L 227.085202 208.334982 
L 226.988145 208.111081 
L 226.696975 207.956642 
L 226.502862 207.195619 
L 226.308748 207.020514 
L 226.114635 206.636764 
L 225.047012 205.768562 
L 224.852898 205.32572 
L 224.658785 205.116923 
L 224.367615 204.768 
L 224.173502 203.865976 
L 224.076445 203.813053 
L 223.882332 203.345029 
L 223.494105 202.968 
L 223.105879 202.049286 
L 222.911765 200.936061 
L 222.523539 200.820966 
L 222.329425 199.795756 
L 222.135312 199.399162 
L 221.747085 198.260658 
L 221.650029 198.247525 
L 221.358859 197.664536 
L 221.261802 197.572604 
L 220.776519 196.389818 
L 220.097122 196.203294 
L 220.000065 195.753119 
L 219.805952 195.749053 
L 219.708895 195.623743 
L 219.029499 195.512221 
L 218.738329 195.186262 
L 218.350102 194.046468 
L 218.058932 193.475196 
L 217.379535 192.790044 
L 217.088365 191.324079 
L 216.700139 190.873946 
L 216.408969 189.46757 
L 215.923685 189.066462 
L 215.632515 189.028627 
L 215.438402 188.691849 
L 215.244289 188.611881 
L 214.953119 188.311985 
L 214.856062 187.72903 
L 214.661949 187.280256 
L 214.564892 186.717767 
L 214.079609 185.93789 
L 213.788439 184.283461 
L 213.594325 184.118179 
L 213.400212 183.593191 
L 212.817872 182.718 
L 212.720815 182.686592 
L 212.235532 181.408 
L 212.138475 181.374792 
L 211.944362 180.966323 
L 211.459079 180.334405 
L 211.264965 180.225981 
L 210.197342 180.072856 
L 209.906172 178.853942 
L 209.809115 178.332825 
L 209.615002 178.175667 
L 209.129719 175.815722 
L 208.935605 175.77501 
L 208.838549 175.562583 
L 208.450322 175.522666 
L 208.062095 174.659051 
L 207.576812 174.528 
L 207.285642 174.439965 
L 206.897415 173.773387 
L 206.703302 173.503293 
L 206.509189 172.959419 
L 206.218019 172.085277 
L 205.926849 171.755148 
L 205.635679 170.762351 
L 205.441565 170.28055 
L 205.150395 169.693319 
L 204.956282 169.588955 
L 204.665112 169.333973 
L 204.470999 169.325923 
L 204.373942 169.076811 
L 204.082772 168.866846 
L 203.985715 168.61482 
L 203.791602 168.605556 
L 203.500432 168.342005 
L 203.403375 168.337134 
L 202.918092 166.940817 
L 202.044582 166.730417 
L 201.753412 165.451067 
L 201.462242 164.841265 
L 201.074015 164.322938 
L 200.685789 164.2346 
L 200.491675 163.834289 
L 200.200506 163.807465 
L 199.521109 162.570563 
L 199.424052 162.10731 
L 198.744656 161.803569 
L 198.162316 160.573102 
L 197.968202 159.898307 
L 197.191749 158.403595 
L 196.900579 158.360347 
L 196.609409 157.26361 
L 196.124126 157.122498 
L 195.735899 156.042603 
L 195.250616 155.246146 
L 195.153559 154.574673 
L 194.862389 154.386859 
L 194.377106 152.952592 
L 193.988879 152.530024 
L 193.794766 150.897516 
L 193.697709 150.734512 
L 193.503596 149.910958 
L 193.309482 147.69469 
L 193.212426 147.66803 
L 192.338916 145.088652 
L 192.241859 145.058642 
L 192.144802 144.720883 
L 191.562462 144.459199 
L 191.465406 143.803034 
L 191.174236 143.312516 
L 190.883066 143.135248 
L 190.591896 142.796625 
L 190.397782 141.76 
L 189.912499 141.01052 
L 189.815442 140.311188 
L 189.524272 140.284211 
L 189.330159 140.042644 
L 189.136046 138.866223 
L 189.038989 138.226751 
L 188.747819 138.020556 
L 188.359592 137.946278 
L 188.262536 137.73154 
L 188.068422 136.858563 
L 187.874309 136.41917 
L 187.777252 136.108606 
L 187.486082 135.888946 
L 187.389026 135.393882 
L 187.097856 135.351505 
L 186.903742 134.805674 
L 186.321402 133.882651 
L 185.739062 133.693476 
L 185.544949 132.936967 
L 184.962609 132.163472 
L 184.768496 132.063319 
L 184.477326 131.132338 
L 184.283212 131.12683 
L 184.089099 130.825855 
L 183.700872 130.017644 
L 183.312646 129.801443 
L 183.021476 129.435529 
L 182.827362 128.508184 
L 182.536192 128.337846 
L 182.439136 127.86665 
L 182.245022 127.750793 
L 181.856796 126.780632 
L 181.662682 126.554549 
L 181.565626 126.174507 
L 181.080342 125.76 
L 180.983286 125.697994 
L 179.818606 123.833263 
L 179.527436 123.634849 
L 179.333322 123.163596 
L 179.236266 123.096189 
L 178.750982 122.184143 
L 178.556869 120.88487 
L 178.168642 120.360727 
L 178.071586 119.932541 
L 177.877472 119.903545 
L 177.489246 119.486256 
L 177.295132 118.85326 
L 177.101019 118.821644 
L 177.003962 118.379901 
L 176.421623 117.541278 
L 176.227509 117.50641 
L 176.033396 117.097412 
L 175.839283 117.061389 
L 175.548113 116.439864 
L 175.451056 116.357703 
L 175.353999 115.510532 
L 175.062829 115.128772 
L 174.868716 115.087771 
L 174.771659 114.613234 
L 174.480489 114.484364 
L 173.995206 113.783895 
L 173.606979 113.561328 
L 173.315809 113.024424 
L 173.024639 112.886641 
L 172.733469 112.612273 
L 172.442299 111.650513 
L 172.345243 111.556315 
L 172.054073 111.548826 
L 171.859959 111.358987 
L 171.568789 109.523542 
L 171.180563 108.980882 
L 170.501166 108.26786 
L 170.209996 108.249839 
L 169.433543 107.264303 
L 169.336486 107.00876 
L 169.045316 105.477175 
L 168.462976 104.807321 
L 168.365919 104.229818 
L 167.977693 103.299302 
L 166.715956 103.197767 
L 166.327729 102.235896 
L 165.939503 101.911204 
L 165.842446 101.624805 
L 165.454219 101.293714 
L 164.871879 100.70606 
L 164.483653 100.70069 
L 163.901313 98.729227 
L 162.639576 98.551345 
L 161.377839 98.545906 
L 161.183726 98.091808 
L 160.989613 97.813605 
L 160.698443 97.754301 
L 159.921989 96.8 
L 159.727876 95.954729 
L 159.436706 95.887027 
L 159.339649 95.739621 
L 159.242593 94.838047 
L 158.466139 93.424552 
L 158.174969 92.564757 
L 157.786743 92.124735 
L 157.301459 92.114393 
L 156.622063 90.970894 
L 156.039723 90.786462 
L 155.748553 90.281487 
L 155.166213 90.088851 
L 154.777986 89.609143 
L 154.195646 89.195765 
L 153.225079 88.921653 
L 152.64274 88.273823 
L 152.254513 88.201298 
L 151.18689 86.366265 
L 150.02221 86.339101 
L 149.43987 86.0928 
L 149.342813 85.428 
L 148.081076 85.182545 
L 147.886963 84.774575 
L 147.789906 84.085431 
L 147.304623 83.77304 
L 146.625226 83.772714 
L 146.431113 83.595541 
L 146.042886 83.487435 
L 145.94583 83.021617 
L 145.460546 82.944 
L 145.36349 82.725422 
L 145.07232 82.575194 
L 144.975263 82.354154 
L 144.587036 82.235666 
L 144.48998 81.752854 
L 144.004696 81.402125 
L 143.131186 81.181697 
L 141.772393 81.128506 
L 141.675336 80.891452 
L 140.510656 80.760558 
L 140.316543 80.273455 
L 139.734203 79.918866 
L 139.443033 79.45376 
L 139.054806 79.30417 
L 137.5019 79.27612 
L 137.404843 79.015869 
L 136.91956 78.892959 
L 136.822503 78.32883 
L 136.434276 78.164323 
L 136.240163 77.929175 
L 135.657823 77.828339 
L 135.46371 77.278909 
L 134.5902 77.271977 
L 134.104916 77.12707 
L 133.910803 76.87708 
L 132.454953 76.418015 
L 132.163783 75.527455 
L 131.6785 75.359267 
L 131.09616 74.88089 
L 130.416763 74.769127 
L 128.47563 74.740901 
L 128.18446 74.123294 
L 123.81691 73.799744 
L 123.719853 73.44 
L 121.099323 72.775259 
L 121.002267 72.389101 
L 120.516983 71.712 
L 119.546417 71.628825 
L 115.66415 70.773517 
L 115.470037 70.360711 
L 114.79064 70.123232 
L 114.596527 69.696 
L 110.811317 69.022349 
L 109.355467 68.455385 
L 106.152597 66.626182 
L 106.152597 66.626182 
" clip-path="url(#pa743250ba7)" style="fill: none; stroke: #d62728; stroke-width: 1.5; stroke-linecap: square"/>
   </g>
   <g id="patch_3">
    <path d="M 57.6 307.584 
L 57.6 41.472 
" style="fill: none; stroke: #000000; stroke-width: 0.8; stroke-linejoin: miter; stroke-linecap: square"/>
   </g>
   <g id="patch_4">
    <path d="M 414.72 307.584 
L 414.72 41.472 
" style="fill: none; stroke: #000000; stroke-width: 0.8; stroke-linejoin: miter; stroke-linecap: square"/>
   </g>
   <g id="patch_5">
    <path d="M 57.6 307.584 
L 414.72 307.584 
" style="fill: none; stroke: #000000; stroke-width: 0.8; stroke-linejoin: miter; stroke-linecap: square"/>
   </g>
   <g id="patch_6">
    <path d="M 57.6 41.472 
L 414.72 41.472 
" style="fill: none; stroke: #000000; stroke-width: 0.8; stroke-linejoin: miter; stroke-linecap: square"/>
   </g>
   <g id="text_15">
    <!-- Czech -->
    <g transform="translate(218.027812 35.472)scale(0.12 -0.12)">
     <defs>
      <path id="DejaVuSans-43" d="M 4122 4306 
L 4122 3641 
Q 3803 3938 3442 4084 
Q 3081 4231 2675 4231 
Q 1875 4231 1450 3742 
Q 1025 3253 1025 2328 
Q 1025 1406 1450 917 
Q 1875 428 2675 428 
Q 3081 428 3442 575 
Q 3803 722 4122 1019 
L 4122 359 
Q 3791 134 3420 21 
Q 3050 -91 2638 -91 
Q 1578 -91 968 557 
Q 359 1206 359 2328 
Q 359 3453 968 4101 
Q 1578 4750 2638 4750 
Q 3056 4750 3426 4639 
Q 3797 4528 4122 4306 
z
" transform="scale(0.015625)"/>
      <path id="DejaVuSans-7a" d="M 353 3500 
L 3084 3500 
L 3084 2975 
L 922 459 
L 3084 459 
L 3084 0 
L 275 0 
L 275 525 
L 2438 3041 
L 353 3041 
L 353 3500 
z
" transform="scale(0.015625)"/>
      <path id="DejaVuSans-68" d="M 3513 2113 
L 3513 0 
L 2938 0 
L 2938 2094 
Q 2938 2591 2744 2837 
Q 2550 3084 2163 3084 
Q 1697 3084 1428 2787 
Q 1159 2491 1159 1978 
L 1159 0 
L 581 0 
L 581 4863 
L 1159 4863 
L 1159 2956 
Q 1366 3272 1645 3428 
Q 1925 3584 2291 3584 
Q 2894 3584 3203 3211 
Q 3513 2838 3513 2113 
z
" transform="scale(0.015625)"/>
     </defs>
     <use xlink:href="#DejaVuSans-43"/>
     <use xlink:href="#DejaVuSans-7a" x="69.824219"/>
     <use xlink:href="#DejaVuSans-65" x="122.314453"/>
     <use xlink:href="#DejaVuSans-63" x="183.837891"/>
     <use xlink:href="#DejaVuSans-68" x="238.818359"/>
    </g>
   </g>
   <g id="legend_1">
    <g id="patch_7">
     <path d="M 322.862188 108.1845 
L 407.72 108.1845 
Q 409.72 108.1845 409.72 106.1845 
L 409.72 48.472 
Q 409.72 46.472 407.72 46.472 
L 322.862188 46.472 
Q 320.862188 46.472 320.862188 48.472 
L 320.862188 106.1845 
Q 320.862188 108.1845 322.862188 108.1845 
z
" style="fill: #ffffff; opacity: 0.8; stroke: #cccccc; stroke-linejoin: miter"/>
    </g>
    <g id="line2d_17">
     <path d="M 324.862188 54.570438 
L 334.862188 54.570438 
L 344.862188 54.570438 
" style="fill: none; stroke: #1f77b4; stroke-width: 1.5; stroke-linecap: square"/>
    </g>
    <g id="text_16">
     <!-- Average -->
     <g transform="translate(352.862188 58.070438)scale(0.1 -0.1)">
      <defs>
       <path id="DejaVuSans-41" d="M 2188 4044 
L 1331 1722 
L 3047 1722 
L 2188 4044 
z
M 1831 4666 
L 2547 4666 
L 4325 0 
L 3669 0 
L 3244 1197 
L 1141 1197 
L 716 0 
L 50 0 
L 1831 4666 
z
" transform="scale(0.015625)"/>
       <path id="DejaVuSans-76" d="M 191 3500 
L 800 3500 
L 1894 563 
L 2988 3500 
L 3597 3500 
L 2284 0 
L 1503 0 
L 191 3500 
z
" transform="scale(0.015625)"/>
       <path id="DejaVuSans-67" d="M 2906 1791 
Q 2906 2416 2648 2759 
Q 2391 3103 1925 3103 
Q 1463 3103 1205 2759 
Q 947 2416 947 1791 
Q 947 1169 1205 825 
Q 1463 481 1925 481 
Q 2391 481 2648 825 
Q 2906 1169 2906 1791 
z
M 3481 434 
Q 3481 -459 3084 -895 
Q 2688 -1331 1869 -1331 
Q 1566 -1331 1297 -1286 
Q 1028 -1241 775 -1147 
L 775 -588 
Q 1028 -725 1275 -790 
Q 1522 -856 1778 -856 
Q 2344 -856 2625 -561 
Q 2906 -266 2906 331 
L 2906 616 
Q 2728 306 2450 153 
Q 2172 0 1784 0 
Q 1141 0 747 490 
Q 353 981 353 1791 
Q 353 2603 747 3093 
Q 1141 3584 1784 3584 
Q 2172 3584 2450 3431 
Q 2728 3278 2906 2969 
L 2906 3500 
L 3481 3500 
L 3481 434 
z
" transform="scale(0.015625)"/>
      </defs>
      <use xlink:href="#DejaVuSans-41"/>
      <use xlink:href="#DejaVuSans-76" x="62.533203"/>
      <use xlink:href="#DejaVuSans-65" x="121.712891"/>
      <use xlink:href="#DejaVuSans-72" x="183.236328"/>
      <use xlink:href="#DejaVuSans-61" x="224.349609"/>
      <use xlink:href="#DejaVuSans-67" x="285.628906"/>
      <use xlink:href="#DejaVuSans-65" x="349.105469"/>
     </g>
    </g>
    <g id="line2d_18">
     <path d="M 324.862188 69.248563 
L 334.862188 69.248563 
L 344.862188 69.248563 
" style="fill: none; stroke: #ff7f0e; stroke-width: 1.5; stroke-linecap: square"/>
    </g>
    <g id="text_17">
     <!-- Sum -->
     <g transform="translate(352.862188 72.748563)scale(0.1 -0.1)">
      <defs>
       <path id="DejaVuSans-53" d="M 3425 4513 
L 3425 3897 
Q 3066 4069 2747 4153 
Q 2428 4238 2131 4238 
Q 1616 4238 1336 4038 
Q 1056 3838 1056 3469 
Q 1056 3159 1242 3001 
Q 1428 2844 1947 2747 
L 2328 2669 
Q 3034 2534 3370 2195 
Q 3706 1856 3706 1288 
Q 3706 609 3251 259 
Q 2797 -91 1919 -91 
Q 1588 -91 1214 -16 
Q 841 59 441 206 
L 441 856 
Q 825 641 1194 531 
Q 1563 422 1919 422 
Q 2459 422 2753 634 
Q 3047 847 3047 1241 
Q 3047 1584 2836 1778 
Q 2625 1972 2144 2069 
L 1759 2144 
Q 1053 2284 737 2584 
Q 422 2884 422 3419 
Q 422 4038 858 4394 
Q 1294 4750 2059 4750 
Q 2388 4750 2728 4690 
Q 3069 4631 3425 4513 
z
" transform="scale(0.015625)"/>
       <path id="DejaVuSans-75" d="M 544 1381 
L 544 3500 
L 1119 3500 
L 1119 1403 
Q 1119 906 1312 657 
Q 1506 409 1894 409 
Q 2359 409 2629 706 
Q 2900 1003 2900 1516 
L 2900 3500 
L 3475 3500 
L 3475 0 
L 2900 0 
L 2900 538 
Q 2691 219 2414 64 
Q 2138 -91 1772 -91 
Q 1169 -91 856 284 
Q 544 659 544 1381 
z
M 1991 3584 
L 1991 3584 
z
" transform="scale(0.015625)"/>
       <path id="DejaVuSans-6d" d="M 3328 2828 
Q 3544 3216 3844 3400 
Q 4144 3584 4550 3584 
Q 5097 3584 5394 3201 
Q 5691 2819 5691 2113 
L 5691 0 
L 5113 0 
L 5113 2094 
Q 5113 2597 4934 2840 
Q 4756 3084 4391 3084 
Q 3944 3084 3684 2787 
Q 3425 2491 3425 1978 
L 3425 0 
L 2847 0 
L 2847 2094 
Q 2847 2600 2669 2842 
Q 2491 3084 2119 3084 
Q 1678 3084 1418 2786 
Q 1159 2488 1159 1978 
L 1159 0 
L 581 0 
L 581 3500 
L 1159 3500 
L 1159 2956 
Q 1356 3278 1631 3431 
Q 1906 3584 2284 3584 
Q 2666 3584 2933 3390 
Q 3200 3197 3328 2828 
z
" transform="scale(0.015625)"/>
      </defs>
      <use xlink:href="#DejaVuSans-53"/>
      <use xlink:href="#DejaVuSans-75" x="63.476562"/>
      <use xlink:href="#DejaVuSans-6d" x="126.855469"/>
     </g>
    </g>
    <g id="line2d_19">
     <path d="M 324.862188 83.926688 
L 334.862188 83.926688 
L 344.862188 83.926688 
" style="fill: none; stroke: #2ca02c; stroke-width: 1.5; stroke-linecap: square"/>
    </g>
    <g id="text_18">
     <!-- Max -->
     <g transform="translate(352.862188 87.426688)scale(0.1 -0.1)">
      <defs>
       <path id="DejaVuSans-4d" d="M 628 4666 
L 1569 4666 
L 2759 1491 
L 3956 4666 
L 4897 4666 
L 4897 0 
L 4281 0 
L 4281 4097 
L 3078 897 
L 2444 897 
L 1241 4097 
L 1241 0 
L 628 0 
L 628 4666 
z
" transform="scale(0.015625)"/>
       <path id="DejaVuSans-78" d="M 3513 3500 
L 2247 1797 
L 3578 0 
L 2900 0 
L 1881 1375 
L 863 0 
L 184 0 
L 1544 1831 
L 300 3500 
L 978 3500 
L 1906 2253 
L 2834 3500 
L 3513 3500 
z
" transform="scale(0.015625)"/>
      </defs>
      <use xlink:href="#DejaVuSans-4d"/>
      <use xlink:href="#DejaVuSans-61" x="86.279297"/>
      <use xlink:href="#DejaVuSans-78" x="147.558594"/>
     </g>
    </g>
    <g id="line2d_20">
     <path d="M 324.862188 98.604813 
L 334.862188 98.604813 
L 344.862188 98.604813 
" style="fill: none; stroke: #d62728; stroke-width: 1.5; stroke-linecap: square"/>
    </g>
    <g id="text_19">
     <!-- Probability -->
     <g transform="translate(352.862188 102.104813)scale(0.1 -0.1)">
      <defs>
       <path id="DejaVuSans-62" d="M 3116 1747 
Q 3116 2381 2855 2742 
Q 2594 3103 2138 3103 
Q 1681 3103 1420 2742 
Q 1159 2381 1159 1747 
Q 1159 1113 1420 752 
Q 1681 391 2138 391 
Q 2594 391 2855 752 
Q 3116 1113 3116 1747 
z
M 1159 2969 
Q 1341 3281 1617 3432 
Q 1894 3584 2278 3584 
Q 2916 3584 3314 3078 
Q 3713 2572 3713 1747 
Q 3713 922 3314 415 
Q 2916 -91 2278 -91 
Q 1894 -91 1617 61 
Q 1341 213 1159 525 
L 1159 0 
L 581 0 
L 581 4863 
L 1159 4863 
L 1159 2969 
z
" transform="scale(0.015625)"/>
       <path id="DejaVuSans-74" d="M 1172 4494 
L 1172 3500 
L 2356 3500 
L 2356 3053 
L 1172 3053 
L 1172 1153 
Q 1172 725 1289 603 
Q 1406 481 1766 481 
L 2356 481 
L 2356 0 
L 1766 0 
Q 1100 0 847 248 
Q 594 497 594 1153 
L 594 3053 
L 172 3053 
L 172 3500 
L 594 3500 
L 594 4494 
L 1172 4494 
z
" transform="scale(0.015625)"/>
       <path id="DejaVuSans-79" d="M 2059 -325 
Q 1816 -950 1584 -1140 
Q 1353 -1331 966 -1331 
L 506 -1331 
L 506 -850 
L 844 -850 
Q 1081 -850 1212 -737 
Q 1344 -625 1503 -206 
L 1606 56 
L 191 3500 
L 800 3500 
L 1894 763 
L 2988 3500 
L 3597 3500 
L 2059 -325 
z
" transform="scale(0.015625)"/>
      </defs>
      <use xlink:href="#DejaVuSans-50"/>
      <use xlink:href="#DejaVuSans-72" x="58.552734"/>
      <use xlink:href="#DejaVuSans-6f" x="97.416016"/>
      <use xlink:href="#DejaVuSans-62" x="158.597656"/>
      <use xlink:href="#DejaVuSans-61" x="222.074219"/>
      <use xlink:href="#DejaVuSans-62" x="283.353516"/>
      <use xlink:href="#DejaVuSans-69" x="346.830078"/>
      <use xlink:href="#DejaVuSans-6c" x="374.613281"/>
      <use xlink:href="#DejaVuSans-69" x="402.396484"/>
      <use xlink:href="#DejaVuSans-74" x="430.179688"/>
      <use xlink:href="#DejaVuSans-79" x="469.388672"/>
     </g>
    </g>
   </g>
  </g>
 </g>
 <defs>
  <clipPath id="pa743250ba7">
   <rect x="57.6" y="41.472" width="357.12" height="266.112"/>
  </clipPath>
 </defs>
</svg>
