<?xml version="1.0" encoding="utf-8" standalone="no"?>
<!DOCTYPE svg PUBLIC "-//W3C//DTD SVG 1.1//EN"
  "http://www.w3.org/Graphics/SVG/1.1/DTD/svg11.dtd">
<svg xmlns:xlink="http://www.w3.org/1999/xlink" width="460.8pt" height="345.6pt" viewBox="0 0 460.8 345.6" xmlns="http://www.w3.org/2000/svg" version="1.1">
 <metadata>
  <rdf:RDF xmlns:dc="http://purl.org/dc/elements/1.1/" xmlns:cc="http://creativecommons.org/ns#" xmlns:rdf="http://www.w3.org/1999/02/22-rdf-syntax-ns#">
   <cc:Work>
    <dc:type rdf:resource="http://purl.org/dc/dcmitype/StillImage"/>
    <dc:date>2024-04-08T13:40:15.826249</dc:date>
    <dc:format>image/svg+xml</dc:format>
    <dc:creator>
     <cc:Agent>
      <dc:title>Matplotlib v3.5.1, https://matplotlib.org/</dc:title>
     </cc:Agent>
    </dc:creator>
   </cc:Work>
  </rdf:RDF>
 </metadata>
 <defs>
  <style type="text/css">*{stroke-linejoin: round; stroke-linecap: butt}</style>
 </defs>
 <g id="figure_1">
  <g id="patch_1">
   <path d="M 0 345.6 
L 460.8 345.6 
L 460.8 0 
L 0 0 
z
" style="fill: #ffffff"/>
  </g>
  <g id="axes_1">
   <g id="patch_2">
    <path d="M 57.6 307.584 
L 414.72 307.584 
L 414.72 41.472 
L 57.6 41.472 
z
" style="fill: #ffffff"/>
   </g>
   <g id="matplotlib.axis_1">
    <g id="xtick_1">
     <g id="line2d_1">
      <defs>
       <path id="m85797b54a4" d="M 0 0 
L 0 3.5 
" style="stroke: #000000; stroke-width: 0.8"/>
      </defs>
      <g>
       <use xlink:href="#m85797b54a4" x="73.832727" y="307.584" style="stroke: #000000; stroke-width: 0.8"/>
      </g>
     </g>
     <g id="text_1">
      <!-- 0.0 -->
      <g transform="translate(65.881165 322.182437)scale(0.1 -0.1)">
       <defs>
        <path id="DejaVuSans-30" d="M 2034 4250 
Q 1547 4250 1301 3770 
Q 1056 3291 1056 2328 
Q 1056 1369 1301 889 
Q 1547 409 2034 409 
Q 2525 409 2770 889 
Q 3016 1369 3016 2328 
Q 3016 3291 2770 3770 
Q 2525 4250 2034 4250 
z
M 2034 4750 
Q 2819 4750 3233 4129 
Q 3647 3509 3647 2328 
Q 3647 1150 3233 529 
Q 2819 -91 2034 -91 
Q 1250 -91 836 529 
Q 422 1150 422 2328 
Q 422 3509 836 4129 
Q 1250 4750 2034 4750 
z
" transform="scale(0.015625)"/>
        <path id="DejaVuSans-2e" d="M 684 794 
L 1344 794 
L 1344 0 
L 684 0 
L 684 794 
z
" transform="scale(0.015625)"/>
       </defs>
       <use xlink:href="#DejaVuSans-30"/>
       <use xlink:href="#DejaVuSans-2e" x="63.623047"/>
       <use xlink:href="#DejaVuSans-30" x="95.410156"/>
      </g>
     </g>
    </g>
    <g id="xtick_2">
     <g id="line2d_2">
      <g>
       <use xlink:href="#m85797b54a4" x="138.763636" y="307.584" style="stroke: #000000; stroke-width: 0.8"/>
      </g>
     </g>
     <g id="text_2">
      <!-- 0.2 -->
      <g transform="translate(130.812074 322.182437)scale(0.1 -0.1)">
       <defs>
        <path id="DejaVuSans-32" d="M 1228 531 
L 3431 531 
L 3431 0 
L 469 0 
L 469 531 
Q 828 903 1448 1529 
Q 2069 2156 2228 2338 
Q 2531 2678 2651 2914 
Q 2772 3150 2772 3378 
Q 2772 3750 2511 3984 
Q 2250 4219 1831 4219 
Q 1534 4219 1204 4116 
Q 875 4013 500 3803 
L 500 4441 
Q 881 4594 1212 4672 
Q 1544 4750 1819 4750 
Q 2544 4750 2975 4387 
Q 3406 4025 3406 3419 
Q 3406 3131 3298 2873 
Q 3191 2616 2906 2266 
Q 2828 2175 2409 1742 
Q 1991 1309 1228 531 
z
" transform="scale(0.015625)"/>
       </defs>
       <use xlink:href="#DejaVuSans-30"/>
       <use xlink:href="#DejaVuSans-2e" x="63.623047"/>
       <use xlink:href="#DejaVuSans-32" x="95.410156"/>
      </g>
     </g>
    </g>
    <g id="xtick_3">
     <g id="line2d_3">
      <g>
       <use xlink:href="#m85797b54a4" x="203.694545" y="307.584" style="stroke: #000000; stroke-width: 0.8"/>
      </g>
     </g>
     <g id="text_3">
      <!-- 0.4 -->
      <g transform="translate(195.742983 322.182437)scale(0.1 -0.1)">
       <defs>
        <path id="DejaVuSans-34" d="M 2419 4116 
L 825 1625 
L 2419 1625 
L 2419 4116 
z
M 2253 4666 
L 3047 4666 
L 3047 1625 
L 3713 1625 
L 3713 1100 
L 3047 1100 
L 3047 0 
L 2419 0 
L 2419 1100 
L 313 1100 
L 313 1709 
L 2253 4666 
z
" transform="scale(0.015625)"/>
       </defs>
       <use xlink:href="#DejaVuSans-30"/>
       <use xlink:href="#DejaVuSans-2e" x="63.623047"/>
       <use xlink:href="#DejaVuSans-34" x="95.410156"/>
      </g>
     </g>
    </g>
    <g id="xtick_4">
     <g id="line2d_4">
      <g>
       <use xlink:href="#m85797b54a4" x="268.625455" y="307.584" style="stroke: #000000; stroke-width: 0.8"/>
      </g>
     </g>
     <g id="text_4">
      <!-- 0.6 -->
      <g transform="translate(260.673892 322.182437)scale(0.1 -0.1)">
       <defs>
        <path id="DejaVuSans-36" d="M 2113 2584 
Q 1688 2584 1439 2293 
Q 1191 2003 1191 1497 
Q 1191 994 1439 701 
Q 1688 409 2113 409 
Q 2538 409 2786 701 
Q 3034 994 3034 1497 
Q 3034 2003 2786 2293 
Q 2538 2584 2113 2584 
z
M 3366 4563 
L 3366 3988 
Q 3128 4100 2886 4159 
Q 2644 4219 2406 4219 
Q 1781 4219 1451 3797 
Q 1122 3375 1075 2522 
Q 1259 2794 1537 2939 
Q 1816 3084 2150 3084 
Q 2853 3084 3261 2657 
Q 3669 2231 3669 1497 
Q 3669 778 3244 343 
Q 2819 -91 2113 -91 
Q 1303 -91 875 529 
Q 447 1150 447 2328 
Q 447 3434 972 4092 
Q 1497 4750 2381 4750 
Q 2619 4750 2861 4703 
Q 3103 4656 3366 4563 
z
" transform="scale(0.015625)"/>
       </defs>
       <use xlink:href="#DejaVuSans-30"/>
       <use xlink:href="#DejaVuSans-2e" x="63.623047"/>
       <use xlink:href="#DejaVuSans-36" x="95.410156"/>
      </g>
     </g>
    </g>
    <g id="xtick_5">
     <g id="line2d_5">
      <g>
       <use xlink:href="#m85797b54a4" x="333.556364" y="307.584" style="stroke: #000000; stroke-width: 0.8"/>
      </g>
     </g>
     <g id="text_5">
      <!-- 0.8 -->
      <g transform="translate(325.604801 322.182437)scale(0.1 -0.1)">
       <defs>
        <path id="DejaVuSans-38" d="M 2034 2216 
Q 1584 2216 1326 1975 
Q 1069 1734 1069 1313 
Q 1069 891 1326 650 
Q 1584 409 2034 409 
Q 2484 409 2743 651 
Q 3003 894 3003 1313 
Q 3003 1734 2745 1975 
Q 2488 2216 2034 2216 
z
M 1403 2484 
Q 997 2584 770 2862 
Q 544 3141 544 3541 
Q 544 4100 942 4425 
Q 1341 4750 2034 4750 
Q 2731 4750 3128 4425 
Q 3525 4100 3525 3541 
Q 3525 3141 3298 2862 
Q 3072 2584 2669 2484 
Q 3125 2378 3379 2068 
Q 3634 1759 3634 1313 
Q 3634 634 3220 271 
Q 2806 -91 2034 -91 
Q 1263 -91 848 271 
Q 434 634 434 1313 
Q 434 1759 690 2068 
Q 947 2378 1403 2484 
z
M 1172 3481 
Q 1172 3119 1398 2916 
Q 1625 2713 2034 2713 
Q 2441 2713 2670 2916 
Q 2900 3119 2900 3481 
Q 2900 3844 2670 4047 
Q 2441 4250 2034 4250 
Q 1625 4250 1398 4047 
Q 1172 3844 1172 3481 
z
" transform="scale(0.015625)"/>
       </defs>
       <use xlink:href="#DejaVuSans-30"/>
       <use xlink:href="#DejaVuSans-2e" x="63.623047"/>
       <use xlink:href="#DejaVuSans-38" x="95.410156"/>
      </g>
     </g>
    </g>
    <g id="xtick_6">
     <g id="line2d_6">
      <g>
       <use xlink:href="#m85797b54a4" x="398.487273" y="307.584" style="stroke: #000000; stroke-width: 0.8"/>
      </g>
     </g>
     <g id="text_6">
      <!-- 1.0 -->
      <g transform="translate(390.53571 322.182437)scale(0.1 -0.1)">
       <defs>
        <path id="DejaVuSans-31" d="M 794 531 
L 1825 531 
L 1825 4091 
L 703 3866 
L 703 4441 
L 1819 4666 
L 2450 4666 
L 2450 531 
L 3481 531 
L 3481 0 
L 794 0 
L 794 531 
z
" transform="scale(0.015625)"/>
       </defs>
       <use xlink:href="#DejaVuSans-31"/>
       <use xlink:href="#DejaVuSans-2e" x="63.623047"/>
       <use xlink:href="#DejaVuSans-30" x="95.410156"/>
      </g>
     </g>
    </g>
    <g id="text_7">
     <!-- Recall -->
     <g transform="translate(221.242812 335.860562)scale(0.1 -0.1)">
      <defs>
       <path id="DejaVuSans-52" d="M 2841 2188 
Q 3044 2119 3236 1894 
Q 3428 1669 3622 1275 
L 4263 0 
L 3584 0 
L 2988 1197 
Q 2756 1666 2539 1819 
Q 2322 1972 1947 1972 
L 1259 1972 
L 1259 0 
L 628 0 
L 628 4666 
L 2053 4666 
Q 2853 4666 3247 4331 
Q 3641 3997 3641 3322 
Q 3641 2881 3436 2590 
Q 3231 2300 2841 2188 
z
M 1259 4147 
L 1259 2491 
L 2053 2491 
Q 2509 2491 2742 2702 
Q 2975 2913 2975 3322 
Q 2975 3731 2742 3939 
Q 2509 4147 2053 4147 
L 1259 4147 
z
" transform="scale(0.015625)"/>
       <path id="DejaVuSans-65" d="M 3597 1894 
L 3597 1613 
L 953 1613 
Q 991 1019 1311 708 
Q 1631 397 2203 397 
Q 2534 397 2845 478 
Q 3156 559 3463 722 
L 3463 178 
Q 3153 47 2828 -22 
Q 2503 -91 2169 -91 
Q 1331 -91 842 396 
Q 353 884 353 1716 
Q 353 2575 817 3079 
Q 1281 3584 2069 3584 
Q 2775 3584 3186 3129 
Q 3597 2675 3597 1894 
z
M 3022 2063 
Q 3016 2534 2758 2815 
Q 2500 3097 2075 3097 
Q 1594 3097 1305 2825 
Q 1016 2553 972 2059 
L 3022 2063 
z
" transform="scale(0.015625)"/>
       <path id="DejaVuSans-63" d="M 3122 3366 
L 3122 2828 
Q 2878 2963 2633 3030 
Q 2388 3097 2138 3097 
Q 1578 3097 1268 2742 
Q 959 2388 959 1747 
Q 959 1106 1268 751 
Q 1578 397 2138 397 
Q 2388 397 2633 464 
Q 2878 531 3122 666 
L 3122 134 
Q 2881 22 2623 -34 
Q 2366 -91 2075 -91 
Q 1284 -91 818 406 
Q 353 903 353 1747 
Q 353 2603 823 3093 
Q 1294 3584 2113 3584 
Q 2378 3584 2631 3529 
Q 2884 3475 3122 3366 
z
" transform="scale(0.015625)"/>
       <path id="DejaVuSans-61" d="M 2194 1759 
Q 1497 1759 1228 1600 
Q 959 1441 959 1056 
Q 959 750 1161 570 
Q 1363 391 1709 391 
Q 2188 391 2477 730 
Q 2766 1069 2766 1631 
L 2766 1759 
L 2194 1759 
z
M 3341 1997 
L 3341 0 
L 2766 0 
L 2766 531 
Q 2569 213 2275 61 
Q 1981 -91 1556 -91 
Q 1019 -91 701 211 
Q 384 513 384 1019 
Q 384 1609 779 1909 
Q 1175 2209 1959 2209 
L 2766 2209 
L 2766 2266 
Q 2766 2663 2505 2880 
Q 2244 3097 1772 3097 
Q 1472 3097 1187 3025 
Q 903 2953 641 2809 
L 641 3341 
Q 956 3463 1253 3523 
Q 1550 3584 1831 3584 
Q 2591 3584 2966 3190 
Q 3341 2797 3341 1997 
z
" transform="scale(0.015625)"/>
       <path id="DejaVuSans-6c" d="M 603 4863 
L 1178 4863 
L 1178 0 
L 603 0 
L 603 4863 
z
" transform="scale(0.015625)"/>
      </defs>
      <use xlink:href="#DejaVuSans-52"/>
      <use xlink:href="#DejaVuSans-65" x="64.982422"/>
      <use xlink:href="#DejaVuSans-63" x="126.505859"/>
      <use xlink:href="#DejaVuSans-61" x="181.486328"/>
      <use xlink:href="#DejaVuSans-6c" x="242.765625"/>
      <use xlink:href="#DejaVuSans-6c" x="270.548828"/>
     </g>
    </g>
   </g>
   <g id="matplotlib.axis_2">
    <g id="ytick_1">
     <g id="line2d_7">
      <defs>
       <path id="m9dae2cadfa" d="M 0 0 
L -3.5 0 
" style="stroke: #000000; stroke-width: 0.8"/>
      </defs>
      <g>
       <use xlink:href="#m9dae2cadfa" x="57.6" y="295.488" style="stroke: #000000; stroke-width: 0.8"/>
      </g>
     </g>
     <g id="text_8">
      <!-- 0.0 -->
      <g transform="translate(34.696875 299.287219)scale(0.1 -0.1)">
       <use xlink:href="#DejaVuSans-30"/>
       <use xlink:href="#DejaVuSans-2e" x="63.623047"/>
       <use xlink:href="#DejaVuSans-30" x="95.410156"/>
      </g>
     </g>
    </g>
    <g id="ytick_2">
     <g id="line2d_8">
      <g>
       <use xlink:href="#m9dae2cadfa" x="57.6" y="247.104" style="stroke: #000000; stroke-width: 0.8"/>
      </g>
     </g>
     <g id="text_9">
      <!-- 0.2 -->
      <g transform="translate(34.696875 250.903219)scale(0.1 -0.1)">
       <use xlink:href="#DejaVuSans-30"/>
       <use xlink:href="#DejaVuSans-2e" x="63.623047"/>
       <use xlink:href="#DejaVuSans-32" x="95.410156"/>
      </g>
     </g>
    </g>
    <g id="ytick_3">
     <g id="line2d_9">
      <g>
       <use xlink:href="#m9dae2cadfa" x="57.6" y="198.72" style="stroke: #000000; stroke-width: 0.8"/>
      </g>
     </g>
     <g id="text_10">
      <!-- 0.4 -->
      <g transform="translate(34.696875 202.519219)scale(0.1 -0.1)">
       <use xlink:href="#DejaVuSans-30"/>
       <use xlink:href="#DejaVuSans-2e" x="63.623047"/>
       <use xlink:href="#DejaVuSans-34" x="95.410156"/>
      </g>
     </g>
    </g>
    <g id="ytick_4">
     <g id="line2d_10">
      <g>
       <use xlink:href="#m9dae2cadfa" x="57.6" y="150.336" style="stroke: #000000; stroke-width: 0.8"/>
      </g>
     </g>
     <g id="text_11">
      <!-- 0.6 -->
      <g transform="translate(34.696875 154.135219)scale(0.1 -0.1)">
       <use xlink:href="#DejaVuSans-30"/>
       <use xlink:href="#DejaVuSans-2e" x="63.623047"/>
       <use xlink:href="#DejaVuSans-36" x="95.410156"/>
      </g>
     </g>
    </g>
    <g id="ytick_5">
     <g id="line2d_11">
      <g>
       <use xlink:href="#m9dae2cadfa" x="57.6" y="101.952" style="stroke: #000000; stroke-width: 0.8"/>
      </g>
     </g>
     <g id="text_12">
      <!-- 0.8 -->
      <g transform="translate(34.696875 105.751219)scale(0.1 -0.1)">
       <use xlink:href="#DejaVuSans-30"/>
       <use xlink:href="#DejaVuSans-2e" x="63.623047"/>
       <use xlink:href="#DejaVuSans-38" x="95.410156"/>
      </g>
     </g>
    </g>
    <g id="ytick_6">
     <g id="line2d_12">
      <g>
       <use xlink:href="#m9dae2cadfa" x="57.6" y="53.568" style="stroke: #000000; stroke-width: 0.8"/>
      </g>
     </g>
     <g id="text_13">
      <!-- 1.0 -->
      <g transform="translate(34.696875 57.367219)scale(0.1 -0.1)">
       <use xlink:href="#DejaVuSans-31"/>
       <use xlink:href="#DejaVuSans-2e" x="63.623047"/>
       <use xlink:href="#DejaVuSans-30" x="95.410156"/>
      </g>
     </g>
    </g>
    <g id="text_14">
     <!-- Precision -->
     <g transform="translate(28.617187 196.835031)rotate(-90)scale(0.1 -0.1)">
      <defs>
       <path id="DejaVuSans-50" d="M 1259 4147 
L 1259 2394 
L 2053 2394 
Q 2494 2394 2734 2622 
Q 2975 2850 2975 3272 
Q 2975 3691 2734 3919 
Q 2494 4147 2053 4147 
L 1259 4147 
z
M 628 4666 
L 2053 4666 
Q 2838 4666 3239 4311 
Q 3641 3956 3641 3272 
Q 3641 2581 3239 2228 
Q 2838 1875 2053 1875 
L 1259 1875 
L 1259 0 
L 628 0 
L 628 4666 
z
" transform="scale(0.015625)"/>
       <path id="DejaVuSans-72" d="M 2631 2963 
Q 2534 3019 2420 3045 
Q 2306 3072 2169 3072 
Q 1681 3072 1420 2755 
Q 1159 2438 1159 1844 
L 1159 0 
L 581 0 
L 581 3500 
L 1159 3500 
L 1159 2956 
Q 1341 3275 1631 3429 
Q 1922 3584 2338 3584 
Q 2397 3584 2469 3576 
Q 2541 3569 2628 3553 
L 2631 2963 
z
" transform="scale(0.015625)"/>
       <path id="DejaVuSans-69" d="M 603 3500 
L 1178 3500 
L 1178 0 
L 603 0 
L 603 3500 
z
M 603 4863 
L 1178 4863 
L 1178 4134 
L 603 4134 
L 603 4863 
z
" transform="scale(0.015625)"/>
       <path id="DejaVuSans-73" d="M 2834 3397 
L 2834 2853 
Q 2591 2978 2328 3040 
Q 2066 3103 1784 3103 
Q 1356 3103 1142 2972 
Q 928 2841 928 2578 
Q 928 2378 1081 2264 
Q 1234 2150 1697 2047 
L 1894 2003 
Q 2506 1872 2764 1633 
Q 3022 1394 3022 966 
Q 3022 478 2636 193 
Q 2250 -91 1575 -91 
Q 1294 -91 989 -36 
Q 684 19 347 128 
L 347 722 
Q 666 556 975 473 
Q 1284 391 1588 391 
Q 1994 391 2212 530 
Q 2431 669 2431 922 
Q 2431 1156 2273 1281 
Q 2116 1406 1581 1522 
L 1381 1569 
Q 847 1681 609 1914 
Q 372 2147 372 2553 
Q 372 3047 722 3315 
Q 1072 3584 1716 3584 
Q 2034 3584 2315 3537 
Q 2597 3491 2834 3397 
z
" transform="scale(0.015625)"/>
       <path id="DejaVuSans-6f" d="M 1959 3097 
Q 1497 3097 1228 2736 
Q 959 2375 959 1747 
Q 959 1119 1226 758 
Q 1494 397 1959 397 
Q 2419 397 2687 759 
Q 2956 1122 2956 1747 
Q 2956 2369 2687 2733 
Q 2419 3097 1959 3097 
z
M 1959 3584 
Q 2709 3584 3137 3096 
Q 3566 2609 3566 1747 
Q 3566 888 3137 398 
Q 2709 -91 1959 -91 
Q 1206 -91 779 398 
Q 353 888 353 1747 
Q 353 2609 779 3096 
Q 1206 3584 1959 3584 
z
" transform="scale(0.015625)"/>
       <path id="DejaVuSans-6e" d="M 3513 2113 
L 3513 0 
L 2938 0 
L 2938 2094 
Q 2938 2591 2744 2837 
Q 2550 3084 2163 3084 
Q 1697 3084 1428 2787 
Q 1159 2491 1159 1978 
L 1159 0 
L 581 0 
L 581 3500 
L 1159 3500 
L 1159 2956 
Q 1366 3272 1645 3428 
Q 1925 3584 2291 3584 
Q 2894 3584 3203 3211 
Q 3513 2838 3513 2113 
z
" transform="scale(0.015625)"/>
      </defs>
      <use xlink:href="#DejaVuSans-50"/>
      <use xlink:href="#DejaVuSans-72" x="58.552734"/>
      <use xlink:href="#DejaVuSans-65" x="97.416016"/>
      <use xlink:href="#DejaVuSans-63" x="158.939453"/>
      <use xlink:href="#DejaVuSans-69" x="213.919922"/>
      <use xlink:href="#DejaVuSans-73" x="241.703125"/>
      <use xlink:href="#DejaVuSans-69" x="293.802734"/>
      <use xlink:href="#DejaVuSans-6f" x="321.585938"/>
      <use xlink:href="#DejaVuSans-6e" x="382.767578"/>
     </g>
    </g>
   </g>
   <g id="line2d_13">
    <path d="M 316.862617 292.683195 
L 316.474391 292.580755 
L 315.697937 292.410527 
L 315.212654 292.358732 
L 314.727371 292.175837 
L 313.756804 291.964478 
L 312.592124 291.472974 
L 312.398011 291.262518 
L 311.233331 290.617862 
L 310.942161 290.484694 
L 310.748047 290.337848 
L 310.650991 290.335059 
L 310.359821 289.964578 
L 309.971594 289.859479 
L 309.777481 289.696861 
L 309.001027 289.412607 
L 308.709857 289.274719 
L 308.030461 289.115012 
L 307.836347 289.002764 
L 307.448121 288.877699 
L 307.254007 288.722443 
L 306.768724 288.662136 
L 305.992271 287.753803 
L 305.701101 287.354204 
L 305.312874 287.269157 
L 305.021704 287.067551 
L 304.827591 286.740627 
L 304.439364 286.611436 
L 304.342307 286.507553 
L 303.857024 286.325828 
L 302.012947 285.160164 
L 301.721777 284.716018 
L 301.236494 284.652862 
L 300.945324 284.1598 
L 300.654154 284.140945 
L 300.265927 283.880338 
L 300.071814 283.780006 
L 299.877701 283.063928 
L 299.392417 282.93868 
L 298.810077 282.69349 
L 298.615964 282.047678 
L 297.257171 281.34559 
L 297.063057 281.344947 
L 296.577774 280.896121 
L 295.995434 280.763609 
L 295.801321 280.500703 
L 295.704264 280.496698 
L 295.413094 279.946795 
L 294.927811 279.468298 
L 294.733698 279.065609 
L 294.248414 278.743095 
L 293.763131 278.064654 
L 293.471961 277.966318 
L 293.374904 277.699649 
L 293.277848 276.897743 
L 293.083734 276.874332 
L 292.889621 276.687179 
L 292.404338 276.370063 
L 292.210224 276.043139 
L 292.016111 275.213762 
L 291.919054 275.209173 
L 290.657318 273.72202 
L 290.463204 272.909474 
L 289.783808 271.988829 
L 289.589694 270.907893 
L 289.298524 270.58711 
L 288.910298 269.938997 
L 288.716184 269.219688 
L 288.522071 269.11277 
L 288.327958 268.567396 
L 288.036788 268.089353 
L 287.551504 266.370326 
L 287.260334 265.743405 
L 286.872108 264.416356 
L 286.677994 264.256437 
L 286.580938 264.113687 
L 286.289768 263.108735 
L 286.192711 263.056105 
L 285.998598 262.760906 
L 285.901541 262.753593 
L 285.707428 262.501656 
L 285.416258 262.337859 
L 285.028031 261.848923 
L 284.833918 261.567711 
L 284.639804 261.261174 
L 284.542748 261.187561 
L 283.960408 259.443901 
L 283.669238 259.329615 
L 283.475124 258.709622 
L 283.281011 258.096268 
L 283.086898 257.766186 
L 282.795728 257.698422 
L 282.698671 257.536998 
L 282.504558 256.524182 
L 282.407501 256.492644 
L 282.116331 255.981089 
L 281.922218 255.330329 
L 281.631048 255.202496 
L 281.533991 255.161719 
L 280.951651 253.515863 
L 280.660481 252.350897 
L 280.369311 252.124981 
L 280.272254 251.995156 
L 279.981084 251.057556 
L 279.592858 250.691913 
L 279.398744 250.107913 
L 278.525234 248.885033 
L 278.331121 247.832293 
L 278.234064 247.662644 
L 277.942894 245.88697 
L 277.651724 245.371397 
L 277.457611 244.743333 
L 277.263498 244.567703 
L 277.069384 243.209313 
L 276.778214 242.816746 
L 276.487044 241.927512 
L 276.292931 240.795779 
L 276.195874 240.792359 
L 275.710591 239.788022 
L 275.613534 239.740751 
L 275.031194 238.239123 
L 274.837081 237.223513 
L 274.642968 236.987243 
L 274.448854 236.106853 
L 274.157684 235.95976 
L 273.575344 234.838547 
L 273.284174 233.553828 
L 272.798891 231.230939 
L 272.701834 231.137217 
L 272.604778 230.107667 
L 272.410664 229.377633 
L 272.216551 229.17655 
L 272.022438 228.794245 
L 271.634211 228.499826 
L 271.343041 228.150126 
L 271.051871 226.251177 
L 270.954815 225.912877 
L 270.663645 225.749015 
L 270.469531 224.206743 
L 270.372475 224.169322 
L 270.081305 223.062439 
L 269.887191 222.266783 
L 269.693078 222.097357 
L 269.498965 221.670727 
L 269.110738 220.857052 
L 268.916625 220.134025 
L 268.722511 219.419199 
L 268.528398 219.316046 
L 268.334285 218.509963 
L 268.237228 218.438269 
L 268.043115 216.979742 
L 267.946058 216.82762 
L 267.654888 214.740174 
L 267.363718 214.400678 
L 266.781378 212.86698 
L 266.490208 212.692966 
L 266.199038 210.291582 
L 265.810811 210.0384 
L 265.519641 209.321724 
L 265.325528 207.956703 
L 265.228471 207.904699 
L 264.840245 206.247408 
L 264.646131 204.408965 
L 264.549075 204.402965 
L 263.481451 200.983466 
L 262.899111 200.456711 
L 262.607941 199.636625 
L 262.025601 198.968889 
L 261.540318 197.050533 
L 261.443261 196.997823 
L 261.055035 196.176725 
L 260.860921 196.174016 
L 260.472695 195.934788 
L 260.181525 195.91964 
L 259.987411 195.336357 
L 259.793298 195.115822 
L 259.599185 193.182459 
L 259.405071 193.063058 
L 259.210958 192.301935 
L 259.016845 192.017173 
L 258.628618 190.99261 
L 258.143335 188.300394 
L 257.755108 186.776025 
L 257.172768 185.767261 
L 256.978655 184.578612 
L 256.590428 184.110161 
L 256.105145 182.583984 
L 256.008088 182.475596 
L 255.911031 182.197456 
L 255.522805 180.282139 
L 255.328691 179.875835 
L 255.134578 178.413762 
L 254.746351 178.300141 
L 254.455181 177.692835 
L 254.261068 177.572615 
L 253.969898 176.578169 
L 253.775785 174.788409 
L 253.581671 174.364496 
L 253.484615 174.364408 
L 253.387558 173.605647 
L 252.902275 172.393019 
L 252.708161 172.220497 
L 252.514048 171.7728 
L 252.319935 171.700888 
L 252.125821 171.38662 
L 252.028765 171.384865 
L 251.737595 169.796571 
L 251.640538 169.793888 
L 251.349368 168.777897 
L 250.669971 167.466437 
L 250.475858 167.420984 
L 250.281745 166.662411 
L 250.087631 166.160146 
L 249.796461 163.894553 
L 249.408235 163.710439 
L 249.020008 163.004505 
L 248.728838 162.538979 
L 248.534725 161.871553 
L 248.340611 160.821697 
L 248.243555 160.813204 
L 247.661215 160.215218 
L 247.467102 159.30333 
L 247.272988 158.939977 
L 246.981818 158.693933 
L 246.787705 158.06325 
L 246.690648 157.745187 
L 246.399478 157.403326 
L 245.817138 157.248 
L 245.525968 155.952141 
L 245.331855 155.608209 
L 245.040685 155.018323 
L 244.943628 155.00547 
L 244.846572 154.38802 
L 244.652458 154.267701 
L 244.361288 153.80352 
L 243.876005 153.401564 
L 243.584835 153.024 
L 243.390722 152.994999 
L 243.099552 152.613472 
L 242.905438 152.38965 
L 242.517212 150.752386 
L 242.226042 150.252291 
L 242.031928 149.662831 
L 241.934872 149.645522 
L 241.546645 149.064967 
L 241.449588 148.944387 
L 241.255475 148.443603 
L 241.158418 148.113413 
L 240.867248 148.057292 
L 240.673135 147.810273 
L 240.284908 147.47059 
L 239.993738 146.29238 
L 239.702568 145.907219 
L 239.508455 145.757239 
L 239.217285 145.148219 
L 238.829058 145.00721 
L 238.634945 144.243464 
L 238.440832 143.470097 
L 238.246718 143.424 
L 237.179095 142.135322 
L 236.984982 141.796571 
L 236.693812 141.722182 
L 236.499698 141.380087 
L 236.208528 141.186757 
L 236.014415 140.306303 
L 235.626188 140.021292 
L 235.140905 139.222536 
L 234.849735 138.097694 
L 234.558565 137.825851 
L 234.364452 137.269068 
L 234.267395 137.176931 
L 234.170338 136.833042 
L 233.879168 136.743042 
L 233.782112 136.523024 
L 233.587998 136.462313 
L 233.393885 135.826627 
L 233.102715 135.797445 
L 232.908602 135.347903 
L 232.714488 135.284505 
L 232.520375 134.699707 
L 232.423318 134.6673 
L 232.229205 134.339657 
L 231.743922 134.174951 
L 231.646865 133.610667 
L 231.161582 133.173298 
L 230.967468 132.428683 
L 230.773355 132.290403 
L 230.579242 131.465834 
L 230.482185 131.22259 
L 229.996902 131.109081 
L 229.899845 130.724188 
L 229.705732 130.719756 
L 229.511618 130.505143 
L 228.346938 130.051299 
L 227.764598 128.523196 
L 227.570485 128.370128 
L 227.376372 128.36248 
L 227.279315 128.029366 
L 227.085202 127.874275 
L 226.696975 126.967876 
L 225.629352 126.500559 
L 225.435238 126.035516 
L 225.338182 125.991986 
L 224.949955 125.049339 
L 224.755842 124.416786 
L 224.270558 124.187863 
L 223.882332 123.213325 
L 223.591162 122.831867 
L 223.494105 122.463584 
L 222.814709 122.365762 
L 222.620595 121.618633 
L 221.941199 121.18681 
L 221.650029 120.288685 
L 220.873575 119.027336 
L 220.679462 118.236203 
L 220.485349 118.212966 
L 220.097122 117.473625 
L 219.903009 117.18751 
L 219.708895 116.987381 
L 219.029499 116.942208 
L 218.932442 116.176944 
L 218.641272 116.092056 
L 218.350102 115.827711 
L 217.961875 115.772542 
L 216.991309 115.360792 
L 216.894252 115.118713 
L 216.506025 115.060603 
L 216.020742 112.89511 
L 215.632515 112.545391 
L 215.147232 112.032 
L 214.953119 111.228346 
L 214.661949 111.125647 
L 214.370779 110.827926 
L 213.982552 110.558154 
L 213.788439 109.930213 
L 213.594325 109.89141 
L 213.206099 109.216086 
L 212.429645 109.054239 
L 212.041419 108.262957 
L 211.362022 107.652033 
L 211.264965 107.47553 
L 210.585569 107.268629 
L 210.294399 106.626523 
L 209.712059 106.171063 
L 209.615002 105.776072 
L 208.838549 105.261477 
L 208.062095 104.955335 
L 207.965039 104.549428 
L 207.382699 104.066539 
L 206.509189 103.886239 
L 205.829792 103.868198 
L 205.635679 103.479023 
L 205.053339 103.316531 
L 203.888659 102.182812 
L 203.209262 102.15505 
L 202.432809 101.922783 
L 202.238695 101.629635 
L 201.656355 101.451069 
L 201.462242 101.035188 
L 201.074015 100.554306 
L 200.879902 100.251699 
L 200.394619 100.033428 
L 200.297562 99.941002 
L 199.326996 99.741717 
L 199.035826 99.582915 
L 198.647599 99.452008 
L 198.259372 98.947163 
L 197.579976 98.89909 
L 197.385862 98.327846 
L 195.541786 97.596493 
L 194.377106 97.422977 
L 193.697709 97.363862 
L 193.309482 96.554453 
L 193.018312 96.37422 
L 192.921256 95.867395 
L 192.241859 95.662408 
L 192.047746 95.312348 
L 191.756576 95.12481 
L 191.271292 94.026747 
L 190.591896 93.664311 
L 190.494839 93.552 
L 189.815442 93.182612 
L 189.330159 92.466279 
L 188.844876 92.460238 
L 188.456649 91.992615 
L 188.262536 91.465339 
L 187.583139 91.068216 
L 185.933176 90.936316 
L 185.739062 90.389647 
L 184.962609 89.84702 
L 184.865552 89.568 
L 184.089099 89.320618 
L 183.894986 88.284616 
L 183.506759 87.918068 
L 181.274456 87.241157 
L 181.177399 87.105196 
L 181.080342 86.643 
L 180.886229 86.367498 
L 180.498002 86.30619 
L 180.400946 86.002069 
L 179.818606 85.990268 
L 179.624492 85.708525 
L 178.945096 85.384263 
L 178.556869 85.14821 
L 176.324566 84.532162 
L 176.130453 84.233915 
L 175.548113 84.2112 
L 175.451056 84.060421 
L 174.965773 83.83339 
L 174.674603 83.553025 
L 172.636413 83.547759 
L 172.345243 83.259132 
L 171.762903 83.044762 
L 171.471733 82.004211 
L 170.404109 80.375936 
L 168.365919 80.104015 
L 168.268863 79.931077 
L 167.007126 79.648595 
L 166.910069 79.471911 
L 166.036559 79.284802 
L 162.057236 79.258619 
L 161.766066 78.478574 
L 161.377839 78.361791 
L 161.280783 78.170034 
L 160.504329 78.149408 
L 160.407273 77.955097 
L 160.019046 77.833532 
L 159.921989 77.637198 
L 159.630819 77.488734 
L 159.436706 77.091439 
L 158.660253 77.060231 
L 158.369083 76.906755 
L 158.174969 76.5 
L 152.933909 76.172316 
L 152.739796 75.978 
L 151.866286 75.709831 
L 151.76923 75.486007 
L 151.47806 75.310526 
L 150.992776 75.182845 
L 148.954586 74.939025 
L 148.85753 74.442894 
L 148.178133 74.353489 
L 148.081076 74.113837 
L 147.207566 73.801309 
L 146.625226 73.135059 
L 146.237 72.957396 
L 146.042886 72.72998 
L 145.65466 72.548025 
L 144.78115 72.4823 
L 144.004696 71.820276 
L 143.810583 71.003676 
L 142.840016 70.938235 
L 142.645903 70.394457 
L 142.257676 69.888 
L 140.316543 69.717973 
L 139.928316 69.496889 
L 139.83126 69.207945 
L 138.763636 69.132084 
L 138.181296 68.623842 
L 137.598956 67.123862 
L 135.657823 66.848475 
L 135.17254 66.605605 
L 134.978426 66.300632 
L 132.84318 66.02254 
L 132.649066 65.701918 
L 131.872613 65.490925 
L 129.05797 65.299906 
L 128.669743 64.990867 
L 127.699177 64.791093 
L 123.23457 64.461208 
L 118.187623 63.711396 
L 117.022943 63.474207 
L 111.58777 63.125333 
L 111.102487 62.662737 
L 110.71426 61.570443 
L 88.29417 61.422545 
L 88.100057 59.976477 
L 85.867754 57.408 
L 81.985487 56.414118 
L 80.529637 53.568 
L 80.529637 53.568 
" clip-path="url(#paf9e41d01b)" style="fill: none; stroke: #1f77b4; stroke-width: 1.5; stroke-linecap: square"/>
   </g>
   <g id="line2d_14">
    <path d="M 295.510151 274.641955 
L 295.316038 274.353226 
L 294.927811 273.922149 
L 294.733698 273.840274 
L 294.345471 273.296372 
L 294.248414 273.295387 
L 294.054301 272.761362 
L 293.860188 272.462993 
L 293.471961 271.992658 
L 293.374904 271.648014 
L 293.180791 271.627513 
L 292.695508 270.871349 
L 292.307281 269.91571 
L 292.016111 269.552755 
L 291.821998 269.313699 
L 291.627884 268.772031 
L 291.336714 268.526456 
L 290.754374 266.769075 
L 290.657318 266.768196 
L 290.463204 265.736199 
L 289.686751 265.130268 
L 289.589694 264.928382 
L 289.298524 264.870453 
L 289.201468 264.773932 
L 288.910298 264.743335 
L 288.619128 263.773708 
L 288.327958 263.490681 
L 288.133844 263.089179 
L 287.842674 262.792101 
L 287.454448 262.570967 
L 287.066221 261.692728 
L 286.386824 258.701109 
L 286.192711 258.222373 
L 285.998598 258.095854 
L 285.804484 257.523404 
L 285.610371 257.429641 
L 285.513314 257.367379 
L 284.930974 255.257401 
L 284.542748 255.015755 
L 284.251578 254.173895 
L 284.154521 254.118 
L 283.960408 253.553909 
L 283.766294 253.097125 
L 283.475124 251.938771 
L 283.378068 251.864407 
L 282.989841 250.170058 
L 282.892784 250.147734 
L 282.698671 249.868315 
L 282.601614 249.857526 
L 282.407501 248.482025 
L 281.728104 247.524964 
L 281.533991 247.44078 
L 281.145764 246.816895 
L 280.951651 245.737853 
L 280.466368 243.399845 
L 280.175198 243.383662 
L 279.884028 242.627135 
L 279.786971 242.526663 
L 279.495801 241.882596 
L 279.301688 241.606397 
L 279.107574 241.469757 
L 278.913461 241.22869 
L 278.525234 240.943497 
L 278.428178 240.911014 
L 278.331121 240.328879 
L 277.942894 240.001277 
L 277.748781 239.688909 
L 277.457611 239.299783 
L 277.263498 238.870724 
L 277.166441 238.853471 
L 276.389988 237.441663 
L 276.195874 236.651747 
L 275.904704 234.635343 
L 275.807648 234.546768 
L 275.516478 234.069581 
L 275.419421 234.046591 
L 275.225308 233.788885 
L 275.031194 233.772499 
L 274.545911 232.637427 
L 274.060628 231.544251 
L 273.769458 230.129941 
L 273.575344 229.74505 
L 273.187118 229.048144 
L 272.798891 228.096235 
L 272.701834 227.844157 
L 272.507721 226.140536 
L 272.410664 225.852615 
L 272.216551 224.573834 
L 272.022438 224.213921 
L 270.954815 222.933434 
L 270.372475 219.794551 
L 270.275418 219.714852 
L 269.790135 218.593088 
L 269.498965 217.728 
L 269.304851 217.594014 
L 268.722511 214.579379 
L 268.431341 214.158423 
L 268.043115 213.231089 
L 267.751945 211.934645 
L 267.557831 211.597743 
L 267.460775 211.552278 
L 267.266661 211.078588 
L 267.072548 210.041358 
L 266.781378 209.221281 
L 266.296095 208.988296 
L 266.101981 208.194098 
L 265.713755 207.261503 
L 265.422585 206.954429 
L 265.131415 206.627709 
L 264.840245 206.012608 
L 264.354961 204.963989 
L 264.160848 204.168439 
L 263.966735 203.97974 
L 263.287338 200.947892 
L 262.607941 200.353669 
L 261.443261 198.186427 
L 261.346205 197.625889 
L 261.055035 197.346322 
L 260.569751 197.228747 
L 260.375638 195.943954 
L 260.084468 195.499958 
L 259.987411 195.07628 
L 259.793298 194.876166 
L 259.502128 194.286828 
L 259.210958 193.957084 
L 259.016845 193.45808 
L 258.822731 193.36186 
L 258.628618 192.969487 
L 258.434505 192.319426 
L 258.143335 191.690874 
L 257.949221 191.329525 
L 257.658051 189.742216 
L 257.560995 189.651494 
L 257.366881 188.801731 
L 256.978655 188.428188 
L 256.784541 187.65655 
L 256.687485 187.483905 
L 256.493371 186.461793 
L 256.299258 186.42095 
L 256.008088 185.858874 
L 255.813975 185.123036 
L 255.522805 184.733723 
L 255.425748 184.684494 
L 255.134578 183.878575 
L 254.940465 183.638961 
L 254.261068 180.965647 
L 254.164011 180.617732 
L 253.969898 180.506305 
L 253.387558 178.358453 
L 253.290501 178.329781 
L 252.708161 177.191752 
L 252.514048 176.116593 
L 252.319935 175.247222 
L 252.125821 174.987176 
L 251.834651 173.798126 
L 251.737595 173.697459 
L 251.349368 172.510879 
L 251.058198 172.336085 
L 250.864085 172.023512 
L 250.572915 171.288304 
L 250.281745 170.789798 
L 249.893518 168.581441 
L 249.796461 168.504514 
L 249.699405 167.872559 
L 249.505291 167.827592 
L 249.214121 167.14113 
L 248.728838 166.473546 
L 248.631781 165.738768 
L 248.340611 165.256814 
L 248.146498 164.143284 
L 247.758272 164.038443 
L 247.370045 162.680828 
L 247.175932 162.625417 
L 246.981818 162.323767 
L 246.884762 162.316231 
L 246.690648 161.763754 
L 246.205365 161.096408 
L 245.817138 160.086155 
L 245.720082 159.948512 
L 245.331855 158.652968 
L 245.234798 158.598952 
L 245.137742 158.412944 
L 244.652458 158.139871 
L 244.555402 157.818223 
L 244.361288 156.943854 
L 244.167175 156.875659 
L 243.973062 156.580119 
L 243.584835 156.029173 
L 243.390722 155.496533 
L 243.099552 154.522921 
L 243.002495 154.509545 
L 242.808382 153.961548 
L 241.061362 151.256803 
L 240.867248 151.224549 
L 240.673135 150.891171 
L 240.479022 149.177102 
L 240.284908 149.038018 
L 240.187852 148.916462 
L 240.090795 148.273449 
L 239.508455 147.315255 
L 239.023172 147.1104 
L 238.926115 146.983518 
L 238.732002 145.916646 
L 237.858492 144.343896 
L 237.761435 144.321563 
L 237.567322 143.714463 
L 237.373208 143.328538 
L 236.887925 142.177702 
L 236.693812 142.128816 
L 236.402642 141.589025 
L 236.208528 141.538909 
L 236.014415 140.544221 
L 234.946792 139.106692 
L 234.655622 138.164044 
L 234.461508 137.796941 
L 234.267395 136.862946 
L 234.073282 136.803089 
L 233.879168 136.363118 
L 233.490942 135.408193 
L 233.393885 135.376696 
L 232.520375 135.155937 
L 232.035092 134.405647 
L 231.840978 134.141929 
L 231.064525 133.27343 
L 230.870412 132.597213 
L 230.773355 132.426458 
L 230.093958 132.179321 
L 229.899845 131.695427 
L 229.802788 131.521134 
L 229.414562 131.514317 
L 228.541052 130.692923 
L 228.443995 130.655425 
L 228.346938 130.335067 
L 228.055768 130.292091 
L 227.376372 129.881146 
L 227.279315 129.842474 
L 226.794032 128.996332 
L 226.696975 128.810835 
L 226.405805 128.544084 
L 226.114635 127.163175 
L 225.920522 127.079008 
L 225.726408 126.468 
L 225.532295 126.003034 
L 224.852898 125.84964 
L 224.464672 125.211429 
L 224.270558 124.966854 
L 224.173502 124.921737 
L 223.882332 124.551839 
L 223.494105 124.36844 
L 223.397049 124.32238 
L 222.911765 123.456 
L 222.717652 123.361247 
L 222.426482 122.736358 
L 222.038255 122.542382 
L 221.844142 122.119579 
L 221.455915 122.003644 
L 220.485349 120.336529 
L 219.611839 119.524881 
L 218.835385 119.439057 
L 218.738329 118.954979 
L 217.476592 118.151893 
L 217.282479 117.598567 
L 217.185422 117.541865 
L 216.991309 117.161163 
L 216.311912 116.936688 
L 215.729572 116.58712 
L 215.438402 116.319838 
L 215.341345 116.169566 
L 214.856062 116.054738 
L 214.759005 115.903215 
L 214.176665 115.541333 
L 213.982552 115.047669 
L 213.885495 114.986159 
L 213.691382 114.581555 
L 213.109042 114.48946 
L 212.429645 114.143244 
L 211.750249 113.792271 
L 211.459079 113.11556 
L 211.264965 112.984686 
L 210.973795 112.101219 
L 210.779682 111.769421 
L 209.809115 111.387011 
L 209.615002 111.149176 
L 209.420889 111.111437 
L 209.226775 110.770759 
L 208.353265 110.545297 
L 207.770925 110.118983 
L 207.673869 109.94424 
L 207.382699 109.831603 
L 207.188585 109.374853 
L 206.800359 109.291146 
L 206.315075 108.605827 
L 205.926849 108.412364 
L 205.635679 108.079352 
L 204.665112 107.853846 
L 204.276885 107.654101 
L 203.985715 107.639291 
L 203.888659 107.452733 
L 203.500432 107.030204 
L 203.403375 106.620632 
L 203.112205 106.492434 
L 203.015149 106.301443 
L 202.821035 106.252167 
L 202.141639 106.246438 
L 202.044582 105.940954 
L 201.753412 105.921674 
L 201.559299 105.304774 
L 200.879902 105.293838 
L 200.491675 104.613998 
L 200.006392 104.53718 
L 199.812279 104.13385 
L 198.356429 103.181086 
L 197.871146 102.856374 
L 197.677032 102.797663 
L 196.997636 102.772068 
L 196.706466 102.01313 
L 196.318239 101.890638 
L 194.474162 101.358523 
L 194.377106 101.012505 
L 193.988879 101.009455 
L 193.891822 100.406488 
L 193.406539 99.534391 
L 193.309482 99.047683 
L 192.241859 98.988399 
L 192.144802 98.756526 
L 191.853632 98.583904 
L 191.368349 98.072151 
L 191.174236 97.598095 
L 190.397782 97.16314 
L 189.621329 96.171315 
L 189.427216 95.260953 
L 188.844876 95.015832 
L 188.456649 94.568506 
L 188.068422 94.400542 
L 187.971366 94.002221 
L 187.194912 93.801662 
L 185.933176 93.304498 
L 185.836119 93.040081 
L 185.642006 92.950326 
L 184.768496 92.913231 
L 184.283212 92.759753 
L 183.797929 92.4544 
L 183.409702 92.419093 
L 183.118532 92.051167 
L 182.536192 91.918954 
L 182.245022 91.698679 
L 181.274456 91.678685 
L 180.886229 91.32751 
L 180.400946 91.315702 
L 179.721549 89.771149 
L 179.430379 88.88756 
L 179.236266 88.291533 
L 179.042152 88.18264 
L 178.653926 87.633107 
L 176.809849 87.483851 
L 176.033396 86.511987 
L 174.868716 86.493212 
L 174.286376 86.134154 
L 174.092263 86.013264 
L 173.315809 85.878533 
L 170.209996 85.683144 
L 170.015883 85.002732 
L 169.821769 84.872789 
L 169.530599 84.396743 
L 168.268863 84.188036 
L 167.880636 83.726049 
L 167.298296 83.505325 
L 167.201239 83.14581 
L 166.327729 82.80372 
L 165.939503 82.121755 
L 165.648333 82.002627 
L 163.513086 81.988401 
L 160.407273 81.831921 
L 160.213159 81.250388 
L 159.630819 80.987218 
L 159.436706 80.610417 
L 158.951423 80.311692 
L 158.660253 79.954789 
L 157.301459 79.890902 
L 156.913233 79.325662 
L 156.427949 79.233882 
L 156.233836 79.060097 
L 155.651496 78.992713 
L 155.263269 78.406845 
L 153.613306 77.441684 
L 152.254513 77.328 
L 151.47806 76.803254 
L 151.381003 76.333714 
L 150.798663 75.737072 
L 150.02221 75.433307 
L 149.828096 74.971865 
L 149.245756 74.863775 
L 149.1487 74.629271 
L 148.178133 74.08929 
L 147.69285 73.41186 
L 146.042886 73.28 
L 145.94583 73.029386 
L 144.878206 73.018854 
L 143.713526 72.748358 
L 143.422356 72.249081 
L 142.937073 71.499651 
L 142.840016 71.230999 
L 141.092996 71.056193 
L 140.607713 70.87132 
L 140.4136 70.613854 
L 138.278353 70.509176 
L 138.08424 70.240405 
L 137.113673 70.1568 
L 137.016616 69.857742 
L 134.687256 69.768 
L 133.328463 69.080427 
L 130.125593 68.810132 
L 129.64031 68.564672 
L 128.960913 68.363107 
L 128.572687 68.0832 
L 127.505063 67.968 
L 125.758043 67.623211 
L 125.660987 67.245456 
L 122.749287 67.159011 
L 122.458117 66.805132 
L 121.584607 66.594462 
L 118.86702 66.404571 
L 118.381737 66.063868 
L 115.37298 65.905384 
L 114.402413 65.664 
L 113.820073 65.300841 
L 113.431847 63.2448 
L 97.999837 62.908541 
L 93.632287 62.697057 
L 91.78821 62.388 
L 89.264737 62.365091 
L 89.070624 61.034667 
L 86.25598 59.108153 
L 82.373714 58.944 
L 80.820807 56.881973 
L 77.909107 53.568 
L 77.909107 53.568 
" clip-path="url(#paf9e41d01b)" style="fill: none; stroke: #ff7f0e; stroke-width: 1.5; stroke-linecap: square"/>
   </g>
   <g id="line2d_15">
    <path d="M 270.372475 216.397267 
L 270.275418 216.270061 
L 269.984248 214.688079 
L 269.596021 213.781262 
L 269.304851 213.601129 
L 268.528398 211.643577 
L 268.237228 209.602541 
L 267.849001 208.634897 
L 267.557831 208.609209 
L 267.363718 208.33561 
L 267.072548 207.222887 
L 266.878435 207.052257 
L 266.684321 206.023075 
L 266.490208 205.762439 
L 265.907868 204.417108 
L 265.325528 204.084676 
L 265.034358 203.960748 
L 264.840245 203.399304 
L 264.743188 203.160363 
L 264.549075 202.42363 
L 264.063791 201.127164 
L 263.772621 200.95177 
L 263.578508 200.72671 
L 263.287338 200.510558 
L 263.093225 199.351053 
L 262.802055 198.089687 
L 262.510885 197.977637 
L 262.413828 197.642338 
L 262.025601 195.384953 
L 261.928545 195.265478 
L 261.637375 194.42686 
L 261.443261 194.290995 
L 261.152091 193.854217 
L 260.957978 193.826762 
L 260.666808 192.1378 
L 260.472695 191.227095 
L 260.278581 189.819896 
L 260.181525 189.610088 
L 259.987411 189.599693 
L 259.502128 188.036651 
L 258.919788 187.521363 
L 258.531561 186.135563 
L 258.434505 186.115088 
L 258.046278 185.085461 
L 257.852165 184.42739 
L 257.658051 183.868882 
L 257.366881 183.691636 
L 257.172768 182.428406 
L 256.590428 180.83022 
L 256.299258 180.810844 
L 256.105145 180.585178 
L 255.911031 179.741527 
L 255.716918 179.539642 
L 255.522805 179.037951 
L 255.231635 177.985796 
L 255.134578 177.834639 
L 254.843408 176.033195 
L 254.649295 175.045199 
L 253.872841 174.233852 
L 253.581671 173.73913 
L 253.387558 173.738272 
L 253.096388 173.404328 
L 252.999331 173.37033 
L 252.708161 172.729586 
L 252.611105 172.728595 
L 252.416991 172.2849 
L 252.319935 172.14703 
L 252.125821 171.004235 
L 251.543481 170.887291 
L 251.446425 170.321588 
L 250.475858 169.075597 
L 249.602348 168.350124 
L 249.408235 168.083843 
L 249.311178 167.968653 
L 249.020008 166.867794 
L 248.534725 165.578692 
L 247.758272 164.988108 
L 247.661215 164.903696 
L 247.370045 164.052886 
L 247.272988 164.00654 
L 247.078875 163.793215 
L 246.787705 163.693002 
L 246.690648 163.605686 
L 246.399478 162.607629 
L 246.302422 162.105487 
L 246.108308 160.877342 
L 245.914195 160.648591 
L 245.720082 159.4752 
L 245.623025 159.29258 
L 245.525968 158.804359 
L 245.137742 158.500897 
L 244.846572 158.381844 
L 244.749515 158.327305 
L 244.458345 157.0455 
L 244.167175 156.694407 
L 243.973062 155.894267 
L 243.876005 155.743905 
L 243.584835 154.870493 
L 243.099552 154.75802 
L 242.905438 153.927825 
L 242.711325 153.374293 
L 242.420155 151.922903 
L 242.323098 151.414889 
L 242.128985 151.383129 
L 241.449588 150.015911 
L 241.255475 149.676679 
L 240.964305 149.163364 
L 240.673135 148.74824 
L 240.576078 148.678194 
L 240.381965 146.694194 
L 239.993738 146.50705 
L 239.411398 145.573173 
L 239.023172 145.215066 
L 238.829058 145.00721 
L 238.149662 144.688825 
L 237.858492 143.895564 
L 237.664378 143.737365 
L 236.984982 142.720337 
L 236.887925 142.350999 
L 236.402642 141.997091 
L 235.529132 138.480318 
L 235.237962 138.395864 
L 235.043848 137.969725 
L 234.655622 137.232398 
L 234.073282 136.423914 
L 233.782112 136.396156 
L 233.199772 136.148794 
L 232.714488 136.122592 
L 231.938035 134.832607 
L 231.743922 134.63641 
L 231.161582 132.701649 
L 230.773355 132.562286 
L 230.288072 132.454957 
L 230.093958 132.110819 
L 229.996902 131.869135 
L 229.705732 131.554025 
L 229.511618 131.203631 
L 228.735165 130.627061 
L 228.541052 130.340043 
L 228.152825 130.117063 
L 227.958712 129.683529 
L 227.667542 129.638865 
L 227.570485 129.384281 
L 227.182258 129.299478 
L 226.988145 128.785048 
L 226.599918 128.697777 
L 225.338182 128.09566 
L 225.047012 127.374102 
L 224.658785 127.355764 
L 224.173502 126.384173 
L 223.882332 125.946604 
L 222.620595 125.756485 
L 222.523539 125.400143 
L 222.329425 125.388 
L 222.038255 125.016454 
L 221.650029 124.753913 
L 221.358859 123.496232 
L 221.067689 123.110057 
L 220.776519 122.96474 
L 220.194179 122.343548 
L 219.805952 121.647732 
L 219.514782 121.495705 
L 219.417725 121.277726 
L 218.350102 121.047864 
L 218.058932 120.467007 
L 217.573649 119.686469 
L 216.991309 119.535337 
L 216.408969 119.032945 
L 216.214855 118.658583 
L 215.244289 118.452621 
L 214.273722 117.883616 
L 213.982552 116.892663 
L 213.788439 116.682956 
L 213.497269 116.412444 
L 213.011985 116.389766 
L 212.526702 115.808333 
L 212.429645 115.74723 
L 211.847305 115.566326 
L 211.653192 115.064471 
L 211.556135 114.811958 
L 209.712059 114.468224 
L 209.226775 114.242887 
L 208.741492 113.524364 
L 208.450322 113.325655 
L 207.673869 112.187077 
L 207.091529 112.178861 
L 206.897415 111.9394 
L 206.412132 111.795549 
L 205.732735 111.303529 
L 205.344509 110.602721 
L 204.859225 110.554818 
L 204.665112 110.199273 
L 204.179829 109.937709 
L 203.888659 109.074659 
L 203.112205 109.008 
L 203.015149 108.82393 
L 202.821035 108.779707 
L 202.626922 108.081205 
L 202.335752 107.957508 
L 202.141639 107.470222 
L 201.947525 107.31216 
L 201.850469 106.899064 
L 201.074015 106.704 
L 200.491675 106.329462 
L 199.909336 105.949954 
L 199.812279 105.86713 
L 199.715222 105.324218 
L 199.132882 105.165806 
L 199.035826 104.964923 
L 198.841712 104.911266 
L 197.968202 104.254576 
L 197.871146 104.049139 
L 197.094692 103.58394 
L 196.124126 103.41541 
L 195.735899 103.176911 
L 195.153559 102.999139 
L 194.085936 102.605838 
L 192.921256 101.857315 
L 191.077179 101.823746 
L 190.300726 101.174747 
L 189.621329 100.87535 
L 189.524272 100.512584 
L 189.233102 100.475878 
L 188.941932 100.040371 
L 188.747819 99.970403 
L 188.553706 99.632219 
L 188.068422 99.251032 
L 187.097856 98.611682 
L 186.030232 98.405886 
L 185.642006 97.974293 
L 184.962609 97.914248 
L 184.671439 97.443097 
L 184.380269 97.252835 
L 184.089099 96.774247 
L 183.797929 96.724142 
L 183.700872 96.466605 
L 181.565626 95.539229 
L 180.692116 94.920289 
L 179.915662 94.714606 
L 178.848039 94.599711 
L 177.683359 94.35793 
L 177.295132 94.328312 
L 177.101019 93.444923 
L 176.809849 92.901481 
L 175.451056 92.368321 
L 174.771659 91.435445 
L 173.995206 91.182403 
L 173.121696 90.106954 
L 172.345243 89.663356 
L 170.986449 89.568 
L 167.880636 89.131944 
L 167.783579 88.799068 
L 167.589466 88.678513 
L 167.007126 88.497626 
L 166.327729 87.598225 
L 165.842446 87.375332 
L 165.745389 87.216873 
L 165.454219 87.118949 
L 163.998369 87.005922 
L 163.513086 86.577645 
L 163.221916 86.474567 
L 162.833689 85.808756 
L 162.348406 85.762677 
L 161.863123 85.112698 
L 160.989613 84.980093 
L 160.698443 84.661905 
L 160.310216 84.577315 
L 160.213159 83.986232 
L 159.630819 83.957555 
L 158.174969 83.350281 
L 158.077913 82.73566 
L 157.883799 82.578732 
L 157.786743 82.174239 
L 157.301459 81.883072 
L 156.816176 81.144373 
L 155.845609 80.983908 
L 155.457383 80.419586 
L 155.263269 80.248467 
L 154.875043 80.132776 
L 154.777986 79.931077 
L 153.710363 79.309759 
L 153.419193 78.448175 
L 152.836853 78.133828 
L 152.64274 77.706359 
L 152.157456 77.598 
L 151.866286 77.189818 
L 150.60455 77.041973 
L 150.119266 76.925793 
L 149.925153 76.727585 
L 149.536926 76.581271 
L 149.051643 75.689641 
L 148.760473 75.508919 
L 148.178133 75.40401 
L 147.69285 75.007617 
L 146.916396 74.948339 
L 146.042886 73.82731 
L 142.45179 73.649556 
L 142.354733 73.387194 
L 139.345976 73.013886 
L 138.569523 72.9216 
L 138.08424 72.436412 
L 137.307786 72.334714 
L 137.113673 72.071796 
L 133.328463 71.812344 
L 132.649066 71.323596 
L 130.51382 70.875472 
L 130.416763 70.544842 
L 125.56393 70.455958 
L 125.466873 70.091433 
L 124.011023 69.725112 
L 121.972833 69.087396 
L 116.731773 68.944271 
L 116.24649 67.645241 
L 115.275923 67.453033 
L 100.135084 67.054829 
L 99.455687 66.574452 
L 93.341117 66.120453 
L 92.467607 65.544238 
L 90.33236 64.440809 
L 86.935377 62.208 
L 83.05311 60.973714 
L 82.956054 58.608 
L 81.111977 56.751158 
L 78.200277 53.568 
L 78.200277 53.568 
" clip-path="url(#paf9e41d01b)" style="fill: none; stroke: #2ca02c; stroke-width: 1.5; stroke-linecap: square"/>
   </g>
   <g id="line2d_16">
    <path d="M 255.813975 176.93076 
L 255.522805 176.716891 
L 255.134578 175.745933 
L 254.940465 174.947888 
L 254.843408 174.9159 
L 254.649295 174.690101 
L 254.261068 173.312156 
L 254.164011 173.311496 
L 253.872841 172.942506 
L 253.581671 172.939904 
L 253.387558 172.297249 
L 253.290501 172.194152 
L 253.096388 171.816193 
L 252.902275 171.778909 
L 252.708161 171.500636 
L 252.514048 170.803028 
L 252.416991 170.696074 
L 252.222878 170.375743 
L 251.931708 170.298152 
L 251.446425 168.926079 
L 251.349368 168.922874 
L 251.252311 168.774602 
L 251.058198 168.731638 
L 250.864085 167.992455 
L 250.669971 167.800213 
L 250.475858 167.271809 
L 249.699405 167.087578 
L 249.408235 166.31643 
L 249.311178 166.273418 
L 249.214121 166.077272 
L 249.020008 164.475219 
L 248.825895 164.344957 
L 248.437668 163.484943 
L 248.049442 163.176483 
L 247.758272 161.644023 
L 247.661215 161.387499 
L 247.078875 161.255112 
L 246.884762 160.945467 
L 246.690648 160.886463 
L 246.496535 160.616273 
L 246.399478 160.522904 
L 246.108308 159.814066 
L 246.011252 159.804763 
L 245.720082 159.561503 
L 245.525968 158.848 
L 245.428912 158.837981 
L 245.331855 158.696755 
L 245.137742 158.059999 
L 245.040685 157.56076 
L 244.264232 156.433493 
L 244.167175 156.102051 
L 243.778948 155.823668 
L 243.487778 154.90417 
L 243.196608 154.724279 
L 243.002495 153.941656 
L 242.420155 153.523459 
L 242.128985 152.853087 
L 242.031928 152.302426 
L 241.837815 152.075836 
L 241.546645 151.038187 
L 241.352532 150.955664 
L 241.158418 150.470587 
L 240.673135 149.006676 
L 240.479022 148.918967 
L 240.090795 147.113865 
L 239.896682 146.861386 
L 239.799625 146.841503 
L 239.411398 146.169795 
L 238.634945 145.895808 
L 238.343775 145.174804 
L 238.052605 145.054836 
L 237.858492 144.845111 
L 237.373208 144.623751 
L 236.984982 142.777703 
L 236.693812 142.360214 
L 236.402642 141.997091 
L 236.014415 140.958826 
L 235.626188 139.901333 
L 235.335018 139.51943 
L 234.461508 139.0905 
L 234.267395 138.912526 
L 234.073282 138.856659 
L 233.976225 138.458889 
L 233.490942 138.254337 
L 233.296828 138.009965 
L 233.005658 137.985499 
L 232.617432 137.112202 
L 231.646865 135.58478 
L 231.549808 134.834138 
L 230.482185 133.941091 
L 230.385128 133.505036 
L 230.191015 133.436807 
L 229.996902 133.097812 
L 229.705732 132.857812 
L 229.608675 132.549855 
L 228.638108 131.570243 
L 228.346938 131.46047 
L 228.249882 131.423754 
L 227.861655 130.853763 
L 227.376372 130.594661 
L 227.182258 130.09051 
L 227.085202 129.98034 
L 226.405805 129.708471 
L 226.308748 129.379469 
L 225.241125 128.941133 
L 224.755842 128.220059 
L 224.173502 128.121283 
L 224.076445 127.478956 
L 223.882332 127.469887 
L 223.494105 127.148361 
L 222.620595 126.683558 
L 222.135312 126.232615 
L 221.941199 126.221645 
L 221.261802 125.281201 
L 221.164745 124.52219 
L 220.291235 124.500984 
L 218.835385 123.215131 
L 218.447159 123.101199 
L 217.670705 122.035925 
L 216.117799 121.892934 
L 216.020742 121.756235 
L 215.826629 121.737897 
L 215.438402 121.186133 
L 214.856062 121.041469 
L 214.661949 120.500004 
L 214.273722 120.371322 
L 213.982552 120.120289 
L 213.594325 119.98936 
L 213.303155 119.111014 
L 212.914929 118.975088 
L 212.429645 118.418928 
L 212.138475 118.336921 
L 211.944362 117.855307 
L 211.459079 117.376598 
L 211.264965 116.979027 
L 211.070852 116.672067 
L 210.585569 116.462118 
L 210.391455 115.867187 
L 210.197342 115.838106 
L 209.809115 114.435692 
L 208.741492 114.211019 
L 208.353265 113.752976 
L 207.867982 113.619998 
L 207.673869 113.08905 
L 207.188585 112.44941 
L 206.800359 112.27606 
L 206.509189 111.7632 
L 206.023905 111.206658 
L 205.732735 111.096929 
L 205.635679 110.714457 
L 205.344509 110.70694 
L 205.247452 110.426034 
L 204.762169 110.272291 
L 204.179829 110.25507 
L 203.985715 110.002168 
L 203.791602 109.960577 
L 203.694545 109.566713 
L 203.015149 109.470946 
L 202.918092 109.180183 
L 202.626922 108.73533 
L 202.141639 108.459789 
L 202.044582 108.053208 
L 201.656355 107.850403 
L 200.782845 107.248048 
L 199.132882 107.003558 
L 199.035826 106.579525 
L 198.356429 106.460375 
L 197.968202 105.895059 
L 197.385862 105.503941 
L 196.803522 105.343682 
L 195.930012 104.562429 
L 194.377106 104.231068 
L 194.280049 104.019429 
L 193.309482 103.851243 
L 193.115369 103.296869 
L 192.824199 103.268998 
L 192.533029 102.740013 
L 192.144802 102.616528 
L 192.047746 101.761136 
L 191.562462 101.66438 
L 191.465406 101.182473 
L 190.009556 101.009666 
L 189.330159 100.708027 
L 188.747819 100.103771 
L 188.165479 99.758769 
L 187.874309 99.719405 
L 187.389026 99.336649 
L 186.418459 98.418337 
L 185.642006 98.393347 
L 185.447892 97.897091 
L 185.059666 97.4592 
L 183.700872 97.330663 
L 183.215589 96.912734 
L 182.924419 96.717474 
L 182.827362 96.165799 
L 182.050909 95.975574 
L 181.565626 95.24102 
L 181.468569 94.972843 
L 178.556869 94.6944 
L 178.071586 94.542849 
L 177.586302 94.389649 
L 177.489246 94.264822 
L 177.101019 94.077296 
L 175.742226 94.047873 
L 175.159886 93.920179 
L 174.965773 93.662027 
L 174.771659 93.077059 
L 173.412866 92.702118 
L 172.442299 91.681433 
L 172.248186 91.0656 
L 172.054073 90.957474 
L 170.209996 90.691274 
L 168.851203 90.432 
L 168.171806 90.299309 
L 167.880636 89.856 
L 167.201239 89.716966 
L 167.007126 89.232938 
L 166.424786 89.05537 
L 166.327729 88.531303 
L 166.036559 88.252653 
L 165.551276 87.656727 
L 164.386596 86.882307 
L 163.707199 85.929609 
L 163.513086 85.793741 
L 163.124859 85.321428 
L 162.057236 85.253507 
L 161.669009 84.768462 
L 161.377839 84.655304 
L 161.183726 84.306623 
L 160.601386 83.867178 
L 160.019046 83.837793 
L 159.630819 83.538268 
L 159.436706 82.964653 
L 158.854366 82.501146 
L 158.757309 82.100903 
L 158.466139 81.755234 
L 158.174969 80.969143 
L 156.719119 80.95043 
L 156.233836 80.194415 
L 155.651496 79.908127 
L 155.457383 79.506344 
L 155.069156 79.38657 
L 154.875043 78.978675 
L 153.807419 78.811826 
L 153.516249 78.657956 
L 152.448626 78.483349 
L 151.963343 77.895151 
L 151.866286 77.434547 
L 151.575116 77.269622 
L 150.992776 77.183346 
L 147.789906 76.812982 
L 147.595793 76.608 
L 147.013453 76.511193 
L 146.81934 76.302651 
L 145.94583 76.284878 
L 145.557603 76.127411 
L 144.684093 76.10713 
L 144.295866 75.395368 
L 143.3253 75.113038 
L 142.840016 74.968615 
L 142.74296 74.712679 
L 142.16062 74.590879 
L 141.675336 74.150199 
L 137.016616 73.671211 
L 136.531333 73.498909 
L 135.46371 73.494936 
L 135.17254 73.259163 
L 134.29903 73.192779 
L 134.201973 72.89297 
L 128.669743 72.874319 
L 128.572687 72.542118 
L 127.116837 72.271059 
L 124.884533 71.850179 
L 120.419927 71.74696 
L 120.225813 71.383814 
L 119.74053 71.119059 
L 118.964077 70.951473 
L 118.769963 70.57041 
L 118.28468 68.904442 
L 117.314113 68.751264 
L 103.14384 68.594087 
L 101.97916 67.706182 
L 101.10565 67.368805 
L 93.438174 67.133607 
L 91.108814 66.436085 
L 87.808887 64.782834 
L 84.606017 63.995586 
L 83.441337 62.962951 
L 83.34428 60.753743 
L 81.403147 59.616 
L 79.947297 57.348 
L 78.491447 53.568 
L 78.491447 53.568 
" clip-path="url(#paf9e41d01b)" style="fill: none; stroke: #d62728; stroke-width: 1.5; stroke-linecap: square"/>
   </g>
   <g id="line2d_17">
    <path d="M 213.303155 111.552 
L 213.011985 110.664729 
L 211.459079 109.456243 
L 211.264965 108.909176 
L 211.167909 108.837618 
L 210.585569 108.610105 
L 210.100285 107.417302 
L 209.420889 107.313033 
L 209.226775 107.057849 
L 208.935605 106.725309 
L 207.965039 106.278357 
L 207.867982 106.093714 
L 207.576812 106.075636 
L 207.479755 105.889912 
L 206.994472 105.82272 
L 206.897415 105.526763 
L 206.218019 105.188761 
L 204.956282 104.803099 
L 204.859225 104.498526 
L 204.470999 104.393915 
L 203.985715 104.318454 
L 203.694545 103.729137 
L 203.209262 103.421675 
L 202.918092 102.821174 
L 202.821035 102.735194 
L 201.462242 102.56817 
L 200.879902 102.158769 
L 200.394619 102.070661 
L 200.103449 102.041215 
L 200.006392 101.832828 
L 198.453486 101.710533 
L 198.356429 101.4984 
L 197.774089 100.823955 
L 197.288806 100.727089 
L 195.832956 99.298684 
L 195.735899 98.94756 
L 194.765332 98.858959 
L 193.600652 98.308819 
L 193.503596 97.946702 
L 192.824199 97.097418 
L 192.144802 96.901818 
L 191.853632 96.182634 
L 191.562462 96.134087 
L 191.271292 95.540459 
L 191.077179 95.46106 
L 190.786009 95.13501 
L 190.300726 95.001812 
L 190.203669 94.613983 
L 189.912499 94.56 
L 189.718386 94.197073 
L 189.233102 93.916255 
L 188.068422 93.401527 
L 186.709629 93.221314 
L 186.515516 93.132726 
L 186.030232 93.129447 
L 185.544949 92.978967 
L 185.350836 92.147781 
L 184.962609 91.962357 
L 183.700872 91.728 
L 181.953852 91.631056 
L 181.177399 91.241038 
L 180.206832 90.108976 
L 178.653926 89.922618 
L 177.877472 89.827223 
L 177.780416 89.529081 
L 176.906906 89.458297 
L 176.809849 89.15591 
L 176.033396 88.884788 
L 172.733469 88.852225 
L 172.636413 88.708353 
L 171.859959 88.596213 
L 171.762903 88.450443 
L 170.986449 88.157589 
L 170.889393 87.831348 
L 169.239429 87.614434 
L 169.142373 87.462221 
L 168.365919 87.334219 
L 167.492409 86.488179 
L 167.298296 86.171774 
L 166.230673 86.117236 
L 165.939503 85.824 
L 165.648333 85.720521 
L 165.357163 85.229419 
L 163.998369 84.659032 
L 163.513086 84.008265 
L 163.221916 83.693019 
L 160.989613 83.542478 
L 158.174969 83.350281 
L 157.980856 83.195854 
L 157.398516 83.160661 
L 157.010289 81.970554 
L 156.039723 81.821431 
L 153.613306 81.661935 
L 149.633983 80.784 
L 147.789906 80.635972 
L 147.69285 80.416598 
L 147.304623 80.290068 
L 147.11051 80.099321 
L 145.65466 80.059841 
L 145.557603 79.831932 
L 145.07232 79.729458 
L 144.975263 79.498524 
L 143.131186 79.30417 
L 142.937073 78.825057 
L 142.354733 78.742416 
L 139.928316 78.714947 
L 139.83126 78.462142 
L 136.62839 78.397515 
L 135.75488 78.100732 
L 135.366653 77.931574 
L 133.13435 77.795629 
L 131.6785 77.35741 
L 131.290273 76.836641 
L 131.193216 76.20162 
L 130.902046 75.968 
L 130.319706 75.835207 
L 130.125593 74.521701 
L 129.737366 74.304 
L 129.446196 73.695744 
L 128.960913 73.500019 
L 128.669743 73.236293 
L 127.699177 73.19396 
L 127.505063 72.889398 
L 123.23457 72.816608 
L 123.137513 72.447419 
L 116.440603 72.372706 
L 114.79064 72.09579 
L 112.655393 71.488 
L 112.558337 71.008744 
L 111.490713 70.392173 
L 110.42309 70.293333 
L 108.773127 69.86313 
L 107.51139 69.826065 
L 106.540823 69.651324 
L 97.126327 69.57049 
L 95.961647 69.431607 
L 91.691154 68.379429 
L 90.62353 66.787672 
L 87.42066 66.644757 
L 86.061867 66.300632 
L 85.38247 65.18016 
L 85.0913 63.564694 
L 82.858997 63.544082 
L 82.664884 61.288851 
L 81.111977 59.851636 
L 79.559071 57.6 
L 74.220954 53.568 
L 74.220954 53.568 
" clip-path="url(#paf9e41d01b)" style="fill: none; stroke: #9467bd; stroke-width: 1.5; stroke-linecap: square"/>
   </g>
   <g id="line2d_18">
    <path d="M 334.8181 295.131584 
L 330.838777 295.022606 
L 330.353494 294.982455 
L 328.800587 294.88015 
L 328.41236 294.844658 
L 326.66534 294.721049 
L 325.79183 294.670032 
L 325.112434 294.554553 
L 322.00662 294.255441 
L 320.065487 293.952912 
L 318.803751 293.758923 
L 318.318467 293.685159 
L 317.639071 293.615269 
L 317.347901 293.52212 
L 315.892051 293.294699 
L 315.794994 293.235686 
L 312.883294 292.836259 
L 312.495067 292.567076 
L 311.815671 292.460512 
L 311.524501 292.348646 
L 310.359821 292.221039 
L 310.068651 292.112146 
L 308.612801 291.762078 
L 308.321631 291.663028 
L 308.030461 291.528098 
L 307.254007 291.33397 
L 305.604044 290.711447 
L 305.409931 290.615291 
L 304.924647 290.327115 
L 304.536421 290.170069 
L 304.148194 289.5883 
L 303.371741 289.371725 
L 303.177627 289.030423 
L 302.983514 288.965749 
L 302.692344 288.79936 
L 302.207061 288.592411 
L 302.012947 288.376087 
L 300.654154 287.793419 
L 300.460041 287.552687 
L 299.877701 287.179514 
L 299.586531 287.06804 
L 299.198304 286.987633 
L 298.907134 286.352626 
L 298.713021 286.300361 
L 298.421851 286.010257 
L 298.033624 285.922835 
L 297.548341 285.547795 
L 297.451284 285.529563 
L 297.257171 285.319285 
L 296.868944 284.869489 
L 295.801321 284.095383 
L 295.510151 284.00296 
L 295.316038 283.956931 
L 294.927811 283.626062 
L 294.830754 283.609281 
L 294.636641 283.379226 
L 294.248414 283.213915 
L 293.957244 283.150194 
L 293.763131 282.854549 
L 293.471961 282.580657 
L 293.083734 282.479567 
L 292.113168 281.868002 
L 291.821998 281.547668 
L 291.336714 281.279416 
L 291.045544 280.927126 
L 290.948488 280.54543 
L 290.366148 280.426649 
L 290.172034 280.170867 
L 289.977921 280.093217 
L 289.686751 279.619715 
L 289.492638 279.560704 
L 289.007354 278.544811 
L 288.910298 278.446398 
L 288.813241 278.104292 
L 288.425014 277.829781 
L 288.327958 277.75934 
L 287.939731 276.905336 
L 287.648561 276.71952 
L 287.260334 276.650108 
L 286.872108 276.094464 
L 286.483881 275.269556 
L 286.289768 275.237029 
L 286.095654 274.559241 
L 285.222144 273.958079 
L 285.125088 273.764694 
L 284.930974 273.06509 
L 284.542748 272.855564 
L 284.348634 272.848121 
L 284.154521 272.649251 
L 283.960408 272.200605 
L 282.892784 271.357614 
L 282.795728 271.337503 
L 282.504558 270.633601 
L 282.213388 270.296311 
L 282.019274 269.95319 
L 281.825161 269.815297 
L 281.631048 268.728818 
L 281.533991 268.698411 
L 281.145764 267.584705 
L 280.757538 267.406471 
L 280.272254 266.231471 
L 279.689914 265.610725 
L 279.495801 265.560481 
L 279.301688 264.737796 
L 279.010518 264.210471 
L 277.942894 262.408822 
L 277.554668 261.895113 
L 277.263498 260.759946 
L 276.972328 260.515037 
L 276.778214 259.746128 
L 276.584101 258.768471 
L 276.389988 258.712777 
L 276.098818 257.233104 
L 276.001761 257.196255 
L 275.613534 255.647087 
L 275.225308 253.662971 
L 274.934138 252.871248 
L 274.740024 252.719668 
L 274.545911 252.448551 
L 274.448854 252.398931 
L 274.157684 250.949343 
L 274.060628 250.895348 
L 273.769458 249.543942 
L 273.575344 249.405867 
L 273.090061 248.177869 
L 272.895948 248.029567 
L 272.701834 247.714862 
L 272.604778 247.604347 
L 272.216551 246.039552 
L 271.925381 244.95492 
L 271.828325 244.881273 
L 271.440098 243.787662 
L 271.245985 242.41225 
L 270.954815 242.09894 
L 270.663645 241.216566 
L 270.469531 241.149871 
L 270.081305 241.064075 
L 269.984248 240.817272 
L 269.693078 239.438108 
L 269.401908 238.333726 
L 269.207795 237.747312 
L 268.528398 236.284447 
L 268.334285 236.082574 
L 268.043115 235.271316 
L 267.946058 235.136247 
L 267.751945 234.3733 
L 267.460775 234.131478 
L 266.975491 231.092494 
L 266.684321 230.555535 
L 266.490208 227.985723 
L 266.296095 226.867293 
L 265.616698 225.579559 
L 265.519641 225.563809 
L 265.034358 224.536325 
L 264.937301 224.498361 
L 264.840245 224.269068 
L 264.452018 222.33467 
L 264.160848 222.11882 
L 263.869678 221.637149 
L 263.675565 220.863253 
L 263.481451 220.54956 
L 263.287338 219.810462 
L 263.190281 219.654787 
L 262.996168 216.323782 
L 262.899111 216.151273 
L 262.704998 214.944575 
L 262.510885 214.723363 
L 262.316771 214.023003 
L 262.122658 213.652813 
L 261.928545 213.608685 
L 261.346205 210.861992 
L 261.249148 210.844492 
L 261.152091 210.487891 
L 260.860921 210.278744 
L 260.666808 209.343716 
L 260.375638 208.545173 
L 260.181525 206.913172 
L 260.084468 206.891725 
L 259.890355 206.644966 
L 259.793298 206.572074 
L 259.405071 206.037016 
L 259.210958 205.099268 
L 259.113901 205.040432 
L 258.531561 203.376403 
L 258.337448 202.954817 
L 257.658051 199.871038 
L 256.978655 198.607049 
L 256.881598 198.596702 
L 256.590428 198.296756 
L 256.396315 198.171593 
L 256.008088 197.371354 
L 255.813975 195.795692 
L 255.716918 195.783122 
L 255.619861 195.218879 
L 255.425748 195.192782 
L 255.231635 194.516924 
L 254.940465 193.678636 
L 254.746351 193.534828 
L 254.552238 191.935117 
L 254.358125 191.760199 
L 254.066955 190.695502 
L 253.969898 190.605141 
L 253.678728 189.737172 
L 253.484615 189.701579 
L 253.387558 188.826418 
L 253.096388 188.129461 
L 252.902275 187.935614 
L 252.708161 187.453457 
L 252.611105 187.328621 
L 252.416991 187.288486 
L 252.125821 186.910663 
L 251.737595 185.9968 
L 251.446425 185.823992 
L 251.155255 184.602942 
L 250.961141 183.96893 
L 250.864085 183.860861 
L 250.572915 182.876466 
L 250.281745 182.513286 
L 250.184688 182.02165 
L 249.796461 181.447189 
L 249.602348 181.424704 
L 249.408235 180.108807 
L 249.311178 179.959379 
L 249.020008 179.845627 
L 248.922951 179.448734 
L 248.728838 179.361245 
L 248.340611 178.086607 
L 248.146498 177.131062 
L 248.049442 177.100214 
L 247.952385 176.907541 
L 247.758272 176.421634 
L 247.661215 176.291653 
L 247.467102 174.460349 
L 246.787705 173.466647 
L 246.593592 172.419237 
L 246.399478 172.13447 
L 246.108308 172.02394 
L 245.525968 168.422537 
L 245.137742 167.914412 
L 244.943628 167.600456 
L 244.749515 166.194792 
L 244.652458 166.189731 
L 244.458345 165.8643 
L 244.264232 165.774559 
L 244.167175 165.570742 
L 243.876005 164.672 
L 243.584835 164.247901 
L 243.390722 162.164896 
L 243.293665 162.030711 
L 243.002495 161.964707 
L 242.614268 160.128 
L 242.517212 160.07513 
L 242.323098 159.574369 
L 241.934872 159.403089 
L 241.643702 158.392071 
L 241.449588 158.009935 
L 241.352532 157.999057 
L 241.158418 157.568 
L 240.964305 156.995234 
L 240.867248 156.891356 
L 240.479022 155.771673 
L 239.896682 154.888435 
L 239.702568 154.670125 
L 239.605512 154.368 
L 239.411398 153.221361 
L 239.217285 153.142807 
L 238.926115 152.255866 
L 238.246718 152.096649 
L 238.052605 150.848905 
L 237.955548 150.678542 
L 237.858492 150.25006 
L 237.373208 149.955976 
L 237.082038 149.275481 
L 236.887925 147.965096 
L 236.693812 147.442136 
L 236.499698 146.805228 
L 236.305585 146.600471 
L 235.917358 146.408148 
L 235.820302 146.222018 
L 235.432075 146.138056 
L 235.140905 144.560432 
L 234.752678 143.497337 
L 234.558565 143.450231 
L 234.073282 141.513474 
L 233.976225 141.488 
L 233.685055 140.873239 
L 233.490942 140.338526 
L 233.296828 140.285126 
L 233.102715 139.988306 
L 233.005658 139.961226 
L 232.714488 139.265893 
L 232.326262 139.15426 
L 232.132148 138.53831 
L 231.743922 138.360719 
L 231.549808 137.924874 
L 231.355695 137.866097 
L 231.064525 136.562453 
L 230.288072 136.314514 
L 230.093958 135.466965 
L 229.996902 135.237164 
L 229.802788 135.172355 
L 229.705732 134.274921 
L 229.414562 134.174456 
L 229.123392 133.19366 
L 228.832222 133.089412 
L 228.541052 132.641514 
L 228.443995 132.122777 
L 227.764598 131.869612 
L 227.570485 131.376103 
L 227.279315 131.053125 
L 226.891088 130.5473 
L 226.502862 130.394655 
L 226.405805 130.212798 
L 226.017578 129.98601 
L 225.823465 129.618158 
L 225.629352 129.393672 
L 225.047012 129.154655 
L 224.755842 128.812945 
L 224.561728 127.764 
L 224.173502 127.671574 
L 223.979389 126.982714 
L 223.882332 126.939861 
L 223.202935 125.636321 
L 223.008822 125.001508 
L 222.717652 124.943294 
L 222.426482 124.569901 
L 222.329425 124.207297 
L 221.844142 124.053056 
L 221.650029 122.914623 
L 221.261802 122.231762 
L 221.067689 121.557839 
L 220.582405 121.554077 
L 220.388292 120.703694 
L 220.097122 120.043611 
L 219.805952 119.970547 
L 219.320669 119.876339 
L 218.932442 118.977312 
L 218.835385 118.836739 
L 218.447159 118.531299 
L 217.767762 117.704373 
L 217.379535 117.655157 
L 217.282479 117.421386 
L 216.408969 116.725183 
L 216.117799 116.097651 
L 215.826629 115.554619 
L 215.632515 115.158857 
L 215.147232 114.76172 
L 214.661949 114.266565 
L 214.467835 113.388218 
L 213.885495 113.290422 
L 213.691382 112.780075 
L 212.914929 112.257894 
L 212.623759 111.278415 
L 212.526702 111.210985 
L 211.847305 111.032107 
L 211.362022 110.390462 
L 211.070852 110.282326 
L 210.973795 109.910932 
L 209.129719 109.580348 
L 209.032662 109.097204 
L 208.450322 109.0752 
L 207.285642 108.085183 
L 206.606245 107.343281 
L 206.412132 106.002495 
L 206.315075 105.814939 
L 205.732735 105.117832 
L 205.538622 104.624372 
L 205.150395 104.074105 
L 204.762169 103.968 
L 204.568055 103.463109 
L 204.276885 103.097183 
L 204.179829 102.898456 
L 203.985715 102.268989 
L 203.694545 102.009841 
L 203.209262 101.806703 
L 202.044582 100.62439 
L 201.850469 100.324404 
L 200.976959 99.861333 
L 200.879902 99.648 
L 200.103449 99.511711 
L 199.715222 99.258957 
L 199.424052 99.221868 
L 199.326996 98.880483 
L 198.550542 98.112 
L 198.162316 98.099771 
L 198.065259 97.750069 
L 197.191749 97.369237 
L 196.900579 97.198045 
L 196.415296 96.824177 
L 196.221182 96.621559 
L 195.930012 96.576 
L 195.832956 96.082466 
L 194.765332 95.996061 
L 194.571219 95.787615 
L 194.474162 95.417102 
L 193.988879 95.289497 
L 193.697709 94.430665 
L 193.212426 94.296925 
L 192.047746 93.805207 
L 191.562462 93.666157 
L 191.271292 93.470609 
L 190.591896 93.10291 
L 190.494839 92.84839 
L 189.330159 92.609353 
L 188.068422 92.537294 
L 187.777252 92.330575 
L 187.486082 92.268258 
L 185.836119 92.155385 
L 185.739062 91.886715 
L 185.350836 91.700551 
L 184.477326 90.745016 
L 184.283212 90.648 
L 183.894986 89.529081 
L 183.215589 89.252115 
L 181.759739 89.188123 
L 181.177399 88.715573 
L 180.789172 88.503652 
L 180.012719 87.585031 
L 179.624492 87.528379 
L 179.430379 87.253063 
L 177.877472 87.016746 
L 177.683359 86.397208 
L 177.295132 85.99432 
L 176.906906 85.758171 
L 176.033396 85.30503 
L 175.936339 84.634777 
L 173.315809 83.730528 
L 173.218753 83.575186 
L 173.121696 82.872742 
L 172.830526 82.765241 
L 172.733469 82.606756 
L 172.054073 82.5984 
L 171.957016 82.438244 
L 171.568789 82.352882 
L 171.180563 81.514667 
L 170.501166 81.498373 
L 170.404109 81.142141 
L 170.209996 81 
L 168.462976 80.863796 
L 168.268863 80.128293 
L 167.783579 79.853967 
L 167.686523 79.679292 
L 164.968936 79.553703 
L 164.677766 79.215679 
L 164.580709 78.825931 
L 164.192483 78.505803 
L 163.998369 77.923934 
L 163.416029 76.788529 
L 162.154293 76.653805 
L 161.474896 76.156916 
L 159.339649 75.764784 
L 155.554439 75.750524 
L 155.263269 75.584555 
L 155.166213 75.369694 
L 154.486816 75.054316 
L 154.389759 74.835692 
L 154.001533 74.685878 
L 153.904476 74.464744 
L 153.516249 74.311697 
L 153.322136 73.615122 
L 152.254513 73.613585 
L 152.157456 73.131007 
L 147.98402 73.072982 
L 147.886963 72.828217 
L 147.304623 72.697927 
L 147.207566 72.449561 
L 146.916396 72.245647 
L 146.81934 71.994339 
L 145.07232 71.849108 
L 144.878206 71.329215 
L 144.19881 71.201555 
L 143.422356 70.803233 
L 143.228243 70.55588 
L 142.840016 70.350408 
L 142.74296 70.076976 
L 142.354733 69.866441 
L 142.257676 69.589192 
L 141.86945 69.37344 
L 140.99594 69.260108 
L 140.510656 68.749883 
L 140.12243 68.521846 
L 140.025373 68.229818 
L 138.95775 68.137412 
L 138.860693 67.838562 
L 138.472466 67.274516 
L 137.404843 67.162928 
L 136.822503 66.94931 
L 136.33722 66.375529 
L 135.17254 66.262453 
L 134.88137 65.974154 
L 134.201973 64.699288 
L 134.00786 64.021333 
L 132.163783 63.59977 
L 131.6785 63.30713 
L 131.484386 62.962951 
L 129.93148 62.82617 
L 129.737366 62.468067 
L 126.631553 62.146723 
L 125.758043 61.864895 
L 125.27276 61.514277 
L 122.749287 61.461743 
L 122.264003 61.083961 
L 117.70234 60.835983 
L 117.314113 60.390039 
L 116.343547 60.0192 
L 113.431847 59.919122 
L 111.199543 59.692557 
L 109.452523 59.358638 
L 109.064297 58.144865 
L 95.767534 57.775304 
L 87.323604 56.999489 
L 85.0913 53.568 
L 85.0913 53.568 
" clip-path="url(#paf9e41d01b)" style="fill: none; stroke: #8c564b; stroke-width: 1.5; stroke-linecap: square"/>
   </g>
   <g id="patch_3">
    <path d="M 57.6 307.584 
L 57.6 41.472 
" style="fill: none; stroke: #000000; stroke-width: 0.8; stroke-linejoin: miter; stroke-linecap: square"/>
   </g>
   <g id="patch_4">
    <path d="M 414.72 307.584 
L 414.72 41.472 
" style="fill: none; stroke: #000000; stroke-width: 0.8; stroke-linejoin: miter; stroke-linecap: square"/>
   </g>
   <g id="patch_5">
    <path d="M 57.6 307.584 
L 414.72 307.584 
" style="fill: none; stroke: #000000; stroke-width: 0.8; stroke-linejoin: miter; stroke-linecap: square"/>
   </g>
   <g id="patch_6">
    <path d="M 57.6 41.472 
L 414.72 41.472 
" style="fill: none; stroke: #000000; stroke-width: 0.8; stroke-linejoin: miter; stroke-linecap: square"/>
   </g>
   <g id="text_15">
    <!-- Czech -->
    <g transform="translate(218.027812 35.472)scale(0.12 -0.12)">
     <defs>
      <path id="DejaVuSans-43" d="M 4122 4306 
L 4122 3641 
Q 3803 3938 3442 4084 
Q 3081 4231 2675 4231 
Q 1875 4231 1450 3742 
Q 1025 3253 1025 2328 
Q 1025 1406 1450 917 
Q 1875 428 2675 428 
Q 3081 428 3442 575 
Q 3803 722 4122 1019 
L 4122 359 
Q 3791 134 3420 21 
Q 3050 -91 2638 -91 
Q 1578 -91 968 557 
Q 359 1206 359 2328 
Q 359 3453 968 4101 
Q 1578 4750 2638 4750 
Q 3056 4750 3426 4639 
Q 3797 4528 4122 4306 
z
" transform="scale(0.015625)"/>
      <path id="DejaVuSans-7a" d="M 353 3500 
L 3084 3500 
L 3084 2975 
L 922 459 
L 3084 459 
L 3084 0 
L 275 0 
L 275 525 
L 2438 3041 
L 353 3041 
L 353 3500 
z
" transform="scale(0.015625)"/>
      <path id="DejaVuSans-68" d="M 3513 2113 
L 3513 0 
L 2938 0 
L 2938 2094 
Q 2938 2591 2744 2837 
Q 2550 3084 2163 3084 
Q 1697 3084 1428 2787 
Q 1159 2491 1159 1978 
L 1159 0 
L 581 0 
L 581 4863 
L 1159 4863 
L 1159 2956 
Q 1366 3272 1645 3428 
Q 1925 3584 2291 3584 
Q 2894 3584 3203 3211 
Q 3513 2838 3513 2113 
z
" transform="scale(0.015625)"/>
     </defs>
     <use xlink:href="#DejaVuSans-43"/>
     <use xlink:href="#DejaVuSans-7a" x="69.824219"/>
     <use xlink:href="#DejaVuSans-65" x="122.314453"/>
     <use xlink:href="#DejaVuSans-63" x="183.837891"/>
     <use xlink:href="#DejaVuSans-68" x="238.818359"/>
    </g>
   </g>
   <g id="legend_1">
    <g id="patch_7">
     <path d="M 349.629375 137.54075 
L 407.72 137.54075 
Q 409.72 137.54075 409.72 135.54075 
L 409.72 48.472 
Q 409.72 46.472 407.72 46.472 
L 349.629375 46.472 
Q 347.629375 46.472 347.629375 48.472 
L 347.629375 135.54075 
Q 347.629375 137.54075 349.629375 137.54075 
z
" style="fill: #ffffff; opacity: 0.8; stroke: #cccccc; stroke-linejoin: miter"/>
    </g>
    <g id="line2d_19">
     <path d="M 351.629375 54.570438 
L 361.629375 54.570438 
L 371.629375 54.570438 
" style="fill: none; stroke: #1f77b4; stroke-width: 1.5; stroke-linecap: square"/>
    </g>
    <g id="text_16">
     <!-- 0.01 -->
     <g transform="translate(379.629375 58.070438)scale(0.1 -0.1)">
      <use xlink:href="#DejaVuSans-30"/>
      <use xlink:href="#DejaVuSans-2e" x="63.623047"/>
      <use xlink:href="#DejaVuSans-30" x="95.410156"/>
      <use xlink:href="#DejaVuSans-31" x="159.033203"/>
     </g>
    </g>
    <g id="line2d_20">
     <path d="M 351.629375 69.248563 
L 361.629375 69.248563 
L 371.629375 69.248563 
" style="fill: none; stroke: #ff7f0e; stroke-width: 1.5; stroke-linecap: square"/>
    </g>
    <g id="text_17">
     <!-- 0.03 -->
     <g transform="translate(379.629375 72.748563)scale(0.1 -0.1)">
      <defs>
       <path id="DejaVuSans-33" d="M 2597 2516 
Q 3050 2419 3304 2112 
Q 3559 1806 3559 1356 
Q 3559 666 3084 287 
Q 2609 -91 1734 -91 
Q 1441 -91 1130 -33 
Q 819 25 488 141 
L 488 750 
Q 750 597 1062 519 
Q 1375 441 1716 441 
Q 2309 441 2620 675 
Q 2931 909 2931 1356 
Q 2931 1769 2642 2001 
Q 2353 2234 1838 2234 
L 1294 2234 
L 1294 2753 
L 1863 2753 
Q 2328 2753 2575 2939 
Q 2822 3125 2822 3475 
Q 2822 3834 2567 4026 
Q 2313 4219 1838 4219 
Q 1578 4219 1281 4162 
Q 984 4106 628 3988 
L 628 4550 
Q 988 4650 1302 4700 
Q 1616 4750 1894 4750 
Q 2613 4750 3031 4423 
Q 3450 4097 3450 3541 
Q 3450 3153 3228 2886 
Q 3006 2619 2597 2516 
z
" transform="scale(0.015625)"/>
      </defs>
      <use xlink:href="#DejaVuSans-30"/>
      <use xlink:href="#DejaVuSans-2e" x="63.623047"/>
      <use xlink:href="#DejaVuSans-30" x="95.410156"/>
      <use xlink:href="#DejaVuSans-33" x="159.033203"/>
     </g>
    </g>
    <g id="line2d_21">
     <path d="M 351.629375 83.926688 
L 361.629375 83.926688 
L 371.629375 83.926688 
" style="fill: none; stroke: #2ca02c; stroke-width: 1.5; stroke-linecap: square"/>
    </g>
    <g id="text_18">
     <!-- 0.08 -->
     <g transform="translate(379.629375 87.426688)scale(0.1 -0.1)">
      <use xlink:href="#DejaVuSans-30"/>
      <use xlink:href="#DejaVuSans-2e" x="63.623047"/>
      <use xlink:href="#DejaVuSans-30" x="95.410156"/>
      <use xlink:href="#DejaVuSans-38" x="159.033203"/>
     </g>
    </g>
    <g id="line2d_22">
     <path d="M 351.629375 98.604813 
L 361.629375 98.604813 
L 371.629375 98.604813 
" style="fill: none; stroke: #d62728; stroke-width: 1.5; stroke-linecap: square"/>
    </g>
    <g id="text_19">
     <!-- 0.15 -->
     <g transform="translate(379.629375 102.104813)scale(0.1 -0.1)">
      <defs>
       <path id="DejaVuSans-35" d="M 691 4666 
L 3169 4666 
L 3169 4134 
L 1269 4134 
L 1269 2991 
Q 1406 3038 1543 3061 
Q 1681 3084 1819 3084 
Q 2600 3084 3056 2656 
Q 3513 2228 3513 1497 
Q 3513 744 3044 326 
Q 2575 -91 1722 -91 
Q 1428 -91 1123 -41 
Q 819 9 494 109 
L 494 744 
Q 775 591 1075 516 
Q 1375 441 1709 441 
Q 2250 441 2565 725 
Q 2881 1009 2881 1497 
Q 2881 1984 2565 2268 
Q 2250 2553 1709 2553 
Q 1456 2553 1204 2497 
Q 953 2441 691 2322 
L 691 4666 
z
" transform="scale(0.015625)"/>
      </defs>
      <use xlink:href="#DejaVuSans-30"/>
      <use xlink:href="#DejaVuSans-2e" x="63.623047"/>
      <use xlink:href="#DejaVuSans-31" x="95.410156"/>
      <use xlink:href="#DejaVuSans-35" x="159.033203"/>
     </g>
    </g>
    <g id="line2d_23">
     <path d="M 351.629375 113.282938 
L 361.629375 113.282938 
L 371.629375 113.282938 
" style="fill: none; stroke: #9467bd; stroke-width: 1.5; stroke-linecap: square"/>
    </g>
    <g id="text_20">
     <!-- 0.50 -->
     <g transform="translate(379.629375 116.782938)scale(0.1 -0.1)">
      <use xlink:href="#DejaVuSans-30"/>
      <use xlink:href="#DejaVuSans-2e" x="63.623047"/>
      <use xlink:href="#DejaVuSans-35" x="95.410156"/>
      <use xlink:href="#DejaVuSans-30" x="159.033203"/>
     </g>
    </g>
    <g id="line2d_24">
     <path d="M 351.629375 127.961063 
L 361.629375 127.961063 
L 371.629375 127.961063 
" style="fill: none; stroke: #8c564b; stroke-width: 1.5; stroke-linecap: square"/>
    </g>
    <g id="text_21">
     <!-- None -->
     <g transform="translate(379.629375 131.461063)scale(0.1 -0.1)">
      <defs>
       <path id="DejaVuSans-4e" d="M 628 4666 
L 1478 4666 
L 3547 763 
L 3547 4666 
L 4159 4666 
L 4159 0 
L 3309 0 
L 1241 3903 
L 1241 0 
L 628 0 
L 628 4666 
z
" transform="scale(0.015625)"/>
      </defs>
      <use xlink:href="#DejaVuSans-4e"/>
      <use xlink:href="#DejaVuSans-6f" x="74.804688"/>
      <use xlink:href="#DejaVuSans-6e" x="135.986328"/>
      <use xlink:href="#DejaVuSans-65" x="199.365234"/>
     </g>
    </g>
   </g>
  </g>
 </g>
 <defs>
  <clipPath id="paf9e41d01b">
   <rect x="57.6" y="41.472" width="357.12" height="266.112"/>
  </clipPath>
 </defs>
</svg>
