<?xml version="1.0" encoding="utf-8" standalone="no"?>
<!DOCTYPE svg PUBLIC "-//W3C//DTD SVG 1.1//EN"
  "http://www.w3.org/Graphics/SVG/1.1/DTD/svg11.dtd">
<svg xmlns:xlink="http://www.w3.org/1999/xlink" width="460.8pt" height="345.6pt" viewBox="0 0 460.8 345.6" xmlns="http://www.w3.org/2000/svg" version="1.1">
 <metadata>
  <rdf:RDF xmlns:dc="http://purl.org/dc/elements/1.1/" xmlns:cc="http://creativecommons.org/ns#" xmlns:rdf="http://www.w3.org/1999/02/22-rdf-syntax-ns#">
   <cc:Work>
    <dc:type rdf:resource="http://purl.org/dc/dcmitype/StillImage"/>
    <dc:date>2024-04-08T13:38:46.354770</dc:date>
    <dc:format>image/svg+xml</dc:format>
    <dc:creator>
     <cc:Agent>
      <dc:title>Matplotlib v3.5.1, https://matplotlib.org/</dc:title>
     </cc:Agent>
    </dc:creator>
   </cc:Work>
  </rdf:RDF>
 </metadata>
 <defs>
  <style type="text/css">*{stroke-linejoin: round; stroke-linecap: butt}</style>
 </defs>
 <g id="figure_1">
  <g id="patch_1">
   <path d="M 0 345.6 
L 460.8 345.6 
L 460.8 0 
L 0 0 
z
" style="fill: #ffffff"/>
  </g>
  <g id="axes_1">
   <g id="patch_2">
    <path d="M 57.6 307.584 
L 414.72 307.584 
L 414.72 41.472 
L 57.6 41.472 
z
" style="fill: #ffffff"/>
   </g>
   <g id="matplotlib.axis_1">
    <g id="xtick_1">
     <g id="line2d_1">
      <defs>
       <path id="m324f75d190" d="M 0 0 
L 0 3.5 
" style="stroke: #000000; stroke-width: 0.8"/>
      </defs>
      <g>
       <use xlink:href="#m324f75d190" x="73.832727" y="307.584" style="stroke: #000000; stroke-width: 0.8"/>
      </g>
     </g>
     <g id="text_1">
      <!-- 0.0 -->
      <g transform="translate(65.881165 322.182437)scale(0.1 -0.1)">
       <defs>
        <path id="DejaVuSans-30" d="M 2034 4250 
Q 1547 4250 1301 3770 
Q 1056 3291 1056 2328 
Q 1056 1369 1301 889 
Q 1547 409 2034 409 
Q 2525 409 2770 889 
Q 3016 1369 3016 2328 
Q 3016 3291 2770 3770 
Q 2525 4250 2034 4250 
z
M 2034 4750 
Q 2819 4750 3233 4129 
Q 3647 3509 3647 2328 
Q 3647 1150 3233 529 
Q 2819 -91 2034 -91 
Q 1250 -91 836 529 
Q 422 1150 422 2328 
Q 422 3509 836 4129 
Q 1250 4750 2034 4750 
z
" transform="scale(0.015625)"/>
        <path id="DejaVuSans-2e" d="M 684 794 
L 1344 794 
L 1344 0 
L 684 0 
L 684 794 
z
" transform="scale(0.015625)"/>
       </defs>
       <use xlink:href="#DejaVuSans-30"/>
       <use xlink:href="#DejaVuSans-2e" x="63.623047"/>
       <use xlink:href="#DejaVuSans-30" x="95.410156"/>
      </g>
     </g>
    </g>
    <g id="xtick_2">
     <g id="line2d_2">
      <g>
       <use xlink:href="#m324f75d190" x="138.763636" y="307.584" style="stroke: #000000; stroke-width: 0.8"/>
      </g>
     </g>
     <g id="text_2">
      <!-- 0.2 -->
      <g transform="translate(130.812074 322.182437)scale(0.1 -0.1)">
       <defs>
        <path id="DejaVuSans-32" d="M 1228 531 
L 3431 531 
L 3431 0 
L 469 0 
L 469 531 
Q 828 903 1448 1529 
Q 2069 2156 2228 2338 
Q 2531 2678 2651 2914 
Q 2772 3150 2772 3378 
Q 2772 3750 2511 3984 
Q 2250 4219 1831 4219 
Q 1534 4219 1204 4116 
Q 875 4013 500 3803 
L 500 4441 
Q 881 4594 1212 4672 
Q 1544 4750 1819 4750 
Q 2544 4750 2975 4387 
Q 3406 4025 3406 3419 
Q 3406 3131 3298 2873 
Q 3191 2616 2906 2266 
Q 2828 2175 2409 1742 
Q 1991 1309 1228 531 
z
" transform="scale(0.015625)"/>
       </defs>
       <use xlink:href="#DejaVuSans-30"/>
       <use xlink:href="#DejaVuSans-2e" x="63.623047"/>
       <use xlink:href="#DejaVuSans-32" x="95.410156"/>
      </g>
     </g>
    </g>
    <g id="xtick_3">
     <g id="line2d_3">
      <g>
       <use xlink:href="#m324f75d190" x="203.694545" y="307.584" style="stroke: #000000; stroke-width: 0.8"/>
      </g>
     </g>
     <g id="text_3">
      <!-- 0.4 -->
      <g transform="translate(195.742983 322.182437)scale(0.1 -0.1)">
       <defs>
        <path id="DejaVuSans-34" d="M 2419 4116 
L 825 1625 
L 2419 1625 
L 2419 4116 
z
M 2253 4666 
L 3047 4666 
L 3047 1625 
L 3713 1625 
L 3713 1100 
L 3047 1100 
L 3047 0 
L 2419 0 
L 2419 1100 
L 313 1100 
L 313 1709 
L 2253 4666 
z
" transform="scale(0.015625)"/>
       </defs>
       <use xlink:href="#DejaVuSans-30"/>
       <use xlink:href="#DejaVuSans-2e" x="63.623047"/>
       <use xlink:href="#DejaVuSans-34" x="95.410156"/>
      </g>
     </g>
    </g>
    <g id="xtick_4">
     <g id="line2d_4">
      <g>
       <use xlink:href="#m324f75d190" x="268.625455" y="307.584" style="stroke: #000000; stroke-width: 0.8"/>
      </g>
     </g>
     <g id="text_4">
      <!-- 0.6 -->
      <g transform="translate(260.673892 322.182437)scale(0.1 -0.1)">
       <defs>
        <path id="DejaVuSans-36" d="M 2113 2584 
Q 1688 2584 1439 2293 
Q 1191 2003 1191 1497 
Q 1191 994 1439 701 
Q 1688 409 2113 409 
Q 2538 409 2786 701 
Q 3034 994 3034 1497 
Q 3034 2003 2786 2293 
Q 2538 2584 2113 2584 
z
M 3366 4563 
L 3366 3988 
Q 3128 4100 2886 4159 
Q 2644 4219 2406 4219 
Q 1781 4219 1451 3797 
Q 1122 3375 1075 2522 
Q 1259 2794 1537 2939 
Q 1816 3084 2150 3084 
Q 2853 3084 3261 2657 
Q 3669 2231 3669 1497 
Q 3669 778 3244 343 
Q 2819 -91 2113 -91 
Q 1303 -91 875 529 
Q 447 1150 447 2328 
Q 447 3434 972 4092 
Q 1497 4750 2381 4750 
Q 2619 4750 2861 4703 
Q 3103 4656 3366 4563 
z
" transform="scale(0.015625)"/>
       </defs>
       <use xlink:href="#DejaVuSans-30"/>
       <use xlink:href="#DejaVuSans-2e" x="63.623047"/>
       <use xlink:href="#DejaVuSans-36" x="95.410156"/>
      </g>
     </g>
    </g>
    <g id="xtick_5">
     <g id="line2d_5">
      <g>
       <use xlink:href="#m324f75d190" x="333.556364" y="307.584" style="stroke: #000000; stroke-width: 0.8"/>
      </g>
     </g>
     <g id="text_5">
      <!-- 0.8 -->
      <g transform="translate(325.604801 322.182437)scale(0.1 -0.1)">
       <defs>
        <path id="DejaVuSans-38" d="M 2034 2216 
Q 1584 2216 1326 1975 
Q 1069 1734 1069 1313 
Q 1069 891 1326 650 
Q 1584 409 2034 409 
Q 2484 409 2743 651 
Q 3003 894 3003 1313 
Q 3003 1734 2745 1975 
Q 2488 2216 2034 2216 
z
M 1403 2484 
Q 997 2584 770 2862 
Q 544 3141 544 3541 
Q 544 4100 942 4425 
Q 1341 4750 2034 4750 
Q 2731 4750 3128 4425 
Q 3525 4100 3525 3541 
Q 3525 3141 3298 2862 
Q 3072 2584 2669 2484 
Q 3125 2378 3379 2068 
Q 3634 1759 3634 1313 
Q 3634 634 3220 271 
Q 2806 -91 2034 -91 
Q 1263 -91 848 271 
Q 434 634 434 1313 
Q 434 1759 690 2068 
Q 947 2378 1403 2484 
z
M 1172 3481 
Q 1172 3119 1398 2916 
Q 1625 2713 2034 2713 
Q 2441 2713 2670 2916 
Q 2900 3119 2900 3481 
Q 2900 3844 2670 4047 
Q 2441 4250 2034 4250 
Q 1625 4250 1398 4047 
Q 1172 3844 1172 3481 
z
" transform="scale(0.015625)"/>
       </defs>
       <use xlink:href="#DejaVuSans-30"/>
       <use xlink:href="#DejaVuSans-2e" x="63.623047"/>
       <use xlink:href="#DejaVuSans-38" x="95.410156"/>
      </g>
     </g>
    </g>
    <g id="xtick_6">
     <g id="line2d_6">
      <g>
       <use xlink:href="#m324f75d190" x="398.487273" y="307.584" style="stroke: #000000; stroke-width: 0.8"/>
      </g>
     </g>
     <g id="text_6">
      <!-- 1.0 -->
      <g transform="translate(390.53571 322.182437)scale(0.1 -0.1)">
       <defs>
        <path id="DejaVuSans-31" d="M 794 531 
L 1825 531 
L 1825 4091 
L 703 3866 
L 703 4441 
L 1819 4666 
L 2450 4666 
L 2450 531 
L 3481 531 
L 3481 0 
L 794 0 
L 794 531 
z
" transform="scale(0.015625)"/>
       </defs>
       <use xlink:href="#DejaVuSans-31"/>
       <use xlink:href="#DejaVuSans-2e" x="63.623047"/>
       <use xlink:href="#DejaVuSans-30" x="95.410156"/>
      </g>
     </g>
    </g>
    <g id="text_7">
     <!-- Recall -->
     <g transform="translate(221.242812 335.860562)scale(0.1 -0.1)">
      <defs>
       <path id="DejaVuSans-52" d="M 2841 2188 
Q 3044 2119 3236 1894 
Q 3428 1669 3622 1275 
L 4263 0 
L 3584 0 
L 2988 1197 
Q 2756 1666 2539 1819 
Q 2322 1972 1947 1972 
L 1259 1972 
L 1259 0 
L 628 0 
L 628 4666 
L 2053 4666 
Q 2853 4666 3247 4331 
Q 3641 3997 3641 3322 
Q 3641 2881 3436 2590 
Q 3231 2300 2841 2188 
z
M 1259 4147 
L 1259 2491 
L 2053 2491 
Q 2509 2491 2742 2702 
Q 2975 2913 2975 3322 
Q 2975 3731 2742 3939 
Q 2509 4147 2053 4147 
L 1259 4147 
z
" transform="scale(0.015625)"/>
       <path id="DejaVuSans-65" d="M 3597 1894 
L 3597 1613 
L 953 1613 
Q 991 1019 1311 708 
Q 1631 397 2203 397 
Q 2534 397 2845 478 
Q 3156 559 3463 722 
L 3463 178 
Q 3153 47 2828 -22 
Q 2503 -91 2169 -91 
Q 1331 -91 842 396 
Q 353 884 353 1716 
Q 353 2575 817 3079 
Q 1281 3584 2069 3584 
Q 2775 3584 3186 3129 
Q 3597 2675 3597 1894 
z
M 3022 2063 
Q 3016 2534 2758 2815 
Q 2500 3097 2075 3097 
Q 1594 3097 1305 2825 
Q 1016 2553 972 2059 
L 3022 2063 
z
" transform="scale(0.015625)"/>
       <path id="DejaVuSans-63" d="M 3122 3366 
L 3122 2828 
Q 2878 2963 2633 3030 
Q 2388 3097 2138 3097 
Q 1578 3097 1268 2742 
Q 959 2388 959 1747 
Q 959 1106 1268 751 
Q 1578 397 2138 397 
Q 2388 397 2633 464 
Q 2878 531 3122 666 
L 3122 134 
Q 2881 22 2623 -34 
Q 2366 -91 2075 -91 
Q 1284 -91 818 406 
Q 353 903 353 1747 
Q 353 2603 823 3093 
Q 1294 3584 2113 3584 
Q 2378 3584 2631 3529 
Q 2884 3475 3122 3366 
z
" transform="scale(0.015625)"/>
       <path id="DejaVuSans-61" d="M 2194 1759 
Q 1497 1759 1228 1600 
Q 959 1441 959 1056 
Q 959 750 1161 570 
Q 1363 391 1709 391 
Q 2188 391 2477 730 
Q 2766 1069 2766 1631 
L 2766 1759 
L 2194 1759 
z
M 3341 1997 
L 3341 0 
L 2766 0 
L 2766 531 
Q 2569 213 2275 61 
Q 1981 -91 1556 -91 
Q 1019 -91 701 211 
Q 384 513 384 1019 
Q 384 1609 779 1909 
Q 1175 2209 1959 2209 
L 2766 2209 
L 2766 2266 
Q 2766 2663 2505 2880 
Q 2244 3097 1772 3097 
Q 1472 3097 1187 3025 
Q 903 2953 641 2809 
L 641 3341 
Q 956 3463 1253 3523 
Q 1550 3584 1831 3584 
Q 2591 3584 2966 3190 
Q 3341 2797 3341 1997 
z
" transform="scale(0.015625)"/>
       <path id="DejaVuSans-6c" d="M 603 4863 
L 1178 4863 
L 1178 0 
L 603 0 
L 603 4863 
z
" transform="scale(0.015625)"/>
      </defs>
      <use xlink:href="#DejaVuSans-52"/>
      <use xlink:href="#DejaVuSans-65" x="64.982422"/>
      <use xlink:href="#DejaVuSans-63" x="126.505859"/>
      <use xlink:href="#DejaVuSans-61" x="181.486328"/>
      <use xlink:href="#DejaVuSans-6c" x="242.765625"/>
      <use xlink:href="#DejaVuSans-6c" x="270.548828"/>
     </g>
    </g>
   </g>
   <g id="matplotlib.axis_2">
    <g id="ytick_1">
     <g id="line2d_7">
      <defs>
       <path id="m7007f6ecfd" d="M 0 0 
L -3.5 0 
" style="stroke: #000000; stroke-width: 0.8"/>
      </defs>
      <g>
       <use xlink:href="#m7007f6ecfd" x="57.6" y="295.488" style="stroke: #000000; stroke-width: 0.8"/>
      </g>
     </g>
     <g id="text_8">
      <!-- 0.0 -->
      <g transform="translate(34.696875 299.287219)scale(0.1 -0.1)">
       <use xlink:href="#DejaVuSans-30"/>
       <use xlink:href="#DejaVuSans-2e" x="63.623047"/>
       <use xlink:href="#DejaVuSans-30" x="95.410156"/>
      </g>
     </g>
    </g>
    <g id="ytick_2">
     <g id="line2d_8">
      <g>
       <use xlink:href="#m7007f6ecfd" x="57.6" y="247.104" style="stroke: #000000; stroke-width: 0.8"/>
      </g>
     </g>
     <g id="text_9">
      <!-- 0.2 -->
      <g transform="translate(34.696875 250.903219)scale(0.1 -0.1)">
       <use xlink:href="#DejaVuSans-30"/>
       <use xlink:href="#DejaVuSans-2e" x="63.623047"/>
       <use xlink:href="#DejaVuSans-32" x="95.410156"/>
      </g>
     </g>
    </g>
    <g id="ytick_3">
     <g id="line2d_9">
      <g>
       <use xlink:href="#m7007f6ecfd" x="57.6" y="198.72" style="stroke: #000000; stroke-width: 0.8"/>
      </g>
     </g>
     <g id="text_10">
      <!-- 0.4 -->
      <g transform="translate(34.696875 202.519219)scale(0.1 -0.1)">
       <use xlink:href="#DejaVuSans-30"/>
       <use xlink:href="#DejaVuSans-2e" x="63.623047"/>
       <use xlink:href="#DejaVuSans-34" x="95.410156"/>
      </g>
     </g>
    </g>
    <g id="ytick_4">
     <g id="line2d_10">
      <g>
       <use xlink:href="#m7007f6ecfd" x="57.6" y="150.336" style="stroke: #000000; stroke-width: 0.8"/>
      </g>
     </g>
     <g id="text_11">
      <!-- 0.6 -->
      <g transform="translate(34.696875 154.135219)scale(0.1 -0.1)">
       <use xlink:href="#DejaVuSans-30"/>
       <use xlink:href="#DejaVuSans-2e" x="63.623047"/>
       <use xlink:href="#DejaVuSans-36" x="95.410156"/>
      </g>
     </g>
    </g>
    <g id="ytick_5">
     <g id="line2d_11">
      <g>
       <use xlink:href="#m7007f6ecfd" x="57.6" y="101.952" style="stroke: #000000; stroke-width: 0.8"/>
      </g>
     </g>
     <g id="text_12">
      <!-- 0.8 -->
      <g transform="translate(34.696875 105.751219)scale(0.1 -0.1)">
       <use xlink:href="#DejaVuSans-30"/>
       <use xlink:href="#DejaVuSans-2e" x="63.623047"/>
       <use xlink:href="#DejaVuSans-38" x="95.410156"/>
      </g>
     </g>
    </g>
    <g id="ytick_6">
     <g id="line2d_12">
      <g>
       <use xlink:href="#m7007f6ecfd" x="57.6" y="53.568" style="stroke: #000000; stroke-width: 0.8"/>
      </g>
     </g>
     <g id="text_13">
      <!-- 1.0 -->
      <g transform="translate(34.696875 57.367219)scale(0.1 -0.1)">
       <use xlink:href="#DejaVuSans-31"/>
       <use xlink:href="#DejaVuSans-2e" x="63.623047"/>
       <use xlink:href="#DejaVuSans-30" x="95.410156"/>
      </g>
     </g>
    </g>
    <g id="text_14">
     <!-- Precision -->
     <g transform="translate(28.617187 196.835031)rotate(-90)scale(0.1 -0.1)">
      <defs>
       <path id="DejaVuSans-50" d="M 1259 4147 
L 1259 2394 
L 2053 2394 
Q 2494 2394 2734 2622 
Q 2975 2850 2975 3272 
Q 2975 3691 2734 3919 
Q 2494 4147 2053 4147 
L 1259 4147 
z
M 628 4666 
L 2053 4666 
Q 2838 4666 3239 4311 
Q 3641 3956 3641 3272 
Q 3641 2581 3239 2228 
Q 2838 1875 2053 1875 
L 1259 1875 
L 1259 0 
L 628 0 
L 628 4666 
z
" transform="scale(0.015625)"/>
       <path id="DejaVuSans-72" d="M 2631 2963 
Q 2534 3019 2420 3045 
Q 2306 3072 2169 3072 
Q 1681 3072 1420 2755 
Q 1159 2438 1159 1844 
L 1159 0 
L 581 0 
L 581 3500 
L 1159 3500 
L 1159 2956 
Q 1341 3275 1631 3429 
Q 1922 3584 2338 3584 
Q 2397 3584 2469 3576 
Q 2541 3569 2628 3553 
L 2631 2963 
z
" transform="scale(0.015625)"/>
       <path id="DejaVuSans-69" d="M 603 3500 
L 1178 3500 
L 1178 0 
L 603 0 
L 603 3500 
z
M 603 4863 
L 1178 4863 
L 1178 4134 
L 603 4134 
L 603 4863 
z
" transform="scale(0.015625)"/>
       <path id="DejaVuSans-73" d="M 2834 3397 
L 2834 2853 
Q 2591 2978 2328 3040 
Q 2066 3103 1784 3103 
Q 1356 3103 1142 2972 
Q 928 2841 928 2578 
Q 928 2378 1081 2264 
Q 1234 2150 1697 2047 
L 1894 2003 
Q 2506 1872 2764 1633 
Q 3022 1394 3022 966 
Q 3022 478 2636 193 
Q 2250 -91 1575 -91 
Q 1294 -91 989 -36 
Q 684 19 347 128 
L 347 722 
Q 666 556 975 473 
Q 1284 391 1588 391 
Q 1994 391 2212 530 
Q 2431 669 2431 922 
Q 2431 1156 2273 1281 
Q 2116 1406 1581 1522 
L 1381 1569 
Q 847 1681 609 1914 
Q 372 2147 372 2553 
Q 372 3047 722 3315 
Q 1072 3584 1716 3584 
Q 2034 3584 2315 3537 
Q 2597 3491 2834 3397 
z
" transform="scale(0.015625)"/>
       <path id="DejaVuSans-6f" d="M 1959 3097 
Q 1497 3097 1228 2736 
Q 959 2375 959 1747 
Q 959 1119 1226 758 
Q 1494 397 1959 397 
Q 2419 397 2687 759 
Q 2956 1122 2956 1747 
Q 2956 2369 2687 2733 
Q 2419 3097 1959 3097 
z
M 1959 3584 
Q 2709 3584 3137 3096 
Q 3566 2609 3566 1747 
Q 3566 888 3137 398 
Q 2709 -91 1959 -91 
Q 1206 -91 779 398 
Q 353 888 353 1747 
Q 353 2609 779 3096 
Q 1206 3584 1959 3584 
z
" transform="scale(0.015625)"/>
       <path id="DejaVuSans-6e" d="M 3513 2113 
L 3513 0 
L 2938 0 
L 2938 2094 
Q 2938 2591 2744 2837 
Q 2550 3084 2163 3084 
Q 1697 3084 1428 2787 
Q 1159 2491 1159 1978 
L 1159 0 
L 581 0 
L 581 3500 
L 1159 3500 
L 1159 2956 
Q 1366 3272 1645 3428 
Q 1925 3584 2291 3584 
Q 2894 3584 3203 3211 
Q 3513 2838 3513 2113 
z
" transform="scale(0.015625)"/>
      </defs>
      <use xlink:href="#DejaVuSans-50"/>
      <use xlink:href="#DejaVuSans-72" x="58.552734"/>
      <use xlink:href="#DejaVuSans-65" x="97.416016"/>
      <use xlink:href="#DejaVuSans-63" x="158.939453"/>
      <use xlink:href="#DejaVuSans-69" x="213.919922"/>
      <use xlink:href="#DejaVuSans-73" x="241.703125"/>
      <use xlink:href="#DejaVuSans-69" x="293.802734"/>
      <use xlink:href="#DejaVuSans-6f" x="321.585938"/>
      <use xlink:href="#DejaVuSans-6e" x="382.767578"/>
     </g>
    </g>
   </g>
   <g id="line2d_13">
    <path d="M 392.361715 295.12665 
L 387.986317 294.891692 
L 375.735202 294.508751 
L 373.109963 294.358659 
L 369.609645 294.079405 
L 365.234247 293.591147 
L 360.858848 292.906009 
L 359.108689 292.891078 
L 355.60837 292.48591 
L 350.357893 292.060511 
L 349.482813 291.765063 
L 348.607733 291.708 
L 347.732654 291.373625 
L 345.982494 291.242352 
L 345.107415 290.99942 
L 344.232335 290.958596 
L 343.357256 289.773939 
L 342.482176 289.743593 
L 341.607096 289.514185 
L 339.856937 289.344 
L 338.981857 288.90854 
L 337.231698 288.676858 
L 335.481539 288.546816 
L 334.606459 288.051986 
L 332.8563 287.663664 
L 331.106141 286.353081 
L 330.231061 286.29918 
L 329.355981 285.284239 
L 326.730742 284.52268 
L 323.230424 284.063443 
L 320.605185 283.68294 
L 319.730105 283.327084 
L 318.855026 283.287424 
L 317.979946 282.76017 
L 317.104866 282.52217 
L 316.229787 281.931083 
L 315.354707 281.498911 
L 314.479628 281.458477 
L 313.604548 279.967963 
L 311.854389 279.65493 
L 310.104229 276.276706 
L 309.22915 276.2175 
L 308.35407 274.78731 
L 307.47899 273.949941 
L 306.603911 273.351529 
L 304.853752 273.180323 
L 303.103592 271.650828 
L 302.228513 271.277448 
L 301.353433 271.127349 
L 299.603274 270.670759 
L 298.728194 268.026233 
L 297.853114 267.515317 
L 296.978035 266.525746 
L 296.102955 265.917413 
L 295.227876 264.777634 
L 294.352796 264.713724 
L 293.477716 261.939978 
L 291.727557 257.79208 
L 289.977398 257.668861 
L 288.227238 257.224346 
L 287.352159 254.890696 
L 284.72692 254.716867 
L 282.976761 253.468465 
L 282.101681 253.120848 
L 281.226601 251.282109 
L 280.351522 244.37509 
L 279.476442 242.455164 
L 278.601362 242.233738 
L 276.851203 242.0352 
L 275.976123 234.612706 
L 275.101044 234.276119 
L 274.225964 232.676571 
L 273.350885 228.952704 
L 272.475805 228.923345 
L 271.600725 228.485647 
L 270.725646 228.204934 
L 269.850566 226.892962 
L 268.100407 226.722008 
L 265.475168 224.753047 
L 263.725009 223.078841 
L 262.849929 220.94489 
L 261.09977 219.910073 
L 260.22469 215.099607 
L 259.34961 214.593615 
L 257.599451 213.941933 
L 254.974212 213.795602 
L 254.099133 211.021017 
L 253.224053 207.085861 
L 251.473894 206.034885 
L 250.598814 205.822239 
L 249.723734 205.77228 
L 248.848655 204.881258 
L 247.973575 204.824949 
L 246.223416 204.013451 
L 244.473257 196.589887 
L 243.598177 194.557935 
L 238.347699 192.356571 
L 237.472619 191.250581 
L 236.59754 190.843535 
L 234.847381 187.707661 
L 233.097221 186.504238 
L 230.471982 186.41072 
L 228.721823 183.978 
L 227.846743 181.33808 
L 226.971664 179.180308 
L 226.096584 178.56 
L 225.221505 175.567771 
L 221.721186 174.169068 
L 220.846106 173.43827 
L 219.971027 172.315317 
L 219.095947 171.922708 
L 218.220867 171.906576 
L 217.345788 171.504 
L 216.470708 169.100308 
L 213.845469 168.993882 
L 212.97039 168.539881 
L 207.719912 168.292948 
L 206.844832 167.808 
L 205.969753 166.861521 
L 205.094673 166.807149 
L 203.344514 164.337231 
L 201.594354 162.704842 
L 200.719275 162.110053 
L 198.094036 160.771765 
L 193.718638 160.760195 
L 192.843558 159.532959 
L 191.968478 158.838628 
L 189.343239 157.248 
L 174.466886 157.07606 
L 173.591806 156.200727 
L 172.716726 151.609263 
L 171.841647 149.028324 
L 163.09085 148.608 
L 155.215134 148.438588 
L 154.340054 144.082286 
L 149.089576 141.376 
L 148.214496 139.706182 
L 147.339417 139.170462 
L 144.714178 138.72384 
L 142.088939 135.57478 
L 139.4637 134.921628 
L 128.087665 132.454957 
L 126.337506 126.706605 
L 118.461789 124.128 
L 114.96147 123.211636 
L 114.086391 118.848 
L 113.211311 117.022426 
L 111.461152 116.133517 
L 109.710992 111.808 
L 107.960833 106.7904 
L 106.210674 105.04034 
L 93.084479 98.368 
L 92.2094 92.2752 
L 90.45924 86.557091 
L 81.708444 77.76 
L 79.958285 53.568 
L 79.958285 53.568 
" clip-path="url(#p3042482940)" style="fill: none; stroke: #1f77b4; stroke-width: 1.5; stroke-linecap: square"/>
   </g>
   <g id="line2d_14">
    <path d="M 392.361715 295.137052 
L 375.735202 294.698362 
L 359.983769 293.386918 
L 355.60837 293.198828 
L 352.983132 292.807004 
L 345.107415 292.705453 
L 343.357256 292.339145 
L 341.607096 292.300044 
L 340.732017 292.000144 
L 338.106778 291.879928 
L 337.231698 291.489652 
L 335.481539 291.257442 
L 334.606459 290.84109 
L 333.73138 290.818458 
L 332.8563 289.967778 
L 330.231061 289.424998 
L 328.480902 289.309422 
L 327.605822 289.24129 
L 325.855663 288.797683 
L 323.230424 287.332429 
L 322.355344 286.524493 
L 321.480265 286.069461 
L 320.605185 285.77538 
L 315.354707 284.732536 
L 314.479628 284.117636 
L 311.854389 283.378644 
L 310.979309 282.62042 
L 310.104229 282.432154 
L 308.35407 282.288782 
L 307.47899 281.803119 
L 306.603911 281.559273 
L 305.728831 281.120273 
L 303.978672 281.024495 
L 300.478353 279.661458 
L 299.603274 279.161722 
L 298.728194 278.846287 
L 297.853114 278.30866 
L 296.978035 276.30591 
L 295.227876 275.328 
L 294.352796 273.574326 
L 293.477716 269.460602 
L 291.727557 269.067789 
L 289.977398 266.467 
L 289.102318 266.400845 
L 287.352159 263.683862 
L 285.602 263.496393 
L 284.72692 260.597084 
L 283.85184 258.10178 
L 282.976761 252.911505 
L 282.101681 250.364991 
L 281.226601 249.947857 
L 279.476442 249.566191 
L 278.601362 249.162894 
L 277.726283 244.522937 
L 276.851203 244.138101 
L 275.101044 241.467029 
L 274.225964 240.691086 
L 273.350885 238.506843 
L 270.725646 237.396218 
L 268.975486 230.568433 
L 268.100407 230.468339 
L 266.350247 230.423941 
L 263.725009 229.949124 
L 262.849929 229.509818 
L 261.974849 229.481909 
L 261.09977 228.600558 
L 260.22469 227.953321 
L 259.34961 227.737617 
L 257.599451 225.025864 
L 256.724371 224.574564 
L 254.974212 224.152615 
L 254.099133 223.157782 
L 253.224053 220.232158 
L 252.348973 218.616224 
L 250.598814 214.177118 
L 249.723734 214.037548 
L 248.848655 212.06731 
L 246.223416 210.384 
L 245.348336 209.119475 
L 244.473257 203.887223 
L 243.598177 203.101228 
L 242.723097 201.353806 
L 240.972938 199.821913 
L 239.222779 199.431529 
L 238.347699 198.925452 
L 237.472619 197.77949 
L 234.847381 197.441128 
L 233.972301 195.326552 
L 232.222142 193.18071 
L 230.471982 188.300673 
L 229.596903 188.102065 
L 228.721823 187.083342 
L 226.096584 186.717767 
L 225.221505 184.768 
L 224.346425 182.416696 
L 222.596266 181.248 
L 220.846106 180.678508 
L 216.470708 178.822438 
L 213.845469 173.767245 
L 212.97039 170.600727 
L 209.470071 170.496 
L 197.218956 169.618185 
L 194.593717 168.064489 
L 193.718638 165.515294 
L 190.218319 165.223385 
L 187.59308 163.346824 
L 186.718 158.612211 
L 183.217682 157.405808 
L 182.342602 157.248 
L 177.967204 155.738097 
L 173.591806 154.057846 
L 126.337506 153.182118 
L 124.587346 152.310857 
L 121.962107 147.648 
L 120.211948 146.397767 
L 93.959559 145.105297 
L 93.084479 138.951529 
L 92.2094 131.60671 
L 88.709081 130.9824 
L 87.834001 127.195826 
L 86.083842 117.231158 
L 85.208763 110.490353 
L 83.458603 105.408 
L 83.458603 105.408 
" clip-path="url(#p3042482940)" style="fill: none; stroke: #ff7f0e; stroke-width: 1.5; stroke-linecap: square"/>
   </g>
   <g id="line2d_15">
    <path d="M 392.361715 295.097169 
L 386.236158 294.885222 
L 384.485999 294.774887 
L 377.485361 294.563197 
L 375.735202 294.15684 
L 371.359804 293.937874 
L 368.734565 293.828349 
L 366.984406 293.693858 
L 362.609008 293.254142 
L 361.733928 293.213042 
L 360.858848 292.772031 
L 358.233609 292.661527 
L 356.48345 292.439699 
L 353.858211 292.252559 
L 352.108052 291.698131 
L 350.357893 291.234817 
L 347.732654 291.071754 
L 346.857574 290.7388 
L 345.107415 290.615967 
L 344.232335 290.498794 
L 342.482176 290.094823 
L 340.732017 289.910857 
L 339.856937 289.567085 
L 338.981857 289.005135 
L 338.106778 288.91314 
L 337.231698 288.636483 
L 335.481539 288.381793 
L 334.606459 287.609075 
L 333.73138 286.493228 
L 331.98122 286.363029 
L 331.106141 285.804613 
L 330.231061 284.496752 
L 329.355981 283.911363 
L 328.480902 283.723508 
L 327.605822 283.094995 
L 326.730742 282.960697 
L 325.855663 282.571248 
L 323.230424 282.400073 
L 322.355344 281.446455 
L 321.480265 281.025947 
L 319.730105 280.906378 
L 318.855026 280.707812 
L 317.979946 280.354439 
L 316.229787 278.131916 
L 315.354707 278.131639 
L 314.479628 277.675952 
L 313.604548 276.84737 
L 311.854389 276.486487 
L 310.979309 276.424226 
L 310.104229 276.145862 
L 309.22915 276.125763 
L 308.35407 275.685141 
L 307.47899 275.515013 
L 306.603911 275.156019 
L 305.728831 275.09716 
L 303.978672 274.165962 
L 303.103592 274.031318 
L 302.228513 273.418402 
L 300.478353 272.477614 
L 298.728194 270.458435 
L 297.853114 267.131077 
L 296.978035 265.541592 
L 296.102955 265.513522 
L 295.227876 265.128 
L 294.352796 263.317108 
L 293.477716 262.433063 
L 289.977398 260.21395 
L 289.102318 259.419927 
L 288.227238 259.391532 
L 287.352159 257.331258 
L 286.477079 252.67186 
L 285.602 251.203098 
L 284.72692 250.639754 
L 282.976761 250.032906 
L 282.101681 249.900542 
L 281.226601 249.546462 
L 280.351522 245.274174 
L 279.476442 243.852033 
L 278.601362 243.648 
L 277.726283 243.101978 
L 275.976123 238.230295 
L 274.225964 237.356122 
L 273.350885 237.243269 
L 272.475805 236.879846 
L 270.725646 236.578909 
L 269.850566 235.2768 
L 268.975486 235.008 
L 268.100407 234.596571 
L 265.475168 229.918099 
L 264.600088 229.316657 
L 263.725009 229.204364 
L 262.849929 227.09177 
L 261.974849 226.688 
L 261.09977 225.337756 
L 260.22469 223.720646 
L 259.34961 222.946218 
L 258.474531 221.616625 
L 257.599451 219.775332 
L 256.724371 219.226643 
L 255.849292 217.954317 
L 254.974212 217.485757 
L 254.099133 216.258238 
L 253.224053 215.755524 
L 249.723734 214.98151 
L 248.848655 214.848 
L 247.098495 213.886365 
L 246.223416 213.460048 
L 245.348336 212.737005 
L 244.473257 210.946065 
L 243.598177 210.311085 
L 242.723097 209.974154 
L 240.972938 205.06389 
L 239.222779 196.520727 
L 238.347699 195.309674 
L 237.472619 193.137231 
L 236.59754 192.754849 
L 234.847381 192.208928 
L 233.972301 190.827574 
L 232.222142 189.975904 
L 231.347062 189.794796 
L 230.471982 188.82869 
L 227.846743 188.508302 
L 226.971664 186.655095 
L 226.096584 184.421826 
L 223.471345 183.074087 
L 222.596266 181.87916 
L 220.846106 178.699034 
L 219.095947 178.407184 
L 214.720549 177.460364 
L 210.345151 176.059139 
L 209.470071 175.303385 
L 207.719912 172.925881 
L 206.844832 172.9152 
L 205.969753 168.206049 
L 205.094673 168.161684 
L 200.719275 165.568 
L 199.844195 165.014292 
L 198.094036 164.371053 
L 197.218956 162.761463 
L 192.843558 162.285085 
L 191.968478 160.532628 
L 191.093399 160.416 
L 185.842921 159.07496 
L 183.217682 158.655421 
L 168.341328 157.975579 
L 165.716089 155.918769 
L 160.465611 155.429053 
L 159.590532 155.20303 
L 156.090213 155.114667 
L 155.215134 153.987623 
L 152.589895 152.245895 
L 151.714815 150.98545 
L 150.839735 148.667586 
L 148.214496 148.608 
L 142.964019 146.178 
L 142.088939 142.075317 
L 140.33878 140.984471 
L 114.086391 140.928 
L 102.710355 135.8208 
L 101.835276 134.208 
L 98.334957 130.274341 
L 77.333046 101.952 
L 76.457966 53.568 
L 76.457966 53.568 
" clip-path="url(#p3042482940)" style="fill: none; stroke: #2ca02c; stroke-width: 1.5; stroke-linecap: square"/>
   </g>
   <g id="line2d_16">
    <path d="M 392.361715 295.137046 
L 375.735202 294.698377 
L 359.983769 293.385969 
L 355.60837 293.194244 
L 352.108052 292.793409 
L 344.232335 292.706793 
L 343.357256 292.339411 
L 341.607096 292.303336 
L 340.732017 291.995191 
L 338.106778 291.861842 
L 337.231698 291.481512 
L 335.481539 291.224276 
L 334.606459 290.803649 
L 333.73138 290.775891 
L 332.8563 289.911028 
L 331.106141 289.687602 
L 330.231061 289.424479 
L 328.480902 289.307795 
L 327.605822 289.215039 
L 325.855663 288.814345 
L 324.980583 288.293819 
L 324.105504 287.935427 
L 323.230424 287.336286 
L 322.355344 286.473925 
L 320.605185 285.616572 
L 319.730105 285.577004 
L 316.229787 284.835983 
L 315.354707 284.708226 
L 314.479628 284.104016 
L 311.854389 283.383099 
L 310.979309 282.658192 
L 310.104229 282.387639 
L 308.35407 282.172214 
L 305.728831 281.084765 
L 303.978672 280.928513 
L 302.228513 280.273272 
L 301.353433 279.640381 
L 300.478353 279.544672 
L 299.603274 279.058582 
L 298.728194 278.881846 
L 297.853114 278.145093 
L 296.978035 275.816571 
L 296.102955 275.742602 
L 295.227876 275.413956 
L 294.352796 273.629327 
L 293.477716 269.43827 
L 290.852477 268.987929 
L 289.977398 266.296872 
L 289.102318 266.214847 
L 288.227238 265.733783 
L 287.352159 263.820361 
L 286.477079 263.677091 
L 285.602 263.053296 
L 284.72692 259.785171 
L 283.85184 257.981023 
L 282.976761 253.376653 
L 282.101681 249.864418 
L 281.226601 249.802709 
L 280.351522 249.108536 
L 277.726283 244.660804 
L 276.851203 244.511215 
L 275.976123 242.467583 
L 275.101044 240.937412 
L 274.225964 240.691086 
L 273.350885 238.915938 
L 272.475805 238.22435 
L 271.600725 238.117675 
L 270.725646 235.999475 
L 269.850566 234.187005 
L 268.975486 230.333217 
L 268.100407 230.231329 
L 263.725009 230.112359 
L 262.849929 229.090643 
L 261.974849 228.461196 
L 261.09977 228.165659 
L 259.34961 227.826997 
L 258.474531 226.038857 
L 257.599451 224.63277 
L 256.724371 224.574564 
L 255.849292 222.772162 
L 254.974212 222.701023 
L 254.099133 222.092536 
L 252.348973 218.735776 
L 250.598814 214.177118 
L 249.723734 214.173753 
L 248.848655 212.921447 
L 247.973575 212.769649 
L 246.223416 209.771741 
L 245.348336 209.744203 
L 244.473257 204.241578 
L 242.723097 203.396166 
L 241.848018 199.519736 
L 240.972938 199.023031 
L 240.097858 198.923294 
L 237.472619 197.355592 
L 233.972301 195.099429 
L 233.097221 193.093953 
L 232.222142 189.721043 
L 231.347062 189.27922 
L 230.471982 188.565333 
L 229.596903 186.746182 
L 228.721823 184.555772 
L 227.846743 184.318496 
L 226.971664 183.190918 
L 217.345788 181.479724 
L 214.720549 179.568 
L 213.845469 176.021333 
L 212.97039 173.376 
L 210.345151 172.957091 
L 209.470071 172.946824 
L 208.594991 170.46894 
L 207.719912 169.161174 
L 206.844832 168.688552 
L 205.094673 168.606881 
L 204.219593 166.752 
L 202.469434 164.744471 
L 198.094036 164.371053 
L 197.218956 162.761463 
L 192.843558 159.532959 
L 190.218319 157.986462 
L 189.343239 156.040664 
L 185.842921 154.734545 
L 175.341965 153.757091 
L 173.591806 152.592249 
L 165.716089 151.160727 
L 164.84101 150.056324 
L 154.340054 150.019765 
L 150.839735 147.648 
L 149.964656 145.152 
L 149.089576 143.62581 
L 148.214496 143.168 
L 120.211948 142.848 
L 119.336868 142.075317 
L 117.586709 138.397091 
L 89.584161 134.208 
L 89.584161 134.208 
" clip-path="url(#p3042482940)" style="fill: none; stroke: #d62728; stroke-width: 1.5; stroke-linecap: square"/>
   </g>
   <g id="patch_3">
    <path d="M 57.6 307.584 
L 57.6 41.472 
" style="fill: none; stroke: #000000; stroke-width: 0.8; stroke-linejoin: miter; stroke-linecap: square"/>
   </g>
   <g id="patch_4">
    <path d="M 414.72 307.584 
L 414.72 41.472 
" style="fill: none; stroke: #000000; stroke-width: 0.8; stroke-linejoin: miter; stroke-linecap: square"/>
   </g>
   <g id="patch_5">
    <path d="M 57.6 307.584 
L 414.72 307.584 
" style="fill: none; stroke: #000000; stroke-width: 0.8; stroke-linejoin: miter; stroke-linecap: square"/>
   </g>
   <g id="patch_6">
    <path d="M 57.6 41.472 
L 414.72 41.472 
" style="fill: none; stroke: #000000; stroke-width: 0.8; stroke-linejoin: miter; stroke-linecap: square"/>
   </g>
   <g id="text_15">
    <!-- German -->
    <g transform="translate(212.13375 35.472)scale(0.12 -0.12)">
     <defs>
      <path id="DejaVuSans-47" d="M 3809 666 
L 3809 1919 
L 2778 1919 
L 2778 2438 
L 4434 2438 
L 4434 434 
Q 4069 175 3628 42 
Q 3188 -91 2688 -91 
Q 1594 -91 976 548 
Q 359 1188 359 2328 
Q 359 3472 976 4111 
Q 1594 4750 2688 4750 
Q 3144 4750 3555 4637 
Q 3966 4525 4313 4306 
L 4313 3634 
Q 3963 3931 3569 4081 
Q 3175 4231 2741 4231 
Q 1884 4231 1454 3753 
Q 1025 3275 1025 2328 
Q 1025 1384 1454 906 
Q 1884 428 2741 428 
Q 3075 428 3337 486 
Q 3600 544 3809 666 
z
" transform="scale(0.015625)"/>
      <path id="DejaVuSans-6d" d="M 3328 2828 
Q 3544 3216 3844 3400 
Q 4144 3584 4550 3584 
Q 5097 3584 5394 3201 
Q 5691 2819 5691 2113 
L 5691 0 
L 5113 0 
L 5113 2094 
Q 5113 2597 4934 2840 
Q 4756 3084 4391 3084 
Q 3944 3084 3684 2787 
Q 3425 2491 3425 1978 
L 3425 0 
L 2847 0 
L 2847 2094 
Q 2847 2600 2669 2842 
Q 2491 3084 2119 3084 
Q 1678 3084 1418 2786 
Q 1159 2488 1159 1978 
L 1159 0 
L 581 0 
L 581 3500 
L 1159 3500 
L 1159 2956 
Q 1356 3278 1631 3431 
Q 1906 3584 2284 3584 
Q 2666 3584 2933 3390 
Q 3200 3197 3328 2828 
z
" transform="scale(0.015625)"/>
     </defs>
     <use xlink:href="#DejaVuSans-47"/>
     <use xlink:href="#DejaVuSans-65" x="77.490234"/>
     <use xlink:href="#DejaVuSans-72" x="139.013672"/>
     <use xlink:href="#DejaVuSans-6d" x="178.376953"/>
     <use xlink:href="#DejaVuSans-61" x="275.789062"/>
     <use xlink:href="#DejaVuSans-6e" x="337.068359"/>
    </g>
   </g>
   <g id="legend_1">
    <g id="patch_7">
     <path d="M 322.862188 108.1845 
L 407.72 108.1845 
Q 409.72 108.1845 409.72 106.1845 
L 409.72 48.472 
Q 409.72 46.472 407.72 46.472 
L 322.862188 46.472 
Q 320.862188 46.472 320.862188 48.472 
L 320.862188 106.1845 
Q 320.862188 108.1845 322.862188 108.1845 
z
" style="fill: #ffffff; opacity: 0.8; stroke: #cccccc; stroke-linejoin: miter"/>
    </g>
    <g id="line2d_17">
     <path d="M 324.862188 54.570438 
L 334.862188 54.570438 
L 344.862188 54.570438 
" style="fill: none; stroke: #1f77b4; stroke-width: 1.5; stroke-linecap: square"/>
    </g>
    <g id="text_16">
     <!-- Average -->
     <g transform="translate(352.862188 58.070438)scale(0.1 -0.1)">
      <defs>
       <path id="DejaVuSans-41" d="M 2188 4044 
L 1331 1722 
L 3047 1722 
L 2188 4044 
z
M 1831 4666 
L 2547 4666 
L 4325 0 
L 3669 0 
L 3244 1197 
L 1141 1197 
L 716 0 
L 50 0 
L 1831 4666 
z
" transform="scale(0.015625)"/>
       <path id="DejaVuSans-76" d="M 191 3500 
L 800 3500 
L 1894 563 
L 2988 3500 
L 3597 3500 
L 2284 0 
L 1503 0 
L 191 3500 
z
" transform="scale(0.015625)"/>
       <path id="DejaVuSans-67" d="M 2906 1791 
Q 2906 2416 2648 2759 
Q 2391 3103 1925 3103 
Q 1463 3103 1205 2759 
Q 947 2416 947 1791 
Q 947 1169 1205 825 
Q 1463 481 1925 481 
Q 2391 481 2648 825 
Q 2906 1169 2906 1791 
z
M 3481 434 
Q 3481 -459 3084 -895 
Q 2688 -1331 1869 -1331 
Q 1566 -1331 1297 -1286 
Q 1028 -1241 775 -1147 
L 775 -588 
Q 1028 -725 1275 -790 
Q 1522 -856 1778 -856 
Q 2344 -856 2625 -561 
Q 2906 -266 2906 331 
L 2906 616 
Q 2728 306 2450 153 
Q 2172 0 1784 0 
Q 1141 0 747 490 
Q 353 981 353 1791 
Q 353 2603 747 3093 
Q 1141 3584 1784 3584 
Q 2172 3584 2450 3431 
Q 2728 3278 2906 2969 
L 2906 3500 
L 3481 3500 
L 3481 434 
z
" transform="scale(0.015625)"/>
      </defs>
      <use xlink:href="#DejaVuSans-41"/>
      <use xlink:href="#DejaVuSans-76" x="62.533203"/>
      <use xlink:href="#DejaVuSans-65" x="121.712891"/>
      <use xlink:href="#DejaVuSans-72" x="183.236328"/>
      <use xlink:href="#DejaVuSans-61" x="224.349609"/>
      <use xlink:href="#DejaVuSans-67" x="285.628906"/>
      <use xlink:href="#DejaVuSans-65" x="349.105469"/>
     </g>
    </g>
    <g id="line2d_18">
     <path d="M 324.862188 69.248563 
L 334.862188 69.248563 
L 344.862188 69.248563 
" style="fill: none; stroke: #ff7f0e; stroke-width: 1.5; stroke-linecap: square"/>
    </g>
    <g id="text_17">
     <!-- Sum -->
     <g transform="translate(352.862188 72.748563)scale(0.1 -0.1)">
      <defs>
       <path id="DejaVuSans-53" d="M 3425 4513 
L 3425 3897 
Q 3066 4069 2747 4153 
Q 2428 4238 2131 4238 
Q 1616 4238 1336 4038 
Q 1056 3838 1056 3469 
Q 1056 3159 1242 3001 
Q 1428 2844 1947 2747 
L 2328 2669 
Q 3034 2534 3370 2195 
Q 3706 1856 3706 1288 
Q 3706 609 3251 259 
Q 2797 -91 1919 -91 
Q 1588 -91 1214 -16 
Q 841 59 441 206 
L 441 856 
Q 825 641 1194 531 
Q 1563 422 1919 422 
Q 2459 422 2753 634 
Q 3047 847 3047 1241 
Q 3047 1584 2836 1778 
Q 2625 1972 2144 2069 
L 1759 2144 
Q 1053 2284 737 2584 
Q 422 2884 422 3419 
Q 422 4038 858 4394 
Q 1294 4750 2059 4750 
Q 2388 4750 2728 4690 
Q 3069 4631 3425 4513 
z
" transform="scale(0.015625)"/>
       <path id="DejaVuSans-75" d="M 544 1381 
L 544 3500 
L 1119 3500 
L 1119 1403 
Q 1119 906 1312 657 
Q 1506 409 1894 409 
Q 2359 409 2629 706 
Q 2900 1003 2900 1516 
L 2900 3500 
L 3475 3500 
L 3475 0 
L 2900 0 
L 2900 538 
Q 2691 219 2414 64 
Q 2138 -91 1772 -91 
Q 1169 -91 856 284 
Q 544 659 544 1381 
z
M 1991 3584 
L 1991 3584 
z
" transform="scale(0.015625)"/>
      </defs>
      <use xlink:href="#DejaVuSans-53"/>
      <use xlink:href="#DejaVuSans-75" x="63.476562"/>
      <use xlink:href="#DejaVuSans-6d" x="126.855469"/>
     </g>
    </g>
    <g id="line2d_19">
     <path d="M 324.862188 83.926688 
L 334.862188 83.926688 
L 344.862188 83.926688 
" style="fill: none; stroke: #2ca02c; stroke-width: 1.5; stroke-linecap: square"/>
    </g>
    <g id="text_18">
     <!-- Max -->
     <g transform="translate(352.862188 87.426688)scale(0.1 -0.1)">
      <defs>
       <path id="DejaVuSans-4d" d="M 628 4666 
L 1569 4666 
L 2759 1491 
L 3956 4666 
L 4897 4666 
L 4897 0 
L 4281 0 
L 4281 4097 
L 3078 897 
L 2444 897 
L 1241 4097 
L 1241 0 
L 628 0 
L 628 4666 
z
" transform="scale(0.015625)"/>
       <path id="DejaVuSans-78" d="M 3513 3500 
L 2247 1797 
L 3578 0 
L 2900 0 
L 1881 1375 
L 863 0 
L 184 0 
L 1544 1831 
L 300 3500 
L 978 3500 
L 1906 2253 
L 2834 3500 
L 3513 3500 
z
" transform="scale(0.015625)"/>
      </defs>
      <use xlink:href="#DejaVuSans-4d"/>
      <use xlink:href="#DejaVuSans-61" x="86.279297"/>
      <use xlink:href="#DejaVuSans-78" x="147.558594"/>
     </g>
    </g>
    <g id="line2d_20">
     <path d="M 324.862188 98.604813 
L 334.862188 98.604813 
L 344.862188 98.604813 
" style="fill: none; stroke: #d62728; stroke-width: 1.5; stroke-linecap: square"/>
    </g>
    <g id="text_19">
     <!-- Probability -->
     <g transform="translate(352.862188 102.104813)scale(0.1 -0.1)">
      <defs>
       <path id="DejaVuSans-62" d="M 3116 1747 
Q 3116 2381 2855 2742 
Q 2594 3103 2138 3103 
Q 1681 3103 1420 2742 
Q 1159 2381 1159 1747 
Q 1159 1113 1420 752 
Q 1681 391 2138 391 
Q 2594 391 2855 752 
Q 3116 1113 3116 1747 
z
M 1159 2969 
Q 1341 3281 1617 3432 
Q 1894 3584 2278 3584 
Q 2916 3584 3314 3078 
Q 3713 2572 3713 1747 
Q 3713 922 3314 415 
Q 2916 -91 2278 -91 
Q 1894 -91 1617 61 
Q 1341 213 1159 525 
L 1159 0 
L 581 0 
L 581 4863 
L 1159 4863 
L 1159 2969 
z
" transform="scale(0.015625)"/>
       <path id="DejaVuSans-74" d="M 1172 4494 
L 1172 3500 
L 2356 3500 
L 2356 3053 
L 1172 3053 
L 1172 1153 
Q 1172 725 1289 603 
Q 1406 481 1766 481 
L 2356 481 
L 2356 0 
L 1766 0 
Q 1100 0 847 248 
Q 594 497 594 1153 
L 594 3053 
L 172 3053 
L 172 3500 
L 594 3500 
L 594 4494 
L 1172 4494 
z
" transform="scale(0.015625)"/>
       <path id="DejaVuSans-79" d="M 2059 -325 
Q 1816 -950 1584 -1140 
Q 1353 -1331 966 -1331 
L 506 -1331 
L 506 -850 
L 844 -850 
Q 1081 -850 1212 -737 
Q 1344 -625 1503 -206 
L 1606 56 
L 191 3500 
L 800 3500 
L 1894 763 
L 2988 3500 
L 3597 3500 
L 2059 -325 
z
" transform="scale(0.015625)"/>
      </defs>
      <use xlink:href="#DejaVuSans-50"/>
      <use xlink:href="#DejaVuSans-72" x="58.552734"/>
      <use xlink:href="#DejaVuSans-6f" x="97.416016"/>
      <use xlink:href="#DejaVuSans-62" x="158.597656"/>
      <use xlink:href="#DejaVuSans-61" x="222.074219"/>
      <use xlink:href="#DejaVuSans-62" x="283.353516"/>
      <use xlink:href="#DejaVuSans-69" x="346.830078"/>
      <use xlink:href="#DejaVuSans-6c" x="374.613281"/>
      <use xlink:href="#DejaVuSans-69" x="402.396484"/>
      <use xlink:href="#DejaVuSans-74" x="430.179688"/>
      <use xlink:href="#DejaVuSans-79" x="469.388672"/>
     </g>
    </g>
   </g>
  </g>
 </g>
 <defs>
  <clipPath id="p3042482940">
   <rect x="57.6" y="41.472" width="357.12" height="266.112"/>
  </clipPath>
 </defs>
</svg>
