<?xml version="1.0" encoding="utf-8" standalone="no"?>
<!DOCTYPE svg PUBLIC "-//W3C//DTD SVG 1.1//EN"
  "http://www.w3.org/Graphics/SVG/1.1/DTD/svg11.dtd">
<svg xmlns:xlink="http://www.w3.org/1999/xlink" width="460.8pt" height="345.6pt" viewBox="0 0 460.8 345.6" xmlns="http://www.w3.org/2000/svg" version="1.1">
 <metadata>
  <rdf:RDF xmlns:dc="http://purl.org/dc/elements/1.1/" xmlns:cc="http://creativecommons.org/ns#" xmlns:rdf="http://www.w3.org/1999/02/22-rdf-syntax-ns#">
   <cc:Work>
    <dc:type rdf:resource="http://purl.org/dc/dcmitype/StillImage"/>
    <dc:date>2024-04-08T13:38:19.978977</dc:date>
    <dc:format>image/svg+xml</dc:format>
    <dc:creator>
     <cc:Agent>
      <dc:title>Matplotlib v3.5.1, https://matplotlib.org/</dc:title>
     </cc:Agent>
    </dc:creator>
   </cc:Work>
  </rdf:RDF>
 </metadata>
 <defs>
  <style type="text/css">*{stroke-linejoin: round; stroke-linecap: butt}</style>
 </defs>
 <g id="figure_1">
  <g id="patch_1">
   <path d="M 0 345.6 
L 460.8 345.6 
L 460.8 0 
L 0 0 
z
" style="fill: #ffffff"/>
  </g>
  <g id="axes_1">
   <g id="patch_2">
    <path d="M 57.6 307.584 
L 414.72 307.584 
L 414.72 41.472 
L 57.6 41.472 
z
" style="fill: #ffffff"/>
   </g>
   <g id="matplotlib.axis_1">
    <g id="xtick_1">
     <g id="line2d_1">
      <defs>
       <path id="mbbcd5c4ceb" d="M 0 0 
L 0 3.5 
" style="stroke: #000000; stroke-width: 0.8"/>
      </defs>
      <g>
       <use xlink:href="#mbbcd5c4ceb" x="73.832727" y="307.584" style="stroke: #000000; stroke-width: 0.8"/>
      </g>
     </g>
     <g id="text_1">
      <!-- 0.0 -->
      <g transform="translate(65.881165 322.182437)scale(0.1 -0.1)">
       <defs>
        <path id="DejaVuSans-30" d="M 2034 4250 
Q 1547 4250 1301 3770 
Q 1056 3291 1056 2328 
Q 1056 1369 1301 889 
Q 1547 409 2034 409 
Q 2525 409 2770 889 
Q 3016 1369 3016 2328 
Q 3016 3291 2770 3770 
Q 2525 4250 2034 4250 
z
M 2034 4750 
Q 2819 4750 3233 4129 
Q 3647 3509 3647 2328 
Q 3647 1150 3233 529 
Q 2819 -91 2034 -91 
Q 1250 -91 836 529 
Q 422 1150 422 2328 
Q 422 3509 836 4129 
Q 1250 4750 2034 4750 
z
" transform="scale(0.015625)"/>
        <path id="DejaVuSans-2e" d="M 684 794 
L 1344 794 
L 1344 0 
L 684 0 
L 684 794 
z
" transform="scale(0.015625)"/>
       </defs>
       <use xlink:href="#DejaVuSans-30"/>
       <use xlink:href="#DejaVuSans-2e" x="63.623047"/>
       <use xlink:href="#DejaVuSans-30" x="95.410156"/>
      </g>
     </g>
    </g>
    <g id="xtick_2">
     <g id="line2d_2">
      <g>
       <use xlink:href="#mbbcd5c4ceb" x="138.763636" y="307.584" style="stroke: #000000; stroke-width: 0.8"/>
      </g>
     </g>
     <g id="text_2">
      <!-- 0.2 -->
      <g transform="translate(130.812074 322.182437)scale(0.1 -0.1)">
       <defs>
        <path id="DejaVuSans-32" d="M 1228 531 
L 3431 531 
L 3431 0 
L 469 0 
L 469 531 
Q 828 903 1448 1529 
Q 2069 2156 2228 2338 
Q 2531 2678 2651 2914 
Q 2772 3150 2772 3378 
Q 2772 3750 2511 3984 
Q 2250 4219 1831 4219 
Q 1534 4219 1204 4116 
Q 875 4013 500 3803 
L 500 4441 
Q 881 4594 1212 4672 
Q 1544 4750 1819 4750 
Q 2544 4750 2975 4387 
Q 3406 4025 3406 3419 
Q 3406 3131 3298 2873 
Q 3191 2616 2906 2266 
Q 2828 2175 2409 1742 
Q 1991 1309 1228 531 
z
" transform="scale(0.015625)"/>
       </defs>
       <use xlink:href="#DejaVuSans-30"/>
       <use xlink:href="#DejaVuSans-2e" x="63.623047"/>
       <use xlink:href="#DejaVuSans-32" x="95.410156"/>
      </g>
     </g>
    </g>
    <g id="xtick_3">
     <g id="line2d_3">
      <g>
       <use xlink:href="#mbbcd5c4ceb" x="203.694545" y="307.584" style="stroke: #000000; stroke-width: 0.8"/>
      </g>
     </g>
     <g id="text_3">
      <!-- 0.4 -->
      <g transform="translate(195.742983 322.182437)scale(0.1 -0.1)">
       <defs>
        <path id="DejaVuSans-34" d="M 2419 4116 
L 825 1625 
L 2419 1625 
L 2419 4116 
z
M 2253 4666 
L 3047 4666 
L 3047 1625 
L 3713 1625 
L 3713 1100 
L 3047 1100 
L 3047 0 
L 2419 0 
L 2419 1100 
L 313 1100 
L 313 1709 
L 2253 4666 
z
" transform="scale(0.015625)"/>
       </defs>
       <use xlink:href="#DejaVuSans-30"/>
       <use xlink:href="#DejaVuSans-2e" x="63.623047"/>
       <use xlink:href="#DejaVuSans-34" x="95.410156"/>
      </g>
     </g>
    </g>
    <g id="xtick_4">
     <g id="line2d_4">
      <g>
       <use xlink:href="#mbbcd5c4ceb" x="268.625455" y="307.584" style="stroke: #000000; stroke-width: 0.8"/>
      </g>
     </g>
     <g id="text_4">
      <!-- 0.6 -->
      <g transform="translate(260.673892 322.182437)scale(0.1 -0.1)">
       <defs>
        <path id="DejaVuSans-36" d="M 2113 2584 
Q 1688 2584 1439 2293 
Q 1191 2003 1191 1497 
Q 1191 994 1439 701 
Q 1688 409 2113 409 
Q 2538 409 2786 701 
Q 3034 994 3034 1497 
Q 3034 2003 2786 2293 
Q 2538 2584 2113 2584 
z
M 3366 4563 
L 3366 3988 
Q 3128 4100 2886 4159 
Q 2644 4219 2406 4219 
Q 1781 4219 1451 3797 
Q 1122 3375 1075 2522 
Q 1259 2794 1537 2939 
Q 1816 3084 2150 3084 
Q 2853 3084 3261 2657 
Q 3669 2231 3669 1497 
Q 3669 778 3244 343 
Q 2819 -91 2113 -91 
Q 1303 -91 875 529 
Q 447 1150 447 2328 
Q 447 3434 972 4092 
Q 1497 4750 2381 4750 
Q 2619 4750 2861 4703 
Q 3103 4656 3366 4563 
z
" transform="scale(0.015625)"/>
       </defs>
       <use xlink:href="#DejaVuSans-30"/>
       <use xlink:href="#DejaVuSans-2e" x="63.623047"/>
       <use xlink:href="#DejaVuSans-36" x="95.410156"/>
      </g>
     </g>
    </g>
    <g id="xtick_5">
     <g id="line2d_5">
      <g>
       <use xlink:href="#mbbcd5c4ceb" x="333.556364" y="307.584" style="stroke: #000000; stroke-width: 0.8"/>
      </g>
     </g>
     <g id="text_5">
      <!-- 0.8 -->
      <g transform="translate(325.604801 322.182437)scale(0.1 -0.1)">
       <defs>
        <path id="DejaVuSans-38" d="M 2034 2216 
Q 1584 2216 1326 1975 
Q 1069 1734 1069 1313 
Q 1069 891 1326 650 
Q 1584 409 2034 409 
Q 2484 409 2743 651 
Q 3003 894 3003 1313 
Q 3003 1734 2745 1975 
Q 2488 2216 2034 2216 
z
M 1403 2484 
Q 997 2584 770 2862 
Q 544 3141 544 3541 
Q 544 4100 942 4425 
Q 1341 4750 2034 4750 
Q 2731 4750 3128 4425 
Q 3525 4100 3525 3541 
Q 3525 3141 3298 2862 
Q 3072 2584 2669 2484 
Q 3125 2378 3379 2068 
Q 3634 1759 3634 1313 
Q 3634 634 3220 271 
Q 2806 -91 2034 -91 
Q 1263 -91 848 271 
Q 434 634 434 1313 
Q 434 1759 690 2068 
Q 947 2378 1403 2484 
z
M 1172 3481 
Q 1172 3119 1398 2916 
Q 1625 2713 2034 2713 
Q 2441 2713 2670 2916 
Q 2900 3119 2900 3481 
Q 2900 3844 2670 4047 
Q 2441 4250 2034 4250 
Q 1625 4250 1398 4047 
Q 1172 3844 1172 3481 
z
" transform="scale(0.015625)"/>
       </defs>
       <use xlink:href="#DejaVuSans-30"/>
       <use xlink:href="#DejaVuSans-2e" x="63.623047"/>
       <use xlink:href="#DejaVuSans-38" x="95.410156"/>
      </g>
     </g>
    </g>
    <g id="xtick_6">
     <g id="line2d_6">
      <g>
       <use xlink:href="#mbbcd5c4ceb" x="398.487273" y="307.584" style="stroke: #000000; stroke-width: 0.8"/>
      </g>
     </g>
     <g id="text_6">
      <!-- 1.0 -->
      <g transform="translate(390.53571 322.182437)scale(0.1 -0.1)">
       <defs>
        <path id="DejaVuSans-31" d="M 794 531 
L 1825 531 
L 1825 4091 
L 703 3866 
L 703 4441 
L 1819 4666 
L 2450 4666 
L 2450 531 
L 3481 531 
L 3481 0 
L 794 0 
L 794 531 
z
" transform="scale(0.015625)"/>
       </defs>
       <use xlink:href="#DejaVuSans-31"/>
       <use xlink:href="#DejaVuSans-2e" x="63.623047"/>
       <use xlink:href="#DejaVuSans-30" x="95.410156"/>
      </g>
     </g>
    </g>
    <g id="text_7">
     <!-- Recall -->
     <g transform="translate(221.242812 335.860562)scale(0.1 -0.1)">
      <defs>
       <path id="DejaVuSans-52" d="M 2841 2188 
Q 3044 2119 3236 1894 
Q 3428 1669 3622 1275 
L 4263 0 
L 3584 0 
L 2988 1197 
Q 2756 1666 2539 1819 
Q 2322 1972 1947 1972 
L 1259 1972 
L 1259 0 
L 628 0 
L 628 4666 
L 2053 4666 
Q 2853 4666 3247 4331 
Q 3641 3997 3641 3322 
Q 3641 2881 3436 2590 
Q 3231 2300 2841 2188 
z
M 1259 4147 
L 1259 2491 
L 2053 2491 
Q 2509 2491 2742 2702 
Q 2975 2913 2975 3322 
Q 2975 3731 2742 3939 
Q 2509 4147 2053 4147 
L 1259 4147 
z
" transform="scale(0.015625)"/>
       <path id="DejaVuSans-65" d="M 3597 1894 
L 3597 1613 
L 953 1613 
Q 991 1019 1311 708 
Q 1631 397 2203 397 
Q 2534 397 2845 478 
Q 3156 559 3463 722 
L 3463 178 
Q 3153 47 2828 -22 
Q 2503 -91 2169 -91 
Q 1331 -91 842 396 
Q 353 884 353 1716 
Q 353 2575 817 3079 
Q 1281 3584 2069 3584 
Q 2775 3584 3186 3129 
Q 3597 2675 3597 1894 
z
M 3022 2063 
Q 3016 2534 2758 2815 
Q 2500 3097 2075 3097 
Q 1594 3097 1305 2825 
Q 1016 2553 972 2059 
L 3022 2063 
z
" transform="scale(0.015625)"/>
       <path id="DejaVuSans-63" d="M 3122 3366 
L 3122 2828 
Q 2878 2963 2633 3030 
Q 2388 3097 2138 3097 
Q 1578 3097 1268 2742 
Q 959 2388 959 1747 
Q 959 1106 1268 751 
Q 1578 397 2138 397 
Q 2388 397 2633 464 
Q 2878 531 3122 666 
L 3122 134 
Q 2881 22 2623 -34 
Q 2366 -91 2075 -91 
Q 1284 -91 818 406 
Q 353 903 353 1747 
Q 353 2603 823 3093 
Q 1294 3584 2113 3584 
Q 2378 3584 2631 3529 
Q 2884 3475 3122 3366 
z
" transform="scale(0.015625)"/>
       <path id="DejaVuSans-61" d="M 2194 1759 
Q 1497 1759 1228 1600 
Q 959 1441 959 1056 
Q 959 750 1161 570 
Q 1363 391 1709 391 
Q 2188 391 2477 730 
Q 2766 1069 2766 1631 
L 2766 1759 
L 2194 1759 
z
M 3341 1997 
L 3341 0 
L 2766 0 
L 2766 531 
Q 2569 213 2275 61 
Q 1981 -91 1556 -91 
Q 1019 -91 701 211 
Q 384 513 384 1019 
Q 384 1609 779 1909 
Q 1175 2209 1959 2209 
L 2766 2209 
L 2766 2266 
Q 2766 2663 2505 2880 
Q 2244 3097 1772 3097 
Q 1472 3097 1187 3025 
Q 903 2953 641 2809 
L 641 3341 
Q 956 3463 1253 3523 
Q 1550 3584 1831 3584 
Q 2591 3584 2966 3190 
Q 3341 2797 3341 1997 
z
" transform="scale(0.015625)"/>
       <path id="DejaVuSans-6c" d="M 603 4863 
L 1178 4863 
L 1178 0 
L 603 0 
L 603 4863 
z
" transform="scale(0.015625)"/>
      </defs>
      <use xlink:href="#DejaVuSans-52"/>
      <use xlink:href="#DejaVuSans-65" x="64.982422"/>
      <use xlink:href="#DejaVuSans-63" x="126.505859"/>
      <use xlink:href="#DejaVuSans-61" x="181.486328"/>
      <use xlink:href="#DejaVuSans-6c" x="242.765625"/>
      <use xlink:href="#DejaVuSans-6c" x="270.548828"/>
     </g>
    </g>
   </g>
   <g id="matplotlib.axis_2">
    <g id="ytick_1">
     <g id="line2d_7">
      <defs>
       <path id="md42d03d40b" d="M 0 0 
L -3.5 0 
" style="stroke: #000000; stroke-width: 0.8"/>
      </defs>
      <g>
       <use xlink:href="#md42d03d40b" x="57.6" y="295.488" style="stroke: #000000; stroke-width: 0.8"/>
      </g>
     </g>
     <g id="text_8">
      <!-- 0.0 -->
      <g transform="translate(34.696875 299.287219)scale(0.1 -0.1)">
       <use xlink:href="#DejaVuSans-30"/>
       <use xlink:href="#DejaVuSans-2e" x="63.623047"/>
       <use xlink:href="#DejaVuSans-30" x="95.410156"/>
      </g>
     </g>
    </g>
    <g id="ytick_2">
     <g id="line2d_8">
      <g>
       <use xlink:href="#md42d03d40b" x="57.6" y="247.104" style="stroke: #000000; stroke-width: 0.8"/>
      </g>
     </g>
     <g id="text_9">
      <!-- 0.2 -->
      <g transform="translate(34.696875 250.903219)scale(0.1 -0.1)">
       <use xlink:href="#DejaVuSans-30"/>
       <use xlink:href="#DejaVuSans-2e" x="63.623047"/>
       <use xlink:href="#DejaVuSans-32" x="95.410156"/>
      </g>
     </g>
    </g>
    <g id="ytick_3">
     <g id="line2d_9">
      <g>
       <use xlink:href="#md42d03d40b" x="57.6" y="198.72" style="stroke: #000000; stroke-width: 0.8"/>
      </g>
     </g>
     <g id="text_10">
      <!-- 0.4 -->
      <g transform="translate(34.696875 202.519219)scale(0.1 -0.1)">
       <use xlink:href="#DejaVuSans-30"/>
       <use xlink:href="#DejaVuSans-2e" x="63.623047"/>
       <use xlink:href="#DejaVuSans-34" x="95.410156"/>
      </g>
     </g>
    </g>
    <g id="ytick_4">
     <g id="line2d_10">
      <g>
       <use xlink:href="#md42d03d40b" x="57.6" y="150.336" style="stroke: #000000; stroke-width: 0.8"/>
      </g>
     </g>
     <g id="text_11">
      <!-- 0.6 -->
      <g transform="translate(34.696875 154.135219)scale(0.1 -0.1)">
       <use xlink:href="#DejaVuSans-30"/>
       <use xlink:href="#DejaVuSans-2e" x="63.623047"/>
       <use xlink:href="#DejaVuSans-36" x="95.410156"/>
      </g>
     </g>
    </g>
    <g id="ytick_5">
     <g id="line2d_11">
      <g>
       <use xlink:href="#md42d03d40b" x="57.6" y="101.952" style="stroke: #000000; stroke-width: 0.8"/>
      </g>
     </g>
     <g id="text_12">
      <!-- 0.8 -->
      <g transform="translate(34.696875 105.751219)scale(0.1 -0.1)">
       <use xlink:href="#DejaVuSans-30"/>
       <use xlink:href="#DejaVuSans-2e" x="63.623047"/>
       <use xlink:href="#DejaVuSans-38" x="95.410156"/>
      </g>
     </g>
    </g>
    <g id="ytick_6">
     <g id="line2d_12">
      <g>
       <use xlink:href="#md42d03d40b" x="57.6" y="53.568" style="stroke: #000000; stroke-width: 0.8"/>
      </g>
     </g>
     <g id="text_13">
      <!-- 1.0 -->
      <g transform="translate(34.696875 57.367219)scale(0.1 -0.1)">
       <use xlink:href="#DejaVuSans-31"/>
       <use xlink:href="#DejaVuSans-2e" x="63.623047"/>
       <use xlink:href="#DejaVuSans-30" x="95.410156"/>
      </g>
     </g>
    </g>
    <g id="text_14">
     <!-- Precision -->
     <g transform="translate(28.617187 196.835031)rotate(-90)scale(0.1 -0.1)">
      <defs>
       <path id="DejaVuSans-50" d="M 1259 4147 
L 1259 2394 
L 2053 2394 
Q 2494 2394 2734 2622 
Q 2975 2850 2975 3272 
Q 2975 3691 2734 3919 
Q 2494 4147 2053 4147 
L 1259 4147 
z
M 628 4666 
L 2053 4666 
Q 2838 4666 3239 4311 
Q 3641 3956 3641 3272 
Q 3641 2581 3239 2228 
Q 2838 1875 2053 1875 
L 1259 1875 
L 1259 0 
L 628 0 
L 628 4666 
z
" transform="scale(0.015625)"/>
       <path id="DejaVuSans-72" d="M 2631 2963 
Q 2534 3019 2420 3045 
Q 2306 3072 2169 3072 
Q 1681 3072 1420 2755 
Q 1159 2438 1159 1844 
L 1159 0 
L 581 0 
L 581 3500 
L 1159 3500 
L 1159 2956 
Q 1341 3275 1631 3429 
Q 1922 3584 2338 3584 
Q 2397 3584 2469 3576 
Q 2541 3569 2628 3553 
L 2631 2963 
z
" transform="scale(0.015625)"/>
       <path id="DejaVuSans-69" d="M 603 3500 
L 1178 3500 
L 1178 0 
L 603 0 
L 603 3500 
z
M 603 4863 
L 1178 4863 
L 1178 4134 
L 603 4134 
L 603 4863 
z
" transform="scale(0.015625)"/>
       <path id="DejaVuSans-73" d="M 2834 3397 
L 2834 2853 
Q 2591 2978 2328 3040 
Q 2066 3103 1784 3103 
Q 1356 3103 1142 2972 
Q 928 2841 928 2578 
Q 928 2378 1081 2264 
Q 1234 2150 1697 2047 
L 1894 2003 
Q 2506 1872 2764 1633 
Q 3022 1394 3022 966 
Q 3022 478 2636 193 
Q 2250 -91 1575 -91 
Q 1294 -91 989 -36 
Q 684 19 347 128 
L 347 722 
Q 666 556 975 473 
Q 1284 391 1588 391 
Q 1994 391 2212 530 
Q 2431 669 2431 922 
Q 2431 1156 2273 1281 
Q 2116 1406 1581 1522 
L 1381 1569 
Q 847 1681 609 1914 
Q 372 2147 372 2553 
Q 372 3047 722 3315 
Q 1072 3584 1716 3584 
Q 2034 3584 2315 3537 
Q 2597 3491 2834 3397 
z
" transform="scale(0.015625)"/>
       <path id="DejaVuSans-6f" d="M 1959 3097 
Q 1497 3097 1228 2736 
Q 959 2375 959 1747 
Q 959 1119 1226 758 
Q 1494 397 1959 397 
Q 2419 397 2687 759 
Q 2956 1122 2956 1747 
Q 2956 2369 2687 2733 
Q 2419 3097 1959 3097 
z
M 1959 3584 
Q 2709 3584 3137 3096 
Q 3566 2609 3566 1747 
Q 3566 888 3137 398 
Q 2709 -91 1959 -91 
Q 1206 -91 779 398 
Q 353 888 353 1747 
Q 353 2609 779 3096 
Q 1206 3584 1959 3584 
z
" transform="scale(0.015625)"/>
       <path id="DejaVuSans-6e" d="M 3513 2113 
L 3513 0 
L 2938 0 
L 2938 2094 
Q 2938 2591 2744 2837 
Q 2550 3084 2163 3084 
Q 1697 3084 1428 2787 
Q 1159 2491 1159 1978 
L 1159 0 
L 581 0 
L 581 3500 
L 1159 3500 
L 1159 2956 
Q 1366 3272 1645 3428 
Q 1925 3584 2291 3584 
Q 2894 3584 3203 3211 
Q 3513 2838 3513 2113 
z
" transform="scale(0.015625)"/>
      </defs>
      <use xlink:href="#DejaVuSans-50"/>
      <use xlink:href="#DejaVuSans-72" x="58.552734"/>
      <use xlink:href="#DejaVuSans-65" x="97.416016"/>
      <use xlink:href="#DejaVuSans-63" x="158.939453"/>
      <use xlink:href="#DejaVuSans-69" x="213.919922"/>
      <use xlink:href="#DejaVuSans-73" x="241.703125"/>
      <use xlink:href="#DejaVuSans-69" x="293.802734"/>
      <use xlink:href="#DejaVuSans-6f" x="321.585938"/>
      <use xlink:href="#DejaVuSans-6e" x="382.767578"/>
     </g>
    </g>
   </g>
   <g id="line2d_13">
    <path d="M 327.605822 283.094995 
L 323.230424 282.44464 
L 322.355344 281.400389 
L 321.480265 280.95534 
L 319.730105 280.840398 
L 318.855026 280.639776 
L 317.979946 280.231291 
L 316.229787 279.199269 
L 315.354707 279.174802 
L 314.479628 277.952945 
L 312.729468 277.918391 
L 311.854389 277.400523 
L 308.35407 276.099675 
L 306.603911 275.89874 
L 305.728831 274.794391 
L 304.853752 274.347027 
L 303.978672 274.222973 
L 303.103592 273.796337 
L 302.228513 273.760154 
L 301.353433 273.222796 
L 300.478353 273.078386 
L 299.603274 271.126033 
L 297.853114 268.781868 
L 296.978035 268.678091 
L 296.102955 265.454921 
L 295.227876 263.240497 
L 294.352796 262.799614 
L 292.602637 262.707512 
L 291.727557 262.317251 
L 290.852477 259.860827 
L 289.102318 258.729309 
L 285.602 258.597868 
L 284.72692 258.233866 
L 283.85184 255.828984 
L 282.976761 255.474934 
L 282.101681 250.223094 
L 281.226601 250.092086 
L 280.351522 249.703621 
L 279.476442 248.964923 
L 278.601362 248.626013 
L 276.851203 245.151283 
L 275.976123 244.359436 
L 275.101044 244.205419 
L 274.225964 242.776601 
L 273.350885 242.50264 
L 271.600725 237.509294 
L 270.725646 237.021835 
L 269.850566 235.2768 
L 268.100407 234.10944 
L 267.225327 231.305143 
L 264.600088 228.219429 
L 261.09977 225.903484 
L 260.22469 225.570822 
L 259.34961 224.256 
L 258.474531 223.492062 
L 257.599451 223.015532 
L 256.724371 222.842483 
L 254.099133 219.634849 
L 253.224053 219.54068 
L 252.348973 218.255324 
L 251.473894 214.715368 
L 250.598814 210.35239 
L 249.723734 209.424425 
L 248.848655 209.242011 
L 247.973575 208.901525 
L 244.473257 208.770353 
L 242.723097 208.540961 
L 241.848018 207.182601 
L 240.097858 202.817032 
L 239.222779 201.985178 
L 238.347699 198.098364 
L 237.472619 196.061538 
L 236.59754 195.716115 
L 234.847381 192.448 
L 232.222142 192.215547 
L 231.347062 190.811077 
L 229.596903 187.020091 
L 228.721823 184.842419 
L 223.471345 183.68173 
L 222.596266 183.120787 
L 219.095947 182.682607 
L 218.220867 182.409246 
L 214.720549 182.263814 
L 213.845469 181.97715 
L 212.09531 180.703135 
L 206.844832 179.488505 
L 204.219593 178.074059 
L 203.344514 177.322455 
L 201.594354 176.564364 
L 200.719275 174.109453 
L 192.843558 174.081653 
L 191.968478 172.709053 
L 191.093399 170.806154 
L 187.59308 169.184386 
L 182.342602 168.913823 
L 181.467523 167.22869 
L 180.592443 164.894018 
L 178.842284 164.720432 
L 170.091487 163.09397 
L 163.09085 160.647344 
L 158.715452 157.451294 
L 157.840372 156.420216 
L 156.965293 156.200727 
L 156.090213 155.114667 
L 153.464974 152.535273 
L 151.714815 151.9488 
L 150.839735 150.665143 
L 149.964656 150.336 
L 147.339417 147.157489 
L 145.589258 146.334316 
L 142.964019 146.178 
L 140.33878 144.783738 
L 134.213222 139.483514 
L 133.338143 134.208 
L 131.587983 130.882639 
L 123.712267 129.350169 
L 121.087028 125.829818 
L 120.211948 124.5312 
L 119.336868 120.768 
L 117.586709 117.605647 
L 114.086391 115.998968 
L 113.211311 114.048 
L 111.461152 109.728 
L 108.835913 109.395692 
L 100.960196 108 
L 96.584798 104.884364 
L 94.834639 95.278345 
L 93.959559 89.408 
L 91.33432 85.122783 
L 82.583524 75.560727 
L 80.833364 53.568 
L 80.833364 53.568 
" clip-path="url(#p58ed90ce85)" style="fill: none; stroke: #1f77b4; stroke-width: 1.5; stroke-linecap: square"/>
   </g>
   <g id="line2d_14">
    <path d="M 286.477079 252.67186 
L 285.602 252.217756 
L 284.72692 250.605229 
L 282.976761 250.032906 
L 282.101681 249.646471 
L 281.226601 249.287323 
L 280.351522 247.021854 
L 279.476442 243.569096 
L 277.726283 243.392473 
L 276.851203 242.738526 
L 275.976123 241.337302 
L 275.101044 240.66869 
L 273.350885 240.549992 
L 272.475805 237.742637 
L 270.725646 237.396218 
L 269.850566 235.87295 
L 268.975486 235.5456 
L 268.100407 235.14391 
L 267.225327 234.939506 
L 266.350247 232.203339 
L 265.475168 229.427551 
L 264.600088 228.898909 
L 263.725009 228.613299 
L 262.849929 227.975442 
L 261.974849 227.229732 
L 261.09977 224.568986 
L 260.22469 223.820462 
L 259.34961 223.252732 
L 258.474531 220.089004 
L 256.724371 219.456 
L 255.849292 217.473488 
L 254.099133 215.878543 
L 253.224053 215.755524 
L 251.473894 215.374199 
L 250.598814 214.714711 
L 248.848655 213.75827 
L 247.098495 213.747113 
L 246.223416 213.741448 
L 245.348336 212.447159 
L 244.473257 211.248 
L 243.598177 210.465391 
L 242.723097 210.441443 
L 241.848018 209.312416 
L 240.972938 208.796218 
L 240.097858 208.268266 
L 238.347699 198.72 
L 237.472619 198.199742 
L 236.59754 194.370876 
L 235.72246 193.307178 
L 234.847381 191.727441 
L 230.471982 188.0347 
L 229.596903 187.8336 
L 226.096584 187.830506 
L 225.221505 187.342884 
L 224.346425 186.845076 
L 219.971027 185.703652 
L 217.345788 185.585285 
L 215.595629 185.400809 
L 209.470071 184.875611 
L 207.719912 184.000771 
L 206.844832 183.719489 
L 203.344514 180.362084 
L 201.594354 180.062118 
L 195.468797 179.132014 
L 194.593717 178.757371 
L 193.718638 177.959489 
L 192.843558 177.562839 
L 191.093399 176.306824 
L 187.59308 174.991448 
L 186.718 173.104941 
L 185.842921 170.626065 
L 184.967841 170.594341 
L 184.092762 170.048 
L 178.842284 167.600775 
L 177.967204 166.391677 
L 176.217045 166.243068 
L 175.341965 166.16671 
L 171.841647 165.84666 
L 170.966567 163.206621 
L 165.716089 163.188 
L 164.84101 161.659915 
L 163.96593 160.797405 
L 163.09085 160.647344 
L 162.215771 160.493967 
L 161.340691 160.337162 
L 158.715452 159.844994 
L 157.840372 158.065988 
L 156.965293 157.868838 
L 156.090213 156.826537 
L 154.340054 156.384 
L 153.464974 156.154329 
L 150.839735 155.429053 
L 149.964656 155.1744 
L 149.089576 152.004414 
L 148.214496 151.689399 
L 147.339417 151.365447 
L 141.213859 151.08614 
L 135.088302 146.940632 
L 134.213222 142.345982 
L 132.463063 139.635692 
L 123.712267 138.789818 
L 121.962107 137.088 
L 121.087028 136.174829 
L 120.211948 135.216 
L 119.336868 132.113455 
L 118.461789 130.9824 
L 117.586709 129.78937 
L 114.086391 129.393672 
L 113.211311 128.004923 
L 111.461152 122.112 
L 101.835276 119.546182 
L 100.960196 116.928 
L 96.584798 115.776 
L 94.834639 108.195097 
L 93.959559 96.768 
L 91.33432 93.888 
L 90.45924 86.557091 
L 82.583524 75.560727 
L 80.833364 53.568 
" clip-path="url(#p58ed90ce85)" style="fill: none; stroke: #ff7f0e; stroke-width: 1.5; stroke-linecap: square"/>
   </g>
   <g id="line2d_15">
    <path d="M 262.849929 227.09177 
L 261.974849 226.688 
L 261.09977 225.337756 
L 260.22469 223.419524 
L 259.34961 222.946218 
L 258.474531 221.402194 
L 257.599451 219.321283 
L 256.724371 218.88 
L 254.099133 218.103652 
L 253.224053 217.141081 
L 252.348973 215.630913 
L 251.473894 215.243294 
L 250.598814 215.113263 
L 249.723734 214.309503 
L 248.848655 213.75827 
L 247.973575 213.613714 
L 247.098495 213.326491 
L 246.223416 213.176705 
L 245.348336 212.592336 
L 244.473257 212.141004 
L 241.848018 209.472 
L 240.972938 209.281433 
L 240.097858 202.629818 
L 239.222779 201.408 
L 238.347699 200.93299 
L 237.472619 195.179707 
L 233.972301 192.770227 
L 233.097221 192.374557 
L 232.222142 190.229538 
L 231.347062 188.496354 
L 230.471982 187.2288 
L 227.846743 186.033193 
L 226.096584 185.294073 
L 225.221505 185.060137 
L 224.346425 184.822468 
L 219.971027 184.801315 
L 219.095947 183.936 
L 218.220867 183.676235 
L 209.470071 181.513532 
L 208.594991 180.501333 
L 203.344514 179.616932 
L 202.469434 178.890492 
L 201.594354 178.533298 
L 200.719275 178.168936 
L 196.343877 177.888 
L 195.468797 176.665102 
L 194.593717 174.964679 
L 193.718638 174.528 
L 192.843558 174.081653 
L 187.59308 173.116016 
L 186.718 172.623118 
L 185.842921 171.127518 
L 184.092762 170.562098 
L 183.217682 170.529322 
L 179.717363 170.392615 
L 178.842284 168.161684 
L 176.217045 167.412706 
L 173.591806 167.21414 
L 172.716726 166.540075 
L 171.841647 165.223385 
L 170.966567 164.497171 
L 170.091487 163.09397 
L 169.216408 162.979055 
L 168.341328 162.861807 
L 165.716089 162.49533 
L 164.84101 160.220903 
L 163.96593 158.577231 
L 163.09085 157.634145 
L 161.340691 157.248 
L 160.465611 157.048231 
L 159.590532 156.843789 
L 158.715452 156.634509 
L 157.840372 155.582458 
L 156.965293 154.491681 
L 156.090213 150.644178 
L 155.215134 150.336 
L 154.340054 150.019765 
L 141.213859 149.958 
L 140.33878 146.008976 
L 139.4637 144.288 
L 138.58862 142.478769 
L 136.838461 139.968 
L 127.212585 138.497362 
L 124.587346 137.83227 
L 123.712267 136.98869 
L 122.837187 136.105412 
L 121.962107 133.224585 
L 121.087028 132.192 
L 120.211948 131.106462 
L 116.71163 130.848 
L 115.83655 129.6 
L 114.086391 124.283077 
L 113.211311 122.688 
L 111.461152 122.112 
L 103.585435 120.482043 
L 102.710355 118.08 
L 95.709718 117.605647 
L 94.834639 108.195097 
L 93.959559 96.768 
L 91.33432 93.888 
L 90.45924 86.557091 
L 82.583524 75.560727 
L 80.833364 53.568 
" clip-path="url(#p58ed90ce85)" style="fill: none; stroke: #2ca02c; stroke-width: 1.5; stroke-linecap: square"/>
   </g>
   <g id="line2d_16">
    <path d="M 247.973575 214.304054 
L 247.098495 213.886365 
L 246.223416 213.60099 
L 244.473257 210.794284 
L 243.598177 210.311085 
L 242.723097 209.974154 
L 241.848018 207.0144 
L 240.972938 205.06389 
L 240.097858 204.468594 
L 239.222779 197.789538 
L 238.347699 195.08853 
L 236.59754 195.048 
L 235.72246 194.46046 
L 234.847381 191.727441 
L 233.972301 191.074415 
L 233.097221 190.905007 
L 232.222142 190.733167 
L 230.471982 188.565333 
L 229.596903 188.102065 
L 227.846743 187.147237 
L 226.096584 186.717767 
L 225.221505 185.639811 
L 224.346425 185.408 
L 223.471345 185.17248 
L 222.596266 184.933161 
L 221.721186 184.689951 
L 219.971027 184.191471 
L 219.095947 180.420034 
L 216.470708 180.186947 
L 215.595629 179.880212 
L 214.720549 178.171373 
L 213.845469 177.478244 
L 209.470071 177.199041 
L 204.219593 176.52404 
L 203.344514 174.935273 
L 198.094036 174.10058 
L 197.218956 173.664 
L 196.343877 172.774957 
L 195.468797 172.762161 
L 194.593717 172.749176 
L 191.968478 172.709053 
L 191.093399 172.695273 
L 184.967841 170.594341 
L 184.092762 170.562098 
L 183.217682 170.529322 
L 182.342602 169.445647 
L 181.467523 168.324923 
L 180.592443 166.604856 
L 179.717363 165.3888 
L 178.842284 164.128724 
L 177.967204 162.208 
L 177.092124 162.09286 
L 176.217045 161.975547 
L 175.341965 161.856 
L 174.466886 160.435573 
L 173.591806 158.279642 
L 171.841647 157.248 
L 170.966567 156.352663 
L 169.216408 155.968 
L 168.341328 155.769497 
L 167.466248 155.566703 
L 166.591169 155.359475 
L 165.716089 154.368 
L 164.84101 153.342915 
L 163.96593 153.1008 
L 162.215771 150.048 
L 161.340691 149.75306 
L 160.465611 149.450927 
L 145.589258 147.447403 
L 144.714178 145.903878 
L 143.839098 145.460093 
L 142.964019 145.002331 
L 141.213859 142.800787 
L 129.837824 142.192158 
L 125.462426 140.343652 
L 124.587346 137.83227 
L 123.712267 135.145674 
L 122.837187 134.208 
L 121.962107 133.224585 
L 118.461789 130.9824 
L 117.586709 129.78937 
L 115.83655 124.720941 
L 114.96147 123.211636 
L 113.211311 122.688 
L 105.335594 121.3056 
L 104.460515 119.088 
L 94.834639 114.048 
L 93.959559 103.620414 
L 91.33432 101.952 
L 90.45924 95.641043 
L 82.583524 93.888 
L 80.833364 80.448 
L 79.958285 53.568 
" clip-path="url(#p58ed90ce85)" style="fill: none; stroke: #d62728; stroke-width: 1.5; stroke-linecap: square"/>
   </g>
   <g id="line2d_17">
    <path d="M 223.471345 183.074087 
L 222.596266 181.87916 
L 219.095947 177.720493 
L 215.595629 177.086066 
L 212.09531 176.04 
L 207.719912 174.528 
L 203.344514 171.598173 
L 202.469434 170.268845 
L 201.594354 169.792911 
L 200.719275 166.04741 
L 199.844195 164.523789 
L 198.969115 164.448 
L 198.094036 163.86869 
L 194.593717 163.531636 
L 192.843558 162.822194 
L 191.093399 159.280941 
L 190.218319 159.151729 
L 181.467523 158.991853 
L 180.592443 158.848 
L 179.717363 158.701458 
L 177.967204 156.413217 
L 177.092124 156.236488 
L 175.341965 153.757091 
L 174.466886 153.545143 
L 173.591806 153.328825 
L 156.965293 152.740174 
L 156.090213 151.560911 
L 150.839735 149.673205 
L 149.089576 148.97307 
L 146.464337 147.845647 
L 140.33878 146.008976 
L 139.4637 145.537587 
L 135.088302 144.288 
L 134.213222 142.345982 
L 133.338143 140.294038 
L 132.463063 138.122563 
L 129.837824 137.499429 
L 126.337506 134.208 
L 125.462426 133.291636 
L 124.587346 132.332651 
L 122.837187 130.274341 
L 121.962107 129.168 
L 121.087028 128.004923 
L 120.211948 126.780632 
L 118.461789 126.475397 
L 98.334957 126.144 
L 96.584798 115.776 
L 95.709718 112.215273 
L 94.834639 108.195097 
L 92.2094 107.328 
L 91.33432 101.952 
L 82.583524 93.888 
L 80.833364 80.448 
L 79.958285 53.568 
" clip-path="url(#p58ed90ce85)" style="fill: none; stroke: #9467bd; stroke-width: 1.5; stroke-linecap: square"/>
   </g>
   <g id="line2d_18">
    <path d="M 392.361715 295.12665 
L 387.986317 294.891692 
L 375.735202 294.508751 
L 373.109963 294.358659 
L 369.609645 294.079405 
L 365.234247 293.591147 
L 360.858848 292.906009 
L 359.108689 292.891078 
L 355.60837 292.48591 
L 350.357893 292.060511 
L 349.482813 291.765063 
L 348.607733 291.708 
L 347.732654 291.373625 
L 345.982494 291.242352 
L 345.107415 290.99942 
L 344.232335 290.958596 
L 343.357256 289.773939 
L 342.482176 289.743593 
L 341.607096 289.514185 
L 339.856937 289.344 
L 338.981857 288.90854 
L 337.231698 288.676858 
L 335.481539 288.546816 
L 334.606459 288.051986 
L 332.8563 287.663664 
L 331.106141 286.353081 
L 330.231061 286.29918 
L 329.355981 285.284239 
L 326.730742 284.52268 
L 323.230424 284.063443 
L 320.605185 283.68294 
L 319.730105 283.327084 
L 318.855026 283.287424 
L 317.979946 282.76017 
L 317.104866 282.52217 
L 316.229787 281.931083 
L 315.354707 281.498911 
L 314.479628 281.458477 
L 313.604548 279.967963 
L 311.854389 279.65493 
L 310.104229 276.276706 
L 309.22915 276.2175 
L 308.35407 274.78731 
L 307.47899 273.949941 
L 306.603911 273.351529 
L 304.853752 273.180323 
L 303.103592 271.650828 
L 302.228513 271.277448 
L 301.353433 271.127349 
L 299.603274 270.670759 
L 298.728194 268.026233 
L 297.853114 267.515317 
L 296.978035 266.525746 
L 296.102955 265.917413 
L 295.227876 264.777634 
L 294.352796 264.713724 
L 293.477716 261.939978 
L 291.727557 257.79208 
L 289.977398 257.668861 
L 288.227238 257.224346 
L 287.352159 254.890696 
L 284.72692 254.716867 
L 282.976761 253.468465 
L 282.101681 253.120848 
L 281.226601 251.282109 
L 280.351522 244.37509 
L 279.476442 242.455164 
L 278.601362 242.233738 
L 276.851203 242.0352 
L 275.976123 234.612706 
L 275.101044 234.276119 
L 274.225964 232.676571 
L 273.350885 228.952704 
L 272.475805 228.923345 
L 271.600725 228.485647 
L 270.725646 228.204934 
L 269.850566 226.892962 
L 268.100407 226.722008 
L 265.475168 224.753047 
L 263.725009 223.078841 
L 262.849929 220.94489 
L 261.09977 219.910073 
L 260.22469 215.099607 
L 259.34961 214.593615 
L 257.599451 213.941933 
L 254.974212 213.795602 
L 254.099133 211.021017 
L 253.224053 207.085861 
L 251.473894 206.034885 
L 250.598814 205.822239 
L 249.723734 205.77228 
L 248.848655 204.881258 
L 247.973575 204.824949 
L 246.223416 204.013451 
L 244.473257 196.589887 
L 243.598177 194.557935 
L 238.347699 192.356571 
L 237.472619 191.250581 
L 236.59754 190.843535 
L 234.847381 187.707661 
L 233.097221 186.504238 
L 230.471982 186.41072 
L 228.721823 183.978 
L 227.846743 181.33808 
L 226.971664 179.180308 
L 226.096584 178.56 
L 225.221505 175.567771 
L 221.721186 174.169068 
L 220.846106 173.43827 
L 219.971027 172.315317 
L 219.095947 171.922708 
L 218.220867 171.906576 
L 217.345788 171.504 
L 216.470708 169.100308 
L 213.845469 168.993882 
L 212.97039 168.539881 
L 207.719912 168.292948 
L 206.844832 167.808 
L 205.969753 166.861521 
L 205.094673 166.807149 
L 203.344514 164.337231 
L 201.594354 162.704842 
L 200.719275 162.110053 
L 198.094036 160.771765 
L 193.718638 160.760195 
L 192.843558 159.532959 
L 191.968478 158.838628 
L 189.343239 157.248 
L 174.466886 157.07606 
L 173.591806 156.200727 
L 172.716726 151.609263 
L 171.841647 149.028324 
L 163.09085 148.608 
L 155.215134 148.438588 
L 154.340054 144.082286 
L 149.089576 141.376 
L 148.214496 139.706182 
L 147.339417 139.170462 
L 144.714178 138.72384 
L 142.088939 135.57478 
L 139.4637 134.921628 
L 128.087665 132.454957 
L 126.337506 126.706605 
L 118.461789 124.128 
L 114.96147 123.211636 
L 114.086391 118.848 
L 113.211311 117.022426 
L 111.461152 116.133517 
L 109.710992 111.808 
L 107.960833 106.7904 
L 106.210674 105.04034 
L 93.084479 98.368 
L 92.2094 92.2752 
L 90.45924 86.557091 
L 81.708444 77.76 
L 79.958285 53.568 
L 79.958285 53.568 
" clip-path="url(#p58ed90ce85)" style="fill: none; stroke: #8c564b; stroke-width: 1.5; stroke-linecap: square"/>
   </g>
   <g id="patch_3">
    <path d="M 57.6 307.584 
L 57.6 41.472 
" style="fill: none; stroke: #000000; stroke-width: 0.8; stroke-linejoin: miter; stroke-linecap: square"/>
   </g>
   <g id="patch_4">
    <path d="M 414.72 307.584 
L 414.72 41.472 
" style="fill: none; stroke: #000000; stroke-width: 0.8; stroke-linejoin: miter; stroke-linecap: square"/>
   </g>
   <g id="patch_5">
    <path d="M 57.6 307.584 
L 414.72 307.584 
" style="fill: none; stroke: #000000; stroke-width: 0.8; stroke-linejoin: miter; stroke-linecap: square"/>
   </g>
   <g id="patch_6">
    <path d="M 57.6 41.472 
L 414.72 41.472 
" style="fill: none; stroke: #000000; stroke-width: 0.8; stroke-linejoin: miter; stroke-linecap: square"/>
   </g>
   <g id="text_15">
    <!-- German -->
    <g transform="translate(212.13375 35.472)scale(0.12 -0.12)">
     <defs>
      <path id="DejaVuSans-47" d="M 3809 666 
L 3809 1919 
L 2778 1919 
L 2778 2438 
L 4434 2438 
L 4434 434 
Q 4069 175 3628 42 
Q 3188 -91 2688 -91 
Q 1594 -91 976 548 
Q 359 1188 359 2328 
Q 359 3472 976 4111 
Q 1594 4750 2688 4750 
Q 3144 4750 3555 4637 
Q 3966 4525 4313 4306 
L 4313 3634 
Q 3963 3931 3569 4081 
Q 3175 4231 2741 4231 
Q 1884 4231 1454 3753 
Q 1025 3275 1025 2328 
Q 1025 1384 1454 906 
Q 1884 428 2741 428 
Q 3075 428 3337 486 
Q 3600 544 3809 666 
z
" transform="scale(0.015625)"/>
      <path id="DejaVuSans-6d" d="M 3328 2828 
Q 3544 3216 3844 3400 
Q 4144 3584 4550 3584 
Q 5097 3584 5394 3201 
Q 5691 2819 5691 2113 
L 5691 0 
L 5113 0 
L 5113 2094 
Q 5113 2597 4934 2840 
Q 4756 3084 4391 3084 
Q 3944 3084 3684 2787 
Q 3425 2491 3425 1978 
L 3425 0 
L 2847 0 
L 2847 2094 
Q 2847 2600 2669 2842 
Q 2491 3084 2119 3084 
Q 1678 3084 1418 2786 
Q 1159 2488 1159 1978 
L 1159 0 
L 581 0 
L 581 3500 
L 1159 3500 
L 1159 2956 
Q 1356 3278 1631 3431 
Q 1906 3584 2284 3584 
Q 2666 3584 2933 3390 
Q 3200 3197 3328 2828 
z
" transform="scale(0.015625)"/>
     </defs>
     <use xlink:href="#DejaVuSans-47"/>
     <use xlink:href="#DejaVuSans-65" x="77.490234"/>
     <use xlink:href="#DejaVuSans-72" x="139.013672"/>
     <use xlink:href="#DejaVuSans-6d" x="178.376953"/>
     <use xlink:href="#DejaVuSans-61" x="275.789062"/>
     <use xlink:href="#DejaVuSans-6e" x="337.068359"/>
    </g>
   </g>
   <g id="legend_1">
    <g id="patch_7">
     <path d="M 349.629375 137.54075 
L 407.72 137.54075 
Q 409.72 137.54075 409.72 135.54075 
L 409.72 48.472 
Q 409.72 46.472 407.72 46.472 
L 349.629375 46.472 
Q 347.629375 46.472 347.629375 48.472 
L 347.629375 135.54075 
Q 347.629375 137.54075 349.629375 137.54075 
z
" style="fill: #ffffff; opacity: 0.8; stroke: #cccccc; stroke-linejoin: miter"/>
    </g>
    <g id="line2d_19">
     <path d="M 351.629375 54.570438 
L 361.629375 54.570438 
L 371.629375 54.570438 
" style="fill: none; stroke: #1f77b4; stroke-width: 1.5; stroke-linecap: square"/>
    </g>
    <g id="text_16">
     <!-- 0.01 -->
     <g transform="translate(379.629375 58.070438)scale(0.1 -0.1)">
      <use xlink:href="#DejaVuSans-30"/>
      <use xlink:href="#DejaVuSans-2e" x="63.623047"/>
      <use xlink:href="#DejaVuSans-30" x="95.410156"/>
      <use xlink:href="#DejaVuSans-31" x="159.033203"/>
     </g>
    </g>
    <g id="line2d_20">
     <path d="M 351.629375 69.248563 
L 361.629375 69.248563 
L 371.629375 69.248563 
" style="fill: none; stroke: #ff7f0e; stroke-width: 1.5; stroke-linecap: square"/>
    </g>
    <g id="text_17">
     <!-- 0.03 -->
     <g transform="translate(379.629375 72.748563)scale(0.1 -0.1)">
      <defs>
       <path id="DejaVuSans-33" d="M 2597 2516 
Q 3050 2419 3304 2112 
Q 3559 1806 3559 1356 
Q 3559 666 3084 287 
Q 2609 -91 1734 -91 
Q 1441 -91 1130 -33 
Q 819 25 488 141 
L 488 750 
Q 750 597 1062 519 
Q 1375 441 1716 441 
Q 2309 441 2620 675 
Q 2931 909 2931 1356 
Q 2931 1769 2642 2001 
Q 2353 2234 1838 2234 
L 1294 2234 
L 1294 2753 
L 1863 2753 
Q 2328 2753 2575 2939 
Q 2822 3125 2822 3475 
Q 2822 3834 2567 4026 
Q 2313 4219 1838 4219 
Q 1578 4219 1281 4162 
Q 984 4106 628 3988 
L 628 4550 
Q 988 4650 1302 4700 
Q 1616 4750 1894 4750 
Q 2613 4750 3031 4423 
Q 3450 4097 3450 3541 
Q 3450 3153 3228 2886 
Q 3006 2619 2597 2516 
z
" transform="scale(0.015625)"/>
      </defs>
      <use xlink:href="#DejaVuSans-30"/>
      <use xlink:href="#DejaVuSans-2e" x="63.623047"/>
      <use xlink:href="#DejaVuSans-30" x="95.410156"/>
      <use xlink:href="#DejaVuSans-33" x="159.033203"/>
     </g>
    </g>
    <g id="line2d_21">
     <path d="M 351.629375 83.926688 
L 361.629375 83.926688 
L 371.629375 83.926688 
" style="fill: none; stroke: #2ca02c; stroke-width: 1.5; stroke-linecap: square"/>
    </g>
    <g id="text_18">
     <!-- 0.08 -->
     <g transform="translate(379.629375 87.426688)scale(0.1 -0.1)">
      <use xlink:href="#DejaVuSans-30"/>
      <use xlink:href="#DejaVuSans-2e" x="63.623047"/>
      <use xlink:href="#DejaVuSans-30" x="95.410156"/>
      <use xlink:href="#DejaVuSans-38" x="159.033203"/>
     </g>
    </g>
    <g id="line2d_22">
     <path d="M 351.629375 98.604813 
L 361.629375 98.604813 
L 371.629375 98.604813 
" style="fill: none; stroke: #d62728; stroke-width: 1.5; stroke-linecap: square"/>
    </g>
    <g id="text_19">
     <!-- 0.15 -->
     <g transform="translate(379.629375 102.104813)scale(0.1 -0.1)">
      <defs>
       <path id="DejaVuSans-35" d="M 691 4666 
L 3169 4666 
L 3169 4134 
L 1269 4134 
L 1269 2991 
Q 1406 3038 1543 3061 
Q 1681 3084 1819 3084 
Q 2600 3084 3056 2656 
Q 3513 2228 3513 1497 
Q 3513 744 3044 326 
Q 2575 -91 1722 -91 
Q 1428 -91 1123 -41 
Q 819 9 494 109 
L 494 744 
Q 775 591 1075 516 
Q 1375 441 1709 441 
Q 2250 441 2565 725 
Q 2881 1009 2881 1497 
Q 2881 1984 2565 2268 
Q 2250 2553 1709 2553 
Q 1456 2553 1204 2497 
Q 953 2441 691 2322 
L 691 4666 
z
" transform="scale(0.015625)"/>
      </defs>
      <use xlink:href="#DejaVuSans-30"/>
      <use xlink:href="#DejaVuSans-2e" x="63.623047"/>
      <use xlink:href="#DejaVuSans-31" x="95.410156"/>
      <use xlink:href="#DejaVuSans-35" x="159.033203"/>
     </g>
    </g>
    <g id="line2d_23">
     <path d="M 351.629375 113.282938 
L 361.629375 113.282938 
L 371.629375 113.282938 
" style="fill: none; stroke: #9467bd; stroke-width: 1.5; stroke-linecap: square"/>
    </g>
    <g id="text_20">
     <!-- 0.50 -->
     <g transform="translate(379.629375 116.782938)scale(0.1 -0.1)">
      <use xlink:href="#DejaVuSans-30"/>
      <use xlink:href="#DejaVuSans-2e" x="63.623047"/>
      <use xlink:href="#DejaVuSans-35" x="95.410156"/>
      <use xlink:href="#DejaVuSans-30" x="159.033203"/>
     </g>
    </g>
    <g id="line2d_24">
     <path d="M 351.629375 127.961063 
L 361.629375 127.961063 
L 371.629375 127.961063 
" style="fill: none; stroke: #8c564b; stroke-width: 1.5; stroke-linecap: square"/>
    </g>
    <g id="text_21">
     <!-- None -->
     <g transform="translate(379.629375 131.461063)scale(0.1 -0.1)">
      <defs>
       <path id="DejaVuSans-4e" d="M 628 4666 
L 1478 4666 
L 3547 763 
L 3547 4666 
L 4159 4666 
L 4159 0 
L 3309 0 
L 1241 3903 
L 1241 0 
L 628 0 
L 628 4666 
z
" transform="scale(0.015625)"/>
      </defs>
      <use xlink:href="#DejaVuSans-4e"/>
      <use xlink:href="#DejaVuSans-6f" x="74.804688"/>
      <use xlink:href="#DejaVuSans-6e" x="135.986328"/>
      <use xlink:href="#DejaVuSans-65" x="199.365234"/>
     </g>
    </g>
   </g>
  </g>
 </g>
 <defs>
  <clipPath id="p58ed90ce85">
   <rect x="57.6" y="41.472" width="357.12" height="266.112"/>
  </clipPath>
 </defs>
</svg>
