<?xml version="1.0" encoding="utf-8" standalone="no"?>
<!DOCTYPE svg PUBLIC "-//W3C//DTD SVG 1.1//EN"
  "http://www.w3.org/Graphics/SVG/1.1/DTD/svg11.dtd">
<svg xmlns:xlink="http://www.w3.org/1999/xlink" width="460.8pt" height="345.6pt" viewBox="0 0 460.8 345.6" xmlns="http://www.w3.org/2000/svg" version="1.1">
 <metadata>
  <rdf:RDF xmlns:dc="http://purl.org/dc/elements/1.1/" xmlns:cc="http://creativecommons.org/ns#" xmlns:rdf="http://www.w3.org/1999/02/22-rdf-syntax-ns#">
   <cc:Work>
    <dc:type rdf:resource="http://purl.org/dc/dcmitype/StillImage"/>
    <dc:date>2024-04-08T13:39:30.497657</dc:date>
    <dc:format>image/svg+xml</dc:format>
    <dc:creator>
     <cc:Agent>
      <dc:title>Matplotlib v3.5.1, https://matplotlib.org/</dc:title>
     </cc:Agent>
    </dc:creator>
   </cc:Work>
  </rdf:RDF>
 </metadata>
 <defs>
  <style type="text/css">*{stroke-linejoin: round; stroke-linecap: butt}</style>
 </defs>
 <g id="figure_1">
  <g id="patch_1">
   <path d="M 0 345.6 
L 460.8 345.6 
L 460.8 0 
L 0 0 
z
" style="fill: #ffffff"/>
  </g>
  <g id="axes_1">
   <g id="patch_2">
    <path d="M 57.6 307.584 
L 414.72 307.584 
L 414.72 41.472 
L 57.6 41.472 
z
" style="fill: #ffffff"/>
   </g>
   <g id="matplotlib.axis_1">
    <g id="xtick_1">
     <g id="line2d_1">
      <defs>
       <path id="md235a8afda" d="M 0 0 
L 0 3.5 
" style="stroke: #000000; stroke-width: 0.8"/>
      </defs>
      <g>
       <use xlink:href="#md235a8afda" x="73.832727" y="307.584" style="stroke: #000000; stroke-width: 0.8"/>
      </g>
     </g>
     <g id="text_1">
      <!-- 0.0 -->
      <g transform="translate(65.881165 322.182437)scale(0.1 -0.1)">
       <defs>
        <path id="DejaVuSans-30" d="M 2034 4250 
Q 1547 4250 1301 3770 
Q 1056 3291 1056 2328 
Q 1056 1369 1301 889 
Q 1547 409 2034 409 
Q 2525 409 2770 889 
Q 3016 1369 3016 2328 
Q 3016 3291 2770 3770 
Q 2525 4250 2034 4250 
z
M 2034 4750 
Q 2819 4750 3233 4129 
Q 3647 3509 3647 2328 
Q 3647 1150 3233 529 
Q 2819 -91 2034 -91 
Q 1250 -91 836 529 
Q 422 1150 422 2328 
Q 422 3509 836 4129 
Q 1250 4750 2034 4750 
z
" transform="scale(0.015625)"/>
        <path id="DejaVuSans-2e" d="M 684 794 
L 1344 794 
L 1344 0 
L 684 0 
L 684 794 
z
" transform="scale(0.015625)"/>
       </defs>
       <use xlink:href="#DejaVuSans-30"/>
       <use xlink:href="#DejaVuSans-2e" x="63.623047"/>
       <use xlink:href="#DejaVuSans-30" x="95.410156"/>
      </g>
     </g>
    </g>
    <g id="xtick_2">
     <g id="line2d_2">
      <g>
       <use xlink:href="#md235a8afda" x="138.763636" y="307.584" style="stroke: #000000; stroke-width: 0.8"/>
      </g>
     </g>
     <g id="text_2">
      <!-- 0.2 -->
      <g transform="translate(130.812074 322.182437)scale(0.1 -0.1)">
       <defs>
        <path id="DejaVuSans-32" d="M 1228 531 
L 3431 531 
L 3431 0 
L 469 0 
L 469 531 
Q 828 903 1448 1529 
Q 2069 2156 2228 2338 
Q 2531 2678 2651 2914 
Q 2772 3150 2772 3378 
Q 2772 3750 2511 3984 
Q 2250 4219 1831 4219 
Q 1534 4219 1204 4116 
Q 875 4013 500 3803 
L 500 4441 
Q 881 4594 1212 4672 
Q 1544 4750 1819 4750 
Q 2544 4750 2975 4387 
Q 3406 4025 3406 3419 
Q 3406 3131 3298 2873 
Q 3191 2616 2906 2266 
Q 2828 2175 2409 1742 
Q 1991 1309 1228 531 
z
" transform="scale(0.015625)"/>
       </defs>
       <use xlink:href="#DejaVuSans-30"/>
       <use xlink:href="#DejaVuSans-2e" x="63.623047"/>
       <use xlink:href="#DejaVuSans-32" x="95.410156"/>
      </g>
     </g>
    </g>
    <g id="xtick_3">
     <g id="line2d_3">
      <g>
       <use xlink:href="#md235a8afda" x="203.694545" y="307.584" style="stroke: #000000; stroke-width: 0.8"/>
      </g>
     </g>
     <g id="text_3">
      <!-- 0.4 -->
      <g transform="translate(195.742983 322.182437)scale(0.1 -0.1)">
       <defs>
        <path id="DejaVuSans-34" d="M 2419 4116 
L 825 1625 
L 2419 1625 
L 2419 4116 
z
M 2253 4666 
L 3047 4666 
L 3047 1625 
L 3713 1625 
L 3713 1100 
L 3047 1100 
L 3047 0 
L 2419 0 
L 2419 1100 
L 313 1100 
L 313 1709 
L 2253 4666 
z
" transform="scale(0.015625)"/>
       </defs>
       <use xlink:href="#DejaVuSans-30"/>
       <use xlink:href="#DejaVuSans-2e" x="63.623047"/>
       <use xlink:href="#DejaVuSans-34" x="95.410156"/>
      </g>
     </g>
    </g>
    <g id="xtick_4">
     <g id="line2d_4">
      <g>
       <use xlink:href="#md235a8afda" x="268.625455" y="307.584" style="stroke: #000000; stroke-width: 0.8"/>
      </g>
     </g>
     <g id="text_4">
      <!-- 0.6 -->
      <g transform="translate(260.673892 322.182437)scale(0.1 -0.1)">
       <defs>
        <path id="DejaVuSans-36" d="M 2113 2584 
Q 1688 2584 1439 2293 
Q 1191 2003 1191 1497 
Q 1191 994 1439 701 
Q 1688 409 2113 409 
Q 2538 409 2786 701 
Q 3034 994 3034 1497 
Q 3034 2003 2786 2293 
Q 2538 2584 2113 2584 
z
M 3366 4563 
L 3366 3988 
Q 3128 4100 2886 4159 
Q 2644 4219 2406 4219 
Q 1781 4219 1451 3797 
Q 1122 3375 1075 2522 
Q 1259 2794 1537 2939 
Q 1816 3084 2150 3084 
Q 2853 3084 3261 2657 
Q 3669 2231 3669 1497 
Q 3669 778 3244 343 
Q 2819 -91 2113 -91 
Q 1303 -91 875 529 
Q 447 1150 447 2328 
Q 447 3434 972 4092 
Q 1497 4750 2381 4750 
Q 2619 4750 2861 4703 
Q 3103 4656 3366 4563 
z
" transform="scale(0.015625)"/>
       </defs>
       <use xlink:href="#DejaVuSans-30"/>
       <use xlink:href="#DejaVuSans-2e" x="63.623047"/>
       <use xlink:href="#DejaVuSans-36" x="95.410156"/>
      </g>
     </g>
    </g>
    <g id="xtick_5">
     <g id="line2d_5">
      <g>
       <use xlink:href="#md235a8afda" x="333.556364" y="307.584" style="stroke: #000000; stroke-width: 0.8"/>
      </g>
     </g>
     <g id="text_5">
      <!-- 0.8 -->
      <g transform="translate(325.604801 322.182437)scale(0.1 -0.1)">
       <defs>
        <path id="DejaVuSans-38" d="M 2034 2216 
Q 1584 2216 1326 1975 
Q 1069 1734 1069 1313 
Q 1069 891 1326 650 
Q 1584 409 2034 409 
Q 2484 409 2743 651 
Q 3003 894 3003 1313 
Q 3003 1734 2745 1975 
Q 2488 2216 2034 2216 
z
M 1403 2484 
Q 997 2584 770 2862 
Q 544 3141 544 3541 
Q 544 4100 942 4425 
Q 1341 4750 2034 4750 
Q 2731 4750 3128 4425 
Q 3525 4100 3525 3541 
Q 3525 3141 3298 2862 
Q 3072 2584 2669 2484 
Q 3125 2378 3379 2068 
Q 3634 1759 3634 1313 
Q 3634 634 3220 271 
Q 2806 -91 2034 -91 
Q 1263 -91 848 271 
Q 434 634 434 1313 
Q 434 1759 690 2068 
Q 947 2378 1403 2484 
z
M 1172 3481 
Q 1172 3119 1398 2916 
Q 1625 2713 2034 2713 
Q 2441 2713 2670 2916 
Q 2900 3119 2900 3481 
Q 2900 3844 2670 4047 
Q 2441 4250 2034 4250 
Q 1625 4250 1398 4047 
Q 1172 3844 1172 3481 
z
" transform="scale(0.015625)"/>
       </defs>
       <use xlink:href="#DejaVuSans-30"/>
       <use xlink:href="#DejaVuSans-2e" x="63.623047"/>
       <use xlink:href="#DejaVuSans-38" x="95.410156"/>
      </g>
     </g>
    </g>
    <g id="xtick_6">
     <g id="line2d_6">
      <g>
       <use xlink:href="#md235a8afda" x="398.487273" y="307.584" style="stroke: #000000; stroke-width: 0.8"/>
      </g>
     </g>
     <g id="text_6">
      <!-- 1.0 -->
      <g transform="translate(390.53571 322.182437)scale(0.1 -0.1)">
       <defs>
        <path id="DejaVuSans-31" d="M 794 531 
L 1825 531 
L 1825 4091 
L 703 3866 
L 703 4441 
L 1819 4666 
L 2450 4666 
L 2450 531 
L 3481 531 
L 3481 0 
L 794 0 
L 794 531 
z
" transform="scale(0.015625)"/>
       </defs>
       <use xlink:href="#DejaVuSans-31"/>
       <use xlink:href="#DejaVuSans-2e" x="63.623047"/>
       <use xlink:href="#DejaVuSans-30" x="95.410156"/>
      </g>
     </g>
    </g>
    <g id="text_7">
     <!-- Recall -->
     <g transform="translate(221.242812 335.860562)scale(0.1 -0.1)">
      <defs>
       <path id="DejaVuSans-52" d="M 2841 2188 
Q 3044 2119 3236 1894 
Q 3428 1669 3622 1275 
L 4263 0 
L 3584 0 
L 2988 1197 
Q 2756 1666 2539 1819 
Q 2322 1972 1947 1972 
L 1259 1972 
L 1259 0 
L 628 0 
L 628 4666 
L 2053 4666 
Q 2853 4666 3247 4331 
Q 3641 3997 3641 3322 
Q 3641 2881 3436 2590 
Q 3231 2300 2841 2188 
z
M 1259 4147 
L 1259 2491 
L 2053 2491 
Q 2509 2491 2742 2702 
Q 2975 2913 2975 3322 
Q 2975 3731 2742 3939 
Q 2509 4147 2053 4147 
L 1259 4147 
z
" transform="scale(0.015625)"/>
       <path id="DejaVuSans-65" d="M 3597 1894 
L 3597 1613 
L 953 1613 
Q 991 1019 1311 708 
Q 1631 397 2203 397 
Q 2534 397 2845 478 
Q 3156 559 3463 722 
L 3463 178 
Q 3153 47 2828 -22 
Q 2503 -91 2169 -91 
Q 1331 -91 842 396 
Q 353 884 353 1716 
Q 353 2575 817 3079 
Q 1281 3584 2069 3584 
Q 2775 3584 3186 3129 
Q 3597 2675 3597 1894 
z
M 3022 2063 
Q 3016 2534 2758 2815 
Q 2500 3097 2075 3097 
Q 1594 3097 1305 2825 
Q 1016 2553 972 2059 
L 3022 2063 
z
" transform="scale(0.015625)"/>
       <path id="DejaVuSans-63" d="M 3122 3366 
L 3122 2828 
Q 2878 2963 2633 3030 
Q 2388 3097 2138 3097 
Q 1578 3097 1268 2742 
Q 959 2388 959 1747 
Q 959 1106 1268 751 
Q 1578 397 2138 397 
Q 2388 397 2633 464 
Q 2878 531 3122 666 
L 3122 134 
Q 2881 22 2623 -34 
Q 2366 -91 2075 -91 
Q 1284 -91 818 406 
Q 353 903 353 1747 
Q 353 2603 823 3093 
Q 1294 3584 2113 3584 
Q 2378 3584 2631 3529 
Q 2884 3475 3122 3366 
z
" transform="scale(0.015625)"/>
       <path id="DejaVuSans-61" d="M 2194 1759 
Q 1497 1759 1228 1600 
Q 959 1441 959 1056 
Q 959 750 1161 570 
Q 1363 391 1709 391 
Q 2188 391 2477 730 
Q 2766 1069 2766 1631 
L 2766 1759 
L 2194 1759 
z
M 3341 1997 
L 3341 0 
L 2766 0 
L 2766 531 
Q 2569 213 2275 61 
Q 1981 -91 1556 -91 
Q 1019 -91 701 211 
Q 384 513 384 1019 
Q 384 1609 779 1909 
Q 1175 2209 1959 2209 
L 2766 2209 
L 2766 2266 
Q 2766 2663 2505 2880 
Q 2244 3097 1772 3097 
Q 1472 3097 1187 3025 
Q 903 2953 641 2809 
L 641 3341 
Q 956 3463 1253 3523 
Q 1550 3584 1831 3584 
Q 2591 3584 2966 3190 
Q 3341 2797 3341 1997 
z
" transform="scale(0.015625)"/>
       <path id="DejaVuSans-6c" d="M 603 4863 
L 1178 4863 
L 1178 0 
L 603 0 
L 603 4863 
z
" transform="scale(0.015625)"/>
      </defs>
      <use xlink:href="#DejaVuSans-52"/>
      <use xlink:href="#DejaVuSans-65" x="64.982422"/>
      <use xlink:href="#DejaVuSans-63" x="126.505859"/>
      <use xlink:href="#DejaVuSans-61" x="181.486328"/>
      <use xlink:href="#DejaVuSans-6c" x="242.765625"/>
      <use xlink:href="#DejaVuSans-6c" x="270.548828"/>
     </g>
    </g>
   </g>
   <g id="matplotlib.axis_2">
    <g id="ytick_1">
     <g id="line2d_7">
      <defs>
       <path id="ma6f8f680c5" d="M 0 0 
L -3.5 0 
" style="stroke: #000000; stroke-width: 0.8"/>
      </defs>
      <g>
       <use xlink:href="#ma6f8f680c5" x="57.6" y="295.488" style="stroke: #000000; stroke-width: 0.8"/>
      </g>
     </g>
     <g id="text_8">
      <!-- 0.0 -->
      <g transform="translate(34.696875 299.287219)scale(0.1 -0.1)">
       <use xlink:href="#DejaVuSans-30"/>
       <use xlink:href="#DejaVuSans-2e" x="63.623047"/>
       <use xlink:href="#DejaVuSans-30" x="95.410156"/>
      </g>
     </g>
    </g>
    <g id="ytick_2">
     <g id="line2d_8">
      <g>
       <use xlink:href="#ma6f8f680c5" x="57.6" y="247.104" style="stroke: #000000; stroke-width: 0.8"/>
      </g>
     </g>
     <g id="text_9">
      <!-- 0.2 -->
      <g transform="translate(34.696875 250.903219)scale(0.1 -0.1)">
       <use xlink:href="#DejaVuSans-30"/>
       <use xlink:href="#DejaVuSans-2e" x="63.623047"/>
       <use xlink:href="#DejaVuSans-32" x="95.410156"/>
      </g>
     </g>
    </g>
    <g id="ytick_3">
     <g id="line2d_9">
      <g>
       <use xlink:href="#ma6f8f680c5" x="57.6" y="198.72" style="stroke: #000000; stroke-width: 0.8"/>
      </g>
     </g>
     <g id="text_10">
      <!-- 0.4 -->
      <g transform="translate(34.696875 202.519219)scale(0.1 -0.1)">
       <use xlink:href="#DejaVuSans-30"/>
       <use xlink:href="#DejaVuSans-2e" x="63.623047"/>
       <use xlink:href="#DejaVuSans-34" x="95.410156"/>
      </g>
     </g>
    </g>
    <g id="ytick_4">
     <g id="line2d_10">
      <g>
       <use xlink:href="#ma6f8f680c5" x="57.6" y="150.336" style="stroke: #000000; stroke-width: 0.8"/>
      </g>
     </g>
     <g id="text_11">
      <!-- 0.6 -->
      <g transform="translate(34.696875 154.135219)scale(0.1 -0.1)">
       <use xlink:href="#DejaVuSans-30"/>
       <use xlink:href="#DejaVuSans-2e" x="63.623047"/>
       <use xlink:href="#DejaVuSans-36" x="95.410156"/>
      </g>
     </g>
    </g>
    <g id="ytick_5">
     <g id="line2d_11">
      <g>
       <use xlink:href="#ma6f8f680c5" x="57.6" y="101.952" style="stroke: #000000; stroke-width: 0.8"/>
      </g>
     </g>
     <g id="text_12">
      <!-- 0.8 -->
      <g transform="translate(34.696875 105.751219)scale(0.1 -0.1)">
       <use xlink:href="#DejaVuSans-30"/>
       <use xlink:href="#DejaVuSans-2e" x="63.623047"/>
       <use xlink:href="#DejaVuSans-38" x="95.410156"/>
      </g>
     </g>
    </g>
    <g id="ytick_6">
     <g id="line2d_12">
      <g>
       <use xlink:href="#ma6f8f680c5" x="57.6" y="53.568" style="stroke: #000000; stroke-width: 0.8"/>
      </g>
     </g>
     <g id="text_13">
      <!-- 1.0 -->
      <g transform="translate(34.696875 57.367219)scale(0.1 -0.1)">
       <use xlink:href="#DejaVuSans-31"/>
       <use xlink:href="#DejaVuSans-2e" x="63.623047"/>
       <use xlink:href="#DejaVuSans-30" x="95.410156"/>
      </g>
     </g>
    </g>
    <g id="text_14">
     <!-- Precision -->
     <g transform="translate(28.617187 196.835031)rotate(-90)scale(0.1 -0.1)">
      <defs>
       <path id="DejaVuSans-50" d="M 1259 4147 
L 1259 2394 
L 2053 2394 
Q 2494 2394 2734 2622 
Q 2975 2850 2975 3272 
Q 2975 3691 2734 3919 
Q 2494 4147 2053 4147 
L 1259 4147 
z
M 628 4666 
L 2053 4666 
Q 2838 4666 3239 4311 
Q 3641 3956 3641 3272 
Q 3641 2581 3239 2228 
Q 2838 1875 2053 1875 
L 1259 1875 
L 1259 0 
L 628 0 
L 628 4666 
z
" transform="scale(0.015625)"/>
       <path id="DejaVuSans-72" d="M 2631 2963 
Q 2534 3019 2420 3045 
Q 2306 3072 2169 3072 
Q 1681 3072 1420 2755 
Q 1159 2438 1159 1844 
L 1159 0 
L 581 0 
L 581 3500 
L 1159 3500 
L 1159 2956 
Q 1341 3275 1631 3429 
Q 1922 3584 2338 3584 
Q 2397 3584 2469 3576 
Q 2541 3569 2628 3553 
L 2631 2963 
z
" transform="scale(0.015625)"/>
       <path id="DejaVuSans-69" d="M 603 3500 
L 1178 3500 
L 1178 0 
L 603 0 
L 603 3500 
z
M 603 4863 
L 1178 4863 
L 1178 4134 
L 603 4134 
L 603 4863 
z
" transform="scale(0.015625)"/>
       <path id="DejaVuSans-73" d="M 2834 3397 
L 2834 2853 
Q 2591 2978 2328 3040 
Q 2066 3103 1784 3103 
Q 1356 3103 1142 2972 
Q 928 2841 928 2578 
Q 928 2378 1081 2264 
Q 1234 2150 1697 2047 
L 1894 2003 
Q 2506 1872 2764 1633 
Q 3022 1394 3022 966 
Q 3022 478 2636 193 
Q 2250 -91 1575 -91 
Q 1294 -91 989 -36 
Q 684 19 347 128 
L 347 722 
Q 666 556 975 473 
Q 1284 391 1588 391 
Q 1994 391 2212 530 
Q 2431 669 2431 922 
Q 2431 1156 2273 1281 
Q 2116 1406 1581 1522 
L 1381 1569 
Q 847 1681 609 1914 
Q 372 2147 372 2553 
Q 372 3047 722 3315 
Q 1072 3584 1716 3584 
Q 2034 3584 2315 3537 
Q 2597 3491 2834 3397 
z
" transform="scale(0.015625)"/>
       <path id="DejaVuSans-6f" d="M 1959 3097 
Q 1497 3097 1228 2736 
Q 959 2375 959 1747 
Q 959 1119 1226 758 
Q 1494 397 1959 397 
Q 2419 397 2687 759 
Q 2956 1122 2956 1747 
Q 2956 2369 2687 2733 
Q 2419 3097 1959 3097 
z
M 1959 3584 
Q 2709 3584 3137 3096 
Q 3566 2609 3566 1747 
Q 3566 888 3137 398 
Q 2709 -91 1959 -91 
Q 1206 -91 779 398 
Q 353 888 353 1747 
Q 353 2609 779 3096 
Q 1206 3584 1959 3584 
z
" transform="scale(0.015625)"/>
       <path id="DejaVuSans-6e" d="M 3513 2113 
L 3513 0 
L 2938 0 
L 2938 2094 
Q 2938 2591 2744 2837 
Q 2550 3084 2163 3084 
Q 1697 3084 1428 2787 
Q 1159 2491 1159 1978 
L 1159 0 
L 581 0 
L 581 3500 
L 1159 3500 
L 1159 2956 
Q 1366 3272 1645 3428 
Q 1925 3584 2291 3584 
Q 2894 3584 3203 3211 
Q 3513 2838 3513 2113 
z
" transform="scale(0.015625)"/>
      </defs>
      <use xlink:href="#DejaVuSans-50"/>
      <use xlink:href="#DejaVuSans-72" x="58.552734"/>
      <use xlink:href="#DejaVuSans-65" x="97.416016"/>
      <use xlink:href="#DejaVuSans-63" x="158.939453"/>
      <use xlink:href="#DejaVuSans-69" x="213.919922"/>
      <use xlink:href="#DejaVuSans-73" x="241.703125"/>
      <use xlink:href="#DejaVuSans-69" x="293.802734"/>
      <use xlink:href="#DejaVuSans-6f" x="321.585938"/>
      <use xlink:href="#DejaVuSans-6e" x="382.767578"/>
     </g>
    </g>
   </g>
   <g id="line2d_13">
    <path d="M 234.513894 216.398769 
L 234.407694 216.039034 
L 234.195293 215.74576 
L 233.558091 213.779561 
L 233.23949 213.24068 
L 233.133289 211.990531 
L 232.814688 211.9268 
L 232.602287 211.651561 
L 232.389887 210.382779 
L 232.283686 210.238912 
L 231.965085 209.22869 
L 231.858885 209.203973 
L 231.540284 208.291107 
L 231.221683 208.085406 
L 230.903081 206.98944 
L 230.053478 204.752579 
L 229.841078 204.434841 
L 229.734877 204.286521 
L 229.628677 203.759739 
L 228.991475 203.156464 
L 228.354272 201.872681 
L 227.398469 197.719325 
L 227.079868 197.593844 
L 226.867467 197.205869 
L 226.761267 197.163191 
L 226.548866 195.922757 
L 226.336465 195.055181 
L 225.805463 194.764253 
L 225.380662 193.922881 
L 224.106257 193.638312 
L 223.893857 193.112151 
L 223.362855 192.735855 
L 222.619452 191.839706 
L 221.557448 191.369584 
L 220.814046 191.313364 
L 220.495445 191.0844 
L 220.070643 190.035692 
L 219.645842 189.941079 
L 219.433441 189.590069 
L 219.327241 189.498106 
L 219.11484 188.593116 
L 218.796239 187.78389 
L 218.477638 187.456839 
L 218.159036 187.44683 
L 217.628035 186.77254 
L 216.672231 186.664455 
L 216.566031 186.526713 
L 216.24743 185.180377 
L 215.397827 183.282238 
L 215.291626 182.699257 
L 214.760624 182.370368 
L 214.654424 181.935462 
L 214.442023 181.905702 
L 214.335823 181.465855 
L 213.911022 181.281672 
L 213.48622 180.641502 
L 213.38002 180.604415 
L 213.061419 179.737226 
L 212.318016 179.037767 
L 211.999415 178.267173 
L 211.574613 177.1288 
L 211.362213 177.043236 
L 211.256012 176.865613 
L 210.61881 176.740683 
L 210.300209 176.061492 
L 209.344405 175.421909 
L 208.388602 174.575716 
L 208.176201 174.1924 
L 207.8576 174.1916 
L 207.220398 173.752615 
L 206.689396 173.651478 
L 206.476995 172.809121 
L 205.945993 172.198987 
L 204.671589 170.311419 
L 204.140587 168.959509 
L 204.034387 168.846702 
L 203.821986 168.074024 
L 203.609585 168.007948 
L 203.290984 167.437422 
L 202.653782 167.176255 
L 202.547581 166.888421 
L 201.804179 166.556731 
L 201.697978 166.435417 
L 201.485578 165.961122 
L 201.060776 165.872544 
L 200.635975 165.724981 
L 200.529774 165.717065 
L 200.423574 165.533678 
L 199.786372 165.248726 
L 199.680171 164.943738 
L 199.467771 164.807014 
L 199.25537 164.309157 
L 199.042969 164.109059 
L 198.087166 163.654558 
L 197.768565 163.377265 
L 197.662364 163.304907 
L 197.449963 162.847925 
L 197.131362 162.814821 
L 196.812761 162.0864 
L 196.60036 160.842107 
L 196.38796 160.620522 
L 196.069359 160.580093 
L 195.538357 159.984422 
L 195.219756 159.941647 
L 194.901154 159.564491 
L 194.688754 159.400526 
L 193.308149 159.271784 
L 192.989548 158.74531 
L 192.564746 158.542906 
L 191.821344 158.498642 
L 191.608943 158.044721 
L 191.290342 157.993899 
L 191.077941 157.818062 
L 190.228338 157.750691 
L 190.015937 157.500263 
L 189.697336 157.374593 
L 189.378735 157.029841 
L 189.060134 156.974438 
L 188.847733 156.790615 
L 188.741533 156.771816 
L 188.529132 155.694742 
L 188.10433 155.161358 
L 187.360928 154.937739 
L 187.148527 154.818441 
L 187.042327 154.796936 
L 186.829926 154.368 
L 186.723726 154.34587 
L 186.192724 153.843639 
L 184.918319 153.80361 
L 184.812119 153.541678 
L 184.068716 152.972132 
L 183.643915 152.384293 
L 183.431514 152.086828 
L 183.219113 152.03515 
L 183.006712 151.734382 
L 182.794312 151.598191 
L 182.581911 151.293541 
L 182.475711 150.250817 
L 182.157109 150.165032 
L 182.050909 149.964694 
L 181.519907 149.472 
L 181.307506 149.150259 
L 180.988905 149.058918 
L 180.882705 148.675622 
L 179.6083 148.565854 
L 178.546297 148.154387 
L 178.015295 147.714949 
L 176.953291 147.656458 
L 176.74089 147.308177 
L 176.422289 147.298577 
L 176.316089 147.16983 
L 175.891287 147.124809 
L 175.572686 146.829013 
L 175.147885 146.204895 
L 174.723083 146.154667 
L 174.616883 145.825627 
L 174.192081 145.478551 
L 173.342478 145.468781 
L 171.855673 143.691834 
L 170.368868 142.987806 
L 170.050267 142.215608 
L 169.837866 142.124971 
L 169.200664 142.066983 
L 168.988263 141.64817 
L 168.351061 141.475983 
L 168.03246 140.889268 
L 167.820059 140.343652 
L 167.289057 140.320653 
L 166.970456 139.828543 
L 166.651855 139.789856 
L 166.545654 139.393277 
L 165.589851 138.919551 
L 165.37745 138.576758 
L 164.634048 138.074301 
L 164.209246 137.609227 
L 162.828641 137.599402 
L 162.616241 136.864376 
L 162.085239 136.692171 
L 161.129435 136.274037 
L 160.492233 134.4711 
L 159.961231 134.274261 
L 159.855031 134.208 
L 159.64263 133.941421 
L 159.217829 133.940093 
L 159.005428 133.399579 
L 158.474426 133.189818 
L 158.368226 132.983089 
L 157.943424 132.976855 
L 157.837224 132.490794 
L 157.412422 132.342293 
L 157.093821 130.990793 
L 155.288415 129.519628 
L 154.863613 129.344922 
L 154.651212 128.729739 
L 154.545012 127.426574 
L 153.589209 126.638632 
L 152.845806 126.484732 
L 152.739606 126.394341 
L 152.633405 125.341422 
L 152.314804 125.060088 
L 151.359001 125.023135 
L 151.1466 124.831256 
L 150.934199 122.959591 
L 150.509398 122.892901 
L 150.403197 122.619497 
L 149.978396 122.377581 
L 149.553594 121.608 
L 149.341194 121.56978 
L 149.234993 121.285972 
L 148.27919 120.837207 
L 148.066789 120.434087 
L 146.898585 119.917367 
L 146.473784 119.265125 
L 145.305579 119.09346 
L 145.093179 118.659765 
L 144.986978 118.537782 
L 144.880778 118.026947 
L 144.562177 117.848838 
L 144.349776 117.40055 
L 144.243576 117.2736 
L 143.818774 117.159946 
L 143.287772 116.510986 
L 143.075372 116.043358 
L 142.54437 115.990018 
L 140.951364 115.189132 
L 140.738963 114.478974 
L 139.88936 113.755826 
L 139.570759 112.644923 
L 139.464559 112.493435 
L 139.252158 111.281918 
L 138.508755 111.09591 
L 138.296355 110.776755 
L 138.083954 110.688 
L 137.977754 110.291954 
L 136.490948 110.120727 
L 136.384748 109.711103 
L 135.959946 109.517961 
L 135.853746 109.346656 
L 135.110343 109.122393 
L 134.897943 108.771221 
L 134.579342 108.742737 
L 134.26074 107.438164 
L 133.411137 106.992 
L 133.198737 106.350545 
L 132.880136 106.307241 
L 131.074729 106.235634 
L 130.968529 106.036821 
L 130.756128 105.078132 
L 130.543727 104.949239 
L 128.950722 104.672681 
L 126.826714 103.872 
L 125.65851 103.837091 
L 124.808907 103.551471 
L 124.702707 102.676552 
L 124.065505 102.523143 
L 123.959304 102.279472 
L 123.534503 101.620603 
L 122.153898 101.354667 
L 122.047697 101.095646 
L 121.941497 99.441918 
L 120.348491 98.534543 
L 120.242291 98.250985 
L 120.02989 96.931019 
L 119.605089 96.8832 
L 119.286488 96.369231 
L 118.543085 96.176219 
L 118.436885 95.868354 
L 116.950079 95.448244 
L 116.737679 95.209967 
L 116.631478 94.883556 
L 116.525278 94.138435 
L 116.312877 93.888 
L 115.994276 93.293811 
L 114.932272 93.27841 
L 114.719872 93.011478 
L 114.613671 92.655511 
L 114.40127 92.381538 
L 113.870269 89.144471 
L 113.126866 88.766522 
L 112.702064 88.128 
L 112.383463 87.882894 
L 111.746261 87.878769 
L 111.53386 87.542237 
L 110.153255 87.083365 
L 109.091252 86.328 
L 108.878851 85.950992 
L 103.144031 85.519698 
L 101.020023 84.117625 
L 100.807622 82.86627 
L 99.427018 82.70435 
L 97.515411 82.254166 
L 96.878209 79.452444 
L 91.037188 77.76 
L 90.824787 75.560727 
L 90.612386 74.543723 
L 89.975184 72.628364 
L 89.762783 71.488 
L 89.231782 70.626462 
L 88.91318 69.483789 
L 85.514768 68.041846 
L 84.983767 66.644757 
L 84.665165 64.872673 
L 84.558965 62.784 
L 83.07216 61.632 
L 78.293143 59.194047 
L 77.762141 53.568 
L 77.762141 53.568 
" clip-path="url(#pf12640aa92)" style="fill: none; stroke: #1f77b4; stroke-width: 1.5; stroke-linecap: square"/>
   </g>
   <g id="line2d_14">
    <path d="M 272.852229 266.363107 
L 272.639829 265.537981 
L 272.427428 265.256083 
L 272.215027 263.701648 
L 272.108827 263.700778 
L 271.896426 262.439304 
L 271.577825 261.819188 
L 271.153023 260.47847 
L 270.940623 260.155649 
L 270.622022 259.896276 
L 270.30342 259.496685 
L 269.878619 258.719984 
L 269.560018 258.456558 
L 269.029016 257.477318 
L 268.604214 257.27914 
L 268.498014 257.184522 
L 268.391814 256.679117 
L 267.648411 256.131252 
L 267.43601 255.28928 
L 267.22361 254.978913 
L 267.117409 254.904131 
L 266.905008 254.311091 
L 266.586407 253.706213 
L 266.374007 252.839132 
L 265.843005 252.087389 
L 265.418203 251.915348 
L 264.993402 251.828886 
L 263.718997 249.758752 
L 263.187995 248.38783 
L 262.869394 248.343529 
L 262.550793 247.261408 
L 262.232192 246.746821 
L 262.125992 246.729996 
L 261.913591 246.551356 
L 261.70119 246.393532 
L 261.063988 245.928976 
L 260.851587 245.385551 
L 260.639186 245.271186 
L 260.320585 244.794501 
L 260.108184 244.670314 
L 259.683383 243.471782 
L 259.152381 242.686199 
L 259.046181 242.643752 
L 258.93998 242.321116 
L 257.984177 241.575999 
L 257.559376 240.607119 
L 257.453175 240.566824 
L 257.134574 240.197492 
L 256.922173 240.188334 
L 256.815973 240.043978 
L 256.603572 239.293599 
L 256.284971 238.95664 
L 256.178771 238.368 
L 255.96637 238.340231 
L 255.86017 237.857579 
L 255.647769 237.852731 
L 255.435368 237.484186 
L 255.222967 237.389102 
L 255.116767 236.962286 
L 254.798166 236.488189 
L 254.585765 236.004059 
L 254.373364 235.988 
L 254.267164 235.798473 
L 254.054763 235.70378 
L 253.842362 235.459542 
L 253.523761 235.052648 
L 252.780359 234.610581 
L 252.249357 233.617761 
L 251.293553 232.76522 
L 251.081153 232.271391 
L 250.23155 231.624503 
L 249.912949 231.444673 
L 249.700548 231.110767 
L 249.488147 230.6887 
L 249.169546 229.741511 
L 248.957145 229.276202 
L 247.682741 227.55952 
L 247.257939 227.257368 
L 246.726937 226.897655 
L 246.408336 226.471146 
L 245.664934 225.602879 
L 245.452533 225.576927 
L 245.346332 225.356821 
L 244.815331 225.309405 
L 244.284329 224.672461 
L 244.178128 223.708555 
L 243.859527 223.63013 
L 243.753327 223.474605 
L 243.328525 223.318968 
L 243.009924 222.775064 
L 242.585123 222.6139 
L 241.84172 221.000371 
L 241.310718 220.770444 
L 240.673516 219.431102 
L 240.248714 218.37477 
L 240.142514 218.235406 
L 239.717713 218.212123 
L 239.611512 217.848789 
L 239.08051 217.407203 
L 238.549508 217.252404 
L 238.337108 216.99322 
L 238.018507 216.765979 
L 237.806106 216.468647 
L 237.593705 215.693211 
L 237.381304 215.282015 
L 236.956503 214.725314 
L 236.850302 214.725234 
L 236.425501 214.282229 
L 236.000699 214.209267 
L 235.682098 213.666855 
L 235.469698 213.023892 
L 234.407694 212.336593 
L 233.982892 211.11812 
L 233.876692 210.860925 
L 233.664291 209.840011 
L 233.45189 209.630678 
L 233.34569 209.586383 
L 233.133289 209.313695 
L 232.920889 209.264788 
L 232.283686 207.986269 
L 231.965085 207.800833 
L 231.752684 207.576211 
L 231.646484 207.117027 
L 231.115482 206.760036 
L 231.009282 206.621879 
L 230.47828 204.89851 
L 230.37208 204.890927 
L 230.159679 204.528552 
L 229.522477 204.246755 
L 228.991475 202.59835 
L 228.779074 202.505576 
L 228.566673 202.412362 
L 228.354272 202.046641 
L 227.823271 201.393579 
L 227.61087 201.37189 
L 227.079868 200.703705 
L 226.867467 200.680624 
L 226.442666 200.322645 
L 226.124065 200.20833 
L 225.911664 199.603848 
L 225.699263 199.338584 
L 225.486862 198.529886 
L 224.637259 198.446644 
L 224.531059 198.212715 
L 224.000057 198.141705 
L 223.150454 196.495125 
L 222.831853 196.069793 
L 222.619452 195.978335 
L 222.407051 195.592463 
L 221.87605 195.269135 
L 221.557448 194.43373 
L 220.920246 194.383836 
L 220.707845 193.762442 
L 219.964443 192.873351 
L 219.008639 192.432643 
L 218.902439 192.089151 
L 218.265237 191.992813 
L 217.946636 191.698737 
L 217.521834 191.544602 
L 217.309433 190.867667 
L 217.203233 190.844616 
L 216.884632 190.301996 
L 216.778432 189.697123 
L 216.566031 189.579049 
L 216.035029 188.791399 
L 215.397827 188.066494 
L 215.185426 187.833196 
L 214.866825 186.249727 
L 214.654424 185.554511 
L 214.548224 185.335423 
L 214.335823 184.433121 
L 214.229623 184.401428 
L 213.59242 183.308042 
L 213.38002 183.201571 
L 212.211816 180.903573 
L 211.999415 180.49424 
L 211.574613 180.046411 
L 211.362213 179.798783 
L 210.831211 179.258279 
L 210.61881 177.728 
L 210.406409 177.598981 
L 209.981608 176.659862 
L 209.769207 176.61752 
L 209.556806 176.299966 
L 209.450606 176.255333 
L 209.238205 175.37585 
L 209.132005 175.329684 
L 208.494802 174.43253 
L 208.388602 173.904248 
L 206.901797 173.652887 
L 206.795596 173.455832 
L 205.945993 173.349818 
L 205.308791 172.693018 
L 204.246787 170.770217 
L 203.715786 170.754374 
L 203.609585 170.381678 
L 202.972383 170.147259 
L 202.441381 170.074849 
L 200.635975 168.853857 
L 200.317374 167.941865 
L 199.998772 167.924325 
L 199.680171 166.8187 
L 199.25537 166.790919 
L 198.724368 166.464 
L 198.511967 166.390691 
L 198.299566 166.081227 
L 198.087166 166.006573 
L 197.874765 165.39474 
L 197.343763 164.990338 
L 197.131362 164.729564 
L 196.918962 164.650259 
L 196.60036 164.438553 
L 195.963158 163.385436 
L 195.856958 163.374844 
L 195.644557 163.164567 
L 195.007355 162.332805 
L 194.794954 162.309228 
L 194.263952 160.87697 
L 193.945351 160.770363 
L 193.62675 160.262153 
L 192.989548 159.77088 
L 191.927544 159.758918 
L 191.502742 158.449472 
L 191.290342 158.416525 
L 191.077941 158.101333 
L 190.546939 157.945279 
L 190.440739 157.928104 
L 190.228338 157.679102 
L 190.122138 156.86822 
L 189.591136 156.775322 
L 188.847733 156.274738 
L 188.210531 156.083056 
L 187.99813 155.743776 
L 187.467128 155.339435 
L 187.148527 154.125108 
L 186.298924 153.788177 
L 186.192724 153.450619 
L 185.555521 153.150282 
L 185.23692 152.757921 
L 184.599718 152.529042 
L 184.493518 152.422938 
L 184.068716 151.748469 
L 183.750115 149.489633 
L 183.537714 149.431098 
L 183.112913 148.796379 
L 183.006712 148.679405 
L 182.26331 148.551462 
L 181.944709 148.370581 
L 181.732308 147.777231 
L 181.519907 147.355826 
L 181.307506 147.290034 
L 181.201306 147.077126 
L 180.988905 146.919966 
L 180.033102 146.430699 
L 179.3959 146.314005 
L 179.077299 145.835865 
L 178.546297 145.183577 
L 178.227696 145.167292 
L 177.802894 145.018064 
L 177.696694 144.78879 
L 177.059491 144.559733 
L 176.847091 144.190515 
L 176.52849 144.170639 
L 176.422289 143.738182 
L 175.785087 143.595783 
L 175.466486 142.165192 
L 175.147885 141.831755 
L 175.041684 141.170892 
L 173.87348 140.672348 
L 173.76728 139.778889 
L 173.023877 139.442917 
L 171.11227 139.102171 
L 170.687469 138.789818 
L 170.475068 138.015039 
L 169.519265 137.538783 
L 169.094463 137.207737 
L 168.563462 137.16618 
L 168.24486 136.767055 
L 167.501458 136.25409 
L 167.289057 135.780873 
L 166.970456 135.122286 
L 166.014653 134.701966 
L 165.802252 134.455932 
L 165.589851 133.958726 
L 164.952649 133.578983 
L 164.846448 133.38836 
L 164.527847 132.554498 
L 164.421647 132.359336 
L 164.209246 132.354941 
L 163.784445 131.955486 
L 163.465844 131.619236 
L 161.979038 131.172452 
L 161.660437 130.687473 
L 161.341836 130.469722 
L 161.023235 129.559579 
L 160.598433 129.536161 
L 159.855031 127.430367 
L 159.74883 127.349443 
L 159.64263 126.832814 
L 159.111628 126.270439 
L 159.005428 125.444319 
L 158.793027 125.421216 
L 158.368226 125.073558 
L 157.624823 124.9117 
L 157.306222 124.336677 
L 156.88142 123.972642 
L 156.66902 123.944727 
L 154.969814 122.913882 
L 154.863613 122.65564 
L 154.651212 122.623099 
L 153.90781 120.768 
L 153.695409 120.729268 
L 152.952006 120.33698 
L 151.996203 118.144255 
L 151.0404 117.656008 
L 150.615598 117.19222 
L 150.509398 116.892663 
L 150.296997 116.655967 
L 149.341194 116.502443 
L 149.234993 116.381431 
L 148.810192 115.513796 
L 148.597791 115.454512 
L 148.27919 114.306462 
L 147.217186 113.587325 
L 147.004785 113.320918 
L 145.624181 112.968 
L 145.51798 112.420735 
L 144.986978 112.132344 
L 144.880778 111.782574 
L 144.349776 111.484701 
L 144.243576 111.33994 
L 143.924975 111.327446 
L 143.818774 111.181318 
L 142.969171 110.857379 
L 142.862971 110.272452 
L 142.65057 110.187574 
L 141.694767 107.882563 
L 141.588566 107.262439 
L 141.376166 106.932706 
L 141.057564 106.897655 
L 139.88936 105.495273 
L 139.67696 105.144853 
L 138.933557 105.11963 
L 138.614956 104.580885 
L 137.765353 103.609423 
L 137.446752 103.554119 
L 135.535145 103.472262 
L 134.579342 103.028695 
L 134.26074 102.967049 
L 133.729739 101.4014 
L 132.986336 101.044364 
L 132.561534 100.186161 
L 132.349134 100.036504 
L 131.605731 99.938996 
L 131.39333 99.493022 
L 131.074729 99.405474 
L 130.968529 98.88232 
L 130.649928 98.790128 
L 130.331327 97.789935 
L 129.800325 97.519304 
L 129.694124 97.279402 
L 128.632121 97.028986 
L 128.41972 96.532992 
L 128.207319 96.35128 
L 127.676317 95.073882 
L 127.357716 94.949053 
L 127.251516 94.686416 
L 127.039115 93.820912 
L 125.870911 93.199945 
L 125.446109 93.124627 
L 125.021308 92.342634 
L 124.915108 92.055273 
L 123.853104 92.016 
L 123.215902 91.696696 
L 121.835297 91.480836 
L 121.729096 90.786462 
L 121.516696 90.540679 
L 121.304295 89.5104 
L 121.198094 89.185285 
L 117.587282 89.129739 
L 117.481081 88.774653 
L 117.16248 88.562717 
L 116.950079 88.273823 
L 116.419078 88.201846 
L 116.206677 87.905032 
L 116.100476 87.530851 
L 115.463274 86.605533 
L 113.764068 85.898323 
L 108.66645 85.568 
L 106.330042 84.583385 
L 106.223842 84.067943 
L 105.586639 83.364598 
L 105.480439 82.826761 
L 105.268038 82.368 
L 105.055637 81.257639 
L 104.418435 81.109662 
L 104.312235 80.53122 
L 103.144031 80.101161 
L 102.719229 79.742951 
L 102.506828 79.201907 
L 102.400628 78.5664 
L 93.267396 78.471529 
L 92.736394 75.785143 
L 92.311592 75.100147 
L 91.249589 75.072 
L 91.037188 74.069695 
L 88.70078 72.666947 
L 88.594579 71.3088 
L 87.851177 70.60462 
L 87.744976 69.12 
L 86.789173 68.455385 
L 86.364371 67.11552 
L 83.17836 66.574452 
L 82.859759 64.440809 
L 82.753559 61.910069 
L 77.54974 60.288 
L 77.231139 53.568 
L 77.231139 53.568 
" clip-path="url(#pf12640aa92)" style="fill: none; stroke: #ff7f0e; stroke-width: 1.5; stroke-linecap: square"/>
   </g>
   <g id="line2d_15">
    <path d="M 284.003269 277.507091 
L 283.897068 277.457941 
L 283.684668 276.661837 
L 283.578467 276.659501 
L 283.366067 275.786503 
L 283.153666 275.570526 
L 282.941265 275.438312 
L 282.622664 274.918208 
L 282.516464 273.719853 
L 282.304063 273.537967 
L 282.091662 273.264497 
L 281.985462 273.250829 
L 281.56066 272.552971 
L 281.348259 272.433392 
L 281.029658 271.640692 
L 280.604857 271.329502 
L 280.392456 271.062419 
L 280.180055 270.696304 
L 279.861454 270.285294 
L 279.224252 269.776439 
L 279.118052 269.754379 
L 278.79945 269.017928 
L 278.268449 268.646732 
L 278.162248 268.645204 
L 277.206445 267.248024 
L 276.463042 266.682249 
L 276.356842 266.567398 
L 275.82584 266.486876 
L 275.613439 265.981773 
L 275.507239 265.963188 
L 275.294838 265.426279 
L 275.082437 264.898929 
L 274.551435 264.579543 
L 274.445235 264.510039 
L 273.914233 263.593159 
L 273.701832 263.55775 
L 273.383231 263.127519 
L 273.06463 262.865665 
L 272.639829 262.181076 
L 272.427428 261.757729 
L 272.108827 261.213858 
L 272.002626 261.161886 
L 271.790226 260.909449 
L 271.684025 260.896169 
L 271.259224 260.328178 
L 270.622022 259.748722 
L 270.19722 258.826244 
L 269.772419 258.483987 
L 269.135216 258.058177 
L 267.43601 256.198899 
L 267.22361 255.168 
L 266.692608 254.715219 
L 266.374007 254.300944 
L 266.055405 253.749824 
L 265.949205 253.721128 
L 265.843005 253.467502 
L 265.205802 253.069022 
L 264.887201 252.702503 
L 264.781001 252.650482 
L 263.931398 252.489609 
L 263.612797 252.126812 
L 263.506596 251.985269 
L 262.975595 251.896385 
L 262.444593 250.456041 
L 262.232192 249.996577 
L 261.913591 249.704679 
L 261.70119 249.687863 
L 261.488789 249.319662 
L 260.532986 248.685385 
L 260.320585 248.255231 
L 260.108184 247.622497 
L 259.895784 247.302025 
L 259.152381 246.853161 
L 258.93998 246.559413 
L 258.83378 246.536363 
L 258.515179 245.754121 
L 258.302778 245.669975 
L 258.090377 245.406721 
L 257.240774 244.249854 
L 256.922173 244.118363 
L 256.178771 242.735061 
L 255.222967 242.206329 
L 255.010567 241.853754 
L 254.904366 241.689435 
L 254.585765 240.654089 
L 254.373364 240.366166 
L 254.160964 240.327511 
L 253.736162 239.264584 
L 253.417561 239.077807 
L 253.09896 238.810559 
L 252.886559 238.016234 
L 252.674158 237.922184 
L 252.461758 237.614377 
L 252.355557 237.607624 
L 251.930756 237.164274 
L 251.718355 236.633098 
L 251.612155 236.616932 
L 251.505954 236.394386 
L 251.187353 236.206063 
L 250.762552 235.716575 
L 250.23155 235.513504 
L 249.488147 233.9476 
L 248.850945 233.222787 
L 248.638544 232.92707 
L 248.532344 232.52986 
L 248.213743 232.375092 
L 247.895141 232.138123 
L 247.47034 231.845329 
L 247.151739 231.828948 
L 246.833138 231.678466 
L 246.408336 230.530961 
L 245.983535 230.357238 
L 245.664934 229.90044 
L 245.027731 229.435317 
L 244.815331 229.270523 
L 244.70913 229.187663 
L 244.390529 228.811576 
L 244.071928 228.545525 
L 243.859527 228.327619 
L 243.540926 227.582123 
L 243.434726 227.37336 
L 242.797523 226.879316 
L 242.585123 226.461087 
L 242.478922 226.380434 
L 242.372722 226.099415 
L 241.416919 225.326309 
L 241.310718 225.319186 
L 240.885917 224.821304 
L 240.779716 224.787453 
L 240.567316 224.281701 
L 240.461115 223.857036 
L 239.717713 223.442425 
L 239.399111 223.042114 
L 238.443308 222.507074 
L 238.337108 222.25484 
L 238.124707 221.62768 
L 237.912306 221.416181 
L 237.699905 221.291506 
L 237.487505 220.958068 
L 237.381304 220.931906 
L 236.956503 220.02311 
L 236.637902 219.84791 
L 236.000699 218.798808 
L 235.363497 218.266527 
L 235.044896 217.585039 
L 234.301493 216.571523 
L 233.558091 215.731823 
L 233.23949 215.044509 
L 232.920889 214.487517 
L 232.814688 214.451025 
L 232.602287 213.308859 
L 232.496087 213.195541 
L 232.177486 213.060505 
L 231.858885 212.044106 
L 231.221683 211.876657 
L 230.903081 211.576255 
L 230.690681 211.551932 
L 230.58448 211.252586 
L 230.159679 208.738611 
L 229.947278 208.708498 
L 229.734877 208.529489 
L 228.460473 207.604886 
L 228.354272 206.735201 
L 227.929471 206.168427 
L 227.398469 206.089503 
L 226.655066 203.659227 
L 226.336465 202.873465 
L 226.017864 201.742365 
L 225.593063 201.393367 
L 225.380662 201.242889 
L 225.062061 200.533733 
L 224.212458 200.173943 
L 223.681456 199.522546 
L 223.575256 199.428524 
L 223.362855 198.72 
L 223.256654 198.623618 
L 223.044254 197.872377 
L 222.831853 197.871158 
L 221.451248 195.734574 
L 221.026447 195.60682 
L 220.601645 194.694078 
L 219.645842 194.528681 
L 219.22104 193.95873 
L 218.796239 193.819034 
L 218.159036 192.683347 
L 217.946636 191.960583 
L 217.840435 191.938909 
L 217.415634 191.6544 
L 216.672231 191.332302 
L 216.566031 190.536263 
L 216.141229 189.652936 
L 215.716428 189.100535 
L 215.397827 188.102266 
L 215.185426 188.084558 
L 214.866825 187.715521 
L 214.654424 187.515627 
L 214.548224 187.232681 
L 214.335823 187.21325 
L 214.123422 186.67754 
L 214.017222 186.648736 
L 213.38002 185.797565 
L 212.849018 185.684505 
L 212.318016 185.224568 
L 211.787014 185.10722 
L 211.574613 184.615124 
L 210.406409 184.019308 
L 210.087808 182.292026 
L 209.450606 181.659024 
L 209.132005 180.184566 
L 208.919604 179.541414 
L 208.707203 179.285882 
L 208.388602 178.185038 
L 208.070001 177.469135 
L 207.8576 177.382375 
L 207.645199 176.557372 
L 206.795596 175.771067 
L 206.264595 174.528 
L 206.052194 174.186993 
L 205.627392 174.03868 
L 205.521192 173.445364 
L 204.99019 173.29119 
L 204.88399 172.989321 
L 204.671589 172.835556 
L 204.459188 171.400594 
L 203.821986 168.782788 
L 203.715786 168.723578 
L 203.503385 167.892181 
L 203.290984 167.770165 
L 203.078583 167.480765 
L 202.866183 167.189091 
L 202.01658 166.228398 
L 201.591778 166.198902 
L 201.273177 165.598067 
L 201.166977 165.590069 
L 200.954576 165.457358 
L 200.742175 165.32393 
L 200.635975 164.191418 
L 200.211173 163.370148 
L 199.786372 163.329032 
L 199.467771 163.114568 
L 199.25537 162.847554 
L 198.299566 162.686951 
L 197.980965 162.403539 
L 197.237563 162.196848 
L 197.131362 161.931595 
L 196.60036 161.807541 
L 196.38796 161.397856 
L 196.175559 161.372581 
L 196.069359 161.1658 
L 195.750757 160.996881 
L 195.538357 160.380632 
L 194.901154 160.031811 
L 194.263952 159.677465 
L 193.62675 158.565893 
L 192.670947 158.281472 
L 192.458546 157.758826 
L 192.246145 157.654173 
L 192.139945 157.495742 
L 191.821344 157.372317 
L 191.608943 156.693753 
L 191.502742 156.531359 
L 191.077941 156.311512 
L 190.653139 155.869952 
L 190.440739 155.166732 
L 189.272535 154.863914 
L 188.953933 153.889037 
L 188.847733 153.713455 
L 188.422932 153.700015 
L 187.573329 153.205562 
L 187.254727 152.662925 
L 187.148527 152.638725 
L 186.936126 152.272436 
L 186.723726 152.142983 
L 186.617525 151.797262 
L 186.405124 150.691162 
L 185.767922 150.610909 
L 185.661722 150.501227 
L 185.23692 149.640828 
L 184.918319 149.554713 
L 184.705918 148.903856 
L 184.493518 148.758873 
L 184.068716 148.552389 
L 183.643915 147.822545 
L 183.431514 147.408854 
L 182.900512 147.335442 
L 182.688111 147.093027 
L 182.581911 146.703568 
L 182.26331 146.513139 
L 182.050909 146.264949 
L 181.626108 145.854362 
L 181.201306 145.438233 
L 181.095106 145.31025 
L 180.882705 144.867024 
L 180.776505 144.737109 
L 180.564104 143.910943 
L 180.245503 143.700999 
L 179.714501 142.3488 
L 177.909094 141.438877 
L 177.590493 141.409877 
L 177.484293 141.165176 
L 177.165692 141.033827 
L 177.059491 140.786526 
L 176.847091 140.595327 
L 176.316089 140.472861 
L 176.209888 140.324407 
L 175.678887 140.199325 
L 175.147885 140.072727 
L 174.829284 139.299324 
L 174.404482 138.678801 
L 173.87348 138.647917 
L 173.76728 138.490262 
L 173.661079 138.114436 
L 173.342478 138.072 
L 172.599076 137.82465 
L 172.492875 137.440405 
L 171.643272 136.905566 
L 171.537072 135.368288 
L 170.475068 135.147723 
L 170.050267 134.799202 
L 169.944066 134.267381 
L 169.094463 133.907777 
L 168.775862 133.846386 
L 167.607658 133.042859 
L 166.651855 130.172848 
L 166.333254 130.093714 
L 165.802252 129.742177 
L 165.483651 129.264306 
L 165.16505 129.180086 
L 164.952649 128.767229 
L 164.527847 127.92946 
L 163.890645 127.883294 
L 163.784445 127.669622 
L 163.041042 127.265483 
L 161.554237 127.142659 
L 161.023235 126.308852 
L 160.704634 126.206084 
L 160.492233 125.602699 
L 160.067432 125.263529 
L 159.324029 125.255832 
L 159.005428 124.996049 
L 158.793027 124.670701 
L 157.731023 123.774792 
L 157.624823 123.528649 
L 156.88142 123.504873 
L 156.562819 122.909538 
L 156.456619 122.814826 
L 156.244218 122.145507 
L 156.138018 121.888 
L 155.925617 121.853682 
L 155.500815 121.459487 
L 155.394615 121.196668 
L 155.182214 120.004364 
L 154.969814 119.797049 
L 154.545012 119.714386 
L 154.332611 118.484757 
L 154.120211 118.095643 
L 153.695409 118.001327 
L 152.739606 117.872822 
L 152.421005 117.18043 
L 151.571402 116.613818 
L 151.1466 116.506537 
L 149.341194 112.892331 
L 148.916392 112.755692 
L 147.960589 112.738909 
L 147.429587 112.06288 
L 146.792385 112.045351 
L 146.686184 111.907115 
L 146.048982 111.477262 
L 145.730381 111.465708 
L 145.199379 110.749091 
L 144.562177 110.718826 
L 144.349776 110.424774 
L 143.818774 110.325073 
L 142.969171 110.205741 
L 142.75677 109.681988 
L 142.438169 109.661222 
L 142.331969 109.506594 
L 141.588566 109.305901 
L 141.376166 108.536457 
L 141.163765 108.442537 
L 140.420362 107.29465 
L 140.207961 106.251454 
L 139.570759 104.725605 
L 139.464559 104.303141 
L 139.145958 104.006919 
L 138.402555 103.968 
L 138.296355 103.030018 
L 137.977754 102.208 
L 137.659152 102.145021 
L 137.446752 101.238563 
L 137.340551 101.041548 
L 136.91575 101.035388 
L 136.809549 100.835951 
L 134.366941 100.170153 
L 134.15454 100.024899 
L 134.04834 99.812337 
L 132.986336 99.631256 
L 132.880136 98.55166 
L 132.667735 98.394353 
L 131.924332 98.274528 
L 131.818132 98.046565 
L 131.39333 97.420568 
L 130.543727 97.04671 
L 130.437527 96.807938 
L 130.331327 96.259765 
L 130.012725 96.148935 
L 129.800325 95.343824 
L 129.375523 94.974276 
L 129.269323 94.401631 
L 128.844521 94.341034 
L 128.632121 93.822863 
L 128.52592 93.233455 
L 127.357716 92.950326 
L 127.251516 92.33982 
L 127.039115 92.129074 
L 126.826714 91.572324 
L 126.189512 90.914141 
L 125.977111 90.336497 
L 123.959304 89.002937 
L 123.853104 88.692501 
L 123.640703 88.443328 
L 120.560892 88.396949 
L 120.454692 87.654575 
L 120.242291 87.379654 
L 120.02989 86.272891 
L 119.92369 85.920575 
L 117.268681 85.858169 
L 114.613671 84.836571 
L 113.870269 83.386047 
L 111.109059 82.671158 
L 110.684257 82.426477 
L 110.047055 82.323349 
L 107.285845 82.029176 
L 106.117641 81.698233 
L 105.79904 81.317647 
L 105.586639 80.846813 
L 105.480439 80.287522 
L 104.737036 80.201394 
L 104.418435 78.43828 
L 103.781233 78.222268 
L 103.675033 77.604923 
L 101.975827 76.686635 
L 101.869626 76.014186 
L 92.523993 74.877016 
L 92.205392 74.048 
L 91.780591 73.289739 
L 90.930988 72.9216 
L 88.382179 71.548541 
L 88.169778 70.252138 
L 87.638776 69.231885 
L 87.532576 67.694715 
L 86.576772 66.902173 
L 86.151971 65.465705 
L 82.647358 64.690759 
L 82.541158 62.106353 
L 77.54974 60.288 
L 77.231139 53.568 
L 77.231139 53.568 
" clip-path="url(#pf12640aa92)" style="fill: none; stroke: #2ca02c; stroke-width: 1.5; stroke-linecap: square"/>
   </g>
   <g id="line2d_16">
    <path d="M 290.587692 282.290483 
L 290.481492 282.21464 
L 290.269091 281.778169 
L 290.05669 281.597334 
L 289.844289 281.115675 
L 289.631889 280.91658 
L 289.313288 280.141087 
L 288.782286 279.641336 
L 288.676085 279.585347 
L 288.463685 278.684882 
L 288.251284 278.453282 
L 288.038883 278.253774 
L 287.614082 278.160658 
L 287.401681 277.767408 
L 287.18928 277.666238 
L 286.870679 277.102263 
L 286.021076 276.538058 
L 285.808675 276.512391 
L 285.490074 275.818183 
L 285.383874 275.593493 
L 284.959072 275.455637 
L 284.640471 274.831978 
L 284.32187 274.70226 
L 284.109469 274.234934 
L 283.366067 273.909873 
L 283.047465 273.348151 
L 282.304063 272.698435 
L 281.985462 272.080625 
L 281.773061 272.065196 
L 281.56066 271.789121 
L 281.348259 271.739611 
L 281.135859 271.52799 
L 280.817258 271.329467 
L 280.711057 271.299725 
L 280.286256 270.56524 
L 279.861454 270.375645 
L 279.755254 270.277978 
L 279.436653 270.254601 
L 279.011851 269.760613 
L 278.79945 269.680704 
L 278.69325 269.578074 
L 278.480849 269.029073 
L 277.525046 268.728913 
L 275.613439 266.90648 
L 275.507239 266.875265 
L 275.294838 266.488174 
L 275.188638 266.479632 
L 274.339035 265.594358 
L 274.126634 265.567276 
L 273.808033 265.274074 
L 273.595632 265.055878 
L 273.383231 264.682383 
L 273.06463 264.673095 
L 272.852229 264.137604 
L 272.215027 263.650142 
L 271.790226 263.520123 
L 271.365424 263.331122 
L 271.046823 261.909598 
L 270.622022 260.981206 
L 270.409621 260.823662 
L 270.30342 260.804801 
L 269.984819 260.179723 
L 269.772419 260.159331 
L 268.710415 258.869737 
L 268.391814 258.222597 
L 268.073213 258.022151 
L 267.648411 257.74939 
L 267.011209 257.398112 
L 266.586407 256.524046 
L 266.480207 256.465869 
L 266.267806 255.896324 
L 265.524404 254.988501 
L 265.312003 254.416271 
L 264.887201 254.172822 
L 264.674801 254.155975 
L 264.4624 253.961138 
L 263.931398 253.713275 
L 263.718997 253.345272 
L 263.612797 253.092095 
L 263.294196 253.009134 
L 262.975595 252.607873 
L 262.232192 251.970855 
L 262.019791 251.574638 
L 261.80739 251.439198 
L 261.488789 251.368623 
L 261.382589 251.128046 
L 259.895784 250.025827 
L 259.152381 248.076679 
L 258.72758 247.713191 
L 258.621379 247.593951 
L 257.984177 247.370395 
L 257.771776 247.059262 
L 257.240774 247.025427 
L 256.603572 246.385002 
L 256.497372 246.309132 
L 256.07257 245.375166 
L 255.329168 244.945056 
L 255.116767 244.76859 
L 254.904366 244.426648 
L 254.691965 244.398 
L 254.479565 243.972487 
L 253.948563 243.280808 
L 253.842362 243.265076 
L 253.629962 242.789781 
L 253.20516 242.08284 
L 252.780359 241.230686 
L 252.567958 240.615849 
L 252.461758 240.470499 
L 252.355557 240.136493 
L 251.718355 239.864664 
L 251.187353 238.54559 
L 251.081153 237.897859 
L 250.762552 237.787396 
L 250.550151 237.533079 
L 250.23155 237.260334 
L 249.912949 236.881431 
L 249.806748 236.727894 
L 249.381947 236.436943 
L 249.063346 236.422004 
L 248.744744 235.939018 
L 248.532344 235.300704 
L 248.426143 235.017196 
L 248.213743 234.860308 
L 248.001342 234.081283 
L 247.788941 233.75487 
L 247.36414 233.314788 
L 247.151739 232.659636 
L 246.726937 232.371692 
L 246.089735 231.182159 
L 245.558733 230.700878 
L 245.346332 229.956165 
L 244.921531 229.554466 
L 244.815331 229.539609 
L 244.70913 229.153767 
L 244.390529 229.130439 
L 244.284329 228.933046 
L 243.859527 228.75576 
L 243.647126 228.504436 
L 243.328525 228.210718 
L 243.116125 228.083616 
L 243.009924 227.94882 
L 242.797523 227.879583 
L 242.585123 226.977774 
L 242.478922 226.763678 
L 241.94792 226.585632 
L 241.73552 226.261662 
L 241.523119 226.110652 
L 241.310718 225.550724 
L 241.098317 225.382388 
L 240.885917 224.886857 
L 240.354915 224.770148 
L 240.142514 224.249429 
L 239.823913 223.738292 
L 239.717713 223.702468 
L 239.292911 222.991104 
L 239.186711 222.828 
L 238.97431 222.752965 
L 238.761909 222.3231 
L 238.443308 221.992116 
L 238.230907 221.798083 
L 238.018507 221.675425 
L 237.806106 221.065908 
L 237.593705 220.655374 
L 237.062703 219.95864 
L 236.956503 219.591529 
L 236.425501 219.199736 
L 236.1069 219.081683 
L 235.257297 218.704037 
L 234.938696 218.356298 
L 234.726295 218.230664 
L 234.301493 217.663618 
L 234.195293 217.432615 
L 233.770492 217.069679 
L 233.558091 216.767169 
L 233.34569 216.701391 
L 233.133289 216.46361 
L 233.027089 215.787323 
L 232.496087 214.812 
L 232.177486 214.504004 
L 231.752684 214.430082 
L 231.540284 214.172654 
L 231.327883 213.465284 
L 230.903081 212.950588 
L 230.690681 212.061467 
L 230.58448 212.059514 
L 230.265879 211.40396 
L 229.416276 210.862212 
L 228.885274 209.945932 
L 228.672874 208.994778 
L 228.354272 208.790069 
L 228.141872 207.960669 
L 228.035671 207.802568 
L 227.61087 207.693474 
L 227.504669 207.599916 
L 226.442666 207.299507 
L 226.336465 207.204107 
L 226.230265 206.656066 
L 226.017864 205.020526 
L 225.699263 204.617078 
L 225.486862 203.926442 
L 225.168261 203.705252 
L 224.95586 203.41735 
L 224.84966 202.787854 
L 224.637259 202.517391 
L 224.531059 202.178818 
L 224.106257 201.882094 
L 223.893857 201.085084 
L 223.150454 199.593013 
L 222.831853 198.981386 
L 222.619452 198.289858 
L 222.513252 197.657844 
L 222.194651 197.556316 
L 221.98225 196.810105 
L 221.769849 196.691588 
L 221.557448 196.251574 
L 220.283044 193.685229 
L 219.964443 193.626947 
L 219.752042 192.927654 
L 218.902439 191.470776 
L 218.477638 191.217418 
L 218.159036 190.717675 
L 217.946636 190.436659 
L 217.521834 190.241132 
L 217.203233 190.101746 
L 215.716428 189.449575 
L 215.504027 189.049583 
L 215.185426 188.79631 
L 214.973025 187.706679 
L 214.123422 186.825531 
L 213.911022 186.805275 
L 213.698621 186.263235 
L 213.273819 185.615651 
L 213.061419 185.554856 
L 212.849018 184.956314 
L 212.636617 183.917979 
L 211.787014 183.653808 
L 210.937411 182.533671 
L 210.61881 181.726423 
L 210.087808 181.292503 
L 209.875407 181.007202 
L 209.132005 180.528627 
L 208.388602 178.364332 
L 207.7514 177.703784 
L 207.538999 177.159608 
L 207.326598 176.7015 
L 207.114198 176.425412 
L 206.052194 172.953256 
L 205.627392 172.898078 
L 205.414992 172.391951 
L 204.777789 171.717311 
L 204.459188 171.03731 
L 204.352988 171.034388 
L 204.140587 170.293635 
L 203.821986 170.123868 
L 203.715786 170.120136 
L 203.503385 169.952802 
L 203.397184 169.196858 
L 202.972383 169.015635 
L 202.866183 168.683513 
L 202.547581 168.668346 
L 202.335181 167.044297 
L 202.22898 166.811678 
L 201.910379 165.587947 
L 201.591778 164.981381 
L 201.485578 164.972811 
L 201.273177 164.366049 
L 201.060776 164.347656 
L 200.954576 164.040773 
L 200.635975 163.712234 
L 200.529774 163.581894 
L 199.36157 162.735242 
L 199.042969 162.081227 
L 198.724368 162.046199 
L 198.511967 161.075279 
L 198.299566 160.730281 
L 198.087166 160.188574 
L 197.237563 160.0128 
L 196.918962 159.839582 
L 196.38796 159.834122 
L 195.963158 159.710548 
L 195.750757 159.415408 
L 194.901154 159.296 
L 194.688754 158.792389 
L 194.370153 158.745371 
L 194.157752 158.23444 
L 193.945351 158.132819 
L 193.839151 157.908936 
L 193.62675 157.875413 
L 193.201948 157.177685 
L 192.989548 157.142312 
L 192.777147 156.894445 
L 192.564746 156.858292 
L 192.139945 156.140079 
L 191.927544 156.029711 
L 191.608943 155.46228 
L 191.290342 155.329006 
L 190.75934 155.154006 
L 190.653139 154.98536 
L 190.440739 154.271541 
L 190.334538 154.024119 
L 190.122138 153.904676 
L 189.591136 153.335547 
L 189.166334 153.1667 
L 188.953933 153.042981 
L 188.529132 151.852156 
L 187.99813 151.647292 
L 187.785729 151.2768 
L 187.573329 150.983639 
L 187.467128 150.957347 
L 187.254727 150.580227 
L 185.980323 150.25348 
L 185.555521 148.971109 
L 185.02452 148.567907 
L 184.705918 147.35634 
L 183.962516 147.131383 
L 183.537714 146.291964 
L 183.219113 146.190457 
L 183.006712 145.310609 
L 182.26331 144.969828 
L 181.944709 144.2137 
L 181.201306 143.950751 
L 180.988905 143.686209 
L 180.670304 143.475808 
L 180.564104 143.246547 
L 179.289699 142.282286 
L 178.971098 142.256522 
L 178.864898 142.116923 
L 178.758697 141.482227 
L 178.440096 141.154321 
L 177.909094 140.024656 
L 176.847091 139.669673 
L 176.52849 139.634143 
L 176.316089 139.436663 
L 176.103688 138.922839 
L 175.678887 138.624389 
L 175.041684 138.11615 
L 173.342478 137.853063 
L 172.917677 137.205139 
L 172.705276 136.98869 
L 172.599076 136.599864 
L 172.068074 136.556182 
L 171.643272 135.997435 
L 171.00607 135.778909 
L 170.262667 134.915368 
L 169.944066 134.267381 
L 169.837866 134.088974 
L 169.625465 132.886033 
L 169.413065 132.883071 
L 169.306864 132.577079 
L 168.457261 132.068197 
L 168.351061 131.505669 
L 168.03246 131.308168 
L 166.545654 131.260815 
L 166.120853 130.602918 
L 165.908452 130.594415 
L 165.802252 130.395234 
L 165.27125 129.913183 
L 164.952649 129.168 
L 164.421647 127.989818 
L 163.678244 127.454897 
L 163.359643 126.943736 
L 162.40384 126.367061 
L 162.191439 126.347294 
L 161.979038 126.184796 
L 160.917035 125.937231 
L 160.598433 125.686763 
L 160.386033 125.664744 
L 159.74883 125.154423 
L 159.005428 123.940838 
L 158.049624 123.739961 
L 157.306222 123.718244 
L 157.200021 123.314655 
L 156.350418 121.761715 
L 155.607016 121.720836 
L 155.394615 121.523056 
L 154.969814 120.296645 
L 154.757413 120.256973 
L 154.332611 119.841103 
L 154.120211 118.610321 
L 153.695409 118.001327 
L 153.483008 117.256173 
L 153.270608 117.030249 
L 153.058207 116.625443 
L 152.633405 116.520263 
L 151.783802 116.48671 
L 151.677602 116.369455 
L 151.359001 115.465982 
L 150.403197 114.737409 
L 150.190797 114.67669 
L 149.234993 113.535458 
L 149.128793 113.018553 
L 148.916392 112.950711 
L 148.491591 111.230405 
L 148.066789 110.676984 
L 147.854388 110.599579 
L 146.473784 110.394846 
L 146.048982 109.815765 
L 145.730381 109.585798 
L 145.199379 109.48086 
L 144.349776 109.352565 
L 144.137375 109.049071 
L 143.818774 109.025684 
L 143.606373 108.7178 
L 143.500173 108.34234 
L 141.800967 107.816727 
L 141.269965 107.689467 
L 140.845164 106.328743 
L 140.738963 106.159304 
L 140.314162 105.948676 
L 140.101761 104.884364 
L 139.78316 103.865143 
L 139.145958 103.016072 
L 138.933557 102.141246 
L 138.721156 102.01533 
L 138.614956 101.570523 
L 137.765353 101.565443 
L 137.659152 100.589984 
L 136.597149 98.553124 
L 135.747546 98.505654 
L 135.641345 98.292706 
L 135.322744 97.925687 
L 133.198737 97.489054 
L 133.092536 97.262802 
L 132.880136 97.099327 
L 132.561534 96.998742 
L 132.455334 96.471845 
L 132.136733 96.067459 
L 132.030533 94.924974 
L 131.28713 94.445419 
L 131.18093 94.198632 
L 130.756128 92.88 
L 129.800325 92.79827 
L 129.481724 92.662272 
L 129.269323 92.134957 
L 128.844521 91.724488 
L 128.313519 91.703172 
L 127.994918 91.555438 
L 126.614313 91.355165 
L 126.508113 91.071782 
L 126.189512 90.914141 
L 125.977111 90.336497 
L 125.55231 90.235317 
L 125.339909 90.004287 
L 125.021308 89.471322 
L 123.746903 88.756364 
L 123.215902 88.699765 
L 122.7911 88.192238 
L 122.6849 87.87009 
L 122.472499 87.609276 
L 122.366299 86.889057 
L 120.560892 86.772706 
L 120.242291 86.557091 
L 119.605089 85.694197 
L 119.498888 84.909862 
L 119.286488 84.608652 
L 116.419078 84.59687 
L 115.038473 84.080432 
L 114.826072 83.739429 
L 114.082669 83.738162 
L 113.976469 83.316863 
L 113.445467 82.163745 
L 111.002858 81.669818 
L 110.896658 81.198457 
L 110.471857 80.378722 
L 104.099834 80.028 
L 103.887433 78.831797 
L 103.462632 78.46009 
L 103.356431 77.838291 
L 101.657225 76.925793 
L 101.551025 76.248 
L 91.992991 75.443745 
L 91.56819 73.506462 
L 90.930988 72.9216 
L 88.382179 71.548541 
L 88.169778 70.252138 
L 87.638776 69.231885 
L 87.532576 67.694715 
L 86.576772 66.902173 
L 86.151971 65.465705 
L 82.541158 64.820093 
L 82.434958 62.208 
L 77.44354 60.48 
L 77.124939 53.568 
L 77.124939 53.568 
" clip-path="url(#pf12640aa92)" style="fill: none; stroke: #d62728; stroke-width: 1.5; stroke-linecap: square"/>
   </g>
   <g id="line2d_17">
    <path d="M 350.484703 295.088973 
L 345.068484 294.916129 
L 344.112681 294.876213 
L 336.784855 294.634444 
L 334.660848 294.544613 
L 331.262436 294.407682 
L 330.519033 294.348502 
L 321.385801 293.771258 
L 319.261793 293.60124 
L 317.456387 293.474129 
L 315.332379 293.307815 
L 310.765763 292.800241 
L 310.128561 292.682484 
L 307.792153 292.367448 
L 307.367351 292.301143 
L 305.986746 292.157393 
L 304.07514 291.867908 
L 303.013136 291.733229 
L 301.632531 291.577685 
L 301.101529 291.452008 
L 300.676728 291.234181 
L 298.658921 290.681432 
L 298.021718 290.591942 
L 297.596917 290.398024 
L 297.172115 290.287626 
L 292.9241 289.545145 
L 292.286898 289.434261 
L 291.862097 289.32816 
L 291.755896 289.256111 
L 291.331095 289.205638 
L 291.118694 289.042009 
L 289.631889 288.845008 
L 288.888486 288.528573 
L 288.251284 288.44788 
L 287.932683 288.306913 
L 287.614082 288.113016 
L 287.29548 287.953537 
L 286.552078 287.574655 
L 285.808675 287.555936 
L 285.596274 287.398034 
L 285.490074 287.386467 
L 285.277673 287.217976 
L 284.21567 287.087293 
L 284.003269 286.91806 
L 283.684668 286.868409 
L 283.259866 286.675634 
L 282.728864 286.552228 
L 282.091662 286.263174 
L 281.135859 286.139175 
L 280.817258 286.03167 
L 280.392456 285.774443 
L 279.861454 285.433482 
L 279.542853 285.399319 
L 279.330452 285.214881 
L 279.118052 285.088103 
L 278.905651 284.87969 
L 278.056048 284.641618 
L 277.843647 284.465032 
L 277.206445 284.217978 
L 276.994044 283.863833 
L 274.870037 283.323563 
L 274.657636 283.093107 
L 274.445235 283.048583 
L 274.232834 282.913891 
L 273.914233 282.814142 
L 273.595632 282.643959 
L 273.170831 282.524177 
L 273.06463 282.469012 
L 272.321228 282.33918 
L 272.108827 282.168881 
L 269.347617 280.708192 
L 268.179413 279.025962 
L 267.967012 278.900237 
L 267.648411 278.770696 
L 267.43601 278.403466 
L 267.22361 278.381786 
L 267.011209 278.043598 
L 266.798808 277.849517 
L 265.949205 277.386777 
L 265.843005 277.125642 
L 265.524404 277.028241 
L 265.205802 276.806198 
L 264.993402 276.499817 
L 264.781001 276.470329 
L 264.4624 275.80589 
L 262.869394 274.026869 
L 262.656993 273.072358 
L 262.444593 272.98735 
L 262.019791 272.705143 
L 261.488789 272.551227 
L 259.895784 270.079221 
L 259.789583 269.627077 
L 259.364782 269.283 
L 259.152381 269.138184 
L 258.93998 268.390348 
L 258.515179 268.281191 
L 258.196578 268.028008 
L 257.984177 267.607548 
L 257.559376 267.436954 
L 257.346975 267.06939 
L 257.134574 266.697135 
L 256.709773 266.652516 
L 256.391171 266.21442 
L 256.07257 266.164364 
L 255.86017 265.657001 
L 255.647769 265.360187 
L 255.541568 265.26125 
L 255.329168 264.446534 
L 254.904366 263.953321 
L 254.798166 263.650521 
L 254.585765 263.641156 
L 254.054763 262.694786 
L 253.736162 262.608308 
L 253.311361 261.893522 
L 252.567958 261.085688 
L 252.036956 261.059897 
L 251.930756 260.634062 
L 251.718355 260.446838 
L 251.505954 260.171058 
L 251.399754 259.956531 
L 251.293553 259.484409 
L 250.23155 258.174496 
L 249.594347 257.823127 
L 249.381947 257.293754 
L 249.169546 257.22668 
L 248.957145 256.613894 
L 248.638544 256.525151 
L 248.532344 256.476295 
L 248.213743 255.257836 
L 247.895141 254.711891 
L 247.57654 254.601521 
L 246.726937 254.4624 
L 246.302136 253.41045 
L 245.664934 252.005823 
L 245.558733 251.897111 
L 244.815331 250.055689 
L 244.70913 249.908459 
L 244.496729 249.112545 
L 244.390529 249.108208 
L 243.753327 247.965348 
L 243.540926 246.682526 
L 242.054121 244.826805 
L 241.416919 244.615164 
L 241.098317 244.019136 
L 240.992117 243.333216 
L 240.567316 242.896696 
L 240.354915 242.8032 
L 240.036314 240.760507 
L 239.717713 240.499781 
L 239.505312 239.660308 
L 239.399111 239.621716 
L 238.655709 238.574276 
L 238.337108 237.100016 
L 237.487505 236.519522 
L 237.275104 235.81259 
L 236.744102 235.496846 
L 236.425501 235.067197 
L 236.2131 235.008 
L 236.000699 234.498758 
L 235.575898 234.152198 
L 235.257297 233.310388 
L 234.832495 233.030452 
L 234.620095 232.738834 
L 234.407694 232.148945 
L 234.089093 231.93346 
L 233.876692 231.064349 
L 233.558091 230.884364 
L 233.23949 229.930694 
L 233.027089 229.852148 
L 232.708488 227.916618 
L 232.496087 227.842767 
L 231.434083 224.789048 
L 231.327883 224.034632 
L 231.115482 223.945764 
L 230.903081 223.597367 
L 230.690681 222.640734 
L 230.47828 222.635407 
L 230.265879 222.300865 
L 229.947278 221.875415 
L 229.734877 221.299874 
L 228.885274 220.354369 
L 228.460473 220.111257 
L 228.248072 219.77735 
L 227.929471 218.424132 
L 227.398469 217.351677 
L 227.186068 217.302575 
L 226.548866 216.888596 
L 226.124065 214.960312 
L 225.380662 214.202424 
L 225.168261 214.18234 
L 224.74346 213.286106 
L 224.106257 213.259607 
L 223.787656 212.335361 
L 223.681456 212.313263 
L 223.575256 211.450749 
L 222.938053 211.331489 
L 222.831853 211.01469 
L 222.619452 209.443339 
L 222.300851 209.233432 
L 222.08845 208.893046 
L 221.132647 207.303233 
L 220.814046 206.155748 
L 220.601645 206.070124 
L 219.964443 205.373782 
L 219.645842 204.908191 
L 219.433441 204.867148 
L 218.371437 203.697334 
L 218.265237 203.688 
L 217.946636 202.092427 
L 217.840435 202.081531 
L 217.628035 201.361655 
L 217.415634 201.229833 
L 216.990832 200.412735 
L 216.672231 200.123873 
L 216.35363 199.662545 
L 216.24743 199.478909 
L 215.928829 199.295144 
L 215.822628 198.850103 
L 214.866825 198.3396 
L 214.548224 197.16162 
L 214.442023 196.842456 
L 213.804821 196.619609 
L 213.273819 195.254185 
L 212.955218 194.848051 
L 212.742817 194.132664 
L 212.530417 193.667981 
L 212.424216 193.548833 
L 212.318016 193.131193 
L 211.787014 192.924658 
L 211.680814 192.73533 
L 211.468413 192.624378 
L 210.61881 191.485009 
L 210.194008 191.251329 
L 210.087808 191.192516 
L 209.344405 189.772274 
L 209.025804 189.439736 
L 208.707203 189.360746 
L 208.494802 188.939004 
L 208.070001 188.83056 
L 207.963801 188.241612 
L 207.645199 188.043798 
L 207.538999 187.673034 
L 207.114198 187.518725 
L 206.583196 187.139738 
L 206.370795 186.21686 
L 206.052194 185.121419 
L 205.733593 184.941775 
L 205.521192 184.671303 
L 205.308791 183.610167 
L 204.88399 181.805867 
L 204.671589 181.730198 
L 204.565389 181.387034 
L 204.352988 181.309935 
L 203.609585 181.258386 
L 203.503385 181.130927 
L 203.184784 181.101913 
L 202.972383 180.62087 
L 202.759982 178.572841 
L 202.547581 178.205184 
L 202.335181 177.691944 
L 202.01658 176.789854 
L 201.697978 176.553055 
L 201.166977 175.97334 
L 200.954576 175.131292 
L 200.848375 174.578547 
L 200.529774 174.375721 
L 200.317374 173.296855 
L 200.104973 173.294763 
L 199.892572 172.875259 
L 199.573971 172.29089 
L 199.467771 172.235907 
L 199.25537 171.751525 
L 198.936769 170.98745 
L 198.405767 170.917254 
L 198.193366 170.415894 
L 197.449963 169.098916 
L 197.131362 168.225145 
L 196.38796 167.71881 
L 196.175559 167.412706 
L 196.069359 167.170065 
L 195.856958 167.156476 
L 195.750757 166.971498 
L 195.644557 166.546439 
L 195.432156 165.38072 
L 195.113555 164.738999 
L 194.370153 164.611356 
L 193.945351 162.214001 
L 193.839151 162.201993 
L 193.62675 161.589197 
L 193.095748 160.928238 
L 192.670947 160.807164 
L 192.458546 160.712618 
L 192.139945 159.993339 
L 191.715143 159.38501 
L 191.502742 158.938148 
L 190.971741 158.29635 
L 190.75934 157.409244 
L 190.653139 157.391477 
L 190.546939 156.289005 
L 190.334538 156.104471 
L 189.909737 155.584 
L 189.803536 155.563932 
L 189.591136 155.076498 
L 189.378735 155.03498 
L 189.272535 154.788674 
L 189.060134 153.911301 
L 188.741533 153.537111 
L 188.635332 152.817231 
L 188.210531 152.251145 
L 188.10433 151.672575 
L 187.467128 151.118563 
L 187.254727 151.066222 
L 187.042327 149.789288 
L 186.936126 149.761303 
L 186.511325 148.982795 
L 185.661722 147.897177 
L 185.343121 144.915386 
L 185.23692 144.880237 
L 185.13072 144.306032 
L 184.599718 143.851846 
L 184.281117 143.097449 
L 183.962516 142.982809 
L 183.856315 142.665366 
L 183.006712 142.445686 
L 182.581911 142.192158 
L 182.475711 141.961846 
L 182.26331 141.209224 
L 181.944709 140.695693 
L 181.732308 140.61042 
L 181.519907 139.935127 
L 179.714501 139.274114 
L 179.5021 138.7755 
L 179.289699 138.579731 
L 178.971098 138.232058 
L 178.758697 137.72103 
L 178.440096 137.679258 
L 178.121495 137.216554 
L 177.484293 137.022282 
L 177.271892 136.814545 
L 177.059491 136.06682 
L 176.422289 135.860459 
L 176.316089 135.479227 
L 176.103688 135.151482 
L 175.891287 135.042783 
L 175.572686 134.095688 
L 175.254085 134.038943 
L 174.829284 133.811317 
L 174.616883 133.468183 
L 173.979681 133.463455 
L 173.87348 132.942608 
L 173.236278 132.934432 
L 173.130078 132.75764 
L 172.386675 132.569451 
L 171.643272 132.497276 
L 171.11227 132.307794 
L 170.368868 130.393946 
L 168.351061 130.120258 
L 168.03246 129.786811 
L 167.607658 129.508699 
L 166.864256 129.404991 
L 166.227053 129.108237 
L 165.37745 128.793324 
L 165.27125 128.586462 
L 164.846448 128.155119 
L 164.421647 127.989818 
L 164.315447 127.777797 
L 164.209246 127.01507 
L 163.890645 126.780632 
L 163.572044 125.983522 
L 162.722441 125.330824 
L 162.616241 125.10458 
L 161.979038 124.745143 
L 161.766638 124.283077 
L 160.492233 124.276621 
L 158.474426 123.642866 
L 158.262025 122.997955 
L 157.306222 122.625164 
L 156.987621 122.340505 
L 156.77522 120.867372 
L 156.456619 120.730563 
L 155.819417 119.297208 
L 154.01401 118.844286 
L 153.483008 117.431081 
L 153.270608 117.206069 
L 153.058207 116.802535 
L 152.952006 116.688 
L 152.845806 116.216606 
L 152.314804 115.629972 
L 151.996203 114.906742 
L 151.890003 114.785561 
L 151.1466 114.668945 
L 150.721799 114.173217 
L 149.872196 113.921208 
L 149.659795 113.666021 
L 149.341194 113.472 
L 149.234993 113.149146 
L 148.38539 112.877419 
L 148.17299 112.215273 
L 147.960589 112.143635 
L 147.748188 111.871511 
L 146.686184 111.500062 
L 146.579984 111.155186 
L 146.155182 111.000296 
L 145.942782 110.297831 
L 145.730381 110.216688 
L 145.51798 109.289596 
L 144.880778 108.816166 
L 144.562177 108.140651 
L 144.243576 107.67423 
L 144.031175 107.138035 
L 143.712574 105.984 
L 142.969171 105.512222 
L 142.75677 104.946641 
L 142.013368 104.686231 
L 141.907167 104.278727 
L 141.588566 104.230305 
L 141.482366 103.099685 
L 141.269965 102.982737 
L 141.163765 102.317622 
L 140.845164 102.258228 
L 140.738963 101.829042 
L 140.207961 101.641846 
L 140.101761 101.204757 
L 139.358358 100.370824 
L 139.252158 100.17644 
L 139.039757 99.267551 
L 138.190154 98.968536 
L 136.703349 97.947807 
L 135.322744 97.925687 
L 135.110343 97.771513 
L 133.411137 97.360818 
L 132.773935 96.870249 
L 132.349134 96.832382 
L 132.136733 96.664527 
L 131.18093 95.737541 
L 130.862328 94.698139 
L 130.437527 93.698704 
L 130.331327 92.808567 
L 129.800325 92.151732 
L 129.375523 91.745391 
L 129.056922 89.935059 
L 128.844521 89.716966 
L 127.145315 88.950857 
L 126.932915 88.364712 
L 126.720514 88.128 
L 125.65851 88.006524 
L 125.339909 87.084448 
L 124.915108 86.951226 
L 124.490306 86.437565 
L 124.384106 85.735869 
L 123.959304 85.586824 
L 123.853104 85.258627 
L 123.640703 84.986182 
L 123.322102 83.978206 
L 122.8973 83.40633 
L 122.260098 82.934012 
L 122.047697 82.222602 
L 121.835297 81.918 
L 120.136091 81.10361 
L 120.02989 80.722286 
L 119.286488 80.671071 
L 118.118284 79.931077 
L 117.905883 79.580903 
L 117.587282 78.339765 
L 115.038473 78.208 
L 111.215259 77.139692 
L 110.578057 76.938862 
L 110.153255 76.608 
L 109.728454 75.086491 
L 108.347849 74.634067 
L 108.241649 74.069695 
L 107.179645 74.021878 
L 100.913823 73.582964 
L 99.108416 73.183135 
L 98.471214 72.768 
L 91.56819 72.280044 
L 90.718587 71.852651 
L 89.975184 71.269463 
L 89.550383 70.304604 
L 88.91318 69.483789 
L 87.426375 69.460555 
L 85.93957 67.563372 
L 85.83337 65.765647 
L 84.452765 65.088 
L 81.372954 60.195945 
L 76.806338 53.568 
L 76.806338 53.568 
" clip-path="url(#pf12640aa92)" style="fill: none; stroke: #9467bd; stroke-width: 1.5; stroke-linecap: square"/>
   </g>
   <g id="patch_3">
    <path d="M 57.6 307.584 
L 57.6 41.472 
" style="fill: none; stroke: #000000; stroke-width: 0.8; stroke-linejoin: miter; stroke-linecap: square"/>
   </g>
   <g id="patch_4">
    <path d="M 414.72 307.584 
L 414.72 41.472 
" style="fill: none; stroke: #000000; stroke-width: 0.8; stroke-linejoin: miter; stroke-linecap: square"/>
   </g>
   <g id="patch_5">
    <path d="M 57.6 307.584 
L 414.72 307.584 
" style="fill: none; stroke: #000000; stroke-width: 0.8; stroke-linejoin: miter; stroke-linecap: square"/>
   </g>
   <g id="patch_6">
    <path d="M 57.6 41.472 
L 414.72 41.472 
" style="fill: none; stroke: #000000; stroke-width: 0.8; stroke-linejoin: miter; stroke-linecap: square"/>
   </g>
   <g id="text_15">
    <!-- English -->
    <g transform="translate(214.495313 35.472)scale(0.12 -0.12)">
     <defs>
      <path id="DejaVuSans-45" d="M 628 4666 
L 3578 4666 
L 3578 4134 
L 1259 4134 
L 1259 2753 
L 3481 2753 
L 3481 2222 
L 1259 2222 
L 1259 531 
L 3634 531 
L 3634 0 
L 628 0 
L 628 4666 
z
" transform="scale(0.015625)"/>
      <path id="DejaVuSans-67" d="M 2906 1791 
Q 2906 2416 2648 2759 
Q 2391 3103 1925 3103 
Q 1463 3103 1205 2759 
Q 947 2416 947 1791 
Q 947 1169 1205 825 
Q 1463 481 1925 481 
Q 2391 481 2648 825 
Q 2906 1169 2906 1791 
z
M 3481 434 
Q 3481 -459 3084 -895 
Q 2688 -1331 1869 -1331 
Q 1566 -1331 1297 -1286 
Q 1028 -1241 775 -1147 
L 775 -588 
Q 1028 -725 1275 -790 
Q 1522 -856 1778 -856 
Q 2344 -856 2625 -561 
Q 2906 -266 2906 331 
L 2906 616 
Q 2728 306 2450 153 
Q 2172 0 1784 0 
Q 1141 0 747 490 
Q 353 981 353 1791 
Q 353 2603 747 3093 
Q 1141 3584 1784 3584 
Q 2172 3584 2450 3431 
Q 2728 3278 2906 2969 
L 2906 3500 
L 3481 3500 
L 3481 434 
z
" transform="scale(0.015625)"/>
      <path id="DejaVuSans-68" d="M 3513 2113 
L 3513 0 
L 2938 0 
L 2938 2094 
Q 2938 2591 2744 2837 
Q 2550 3084 2163 3084 
Q 1697 3084 1428 2787 
Q 1159 2491 1159 1978 
L 1159 0 
L 581 0 
L 581 4863 
L 1159 4863 
L 1159 2956 
Q 1366 3272 1645 3428 
Q 1925 3584 2291 3584 
Q 2894 3584 3203 3211 
Q 3513 2838 3513 2113 
z
" transform="scale(0.015625)"/>
     </defs>
     <use xlink:href="#DejaVuSans-45"/>
     <use xlink:href="#DejaVuSans-6e" x="63.183594"/>
     <use xlink:href="#DejaVuSans-67" x="126.5625"/>
     <use xlink:href="#DejaVuSans-6c" x="190.039062"/>
     <use xlink:href="#DejaVuSans-69" x="217.822266"/>
     <use xlink:href="#DejaVuSans-73" x="245.605469"/>
     <use xlink:href="#DejaVuSans-68" x="297.705078"/>
    </g>
   </g>
   <g id="legend_1">
    <g id="patch_7">
     <path d="M 356.52625 122.862625 
L 407.72 122.862625 
Q 409.72 122.862625 409.72 120.862625 
L 409.72 48.472 
Q 409.72 46.472 407.72 46.472 
L 356.52625 46.472 
Q 354.52625 46.472 354.52625 48.472 
L 354.52625 120.862625 
Q 354.52625 122.862625 356.52625 122.862625 
z
" style="fill: #ffffff; opacity: 0.8; stroke: #cccccc; stroke-linejoin: miter"/>
    </g>
    <g id="line2d_18">
     <path d="M 358.52625 54.570438 
L 368.52625 54.570438 
L 378.52625 54.570438 
" style="fill: none; stroke: #1f77b4; stroke-width: 1.5; stroke-linecap: square"/>
    </g>
    <g id="text_16">
     <!-- K1 -->
     <g transform="translate(386.52625 58.070438)scale(0.1 -0.1)">
      <defs>
       <path id="DejaVuSans-4b" d="M 628 4666 
L 1259 4666 
L 1259 2694 
L 3353 4666 
L 4166 4666 
L 1850 2491 
L 4331 0 
L 3500 0 
L 1259 2247 
L 1259 0 
L 628 0 
L 628 4666 
z
" transform="scale(0.015625)"/>
      </defs>
      <use xlink:href="#DejaVuSans-4b"/>
      <use xlink:href="#DejaVuSans-31" x="65.576172"/>
     </g>
    </g>
    <g id="line2d_19">
     <path d="M 358.52625 69.248563 
L 368.52625 69.248563 
L 378.52625 69.248563 
" style="fill: none; stroke: #ff7f0e; stroke-width: 1.5; stroke-linecap: square"/>
    </g>
    <g id="text_17">
     <!-- K3 -->
     <g transform="translate(386.52625 72.748563)scale(0.1 -0.1)">
      <defs>
       <path id="DejaVuSans-33" d="M 2597 2516 
Q 3050 2419 3304 2112 
Q 3559 1806 3559 1356 
Q 3559 666 3084 287 
Q 2609 -91 1734 -91 
Q 1441 -91 1130 -33 
Q 819 25 488 141 
L 488 750 
Q 750 597 1062 519 
Q 1375 441 1716 441 
Q 2309 441 2620 675 
Q 2931 909 2931 1356 
Q 2931 1769 2642 2001 
Q 2353 2234 1838 2234 
L 1294 2234 
L 1294 2753 
L 1863 2753 
Q 2328 2753 2575 2939 
Q 2822 3125 2822 3475 
Q 2822 3834 2567 4026 
Q 2313 4219 1838 4219 
Q 1578 4219 1281 4162 
Q 984 4106 628 3988 
L 628 4550 
Q 988 4650 1302 4700 
Q 1616 4750 1894 4750 
Q 2613 4750 3031 4423 
Q 3450 4097 3450 3541 
Q 3450 3153 3228 2886 
Q 3006 2619 2597 2516 
z
" transform="scale(0.015625)"/>
      </defs>
      <use xlink:href="#DejaVuSans-4b"/>
      <use xlink:href="#DejaVuSans-33" x="65.576172"/>
     </g>
    </g>
    <g id="line2d_20">
     <path d="M 358.52625 83.926688 
L 368.52625 83.926688 
L 378.52625 83.926688 
" style="fill: none; stroke: #2ca02c; stroke-width: 1.5; stroke-linecap: square"/>
    </g>
    <g id="text_18">
     <!-- K5 -->
     <g transform="translate(386.52625 87.426688)scale(0.1 -0.1)">
      <defs>
       <path id="DejaVuSans-35" d="M 691 4666 
L 3169 4666 
L 3169 4134 
L 1269 4134 
L 1269 2991 
Q 1406 3038 1543 3061 
Q 1681 3084 1819 3084 
Q 2600 3084 3056 2656 
Q 3513 2228 3513 1497 
Q 3513 744 3044 326 
Q 2575 -91 1722 -91 
Q 1428 -91 1123 -41 
Q 819 9 494 109 
L 494 744 
Q 775 591 1075 516 
Q 1375 441 1709 441 
Q 2250 441 2565 725 
Q 2881 1009 2881 1497 
Q 2881 1984 2565 2268 
Q 2250 2553 1709 2553 
Q 1456 2553 1204 2497 
Q 953 2441 691 2322 
L 691 4666 
z
" transform="scale(0.015625)"/>
      </defs>
      <use xlink:href="#DejaVuSans-4b"/>
      <use xlink:href="#DejaVuSans-35" x="65.576172"/>
     </g>
    </g>
    <g id="line2d_21">
     <path d="M 358.52625 98.604813 
L 368.52625 98.604813 
L 378.52625 98.604813 
" style="fill: none; stroke: #d62728; stroke-width: 1.5; stroke-linecap: square"/>
    </g>
    <g id="text_19">
     <!-- K7 -->
     <g transform="translate(386.52625 102.104813)scale(0.1 -0.1)">
      <defs>
       <path id="DejaVuSans-37" d="M 525 4666 
L 3525 4666 
L 3525 4397 
L 1831 0 
L 1172 0 
L 2766 4134 
L 525 4134 
L 525 4666 
z
" transform="scale(0.015625)"/>
      </defs>
      <use xlink:href="#DejaVuSans-4b"/>
      <use xlink:href="#DejaVuSans-37" x="65.576172"/>
     </g>
    </g>
    <g id="line2d_22">
     <path d="M 358.52625 113.282938 
L 368.52625 113.282938 
L 378.52625 113.282938 
" style="fill: none; stroke: #9467bd; stroke-width: 1.5; stroke-linecap: square"/>
    </g>
    <g id="text_20">
     <!-- Kinf -->
     <g transform="translate(386.52625 116.782938)scale(0.1 -0.1)">
      <defs>
       <path id="DejaVuSans-66" d="M 2375 4863 
L 2375 4384 
L 1825 4384 
Q 1516 4384 1395 4259 
Q 1275 4134 1275 3809 
L 1275 3500 
L 2222 3500 
L 2222 3053 
L 1275 3053 
L 1275 0 
L 697 0 
L 697 3053 
L 147 3053 
L 147 3500 
L 697 3500 
L 697 3744 
Q 697 4328 969 4595 
Q 1241 4863 1831 4863 
L 2375 4863 
z
" transform="scale(0.015625)"/>
      </defs>
      <use xlink:href="#DejaVuSans-4b"/>
      <use xlink:href="#DejaVuSans-69" x="65.576172"/>
      <use xlink:href="#DejaVuSans-6e" x="93.359375"/>
      <use xlink:href="#DejaVuSans-66" x="156.738281"/>
     </g>
    </g>
   </g>
  </g>
 </g>
 <defs>
  <clipPath id="pf12640aa92">
   <rect x="57.6" y="41.472" width="357.12" height="266.112"/>
  </clipPath>
 </defs>
</svg>
