<?xml version="1.0" encoding="utf-8" standalone="no"?>
<!DOCTYPE svg PUBLIC "-//W3C//DTD SVG 1.1//EN"
  "http://www.w3.org/Graphics/SVG/1.1/DTD/svg11.dtd">
<svg xmlns:xlink="http://www.w3.org/1999/xlink" width="460.8pt" height="345.6pt" viewBox="0 0 460.8 345.6" xmlns="http://www.w3.org/2000/svg" version="1.1">
 <metadata>
  <rdf:RDF xmlns:dc="http://purl.org/dc/elements/1.1/" xmlns:cc="http://creativecommons.org/ns#" xmlns:rdf="http://www.w3.org/1999/02/22-rdf-syntax-ns#">
   <cc:Work>
    <dc:type rdf:resource="http://purl.org/dc/dcmitype/StillImage"/>
    <dc:date>2024-04-08T13:43:05.190696</dc:date>
    <dc:format>image/svg+xml</dc:format>
    <dc:creator>
     <cc:Agent>
      <dc:title>Matplotlib v3.5.1, https://matplotlib.org/</dc:title>
     </cc:Agent>
    </dc:creator>
   </cc:Work>
  </rdf:RDF>
 </metadata>
 <defs>
  <style type="text/css">*{stroke-linejoin: round; stroke-linecap: butt}</style>
 </defs>
 <g id="figure_1">
  <g id="patch_1">
   <path d="M 0 345.6 
L 460.8 345.6 
L 460.8 0 
L 0 0 
z
" style="fill: #ffffff"/>
  </g>
  <g id="axes_1">
   <g id="patch_2">
    <path d="M 57.6 307.584 
L 414.72 307.584 
L 414.72 41.472 
L 57.6 41.472 
z
" style="fill: #ffffff"/>
   </g>
   <g id="matplotlib.axis_1">
    <g id="xtick_1">
     <g id="line2d_1">
      <defs>
       <path id="m601c28e867" d="M 0 0 
L 0 3.5 
" style="stroke: #000000; stroke-width: 0.8"/>
      </defs>
      <g>
       <use xlink:href="#m601c28e867" x="73.832727" y="307.584" style="stroke: #000000; stroke-width: 0.8"/>
      </g>
     </g>
     <g id="text_1">
      <!-- 0.0 -->
      <g transform="translate(65.881165 322.182437)scale(0.1 -0.1)">
       <defs>
        <path id="DejaVuSans-30" d="M 2034 4250 
Q 1547 4250 1301 3770 
Q 1056 3291 1056 2328 
Q 1056 1369 1301 889 
Q 1547 409 2034 409 
Q 2525 409 2770 889 
Q 3016 1369 3016 2328 
Q 3016 3291 2770 3770 
Q 2525 4250 2034 4250 
z
M 2034 4750 
Q 2819 4750 3233 4129 
Q 3647 3509 3647 2328 
Q 3647 1150 3233 529 
Q 2819 -91 2034 -91 
Q 1250 -91 836 529 
Q 422 1150 422 2328 
Q 422 3509 836 4129 
Q 1250 4750 2034 4750 
z
" transform="scale(0.015625)"/>
        <path id="DejaVuSans-2e" d="M 684 794 
L 1344 794 
L 1344 0 
L 684 0 
L 684 794 
z
" transform="scale(0.015625)"/>
       </defs>
       <use xlink:href="#DejaVuSans-30"/>
       <use xlink:href="#DejaVuSans-2e" x="63.623047"/>
       <use xlink:href="#DejaVuSans-30" x="95.410156"/>
      </g>
     </g>
    </g>
    <g id="xtick_2">
     <g id="line2d_2">
      <g>
       <use xlink:href="#m601c28e867" x="138.763636" y="307.584" style="stroke: #000000; stroke-width: 0.8"/>
      </g>
     </g>
     <g id="text_2">
      <!-- 0.2 -->
      <g transform="translate(130.812074 322.182437)scale(0.1 -0.1)">
       <defs>
        <path id="DejaVuSans-32" d="M 1228 531 
L 3431 531 
L 3431 0 
L 469 0 
L 469 531 
Q 828 903 1448 1529 
Q 2069 2156 2228 2338 
Q 2531 2678 2651 2914 
Q 2772 3150 2772 3378 
Q 2772 3750 2511 3984 
Q 2250 4219 1831 4219 
Q 1534 4219 1204 4116 
Q 875 4013 500 3803 
L 500 4441 
Q 881 4594 1212 4672 
Q 1544 4750 1819 4750 
Q 2544 4750 2975 4387 
Q 3406 4025 3406 3419 
Q 3406 3131 3298 2873 
Q 3191 2616 2906 2266 
Q 2828 2175 2409 1742 
Q 1991 1309 1228 531 
z
" transform="scale(0.015625)"/>
       </defs>
       <use xlink:href="#DejaVuSans-30"/>
       <use xlink:href="#DejaVuSans-2e" x="63.623047"/>
       <use xlink:href="#DejaVuSans-32" x="95.410156"/>
      </g>
     </g>
    </g>
    <g id="xtick_3">
     <g id="line2d_3">
      <g>
       <use xlink:href="#m601c28e867" x="203.694545" y="307.584" style="stroke: #000000; stroke-width: 0.8"/>
      </g>
     </g>
     <g id="text_3">
      <!-- 0.4 -->
      <g transform="translate(195.742983 322.182437)scale(0.1 -0.1)">
       <defs>
        <path id="DejaVuSans-34" d="M 2419 4116 
L 825 1625 
L 2419 1625 
L 2419 4116 
z
M 2253 4666 
L 3047 4666 
L 3047 1625 
L 3713 1625 
L 3713 1100 
L 3047 1100 
L 3047 0 
L 2419 0 
L 2419 1100 
L 313 1100 
L 313 1709 
L 2253 4666 
z
" transform="scale(0.015625)"/>
       </defs>
       <use xlink:href="#DejaVuSans-30"/>
       <use xlink:href="#DejaVuSans-2e" x="63.623047"/>
       <use xlink:href="#DejaVuSans-34" x="95.410156"/>
      </g>
     </g>
    </g>
    <g id="xtick_4">
     <g id="line2d_4">
      <g>
       <use xlink:href="#m601c28e867" x="268.625455" y="307.584" style="stroke: #000000; stroke-width: 0.8"/>
      </g>
     </g>
     <g id="text_4">
      <!-- 0.6 -->
      <g transform="translate(260.673892 322.182437)scale(0.1 -0.1)">
       <defs>
        <path id="DejaVuSans-36" d="M 2113 2584 
Q 1688 2584 1439 2293 
Q 1191 2003 1191 1497 
Q 1191 994 1439 701 
Q 1688 409 2113 409 
Q 2538 409 2786 701 
Q 3034 994 3034 1497 
Q 3034 2003 2786 2293 
Q 2538 2584 2113 2584 
z
M 3366 4563 
L 3366 3988 
Q 3128 4100 2886 4159 
Q 2644 4219 2406 4219 
Q 1781 4219 1451 3797 
Q 1122 3375 1075 2522 
Q 1259 2794 1537 2939 
Q 1816 3084 2150 3084 
Q 2853 3084 3261 2657 
Q 3669 2231 3669 1497 
Q 3669 778 3244 343 
Q 2819 -91 2113 -91 
Q 1303 -91 875 529 
Q 447 1150 447 2328 
Q 447 3434 972 4092 
Q 1497 4750 2381 4750 
Q 2619 4750 2861 4703 
Q 3103 4656 3366 4563 
z
" transform="scale(0.015625)"/>
       </defs>
       <use xlink:href="#DejaVuSans-30"/>
       <use xlink:href="#DejaVuSans-2e" x="63.623047"/>
       <use xlink:href="#DejaVuSans-36" x="95.410156"/>
      </g>
     </g>
    </g>
    <g id="xtick_5">
     <g id="line2d_5">
      <g>
       <use xlink:href="#m601c28e867" x="333.556364" y="307.584" style="stroke: #000000; stroke-width: 0.8"/>
      </g>
     </g>
     <g id="text_5">
      <!-- 0.8 -->
      <g transform="translate(325.604801 322.182437)scale(0.1 -0.1)">
       <defs>
        <path id="DejaVuSans-38" d="M 2034 2216 
Q 1584 2216 1326 1975 
Q 1069 1734 1069 1313 
Q 1069 891 1326 650 
Q 1584 409 2034 409 
Q 2484 409 2743 651 
Q 3003 894 3003 1313 
Q 3003 1734 2745 1975 
Q 2488 2216 2034 2216 
z
M 1403 2484 
Q 997 2584 770 2862 
Q 544 3141 544 3541 
Q 544 4100 942 4425 
Q 1341 4750 2034 4750 
Q 2731 4750 3128 4425 
Q 3525 4100 3525 3541 
Q 3525 3141 3298 2862 
Q 3072 2584 2669 2484 
Q 3125 2378 3379 2068 
Q 3634 1759 3634 1313 
Q 3634 634 3220 271 
Q 2806 -91 2034 -91 
Q 1263 -91 848 271 
Q 434 634 434 1313 
Q 434 1759 690 2068 
Q 947 2378 1403 2484 
z
M 1172 3481 
Q 1172 3119 1398 2916 
Q 1625 2713 2034 2713 
Q 2441 2713 2670 2916 
Q 2900 3119 2900 3481 
Q 2900 3844 2670 4047 
Q 2441 4250 2034 4250 
Q 1625 4250 1398 4047 
Q 1172 3844 1172 3481 
z
" transform="scale(0.015625)"/>
       </defs>
       <use xlink:href="#DejaVuSans-30"/>
       <use xlink:href="#DejaVuSans-2e" x="63.623047"/>
       <use xlink:href="#DejaVuSans-38" x="95.410156"/>
      </g>
     </g>
    </g>
    <g id="xtick_6">
     <g id="line2d_6">
      <g>
       <use xlink:href="#m601c28e867" x="398.487273" y="307.584" style="stroke: #000000; stroke-width: 0.8"/>
      </g>
     </g>
     <g id="text_6">
      <!-- 1.0 -->
      <g transform="translate(390.53571 322.182437)scale(0.1 -0.1)">
       <defs>
        <path id="DejaVuSans-31" d="M 794 531 
L 1825 531 
L 1825 4091 
L 703 3866 
L 703 4441 
L 1819 4666 
L 2450 4666 
L 2450 531 
L 3481 531 
L 3481 0 
L 794 0 
L 794 531 
z
" transform="scale(0.015625)"/>
       </defs>
       <use xlink:href="#DejaVuSans-31"/>
       <use xlink:href="#DejaVuSans-2e" x="63.623047"/>
       <use xlink:href="#DejaVuSans-30" x="95.410156"/>
      </g>
     </g>
    </g>
    <g id="text_7">
     <!-- Recall -->
     <g transform="translate(221.242812 335.860562)scale(0.1 -0.1)">
      <defs>
       <path id="DejaVuSans-52" d="M 2841 2188 
Q 3044 2119 3236 1894 
Q 3428 1669 3622 1275 
L 4263 0 
L 3584 0 
L 2988 1197 
Q 2756 1666 2539 1819 
Q 2322 1972 1947 1972 
L 1259 1972 
L 1259 0 
L 628 0 
L 628 4666 
L 2053 4666 
Q 2853 4666 3247 4331 
Q 3641 3997 3641 3322 
Q 3641 2881 3436 2590 
Q 3231 2300 2841 2188 
z
M 1259 4147 
L 1259 2491 
L 2053 2491 
Q 2509 2491 2742 2702 
Q 2975 2913 2975 3322 
Q 2975 3731 2742 3939 
Q 2509 4147 2053 4147 
L 1259 4147 
z
" transform="scale(0.015625)"/>
       <path id="DejaVuSans-65" d="M 3597 1894 
L 3597 1613 
L 953 1613 
Q 991 1019 1311 708 
Q 1631 397 2203 397 
Q 2534 397 2845 478 
Q 3156 559 3463 722 
L 3463 178 
Q 3153 47 2828 -22 
Q 2503 -91 2169 -91 
Q 1331 -91 842 396 
Q 353 884 353 1716 
Q 353 2575 817 3079 
Q 1281 3584 2069 3584 
Q 2775 3584 3186 3129 
Q 3597 2675 3597 1894 
z
M 3022 2063 
Q 3016 2534 2758 2815 
Q 2500 3097 2075 3097 
Q 1594 3097 1305 2825 
Q 1016 2553 972 2059 
L 3022 2063 
z
" transform="scale(0.015625)"/>
       <path id="DejaVuSans-63" d="M 3122 3366 
L 3122 2828 
Q 2878 2963 2633 3030 
Q 2388 3097 2138 3097 
Q 1578 3097 1268 2742 
Q 959 2388 959 1747 
Q 959 1106 1268 751 
Q 1578 397 2138 397 
Q 2388 397 2633 464 
Q 2878 531 3122 666 
L 3122 134 
Q 2881 22 2623 -34 
Q 2366 -91 2075 -91 
Q 1284 -91 818 406 
Q 353 903 353 1747 
Q 353 2603 823 3093 
Q 1294 3584 2113 3584 
Q 2378 3584 2631 3529 
Q 2884 3475 3122 3366 
z
" transform="scale(0.015625)"/>
       <path id="DejaVuSans-61" d="M 2194 1759 
Q 1497 1759 1228 1600 
Q 959 1441 959 1056 
Q 959 750 1161 570 
Q 1363 391 1709 391 
Q 2188 391 2477 730 
Q 2766 1069 2766 1631 
L 2766 1759 
L 2194 1759 
z
M 3341 1997 
L 3341 0 
L 2766 0 
L 2766 531 
Q 2569 213 2275 61 
Q 1981 -91 1556 -91 
Q 1019 -91 701 211 
Q 384 513 384 1019 
Q 384 1609 779 1909 
Q 1175 2209 1959 2209 
L 2766 2209 
L 2766 2266 
Q 2766 2663 2505 2880 
Q 2244 3097 1772 3097 
Q 1472 3097 1187 3025 
Q 903 2953 641 2809 
L 641 3341 
Q 956 3463 1253 3523 
Q 1550 3584 1831 3584 
Q 2591 3584 2966 3190 
Q 3341 2797 3341 1997 
z
" transform="scale(0.015625)"/>
       <path id="DejaVuSans-6c" d="M 603 4863 
L 1178 4863 
L 1178 0 
L 603 0 
L 603 4863 
z
" transform="scale(0.015625)"/>
      </defs>
      <use xlink:href="#DejaVuSans-52"/>
      <use xlink:href="#DejaVuSans-65" x="64.982422"/>
      <use xlink:href="#DejaVuSans-63" x="126.505859"/>
      <use xlink:href="#DejaVuSans-61" x="181.486328"/>
      <use xlink:href="#DejaVuSans-6c" x="242.765625"/>
      <use xlink:href="#DejaVuSans-6c" x="270.548828"/>
     </g>
    </g>
   </g>
   <g id="matplotlib.axis_2">
    <g id="ytick_1">
     <g id="line2d_7">
      <defs>
       <path id="mb866d0cd02" d="M 0 0 
L -3.5 0 
" style="stroke: #000000; stroke-width: 0.8"/>
      </defs>
      <g>
       <use xlink:href="#mb866d0cd02" x="57.6" y="295.488" style="stroke: #000000; stroke-width: 0.8"/>
      </g>
     </g>
     <g id="text_8">
      <!-- 0.0 -->
      <g transform="translate(34.696875 299.287219)scale(0.1 -0.1)">
       <use xlink:href="#DejaVuSans-30"/>
       <use xlink:href="#DejaVuSans-2e" x="63.623047"/>
       <use xlink:href="#DejaVuSans-30" x="95.410156"/>
      </g>
     </g>
    </g>
    <g id="ytick_2">
     <g id="line2d_8">
      <g>
       <use xlink:href="#mb866d0cd02" x="57.6" y="247.104" style="stroke: #000000; stroke-width: 0.8"/>
      </g>
     </g>
     <g id="text_9">
      <!-- 0.2 -->
      <g transform="translate(34.696875 250.903219)scale(0.1 -0.1)">
       <use xlink:href="#DejaVuSans-30"/>
       <use xlink:href="#DejaVuSans-2e" x="63.623047"/>
       <use xlink:href="#DejaVuSans-32" x="95.410156"/>
      </g>
     </g>
    </g>
    <g id="ytick_3">
     <g id="line2d_9">
      <g>
       <use xlink:href="#mb866d0cd02" x="57.6" y="198.72" style="stroke: #000000; stroke-width: 0.8"/>
      </g>
     </g>
     <g id="text_10">
      <!-- 0.4 -->
      <g transform="translate(34.696875 202.519219)scale(0.1 -0.1)">
       <use xlink:href="#DejaVuSans-30"/>
       <use xlink:href="#DejaVuSans-2e" x="63.623047"/>
       <use xlink:href="#DejaVuSans-34" x="95.410156"/>
      </g>
     </g>
    </g>
    <g id="ytick_4">
     <g id="line2d_10">
      <g>
       <use xlink:href="#mb866d0cd02" x="57.6" y="150.336" style="stroke: #000000; stroke-width: 0.8"/>
      </g>
     </g>
     <g id="text_11">
      <!-- 0.6 -->
      <g transform="translate(34.696875 154.135219)scale(0.1 -0.1)">
       <use xlink:href="#DejaVuSans-30"/>
       <use xlink:href="#DejaVuSans-2e" x="63.623047"/>
       <use xlink:href="#DejaVuSans-36" x="95.410156"/>
      </g>
     </g>
    </g>
    <g id="ytick_5">
     <g id="line2d_11">
      <g>
       <use xlink:href="#mb866d0cd02" x="57.6" y="101.952" style="stroke: #000000; stroke-width: 0.8"/>
      </g>
     </g>
     <g id="text_12">
      <!-- 0.8 -->
      <g transform="translate(34.696875 105.751219)scale(0.1 -0.1)">
       <use xlink:href="#DejaVuSans-30"/>
       <use xlink:href="#DejaVuSans-2e" x="63.623047"/>
       <use xlink:href="#DejaVuSans-38" x="95.410156"/>
      </g>
     </g>
    </g>
    <g id="ytick_6">
     <g id="line2d_12">
      <g>
       <use xlink:href="#mb866d0cd02" x="57.6" y="53.568" style="stroke: #000000; stroke-width: 0.8"/>
      </g>
     </g>
     <g id="text_13">
      <!-- 1.0 -->
      <g transform="translate(34.696875 57.367219)scale(0.1 -0.1)">
       <use xlink:href="#DejaVuSans-31"/>
       <use xlink:href="#DejaVuSans-2e" x="63.623047"/>
       <use xlink:href="#DejaVuSans-30" x="95.410156"/>
      </g>
     </g>
    </g>
    <g id="text_14">
     <!-- Precision -->
     <g transform="translate(28.617187 196.835031)rotate(-90)scale(0.1 -0.1)">
      <defs>
       <path id="DejaVuSans-50" d="M 1259 4147 
L 1259 2394 
L 2053 2394 
Q 2494 2394 2734 2622 
Q 2975 2850 2975 3272 
Q 2975 3691 2734 3919 
Q 2494 4147 2053 4147 
L 1259 4147 
z
M 628 4666 
L 2053 4666 
Q 2838 4666 3239 4311 
Q 3641 3956 3641 3272 
Q 3641 2581 3239 2228 
Q 2838 1875 2053 1875 
L 1259 1875 
L 1259 0 
L 628 0 
L 628 4666 
z
" transform="scale(0.015625)"/>
       <path id="DejaVuSans-72" d="M 2631 2963 
Q 2534 3019 2420 3045 
Q 2306 3072 2169 3072 
Q 1681 3072 1420 2755 
Q 1159 2438 1159 1844 
L 1159 0 
L 581 0 
L 581 3500 
L 1159 3500 
L 1159 2956 
Q 1341 3275 1631 3429 
Q 1922 3584 2338 3584 
Q 2397 3584 2469 3576 
Q 2541 3569 2628 3553 
L 2631 2963 
z
" transform="scale(0.015625)"/>
       <path id="DejaVuSans-69" d="M 603 3500 
L 1178 3500 
L 1178 0 
L 603 0 
L 603 3500 
z
M 603 4863 
L 1178 4863 
L 1178 4134 
L 603 4134 
L 603 4863 
z
" transform="scale(0.015625)"/>
       <path id="DejaVuSans-73" d="M 2834 3397 
L 2834 2853 
Q 2591 2978 2328 3040 
Q 2066 3103 1784 3103 
Q 1356 3103 1142 2972 
Q 928 2841 928 2578 
Q 928 2378 1081 2264 
Q 1234 2150 1697 2047 
L 1894 2003 
Q 2506 1872 2764 1633 
Q 3022 1394 3022 966 
Q 3022 478 2636 193 
Q 2250 -91 1575 -91 
Q 1294 -91 989 -36 
Q 684 19 347 128 
L 347 722 
Q 666 556 975 473 
Q 1284 391 1588 391 
Q 1994 391 2212 530 
Q 2431 669 2431 922 
Q 2431 1156 2273 1281 
Q 2116 1406 1581 1522 
L 1381 1569 
Q 847 1681 609 1914 
Q 372 2147 372 2553 
Q 372 3047 722 3315 
Q 1072 3584 1716 3584 
Q 2034 3584 2315 3537 
Q 2597 3491 2834 3397 
z
" transform="scale(0.015625)"/>
       <path id="DejaVuSans-6f" d="M 1959 3097 
Q 1497 3097 1228 2736 
Q 959 2375 959 1747 
Q 959 1119 1226 758 
Q 1494 397 1959 397 
Q 2419 397 2687 759 
Q 2956 1122 2956 1747 
Q 2956 2369 2687 2733 
Q 2419 3097 1959 3097 
z
M 1959 3584 
Q 2709 3584 3137 3096 
Q 3566 2609 3566 1747 
Q 3566 888 3137 398 
Q 2709 -91 1959 -91 
Q 1206 -91 779 398 
Q 353 888 353 1747 
Q 353 2609 779 3096 
Q 1206 3584 1959 3584 
z
" transform="scale(0.015625)"/>
       <path id="DejaVuSans-6e" d="M 3513 2113 
L 3513 0 
L 2938 0 
L 2938 2094 
Q 2938 2591 2744 2837 
Q 2550 3084 2163 3084 
Q 1697 3084 1428 2787 
Q 1159 2491 1159 1978 
L 1159 0 
L 581 0 
L 581 3500 
L 1159 3500 
L 1159 2956 
Q 1366 3272 1645 3428 
Q 1925 3584 2291 3584 
Q 2894 3584 3203 3211 
Q 3513 2838 3513 2113 
z
" transform="scale(0.015625)"/>
      </defs>
      <use xlink:href="#DejaVuSans-50"/>
      <use xlink:href="#DejaVuSans-72" x="58.552734"/>
      <use xlink:href="#DejaVuSans-65" x="97.416016"/>
      <use xlink:href="#DejaVuSans-63" x="158.939453"/>
      <use xlink:href="#DejaVuSans-69" x="213.919922"/>
      <use xlink:href="#DejaVuSans-73" x="241.703125"/>
      <use xlink:href="#DejaVuSans-69" x="293.802734"/>
      <use xlink:href="#DejaVuSans-6f" x="321.585938"/>
      <use xlink:href="#DejaVuSans-6e" x="382.767578"/>
     </g>
    </g>
   </g>
   <g id="line2d_13">
    <path d="M 350.484703 295.088973 
L 345.068484 294.916129 
L 344.112681 294.876213 
L 336.784855 294.634444 
L 334.660848 294.544613 
L 331.262436 294.407682 
L 330.519033 294.348502 
L 321.385801 293.771258 
L 319.261793 293.60124 
L 317.456387 293.474129 
L 315.332379 293.307815 
L 310.765763 292.800241 
L 310.128561 292.682484 
L 307.792153 292.367448 
L 307.367351 292.301143 
L 305.986746 292.157393 
L 304.07514 291.867908 
L 303.013136 291.733229 
L 301.632531 291.577685 
L 301.101529 291.452008 
L 300.676728 291.234181 
L 298.658921 290.681432 
L 298.021718 290.591942 
L 297.596917 290.398024 
L 297.172115 290.287626 
L 292.9241 289.545145 
L 292.286898 289.434261 
L 291.862097 289.32816 
L 291.755896 289.256111 
L 291.331095 289.205638 
L 291.118694 289.042009 
L 289.631889 288.845008 
L 288.888486 288.528573 
L 288.251284 288.44788 
L 287.932683 288.306913 
L 287.614082 288.113016 
L 287.29548 287.953537 
L 286.552078 287.574655 
L 285.808675 287.555936 
L 285.596274 287.398034 
L 285.490074 287.386467 
L 285.277673 287.217976 
L 284.21567 287.087293 
L 284.003269 286.91806 
L 283.684668 286.868409 
L 283.259866 286.675634 
L 282.728864 286.552228 
L 282.091662 286.263174 
L 281.135859 286.139175 
L 280.817258 286.03167 
L 280.392456 285.774443 
L 279.861454 285.433482 
L 279.542853 285.399319 
L 279.330452 285.214881 
L 279.118052 285.088103 
L 278.905651 284.87969 
L 278.056048 284.641618 
L 277.843647 284.465032 
L 277.206445 284.217978 
L 276.994044 283.863833 
L 274.870037 283.323563 
L 274.657636 283.093107 
L 274.445235 283.048583 
L 274.232834 282.913891 
L 273.914233 282.814142 
L 273.595632 282.643959 
L 273.170831 282.524177 
L 273.06463 282.469012 
L 272.321228 282.33918 
L 272.108827 282.168881 
L 269.347617 280.708192 
L 268.179413 279.025962 
L 267.967012 278.900237 
L 267.648411 278.770696 
L 267.43601 278.403466 
L 267.22361 278.381786 
L 267.011209 278.043598 
L 266.798808 277.849517 
L 265.949205 277.386777 
L 265.843005 277.125642 
L 265.524404 277.028241 
L 265.205802 276.806198 
L 264.993402 276.499817 
L 264.781001 276.470329 
L 264.4624 275.80589 
L 262.869394 274.026869 
L 262.656993 273.072358 
L 262.444593 272.98735 
L 262.019791 272.705143 
L 261.488789 272.551227 
L 259.895784 270.079221 
L 259.789583 269.627077 
L 259.364782 269.283 
L 259.152381 269.138184 
L 258.93998 268.390348 
L 258.515179 268.281191 
L 258.196578 268.028008 
L 257.984177 267.607548 
L 257.559376 267.436954 
L 257.346975 267.06939 
L 257.134574 266.697135 
L 256.709773 266.652516 
L 256.391171 266.21442 
L 256.07257 266.164364 
L 255.86017 265.657001 
L 255.647769 265.360187 
L 255.541568 265.26125 
L 255.329168 264.446534 
L 254.904366 263.953321 
L 254.798166 263.650521 
L 254.585765 263.641156 
L 254.054763 262.694786 
L 253.736162 262.608308 
L 253.311361 261.893522 
L 252.567958 261.085688 
L 252.036956 261.059897 
L 251.930756 260.634062 
L 251.718355 260.446838 
L 251.505954 260.171058 
L 251.399754 259.956531 
L 251.293553 259.484409 
L 250.23155 258.174496 
L 249.594347 257.823127 
L 249.381947 257.293754 
L 249.169546 257.22668 
L 248.957145 256.613894 
L 248.638544 256.525151 
L 248.532344 256.476295 
L 248.213743 255.257836 
L 247.895141 254.711891 
L 247.57654 254.601521 
L 246.726937 254.4624 
L 246.302136 253.41045 
L 245.664934 252.005823 
L 245.558733 251.897111 
L 244.815331 250.055689 
L 244.70913 249.908459 
L 244.496729 249.112545 
L 244.390529 249.108208 
L 243.753327 247.965348 
L 243.540926 246.682526 
L 242.054121 244.826805 
L 241.416919 244.615164 
L 241.098317 244.019136 
L 240.992117 243.333216 
L 240.567316 242.896696 
L 240.354915 242.8032 
L 240.036314 240.760507 
L 239.717713 240.499781 
L 239.505312 239.660308 
L 239.399111 239.621716 
L 238.655709 238.574276 
L 238.337108 237.100016 
L 237.487505 236.519522 
L 237.275104 235.81259 
L 236.744102 235.496846 
L 236.425501 235.067197 
L 236.2131 235.008 
L 236.000699 234.498758 
L 235.575898 234.152198 
L 235.257297 233.310388 
L 234.832495 233.030452 
L 234.620095 232.738834 
L 234.407694 232.148945 
L 234.089093 231.93346 
L 233.876692 231.064349 
L 233.558091 230.884364 
L 233.23949 229.930694 
L 233.027089 229.852148 
L 232.708488 227.916618 
L 232.496087 227.842767 
L 231.434083 224.789048 
L 231.327883 224.034632 
L 231.115482 223.945764 
L 230.903081 223.597367 
L 230.690681 222.640734 
L 230.47828 222.635407 
L 230.265879 222.300865 
L 229.947278 221.875415 
L 229.734877 221.299874 
L 228.885274 220.354369 
L 228.460473 220.111257 
L 228.248072 219.77735 
L 227.929471 218.424132 
L 227.398469 217.351677 
L 227.186068 217.302575 
L 226.548866 216.888596 
L 226.124065 214.960312 
L 225.380662 214.202424 
L 225.168261 214.18234 
L 224.74346 213.286106 
L 224.106257 213.259607 
L 223.787656 212.335361 
L 223.681456 212.313263 
L 223.575256 211.450749 
L 222.938053 211.331489 
L 222.831853 211.01469 
L 222.619452 209.443339 
L 222.300851 209.233432 
L 222.08845 208.893046 
L 221.132647 207.303233 
L 220.814046 206.155748 
L 220.601645 206.070124 
L 219.964443 205.373782 
L 219.645842 204.908191 
L 219.433441 204.867148 
L 218.371437 203.697334 
L 218.265237 203.688 
L 217.946636 202.092427 
L 217.840435 202.081531 
L 217.628035 201.361655 
L 217.415634 201.229833 
L 216.990832 200.412735 
L 216.672231 200.123873 
L 216.35363 199.662545 
L 216.24743 199.478909 
L 215.928829 199.295144 
L 215.822628 198.850103 
L 214.866825 198.3396 
L 214.548224 197.16162 
L 214.442023 196.842456 
L 213.804821 196.619609 
L 213.273819 195.254185 
L 212.955218 194.848051 
L 212.742817 194.132664 
L 212.530417 193.667981 
L 212.424216 193.548833 
L 212.318016 193.131193 
L 211.787014 192.924658 
L 211.680814 192.73533 
L 211.468413 192.624378 
L 210.61881 191.485009 
L 210.194008 191.251329 
L 210.087808 191.192516 
L 209.344405 189.772274 
L 209.025804 189.439736 
L 208.707203 189.360746 
L 208.494802 188.939004 
L 208.070001 188.83056 
L 207.963801 188.241612 
L 207.645199 188.043798 
L 207.538999 187.673034 
L 207.114198 187.518725 
L 206.583196 187.139738 
L 206.370795 186.21686 
L 206.052194 185.121419 
L 205.733593 184.941775 
L 205.521192 184.671303 
L 205.308791 183.610167 
L 204.88399 181.805867 
L 204.671589 181.730198 
L 204.565389 181.387034 
L 204.352988 181.309935 
L 203.609585 181.258386 
L 203.503385 181.130927 
L 203.184784 181.101913 
L 202.972383 180.62087 
L 202.759982 178.572841 
L 202.547581 178.205184 
L 202.335181 177.691944 
L 202.01658 176.789854 
L 201.697978 176.553055 
L 201.166977 175.97334 
L 200.954576 175.131292 
L 200.848375 174.578547 
L 200.529774 174.375721 
L 200.317374 173.296855 
L 200.104973 173.294763 
L 199.892572 172.875259 
L 199.573971 172.29089 
L 199.467771 172.235907 
L 199.25537 171.751525 
L 198.936769 170.98745 
L 198.405767 170.917254 
L 198.193366 170.415894 
L 197.449963 169.098916 
L 197.131362 168.225145 
L 196.38796 167.71881 
L 196.175559 167.412706 
L 196.069359 167.170065 
L 195.856958 167.156476 
L 195.750757 166.971498 
L 195.644557 166.546439 
L 195.432156 165.38072 
L 195.113555 164.738999 
L 194.370153 164.611356 
L 193.945351 162.214001 
L 193.839151 162.201993 
L 193.62675 161.589197 
L 193.095748 160.928238 
L 192.670947 160.807164 
L 192.458546 160.712618 
L 192.139945 159.993339 
L 191.715143 159.38501 
L 191.502742 158.938148 
L 190.971741 158.29635 
L 190.75934 157.409244 
L 190.653139 157.391477 
L 190.546939 156.289005 
L 190.334538 156.104471 
L 189.909737 155.584 
L 189.803536 155.563932 
L 189.591136 155.076498 
L 189.378735 155.03498 
L 189.272535 154.788674 
L 189.060134 153.911301 
L 188.741533 153.537111 
L 188.635332 152.817231 
L 188.210531 152.251145 
L 188.10433 151.672575 
L 187.467128 151.118563 
L 187.254727 151.066222 
L 187.042327 149.789288 
L 186.936126 149.761303 
L 186.511325 148.982795 
L 185.661722 147.897177 
L 185.343121 144.915386 
L 185.23692 144.880237 
L 185.13072 144.306032 
L 184.599718 143.851846 
L 184.281117 143.097449 
L 183.962516 142.982809 
L 183.856315 142.665366 
L 183.006712 142.445686 
L 182.581911 142.192158 
L 182.475711 141.961846 
L 182.26331 141.209224 
L 181.944709 140.695693 
L 181.732308 140.61042 
L 181.519907 139.935127 
L 179.714501 139.274114 
L 179.5021 138.7755 
L 179.289699 138.579731 
L 178.971098 138.232058 
L 178.758697 137.72103 
L 178.440096 137.679258 
L 178.121495 137.216554 
L 177.484293 137.022282 
L 177.271892 136.814545 
L 177.059491 136.06682 
L 176.422289 135.860459 
L 176.316089 135.479227 
L 176.103688 135.151482 
L 175.891287 135.042783 
L 175.572686 134.095688 
L 175.254085 134.038943 
L 174.829284 133.811317 
L 174.616883 133.468183 
L 173.979681 133.463455 
L 173.87348 132.942608 
L 173.236278 132.934432 
L 173.130078 132.75764 
L 172.386675 132.569451 
L 171.643272 132.497276 
L 171.11227 132.307794 
L 170.368868 130.393946 
L 168.351061 130.120258 
L 168.03246 129.786811 
L 167.607658 129.508699 
L 166.864256 129.404991 
L 166.227053 129.108237 
L 165.37745 128.793324 
L 165.27125 128.586462 
L 164.846448 128.155119 
L 164.421647 127.989818 
L 164.315447 127.777797 
L 164.209246 127.01507 
L 163.890645 126.780632 
L 163.572044 125.983522 
L 162.722441 125.330824 
L 162.616241 125.10458 
L 161.979038 124.745143 
L 161.766638 124.283077 
L 160.492233 124.276621 
L 158.474426 123.642866 
L 158.262025 122.997955 
L 157.306222 122.625164 
L 156.987621 122.340505 
L 156.77522 120.867372 
L 156.456619 120.730563 
L 155.819417 119.297208 
L 154.01401 118.844286 
L 153.483008 117.431081 
L 153.270608 117.206069 
L 153.058207 116.802535 
L 152.952006 116.688 
L 152.845806 116.216606 
L 152.314804 115.629972 
L 151.996203 114.906742 
L 151.890003 114.785561 
L 151.1466 114.668945 
L 150.721799 114.173217 
L 149.872196 113.921208 
L 149.659795 113.666021 
L 149.341194 113.472 
L 149.234993 113.149146 
L 148.38539 112.877419 
L 148.17299 112.215273 
L 147.960589 112.143635 
L 147.748188 111.871511 
L 146.686184 111.500062 
L 146.579984 111.155186 
L 146.155182 111.000296 
L 145.942782 110.297831 
L 145.730381 110.216688 
L 145.51798 109.289596 
L 144.880778 108.816166 
L 144.562177 108.140651 
L 144.243576 107.67423 
L 144.031175 107.138035 
L 143.712574 105.984 
L 142.969171 105.512222 
L 142.75677 104.946641 
L 142.013368 104.686231 
L 141.907167 104.278727 
L 141.588566 104.230305 
L 141.482366 103.099685 
L 141.269965 102.982737 
L 141.163765 102.317622 
L 140.845164 102.258228 
L 140.738963 101.829042 
L 140.207961 101.641846 
L 140.101761 101.204757 
L 139.358358 100.370824 
L 139.252158 100.17644 
L 139.039757 99.267551 
L 138.190154 98.968536 
L 136.703349 97.947807 
L 135.322744 97.925687 
L 135.110343 97.771513 
L 133.411137 97.360818 
L 132.773935 96.870249 
L 132.349134 96.832382 
L 132.136733 96.664527 
L 131.18093 95.737541 
L 130.862328 94.698139 
L 130.437527 93.698704 
L 130.331327 92.808567 
L 129.800325 92.151732 
L 129.375523 91.745391 
L 129.056922 89.935059 
L 128.844521 89.716966 
L 127.145315 88.950857 
L 126.932915 88.364712 
L 126.720514 88.128 
L 125.65851 88.006524 
L 125.339909 87.084448 
L 124.915108 86.951226 
L 124.490306 86.437565 
L 124.384106 85.735869 
L 123.959304 85.586824 
L 123.853104 85.258627 
L 123.640703 84.986182 
L 123.322102 83.978206 
L 122.8973 83.40633 
L 122.260098 82.934012 
L 122.047697 82.222602 
L 121.835297 81.918 
L 120.136091 81.10361 
L 120.02989 80.722286 
L 119.286488 80.671071 
L 118.118284 79.931077 
L 117.905883 79.580903 
L 117.587282 78.339765 
L 115.038473 78.208 
L 111.215259 77.139692 
L 110.578057 76.938862 
L 110.153255 76.608 
L 109.728454 75.086491 
L 108.347849 74.634067 
L 108.241649 74.069695 
L 107.179645 74.021878 
L 100.913823 73.582964 
L 99.108416 73.183135 
L 98.471214 72.768 
L 91.56819 72.280044 
L 90.718587 71.852651 
L 89.975184 71.269463 
L 89.550383 70.304604 
L 88.91318 69.483789 
L 87.426375 69.460555 
L 85.93957 67.563372 
L 85.83337 65.765647 
L 84.452765 65.088 
L 81.372954 60.195945 
L 76.806338 53.568 
L 76.806338 53.568 
" clip-path="url(#pd52e913c31)" style="fill: none; stroke: #1f77b4; stroke-width: 1.5; stroke-linecap: square"/>
   </g>
   <g id="line2d_14">
    <path d="M 350.484703 295.089641 
L 346.236688 295.009234 
L 337.422057 294.844955 
L 334.448447 294.80612 
L 327.970224 294.672046 
L 289.100887 293.366748 
L 287.401681 293.290158 
L 285.277673 293.156486 
L 283.472267 293.014852 
L 281.56066 292.898085 
L 276.994044 292.466882 
L 276.463042 292.425904 
L 272.639829 292.200156 
L 271.577825 292.13645 
L 268.498014 291.90158 
L 268.073213 291.853855 
L 265.949205 291.704209 
L 265.205802 291.656168 
L 263.825198 291.504797 
L 261.913591 291.292253 
L 260.957787 291.191123 
L 259.152381 291.067346 
L 258.515179 291.02402 
L 257.559376 290.958496 
L 256.815973 290.70808 
L 255.435368 290.561851 
L 255.010567 290.462667 
L 253.948563 290.383288 
L 252.249357 290.280353 
L 251.399754 290.132429 
L 250.23155 290.046774 
L 249.488147 289.844576 
L 248.638544 289.733161 
L 247.895141 289.57087 
L 246.514537 289.37477 
L 246.302136 289.303476 
L 245.664934 289.211819 
L 244.815331 289.122309 
L 243.222325 289.019876 
L 242.691323 288.959831 
L 242.266522 288.858108 
L 242.054121 288.815855 
L 240.142514 288.674333 
L 239.823913 288.617196 
L 238.549508 288.478511 
L 238.018507 288.332822 
L 237.699905 288.19704 
L 236.637902 288.059888 
L 233.23949 287.511155 
L 230.903081 286.831067 
L 230.159679 286.720797 
L 229.310076 286.515061 
L 225.911664 285.695218 
L 224.95586 285.553446 
L 224.318658 285.44962 
L 223.575256 285.296264 
L 221.98225 284.936194 
L 221.451248 284.844898 
L 220.920246 284.679639 
L 220.707845 284.665922 
L 220.495445 284.534898 
L 219.539641 284.338714 
L 219.433441 284.257053 
L 218.690038 284.193929 
L 218.477638 283.975245 
L 218.371437 283.903962 
L 217.521834 283.763325 
L 216.990832 283.666491 
L 216.778432 283.458582 
L 214.973025 282.909296 
L 214.866825 282.73262 
L 213.911022 282.58547 
L 213.38002 282.159577 
L 213.061419 281.891862 
L 212.318016 281.765625 
L 210.831211 281.518582 
L 210.61881 281.440258 
L 210.51261 281.435326 
L 210.300209 281.161002 
L 209.875407 281.122844 
L 209.450606 280.70445 
L 209.132005 280.613189 
L 208.601003 280.242607 
L 208.282402 280.129155 
L 207.645199 279.913751 
L 207.326598 279.824384 
L 207.220398 279.794001 
L 206.795596 279.564345 
L 206.158394 279.36 
L 205.627392 279.097613 
L 203.503385 278.227185 
L 203.184784 278.083478 
L 202.866183 277.834378 
L 202.12278 277.753953 
L 201.697978 277.583422 
L 199.892572 277.00097 
L 199.36157 276.629632 
L 197.980965 276.125787 
L 197.662364 275.856939 
L 197.131362 275.830307 
L 197.025162 275.678089 
L 196.706561 275.527832 
L 195.644557 275.286905 
L 195.007355 275.143755 
L 194.794954 274.91098 
L 194.370153 274.824303 
L 193.73295 274.643332 
L 191.821344 273.5831 
L 191.502742 273.468173 
L 190.86554 273.316024 
L 190.440739 273.11366 
L 190.228338 272.884051 
L 189.272535 272.597415 
L 188.953933 272.372859 
L 188.847733 272.044965 
L 188.635332 271.797854 
L 188.316731 271.775529 
L 187.99813 271.284743 
L 186.723726 271.158675 
L 186.617525 271.012527 
L 186.405124 270.953442 
L 186.192724 270.645589 
L 183.856315 269.963087 
L 183.643915 269.231542 
L 183.325314 269.14736 
L 182.900512 269.073813 
L 182.794312 268.964179 
L 182.26331 268.857238 
L 182.050909 268.599204 
L 181.944709 268.590385 
L 181.732308 268.394667 
L 181.307506 267.896087 
L 180.776505 267.836077 
L 180.670304 267.693171 
L 180.457903 267.688105 
L 180.245503 267.435247 
L 180.033102 267.403486 
L 179.926902 267.234776 
L 179.3959 267.120832 
L 179.289699 267.011642 
L 178.440096 266.747052 
L 178.015295 266.0178 
L 177.059491 265.909857 
L 176.74089 265.822032 
L 175.572686 264.652534 
L 175.147885 264.4551 
L 174.404482 263.901313 
L 174.085881 263.8706 
L 173.979681 263.728212 
L 173.130078 263.399023 
L 172.492875 262.759927 
L 171.643272 262.24791 
L 171.00607 261.427868 
L 170.793669 261.26005 
L 170.687469 261.030552 
L 170.475068 261.025383 
L 170.262667 260.698111 
L 169.944066 260.413088 
L 169.837866 260.41251 
L 169.519265 259.358393 
L 169.094463 259.187859 
L 167.926259 258.301824 
L 167.713859 258.054553 
L 167.182857 258.003833 
L 166.970456 257.729708 
L 166.014653 257.092213 
L 165.696051 257.006794 
L 165.16505 255.836542 
L 165.058849 255.807022 
L 164.740248 255.371084 
L 163.996845 255.120453 
L 163.784445 254.775455 
L 162.616241 254.171326 
L 162.40384 252.823318 
L 162.191439 252.617406 
L 161.979038 252.120052 
L 161.766638 252.008564 
L 161.448036 251.096541 
L 160.810834 250.97385 
L 160.598433 250.669714 
L 160.492233 250.653405 
L 160.173632 250.367339 
L 159.53643 249.788225 
L 159.430229 249.684025 
L 159.111628 249.584938 
L 158.049624 248.742737 
L 157.624823 248.089222 
L 157.518623 247.984148 
L 157.306222 247.275748 
L 156.562819 246.991942 
L 156.456619 246.740587 
L 156.138018 246.650282 
L 155.925617 246.302266 
L 155.713216 245.775761 
L 155.500815 245.003202 
L 155.182214 244.92573 
L 154.863613 244.299714 
L 154.438812 241.939654 
L 154.332611 241.806689 
L 154.120211 241.775366 
L 153.90781 241.521231 
L 153.589209 241.512385 
L 153.270608 240.96671 
L 152.527205 240.868037 
L 152.102403 239.978959 
L 151.996203 239.96785 
L 151.890003 239.449172 
L 150.934199 238.611731 
L 150.721799 238.491554 
L 149.659795 235.615945 
L 149.234993 235.283584 
L 148.17299 235.180308 
L 147.535787 234.101353 
L 147.323387 233.346708 
L 146.792385 232.865905 
L 146.579984 232.788341 
L 146.261383 232.176626 
L 146.048982 231.278164 
L 145.942782 230.791789 
L 145.730381 230.727288 
L 145.41178 230.526215 
L 145.093179 230.426549 
L 144.880778 230.201804 
L 144.668377 229.599621 
L 144.562177 229.536825 
L 144.243576 228.934905 
L 143.924975 228.653676 
L 143.181572 228.464767 
L 142.969171 228.011599 
L 142.54437 227.729455 
L 142.119568 227.172427 
L 141.482366 226.722699 
L 141.269965 226.258978 
L 141.163765 226.149266 
L 140.951364 224.99771 
L 140.314162 224.488506 
L 139.995561 224.024671 
L 139.88936 223.628287 
L 139.570759 223.250431 
L 137.977754 223.115697 
L 137.446752 222.668864 
L 137.128151 222.149078 
L 136.703349 221.626917 
L 136.490948 221.070482 
L 136.172347 221.021802 
L 135.959946 219.928363 
L 135.853746 219.693322 
L 135.535145 218.259692 
L 135.322744 217.6704 
L 134.26074 217.276364 
L 134.15454 216.697541 
L 133.623538 216.576667 
L 133.304937 215.514446 
L 132.667735 215.426065 
L 132.455334 214.652746 
L 131.28713 214.548779 
L 130.862328 214.242822 
L 130.543727 213.309069 
L 130.331327 213.092712 
L 130.225126 212.717691 
L 130.012725 211.843765 
L 129.694124 211.715834 
L 129.481724 210.920902 
L 129.163122 210.440551 
L 129.056922 210.143088 
L 128.844521 209.004522 
L 128.738321 208.872598 
L 128.632121 208.497951 
L 127.994918 207.922918 
L 127.357716 206.748786 
L 127.039115 206.499806 
L 126.826714 205.934528 
L 126.189512 204.997439 
L 125.870911 204.791137 
L 125.65851 204.324324 
L 125.55231 204.299889 
L 125.233709 202.927304 
L 125.127508 202.898967 
L 124.915108 202.694124 
L 124.384106 201.099541 
L 124.171705 200.797595 
L 123.959304 199.290662 
L 123.746903 199.211624 
L 123.215902 198.761603 
L 123.109701 197.19476 
L 122.7911 197.054531 
L 122.366299 192.834852 
L 122.260098 192.389383 
L 121.941497 192.198877 
L 121.835297 191.938909 
L 121.729096 191.180237 
L 121.304295 189.052724 
L 120.560892 189.0432 
L 120.348491 188.672516 
L 120.136091 187.638184 
L 120.02989 187.554462 
L 119.81749 187.161878 
L 119.605089 186.192906 
L 118.755486 185.571609 
L 118.543085 184.662842 
L 118.012083 184.038698 
L 117.799682 183.332479 
L 117.587282 181.838011 
L 117.374881 181.610618 
L 116.419078 181.492794 
L 116.100476 180.453161 
L 115.675675 180.232281 
L 115.463274 179.413777 
L 115.250873 178.86402 
L 115.038473 178.740537 
L 114.613671 176.236036 
L 114.29507 175.939984 
L 114.18887 175.788 
L 113.657868 175.64652 
L 113.445467 173.875925 
L 112.914465 173.70064 
L 112.702064 173.696088 
L 112.595864 173.525569 
L 112.171063 173.343776 
L 111.958662 172.64602 
L 111.640061 172.4544 
L 111.215259 171.354122 
L 110.896658 167.757168 
L 110.684257 163.289197 
L 110.578057 163.044456 
L 110.259456 162.93439 
L 109.834654 161.919792 
L 109.622254 159.835687 
L 109.409853 159.280941 
L 109.197452 157.30728 
L 108.772651 156.341706 
L 108.56025 156.213634 
L 108.135448 154.948144 
L 107.923048 153.779387 
L 107.816847 153.703385 
L 107.710647 153.365569 
L 107.604446 150.609356 
L 107.392046 150.42781 
L 107.285845 148.940308 
L 106.967244 147.779507 
L 106.754843 147.568473 
L 106.648643 147.168 
L 106.542443 146.166637 
L 106.330042 145.937455 
L 106.117641 144.783738 
L 105.90524 144.537917 
L 105.69284 142.050368 
L 104.843237 141.586824 
L 104.737036 141.442661 
L 104.630836 140.616477 
L 104.099834 140.201514 
L 103.462632 139.248 
L 103.356431 135.36 
L 100.06422 135.288965 
L 99.851819 133.547016 
L 99.639418 132.644343 
L 99.427018 128.431496 
L 98.789815 128.278588 
L 98.471214 127.949373 
L 97.834012 126.218898 
L 97.515411 124.224 
L 97.40921 121.681398 
L 97.19681 121.558588 
L 97.090609 118.8864 
L 96.878209 118.731636 
L 96.772008 118.353356 
L 96.665808 116.133517 
L 95.285203 115.826824 
L 95.072802 112.215273 
L 94.860401 111.962483 
L 94.754201 111.479351 
L 94.5418 111.213 
L 89.444182 110.268 
L 88.91318 109.798054 
L 88.70078 108.367558 
L 87.426375 107.816727 
L 86.682973 106.634323 
L 86.364371 106.437934 
L 85.83337 105.648 
L 85.727169 103.324596 
L 85.302368 99.041684 
L 85.089967 98.230154 
L 84.665165 98.08128 
L 84.558965 96.838244 
L 84.346564 95.904 
L 83.496961 95.354182 
L 83.284561 94.264822 
L 82.434958 93.47233 
L 82.116356 90.381913 
L 81.691555 89.716966 
L 81.479154 83.070439 
L 81.160553 81.481846 
L 80.31095 71.895273 
L 78.824145 68.0832 
L 77.762141 65.974154 
L 76.593937 62.528 
L 76.487737 53.568 
L 76.487737 53.568 
" clip-path="url(#pd52e913c31)" style="fill: none; stroke: #ff7f0e; stroke-width: 1.5; stroke-linecap: square"/>
   </g>
   <g id="line2d_15">
    <path d="M 350.484703 295.08939 
L 344.112681 294.864166 
L 342.307275 294.776835 
L 339.652265 294.641088 
L 337.103456 294.478359 
L 334.767048 294.319164 
L 333.705044 294.165977 
L 332.43064 294.036479 
L 331.793437 293.946263 
L 329.988031 293.815459 
L 327.439222 293.526513 
L 325.421415 293.324641 
L 324.996613 293.182505 
L 323.616009 293.056924 
L 320.854799 292.697423 
L 320.323797 292.573074 
L 318.199789 292.220538 
L 316.181982 291.771791 
L 315.54478 291.650623 
L 315.226179 291.606693 
L 314.907578 291.367849 
L 314.482776 291.270986 
L 311.933967 290.752836 
L 311.402965 290.532956 
L 309.278958 290.119157 
L 306.305347 289.187056 
L 305.349544 288.852466 
L 305.030943 288.783825 
L 304.606141 288.609103 
L 303.013136 288.075697 
L 302.906935 288.070812 
L 302.588334 287.706271 
L 301.632531 287.351167 
L 301.20773 287.219442 
L 300.570527 286.930455 
L 300.145726 286.832769 
L 298.765121 285.956113 
L 298.44652 285.892501 
L 298.234119 285.655027 
L 297.172115 285.141928 
L 296.959715 285.028182 
L 296.216312 284.797039 
L 295.68531 284.650573 
L 295.472909 284.493791 
L 295.260509 284.414141 
L 294.304705 284.071699 
L 294.092304 283.761766 
L 293.773703 283.672413 
L 293.348902 283.274712 
L 293.136501 283.000129 
L 292.9241 282.854318 
L 292.286898 282.374889 
L 291.968297 282.239002 
L 291.437295 282.081079 
L 291.224894 282.042891 
L 290.693892 281.316199 
L 290.05669 281.192153 
L 289.738089 281.05868 
L 289.525688 280.514984 
L 289.100887 280.438995 
L 288.888486 280.068655 
L 288.569885 279.643662 
L 288.145083 279.031634 
L 287.18928 278.677192 
L 286.976879 278.589888 
L 286.552078 278.292622 
L 286.339677 278.124324 
L 286.233477 278.121166 
L 286.021076 277.890936 
L 285.914876 277.880513 
L 285.702475 277.735751 
L 285.490074 277.727417 
L 285.277673 277.490663 
L 284.959072 277.428032 
L 284.32187 276.919127 
L 284.21567 276.91195 
L 284.003269 276.718999 
L 283.790868 276.673798 
L 283.259866 275.955317 
L 282.091662 275.034214 
L 281.56066 274.676305 
L 281.348259 274.324332 
L 280.604857 274.128566 
L 280.286256 273.76749 
L 279.861454 273.336454 
L 279.649053 273.224789 
L 279.330452 272.886841 
L 279.118052 272.151937 
L 278.905651 272.075605 
L 278.69325 271.734377 
L 278.374649 271.534786 
L 278.268449 271.256979 
L 277.312645 270.532755 
L 276.781643 269.795596 
L 276.569243 269.097984 
L 276.356842 269.003044 
L 276.250641 268.814805 
L 275.93204 268.637787 
L 275.613439 268.398891 
L 275.401038 268.032597 
L 275.188638 267.889906 
L 274.976237 267.603599 
L 274.232834 267.153133 
L 273.914233 266.407589 
L 273.595632 265.856463 
L 273.383231 265.736859 
L 273.170831 265.324333 
L 273.06463 265.302305 
L 272.746029 264.684726 
L 272.533628 264.631614 
L 272.427428 263.936152 
L 272.215027 263.886143 
L 271.790226 263.429214 
L 271.684025 263.421336 
L 270.834422 261.708429 
L 270.09102 261.378886 
L 269.878619 260.80992 
L 269.666218 260.715182 
L 269.453817 260.446981 
L 269.029016 260.304509 
L 268.816615 259.980356 
L 268.710415 259.968461 
L 268.391814 259.484959 
L 268.285613 259.478284 
L 268.073213 259.231717 
L 267.754611 258.773745 
L 267.43601 258.311893 
L 267.117409 258.130593 
L 266.798808 257.818222 
L 266.586407 257.573761 
L 266.480207 256.982878 
L 266.267806 256.609149 
L 266.055405 255.92573 
L 265.843005 255.536286 
L 265.524404 255.379099 
L 265.312003 254.803198 
L 264.993402 254.465296 
L 264.4624 252.831183 
L 263.931398 252.638524 
L 263.825198 252.598804 
L 263.612797 251.665289 
L 263.506596 251.547278 
L 263.400396 250.803894 
L 262.763194 250.156667 
L 262.444593 249.590134 
L 262.338392 249.522682 
L 262.019791 249.506852 
L 261.80739 248.618648 
L 260.532986 246.866146 
L 259.895784 246.301063 
L 259.683383 245.908424 
L 259.258581 245.465224 
L 259.046181 245.002362 
L 258.621379 244.471057 
L 258.302778 244.42286 
L 257.877977 243.87562 
L 257.771776 243.534443 
L 257.559376 242.064257 
L 257.346975 241.845274 
L 257.028374 241.648237 
L 256.709773 240.81789 
L 256.497372 240.455279 
L 256.391171 240.238833 
L 255.647769 239.700414 
L 255.329168 239.367289 
L 255.116767 239.249754 
L 254.904366 239.131449 
L 254.585765 238.843642 
L 254.479565 238.822354 
L 254.054763 237.828135 
L 253.842362 237.725724 
L 253.629962 237.136303 
L 253.417561 236.677373 
L 253.20516 236.560558 
L 252.992759 236.323164 
L 252.461758 236.12849 
L 252.355557 235.824338 
L 252.143156 235.755106 
L 251.930756 235.14294 
L 251.824555 234.836105 
L 251.187353 234.478275 
L 250.33775 232.546384 
L 250.125349 231.367419 
L 250.019149 231.262479 
L 249.806748 230.623689 
L 249.488147 230.095668 
L 249.275746 229.078588 
L 248.957145 228.944867 
L 248.426143 228.10127 
L 248.107542 228.064304 
L 247.895141 227.766927 
L 247.36414 227.215585 
L 247.151739 226.440529 
L 246.833138 225.81196 
L 246.620737 225.239233 
L 246.408336 225.149836 
L 246.089735 224.078675 
L 245.771134 223.609035 
L 245.558733 223.592275 
L 245.452533 223.384953 
L 245.027731 223.12299 
L 244.921531 222.925513 
L 244.70913 221.696667 
L 243.965728 221.399711 
L 243.753327 221.378867 
L 243.647126 221.169061 
L 243.434726 220.250173 
L 243.222325 219.784174 
L 243.009924 219.685766 
L 242.797523 219.271224 
L 242.054121 218.863069 
L 241.84172 218.280528 
L 241.098317 217.584913 
L 240.885917 217.380414 
L 240.779716 217.365929 
L 240.461115 216.525554 
L 240.248714 216.478279 
L 239.08051 215.448128 
L 238.655709 214.691822 
L 238.337108 214.059473 
L 238.230907 213.863728 
L 237.912306 213.790426 
L 236.850302 212.039191 
L 236.637902 211.941399 
L 236.425501 211.729628 
L 236.2131 211.554331 
L 235.788299 210.403129 
L 235.575898 210.278897 
L 235.044896 209.785652 
L 234.832495 209.456867 
L 234.620095 209.429053 
L 234.513894 208.772776 
L 234.089093 208.445253 
L 233.664291 208.301793 
L 233.45189 208.124771 
L 233.23949 207.24452 
L 233.027089 207.14742 
L 232.814688 206.593979 
L 232.708488 206.368985 
L 232.496087 206.180246 
L 232.389887 205.796776 
L 232.071286 205.440336 
L 231.858885 204.653541 
L 231.327883 204.384049 
L 231.115482 203.855386 
L 230.053478 202.815 
L 229.734877 201.585684 
L 229.203875 201.482964 
L 228.991475 201.36147 
L 228.566673 199.418924 
L 228.248072 198.932502 
L 228.141872 198.116875 
L 227.823271 198.020926 
L 227.504669 197.733674 
L 227.398469 197.691992 
L 227.292269 197.292944 
L 226.655066 197.286906 
L 226.442666 197.006686 
L 225.911664 196.930549 
L 225.486862 196.586838 
L 225.168261 196.482831 
L 224.74346 195.671415 
L 224.531059 195.550742 
L 224.318658 194.930464 
L 224.106257 194.479797 
L 223.893857 194.324058 
L 223.681456 194.046954 
L 223.469055 193.463073 
L 223.362855 193.137231 
L 223.044254 191.639054 
L 222.407051 190.867883 
L 221.87605 190.756174 
L 221.557448 190.295527 
L 221.451248 189.709831 
L 219.752042 189.018404 
L 219.327241 187.915653 
L 219.008639 187.871781 
L 218.796239 187.607961 
L 218.583838 186.592042 
L 218.371437 185.773531 
L 218.159036 185.678621 
L 216.566031 183.447862 
L 216.35363 182.838229 
L 215.928829 182.78293 
L 215.822628 182.355072 
L 215.291626 181.824 
L 215.079226 181.390979 
L 214.654424 181.166574 
L 214.123422 180.656408 
L 213.698621 180.46683 
L 213.59242 180.221266 
L 213.38002 180.187717 
L 213.167619 179.817796 
L 212.955218 179.103424 
L 212.636617 178.510775 
L 212.424216 177.511318 
L 211.999415 177.076442 
L 211.893214 176.765463 
L 211.574613 176.455284 
L 211.362213 174.761064 
L 211.149812 174.714811 
L 210.51261 173.58078 
L 210.194008 172.370568 
L 209.875407 172.267515 
L 209.663007 171.721728 
L 209.238205 171.513723 
L 209.132005 170.960291 
L 208.919604 170.954516 
L 208.813404 170.698909 
L 208.601003 170.029692 
L 208.494802 169.974678 
L 208.388602 169.765014 
L 207.7514 169.116368 
L 207.432799 168.522894 
L 207.114198 168.507824 
L 206.901797 168.337933 
L 206.476995 167.454915 
L 205.414992 167.175123 
L 204.88399 166.086492 
L 204.671589 165.903026 
L 203.821986 165.785819 
L 203.503385 165.133049 
L 203.290984 164.885484 
L 202.972383 164.859794 
L 202.866183 164.560249 
L 201.804179 164.116391 
L 201.591778 163.859886 
L 201.273177 163.771122 
L 201.166977 163.461564 
L 200.954576 162.592984 
L 200.848375 162.582019 
L 200.529774 162.242127 
L 200.317374 162.157727 
L 199.998772 161.813135 
L 199.892572 161.801296 
L 199.467771 161.503281 
L 198.936769 161.442017 
L 198.511967 161.075279 
L 197.768565 160.85727 
L 197.556164 160.444013 
L 197.237563 159.751139 
L 196.38796 159.37114 
L 195.750757 158.812724 
L 195.219756 158.328 
L 194.794954 158.195085 
L 194.476353 157.733053 
L 194.263952 157.63007 
L 193.73295 157.195504 
L 193.308149 157.054633 
L 193.201948 156.754286 
L 192.883347 156.486298 
L 192.777147 156.467785 
L 192.564746 155.928372 
L 192.246145 155.508343 
L 191.927544 155.010172 
L 191.290342 154.887096 
L 190.971741 154.750785 
L 190.546939 154.442865 
L 190.228338 153.851077 
L 188.422932 153.313882 
L 188.10433 152.619767 
L 187.573329 152.182513 
L 187.467128 152.157767 
L 187.254727 151.146905 
L 187.148527 151.120752 
L 186.723726 150.771647 
L 186.192724 150.55518 
L 185.874123 150.308478 
L 185.13072 149.94715 
L 185.02452 149.583484 
L 184.705918 149.243368 
L 183.962516 148.951178 
L 183.537714 148.139321 
L 183.325314 147.464546 
L 183.112913 147.400148 
L 182.900512 147.158543 
L 182.688111 146.826129 
L 182.157109 146.748759 
L 182.050909 146.625391 
L 181.201306 146.171077 
L 180.776505 146.123536 
L 180.457903 145.83447 
L 180.351703 145.799067 
L 180.245503 145.485624 
L 179.6083 144.8928 
L 178.971098 144.288 
L 178.227696 144.018344 
L 178.121495 143.300018 
L 177.696694 143.04099 
L 177.484293 142.861032 
L 177.059491 141.998287 
L 176.74089 141.870385 
L 176.316089 141.495388 
L 176.103688 141.203921 
L 175.891287 141.012837 
L 175.572686 139.630999 
L 175.360285 139.326271 
L 172.917677 138.307387 
L 172.599076 138.265358 
L 172.068074 137.006414 
L 171.961873 136.953191 
L 171.855673 136.334643 
L 171.324671 136.289032 
L 171.218471 136.119724 
L 169.731666 135.799579 
L 169.519265 134.148311 
L 169.200664 133.848 
L 168.882063 133.423329 
L 168.351061 133.35788 
L 167.926259 133.231285 
L 167.395257 131.918146 
L 167.289057 131.726769 
L 167.182857 131.281297 
L 166.864256 130.952348 
L 166.120853 130.473495 
L 166.014653 130.274341 
L 165.908452 129.28781 
L 165.16505 128.378602 
L 165.058849 127.76461 
L 164.421647 127.444221 
L 163.996845 127.135475 
L 163.041042 126.986507 
L 162.297639 126.711317 
L 161.766638 124.866399 
L 161.554237 124.842466 
L 161.341836 124.672165 
L 160.810834 124.536766 
L 160.598433 124.363636 
L 160.386033 124.040348 
L 160.173632 122.960842 
L 159.64263 122.657443 
L 159.324029 122.3808 
L 159.111628 121.262206 
L 158.262025 120.963136 
L 158.155825 120.706854 
L 156.88142 120.482043 
L 156.456619 120.07909 
L 156.138018 119.44293 
L 155.925617 119.235257 
L 155.288415 119.107163 
L 154.438812 119.102524 
L 154.332611 118.825803 
L 151.890003 118.208638 
L 151.783802 118.096112 
L 150.721799 117.67066 
L 150.296997 116.655967 
L 150.084596 116.41732 
L 149.978396 115.926261 
L 148.810192 115.89229 
L 148.703991 115.768717 
L 145.624181 115.578297 
L 145.41178 115.317746 
L 144.031175 113.979351 
L 143.818774 113.079213 
L 143.500173 113.074759 
L 142.969171 112.360186 
L 142.65057 112.352299 
L 142.54437 112.206689 
L 142.331969 111.263207 
L 141.588566 110.864842 
L 141.163765 109.350524 
L 139.88936 109.026736 
L 139.039757 108.411325 
L 138.614956 107.738382 
L 135.110343 107.617421 
L 135.004143 107.436826 
L 134.791742 106.56 
L 134.579342 106.446689 
L 134.366941 105.55081 
L 133.835939 105.119198 
L 132.880136 104.697191 
L 131.711931 104.68279 
L 131.605731 103.923983 
L 128.52592 103.517584 
L 124.702707 103.31606 
L 124.490306 102.195136 
L 122.578699 101.359888 
L 121.198094 101.080216 
L 120.560892 100.534154 
L 120.454692 99.902586 
L 120.242291 99.712 
L 117.587282 99.285165 
L 108.66645 97.608299 
L 108.56025 97.222737 
L 106.754843 97.088 
L 104.949437 95.25478 
L 101.020023 95.062369 
L 100.595222 94.287208 
L 100.489021 93.754047 
L 95.391403 93.390222 
L 94.754201 92.686979 
L 94.648001 91.984481 
L 93.585997 91.881122 
L 93.373596 91.298642 
L 93.161195 89.742953 
L 87.107774 86.936276 
L 87.001574 85.711217 
L 86.682973 84.89577 
L 86.470572 83.808 
L 85.196167 83.312262 
L 84.452765 83.277474 
L 84.240364 81.900973 
L 84.134164 80.201394 
L 83.496961 79.657412 
L 83.17836 78.253714 
L 75.956735 75.560727 
L 75.850534 65.664 
L 75.319533 53.568 
L 75.319533 53.568 
" clip-path="url(#pd52e913c31)" style="fill: none; stroke: #2ca02c; stroke-width: 1.5; stroke-linecap: square"/>
   </g>
   <g id="line2d_16">
    <path d="M 350.484703 295.089641 
L 346.236688 295.009122 
L 338.27166 294.860855 
L 329.988031 294.719999 
L 325.527615 294.617984 
L 323.93461 294.57487 
L 313.102171 294.262236 
L 312.464969 294.23267 
L 303.968939 293.95001 
L 301.738731 293.844422 
L 294.198505 293.59701 
L 292.8179 293.539608 
L 284.109469 293.02042 
L 283.790868 292.959968 
L 280.604857 292.77218 
L 279.330452 292.656567 
L 279.011851 292.582524 
L 276.463042 292.360466 
L 275.93204 292.300721 
L 271.684025 291.9952 
L 270.940623 291.920148 
L 269.453817 291.812053 
L 269.029016 291.781851 
L 267.754611 291.663426 
L 266.905008 291.608642 
L 264.5686 291.35961 
L 263.506596 291.237652 
L 259.683383 290.899528 
L 258.93998 290.757508 
L 258.302778 290.725169 
L 258.090377 290.597396 
L 249.912949 289.637004 
L 249.594347 289.455128 
L 249.063346 289.309885 
L 248.426143 289.200291 
L 247.57654 289.082116 
L 247.257939 289.034323 
L 246.408336 288.92966 
L 245.346332 288.655536 
L 244.60293 288.57133 
L 244.284329 288.481963 
L 243.328525 288.362332 
L 242.160321 288.191686 
L 240.992117 288.047217 
L 239.823913 287.842087 
L 238.86811 287.715751 
L 235.682098 287.126255 
L 233.027089 286.519358 
L 232.283686 286.323014 
L 231.115482 285.877133 
L 230.053478 285.648524 
L 229.734877 285.490293 
L 227.186068 285.057674 
L 226.655066 284.877732 
L 225.274462 284.520304 
L 224.106257 283.99546 
L 223.575256 283.901872 
L 223.362855 283.671878 
L 222.831853 283.442226 
L 222.08845 283.327977 
L 219.964443 282.709914 
L 219.11484 282.622216 
L 218.796239 282.46308 
L 217.628035 282.044139 
L 215.185426 280.971928 
L 214.973025 280.937327 
L 214.866825 280.499208 
L 214.442023 280.397207 
L 214.229623 280.313477 
L 213.698621 280.208476 
L 212.211816 279.668379 
L 211.893214 279.288556 
L 211.574613 279.22289 
L 210.72501 278.758661 
L 210.51261 278.718945 
L 210.300209 278.287358 
L 209.344405 278.131243 
L 209.025804 277.996 
L 208.813404 277.902623 
L 208.494802 277.329321 
L 206.901797 276.643927 
L 206.370795 276.574503 
L 206.158394 276.34944 
L 205.733593 276.249644 
L 205.414992 275.549273 
L 205.202591 275.481646 
L 204.565389 275.125366 
L 204.459188 275.037031 
L 203.609585 274.800369 
L 203.078583 274.459742 
L 202.759982 274.42281 
L 202.547581 274.018641 
L 202.22898 273.881937 
L 201.804179 273.835055 
L 201.485578 273.351289 
L 201.273177 273.198074 
L 200.954576 272.852321 
L 200.104973 272.604716 
L 199.680171 272.3858 
L 199.467771 272.28643 
L 199.25537 272.067431 
L 198.618168 271.937379 
L 198.299566 271.852602 
L 198.087166 271.720564 
L 196.918962 271.247896 
L 196.281759 271.022272 
L 196.069359 271.013189 
L 195.750757 270.584471 
L 195.325956 270.554984 
L 195.113555 270.285241 
L 194.901154 270.076704 
L 194.582553 269.788379 
L 194.370153 269.518152 
L 194.263952 269.338226 
L 193.73295 269.17005 
L 193.414349 268.668868 
L 191.821344 268.067767 
L 191.608943 267.817901 
L 191.502742 267.768521 
L 190.75934 267.713869 
L 190.546939 267.231004 
L 189.697336 266.895787 
L 189.591136 266.881708 
L 189.484935 266.686111 
L 188.316731 266.297295 
L 188.210531 266.275326 
L 187.89193 265.919082 
L 187.785729 265.808128 
L 187.467128 265.070327 
L 187.360928 265.048678 
L 187.148527 264.780334 
L 186.936126 264.205241 
L 186.405124 264.089053 
L 185.449321 263.19718 
L 184.387317 262.726361 
L 184.174917 262.510451 
L 183.962516 262.491677 
L 183.856315 262.20392 
L 183.006712 261.670518 
L 182.688111 261.276079 
L 182.36951 260.947313 
L 181.095106 260.452267 
L 180.882705 260.156884 
L 180.564104 259.916734 
L 179.6083 259.733093 
L 179.5021 259.699954 
L 179.3959 259.548906 
L 178.440096 259.333972 
L 178.121495 259.135217 
L 177.909094 258.725463 
L 177.590493 258.574703 
L 177.059491 258.468756 
L 176.847091 258.34024 
L 176.316089 258.039684 
L 175.785087 257.883855 
L 175.678887 257.868204 
L 175.466486 257.689234 
L 175.360285 257.685529 
L 174.829284 256.996128 
L 174.616883 256.310171 
L 174.510682 256.136566 
L 173.661079 255.828984 
L 173.448679 255.487831 
L 173.236278 255.332455 
L 173.023877 254.90731 
L 171.961873 254.306335 
L 171.749473 253.843071 
L 171.537072 253.801092 
L 171.218471 253.312973 
L 171.11227 253.206237 
L 170.262667 250.594609 
L 169.944066 250.402003 
L 169.731666 249.767247 
L 169.200664 249.334577 
L 168.988263 248.78248 
L 168.669662 248.574958 
L 167.076656 248.065415 
L 166.651855 247.608 
L 166.545654 247.575985 
L 166.333254 246.959138 
L 166.120853 246.517937 
L 165.696051 246.492261 
L 164.846448 245.4698 
L 164.740248 245.44365 
L 164.527847 244.801131 
L 163.784445 243.717853 
L 163.572044 243.24614 
L 163.359643 242.226428 
L 163.041042 241.123955 
L 162.51004 240.491213 
L 162.297639 240.443105 
L 162.085239 240.228099 
L 161.979038 240.172959 
L 161.660437 238.859684 
L 161.023235 238.001366 
L 160.704634 237.894705 
L 160.598433 237.679097 
L 160.386033 237.65145 
L 160.279832 237.398655 
L 160.067432 237.38713 
L 159.855031 236.783626 
L 159.53643 236.559705 
L 159.217829 235.511534 
L 159.005428 234.186313 
L 158.899227 234.049218 
L 158.368226 232.495419 
L 158.262025 232.347357 
L 157.943424 232.169877 
L 157.731023 231.290217 
L 156.88142 229.617025 
L 156.77522 229.609506 
L 156.66902 229.463647 
L 156.350418 229.300732 
L 156.138018 228.45618 
L 155.925617 227.708312 
L 155.819417 227.549753 
L 155.607016 227.028463 
L 154.863613 225.54296 
L 154.757413 224.750072 
L 154.332611 224.604598 
L 154.01401 223.323006 
L 153.695409 223.181227 
L 153.376808 222.717687 
L 153.164407 221.666824 
L 152.633405 221.587366 
L 152.314804 220.778898 
L 152.102403 220.003224 
L 151.359001 219.300942 
L 150.827999 217.397172 
L 149.872196 216.031706 
L 149.447394 214.923435 
L 149.341194 214.161702 
L 149.022593 214.120133 
L 148.916392 212.861217 
L 148.38539 212.279847 
L 148.17299 211.529646 
L 146.898585 210.569143 
L 146.686184 209.987165 
L 146.473784 209.972093 
L 146.367583 209.787087 
L 146.155182 209.232754 
L 145.942782 208.52999 
L 145.41178 208.339908 
L 144.986978 208.297898 
L 144.880778 207.909818 
L 144.774578 206.987146 
L 144.243576 206.529065 
L 144.031175 205.49975 
L 143.924975 205.483941 
L 143.500173 204.594804 
L 143.181572 204.068 
L 142.862971 204.064744 
L 141.694767 203.853809 
L 141.376166 202.182287 
L 141.057564 201.941659 
L 140.632763 199.965288 
L 140.101761 199.152276 
L 139.995561 199.122169 
L 139.78316 198.626414 
L 139.570759 197.485068 
L 139.039757 197.442535 
L 138.933557 196.689226 
L 138.721156 196.616348 
L 138.508755 195.468122 
L 138.402555 194.466462 
L 137.871553 193.831024 
L 137.659152 193.385528 
L 137.128151 192.865708 
L 136.490948 192.282794 
L 136.384748 191.022545 
L 135.747546 190.781719 
L 135.428945 188.866723 
L 135.110343 188.277677 
L 134.897943 186.215416 
L 134.791742 186.14778 
L 133.411137 181.055352 
L 133.198737 180.883525 
L 132.349134 180.377534 
L 131.818132 177.446606 
L 131.499531 176.607855 
L 131.18093 173.965395 
L 131.074729 173.850985 
L 130.968529 172.470079 
L 130.649928 172.341283 
L 130.118926 170.030466 
L 129.800325 170.003906 
L 129.481724 169.603114 
L 129.269323 169.583474 
L 128.52592 167.573421 
L 128.313519 167.014957 
L 128.207319 166.999369 
L 128.101119 166.312326 
L 127.888718 166.277843 
L 127.676317 165.144281 
L 127.570117 165.124294 
L 127.357716 164.664309 
L 127.145315 164.480621 
L 126.932915 164.437079 
L 126.295712 161.359515 
L 125.870911 160.935446 
L 125.764711 160.751235 
L 125.55231 159.128 
L 124.702707 158.998389 
L 124.490306 155.952522 
L 124.384106 155.907491 
L 124.171705 154.788515 
L 123.959304 153.993279 
L 123.746903 153.537438 
L 123.428302 150.831611 
L 122.7911 149.893849 
L 122.6849 148.676391 
L 122.260098 148.596495 
L 122.047697 147.267109 
L 121.941497 147.193332 
L 121.729096 146.842332 
L 121.198094 146.459934 
L 121.091894 145.55151 
L 120.242291 144.891077 
L 120.02989 142.973217 
L 119.605089 141.927588 
L 119.286488 138.843885 
L 118.967887 137.794748 
L 118.861686 135.71529 
L 118.543085 135.600527 
L 117.905883 133.557677 
L 117.693482 133.554515 
L 117.481081 133.022118 
L 117.374881 130.725209 
L 116.950079 130.690148 
L 116.737679 128.703563 
L 116.525278 128.101012 
L 115.675675 125.28 
L 115.038473 124.824436 
L 114.932272 124.330706 
L 114.719872 124.276235 
L 114.613671 124.090804 
L 113.551667 122.819908 
L 112.808265 122.0805 
L 112.595864 120.288 
L 111.852461 119.813842 
L 111.32146 117.204576 
L 111.109059 116.721853 
L 110.790458 114.826712 
L 110.578057 114.701132 
L 110.259456 113.117538 
L 109.834654 111.193888 
L 109.516053 110.328273 
L 109.303652 110.163963 
L 108.878851 108.960897 
L 108.66645 108.782682 
L 108.454049 107.263847 
L 107.923048 106.543182 
L 107.285845 106.394203 
L 107.073445 106.1856 
L 106.967244 105.364474 
L 105.055637 104.805748 
L 104.843237 104.049951 
L 104.312235 103.689547 
L 103.993634 100.855479 
L 102.294428 100.789622 
L 102.188227 100.344073 
L 101.869626 100.17644 
L 100.276621 99.909818 
L 97.834012 98.819223 
L 96.028606 96.427843 
L 96.028606 96.427843 
" clip-path="url(#pd52e913c31)" style="fill: none; stroke: #d62728; stroke-width: 1.5; stroke-linecap: square"/>
   </g>
   <g id="patch_3">
    <path d="M 57.6 307.584 
L 57.6 41.472 
" style="fill: none; stroke: #000000; stroke-width: 0.8; stroke-linejoin: miter; stroke-linecap: square"/>
   </g>
   <g id="patch_4">
    <path d="M 414.72 307.584 
L 414.72 41.472 
" style="fill: none; stroke: #000000; stroke-width: 0.8; stroke-linejoin: miter; stroke-linecap: square"/>
   </g>
   <g id="patch_5">
    <path d="M 57.6 307.584 
L 414.72 307.584 
" style="fill: none; stroke: #000000; stroke-width: 0.8; stroke-linejoin: miter; stroke-linecap: square"/>
   </g>
   <g id="patch_6">
    <path d="M 57.6 41.472 
L 414.72 41.472 
" style="fill: none; stroke: #000000; stroke-width: 0.8; stroke-linejoin: miter; stroke-linecap: square"/>
   </g>
   <g id="text_15">
    <!-- English -->
    <g transform="translate(214.495313 35.472)scale(0.12 -0.12)">
     <defs>
      <path id="DejaVuSans-45" d="M 628 4666 
L 3578 4666 
L 3578 4134 
L 1259 4134 
L 1259 2753 
L 3481 2753 
L 3481 2222 
L 1259 2222 
L 1259 531 
L 3634 531 
L 3634 0 
L 628 0 
L 628 4666 
z
" transform="scale(0.015625)"/>
      <path id="DejaVuSans-67" d="M 2906 1791 
Q 2906 2416 2648 2759 
Q 2391 3103 1925 3103 
Q 1463 3103 1205 2759 
Q 947 2416 947 1791 
Q 947 1169 1205 825 
Q 1463 481 1925 481 
Q 2391 481 2648 825 
Q 2906 1169 2906 1791 
z
M 3481 434 
Q 3481 -459 3084 -895 
Q 2688 -1331 1869 -1331 
Q 1566 -1331 1297 -1286 
Q 1028 -1241 775 -1147 
L 775 -588 
Q 1028 -725 1275 -790 
Q 1522 -856 1778 -856 
Q 2344 -856 2625 -561 
Q 2906 -266 2906 331 
L 2906 616 
Q 2728 306 2450 153 
Q 2172 0 1784 0 
Q 1141 0 747 490 
Q 353 981 353 1791 
Q 353 2603 747 3093 
Q 1141 3584 1784 3584 
Q 2172 3584 2450 3431 
Q 2728 3278 2906 2969 
L 2906 3500 
L 3481 3500 
L 3481 434 
z
" transform="scale(0.015625)"/>
      <path id="DejaVuSans-68" d="M 3513 2113 
L 3513 0 
L 2938 0 
L 2938 2094 
Q 2938 2591 2744 2837 
Q 2550 3084 2163 3084 
Q 1697 3084 1428 2787 
Q 1159 2491 1159 1978 
L 1159 0 
L 581 0 
L 581 4863 
L 1159 4863 
L 1159 2956 
Q 1366 3272 1645 3428 
Q 1925 3584 2291 3584 
Q 2894 3584 3203 3211 
Q 3513 2838 3513 2113 
z
" transform="scale(0.015625)"/>
     </defs>
     <use xlink:href="#DejaVuSans-45"/>
     <use xlink:href="#DejaVuSans-6e" x="63.183594"/>
     <use xlink:href="#DejaVuSans-67" x="126.5625"/>
     <use xlink:href="#DejaVuSans-6c" x="190.039062"/>
     <use xlink:href="#DejaVuSans-69" x="217.822266"/>
     <use xlink:href="#DejaVuSans-73" x="245.605469"/>
     <use xlink:href="#DejaVuSans-68" x="297.705078"/>
    </g>
   </g>
   <g id="legend_1">
    <g id="patch_7">
     <path d="M 322.862188 108.1845 
L 407.72 108.1845 
Q 409.72 108.1845 409.72 106.1845 
L 409.72 48.472 
Q 409.72 46.472 407.72 46.472 
L 322.862188 46.472 
Q 320.862188 46.472 320.862188 48.472 
L 320.862188 106.1845 
Q 320.862188 108.1845 322.862188 108.1845 
z
" style="fill: #ffffff; opacity: 0.8; stroke: #cccccc; stroke-linejoin: miter"/>
    </g>
    <g id="line2d_17">
     <path d="M 324.862188 54.570438 
L 334.862188 54.570438 
L 344.862188 54.570438 
" style="fill: none; stroke: #1f77b4; stroke-width: 1.5; stroke-linecap: square"/>
    </g>
    <g id="text_16">
     <!-- Average -->
     <g transform="translate(352.862188 58.070438)scale(0.1 -0.1)">
      <defs>
       <path id="DejaVuSans-41" d="M 2188 4044 
L 1331 1722 
L 3047 1722 
L 2188 4044 
z
M 1831 4666 
L 2547 4666 
L 4325 0 
L 3669 0 
L 3244 1197 
L 1141 1197 
L 716 0 
L 50 0 
L 1831 4666 
z
" transform="scale(0.015625)"/>
       <path id="DejaVuSans-76" d="M 191 3500 
L 800 3500 
L 1894 563 
L 2988 3500 
L 3597 3500 
L 2284 0 
L 1503 0 
L 191 3500 
z
" transform="scale(0.015625)"/>
      </defs>
      <use xlink:href="#DejaVuSans-41"/>
      <use xlink:href="#DejaVuSans-76" x="62.533203"/>
      <use xlink:href="#DejaVuSans-65" x="121.712891"/>
      <use xlink:href="#DejaVuSans-72" x="183.236328"/>
      <use xlink:href="#DejaVuSans-61" x="224.349609"/>
      <use xlink:href="#DejaVuSans-67" x="285.628906"/>
      <use xlink:href="#DejaVuSans-65" x="349.105469"/>
     </g>
    </g>
    <g id="line2d_18">
     <path d="M 324.862188 69.248563 
L 334.862188 69.248563 
L 344.862188 69.248563 
" style="fill: none; stroke: #ff7f0e; stroke-width: 1.5; stroke-linecap: square"/>
    </g>
    <g id="text_17">
     <!-- Sum -->
     <g transform="translate(352.862188 72.748563)scale(0.1 -0.1)">
      <defs>
       <path id="DejaVuSans-53" d="M 3425 4513 
L 3425 3897 
Q 3066 4069 2747 4153 
Q 2428 4238 2131 4238 
Q 1616 4238 1336 4038 
Q 1056 3838 1056 3469 
Q 1056 3159 1242 3001 
Q 1428 2844 1947 2747 
L 2328 2669 
Q 3034 2534 3370 2195 
Q 3706 1856 3706 1288 
Q 3706 609 3251 259 
Q 2797 -91 1919 -91 
Q 1588 -91 1214 -16 
Q 841 59 441 206 
L 441 856 
Q 825 641 1194 531 
Q 1563 422 1919 422 
Q 2459 422 2753 634 
Q 3047 847 3047 1241 
Q 3047 1584 2836 1778 
Q 2625 1972 2144 2069 
L 1759 2144 
Q 1053 2284 737 2584 
Q 422 2884 422 3419 
Q 422 4038 858 4394 
Q 1294 4750 2059 4750 
Q 2388 4750 2728 4690 
Q 3069 4631 3425 4513 
z
" transform="scale(0.015625)"/>
       <path id="DejaVuSans-75" d="M 544 1381 
L 544 3500 
L 1119 3500 
L 1119 1403 
Q 1119 906 1312 657 
Q 1506 409 1894 409 
Q 2359 409 2629 706 
Q 2900 1003 2900 1516 
L 2900 3500 
L 3475 3500 
L 3475 0 
L 2900 0 
L 2900 538 
Q 2691 219 2414 64 
Q 2138 -91 1772 -91 
Q 1169 -91 856 284 
Q 544 659 544 1381 
z
M 1991 3584 
L 1991 3584 
z
" transform="scale(0.015625)"/>
       <path id="DejaVuSans-6d" d="M 3328 2828 
Q 3544 3216 3844 3400 
Q 4144 3584 4550 3584 
Q 5097 3584 5394 3201 
Q 5691 2819 5691 2113 
L 5691 0 
L 5113 0 
L 5113 2094 
Q 5113 2597 4934 2840 
Q 4756 3084 4391 3084 
Q 3944 3084 3684 2787 
Q 3425 2491 3425 1978 
L 3425 0 
L 2847 0 
L 2847 2094 
Q 2847 2600 2669 2842 
Q 2491 3084 2119 3084 
Q 1678 3084 1418 2786 
Q 1159 2488 1159 1978 
L 1159 0 
L 581 0 
L 581 3500 
L 1159 3500 
L 1159 2956 
Q 1356 3278 1631 3431 
Q 1906 3584 2284 3584 
Q 2666 3584 2933 3390 
Q 3200 3197 3328 2828 
z
" transform="scale(0.015625)"/>
      </defs>
      <use xlink:href="#DejaVuSans-53"/>
      <use xlink:href="#DejaVuSans-75" x="63.476562"/>
      <use xlink:href="#DejaVuSans-6d" x="126.855469"/>
     </g>
    </g>
    <g id="line2d_19">
     <path d="M 324.862188 83.926688 
L 334.862188 83.926688 
L 344.862188 83.926688 
" style="fill: none; stroke: #2ca02c; stroke-width: 1.5; stroke-linecap: square"/>
    </g>
    <g id="text_18">
     <!-- Max -->
     <g transform="translate(352.862188 87.426688)scale(0.1 -0.1)">
      <defs>
       <path id="DejaVuSans-4d" d="M 628 4666 
L 1569 4666 
L 2759 1491 
L 3956 4666 
L 4897 4666 
L 4897 0 
L 4281 0 
L 4281 4097 
L 3078 897 
L 2444 897 
L 1241 4097 
L 1241 0 
L 628 0 
L 628 4666 
z
" transform="scale(0.015625)"/>
       <path id="DejaVuSans-78" d="M 3513 3500 
L 2247 1797 
L 3578 0 
L 2900 0 
L 1881 1375 
L 863 0 
L 184 0 
L 1544 1831 
L 300 3500 
L 978 3500 
L 1906 2253 
L 2834 3500 
L 3513 3500 
z
" transform="scale(0.015625)"/>
      </defs>
      <use xlink:href="#DejaVuSans-4d"/>
      <use xlink:href="#DejaVuSans-61" x="86.279297"/>
      <use xlink:href="#DejaVuSans-78" x="147.558594"/>
     </g>
    </g>
    <g id="line2d_20">
     <path d="M 324.862188 98.604813 
L 334.862188 98.604813 
L 344.862188 98.604813 
" style="fill: none; stroke: #d62728; stroke-width: 1.5; stroke-linecap: square"/>
    </g>
    <g id="text_19">
     <!-- Probability -->
     <g transform="translate(352.862188 102.104813)scale(0.1 -0.1)">
      <defs>
       <path id="DejaVuSans-62" d="M 3116 1747 
Q 3116 2381 2855 2742 
Q 2594 3103 2138 3103 
Q 1681 3103 1420 2742 
Q 1159 2381 1159 1747 
Q 1159 1113 1420 752 
Q 1681 391 2138 391 
Q 2594 391 2855 752 
Q 3116 1113 3116 1747 
z
M 1159 2969 
Q 1341 3281 1617 3432 
Q 1894 3584 2278 3584 
Q 2916 3584 3314 3078 
Q 3713 2572 3713 1747 
Q 3713 922 3314 415 
Q 2916 -91 2278 -91 
Q 1894 -91 1617 61 
Q 1341 213 1159 525 
L 1159 0 
L 581 0 
L 581 4863 
L 1159 4863 
L 1159 2969 
z
" transform="scale(0.015625)"/>
       <path id="DejaVuSans-74" d="M 1172 4494 
L 1172 3500 
L 2356 3500 
L 2356 3053 
L 1172 3053 
L 1172 1153 
Q 1172 725 1289 603 
Q 1406 481 1766 481 
L 2356 481 
L 2356 0 
L 1766 0 
Q 1100 0 847 248 
Q 594 497 594 1153 
L 594 3053 
L 172 3053 
L 172 3500 
L 594 3500 
L 594 4494 
L 1172 4494 
z
" transform="scale(0.015625)"/>
       <path id="DejaVuSans-79" d="M 2059 -325 
Q 1816 -950 1584 -1140 
Q 1353 -1331 966 -1331 
L 506 -1331 
L 506 -850 
L 844 -850 
Q 1081 -850 1212 -737 
Q 1344 -625 1503 -206 
L 1606 56 
L 191 3500 
L 800 3500 
L 1894 763 
L 2988 3500 
L 3597 3500 
L 2059 -325 
z
" transform="scale(0.015625)"/>
      </defs>
      <use xlink:href="#DejaVuSans-50"/>
      <use xlink:href="#DejaVuSans-72" x="58.552734"/>
      <use xlink:href="#DejaVuSans-6f" x="97.416016"/>
      <use xlink:href="#DejaVuSans-62" x="158.597656"/>
      <use xlink:href="#DejaVuSans-61" x="222.074219"/>
      <use xlink:href="#DejaVuSans-62" x="283.353516"/>
      <use xlink:href="#DejaVuSans-69" x="346.830078"/>
      <use xlink:href="#DejaVuSans-6c" x="374.613281"/>
      <use xlink:href="#DejaVuSans-69" x="402.396484"/>
      <use xlink:href="#DejaVuSans-74" x="430.179688"/>
      <use xlink:href="#DejaVuSans-79" x="469.388672"/>
     </g>
    </g>
   </g>
  </g>
 </g>
 <defs>
  <clipPath id="pd52e913c31">
   <rect x="57.6" y="41.472" width="357.12" height="266.112"/>
  </clipPath>
 </defs>
</svg>
