<?xml version="1.0" encoding="utf-8" standalone="no"?>
<!DOCTYPE svg PUBLIC "-//W3C//DTD SVG 1.1//EN"
  "http://www.w3.org/Graphics/SVG/1.1/DTD/svg11.dtd">
<svg xmlns:xlink="http://www.w3.org/1999/xlink" width="460.8pt" height="345.6pt" viewBox="0 0 460.8 345.6" xmlns="http://www.w3.org/2000/svg" version="1.1">
 <metadata>
  <rdf:RDF xmlns:dc="http://purl.org/dc/elements/1.1/" xmlns:cc="http://creativecommons.org/ns#" xmlns:rdf="http://www.w3.org/1999/02/22-rdf-syntax-ns#">
   <cc:Work>
    <dc:type rdf:resource="http://purl.org/dc/dcmitype/StillImage"/>
    <dc:date>2024-04-08T13:40:43.515854</dc:date>
    <dc:format>image/svg+xml</dc:format>
    <dc:creator>
     <cc:Agent>
      <dc:title>Matplotlib v3.5.1, https://matplotlib.org/</dc:title>
     </cc:Agent>
    </dc:creator>
   </cc:Work>
  </rdf:RDF>
 </metadata>
 <defs>
  <style type="text/css">*{stroke-linejoin: round; stroke-linecap: butt}</style>
 </defs>
 <g id="figure_1">
  <g id="patch_1">
   <path d="M 0 345.6 
L 460.8 345.6 
L 460.8 0 
L 0 0 
z
" style="fill: #ffffff"/>
  </g>
  <g id="axes_1">
   <g id="patch_2">
    <path d="M 57.6 307.584 
L 414.72 307.584 
L 414.72 41.472 
L 57.6 41.472 
z
" style="fill: #ffffff"/>
   </g>
   <g id="matplotlib.axis_1">
    <g id="xtick_1">
     <g id="line2d_1">
      <defs>
       <path id="m3d141e32fd" d="M 0 0 
L 0 3.5 
" style="stroke: #000000; stroke-width: 0.8"/>
      </defs>
      <g>
       <use xlink:href="#m3d141e32fd" x="73.832727" y="307.584" style="stroke: #000000; stroke-width: 0.8"/>
      </g>
     </g>
     <g id="text_1">
      <!-- 0.0 -->
      <g transform="translate(65.881165 322.182437)scale(0.1 -0.1)">
       <defs>
        <path id="DejaVuSans-30" d="M 2034 4250 
Q 1547 4250 1301 3770 
Q 1056 3291 1056 2328 
Q 1056 1369 1301 889 
Q 1547 409 2034 409 
Q 2525 409 2770 889 
Q 3016 1369 3016 2328 
Q 3016 3291 2770 3770 
Q 2525 4250 2034 4250 
z
M 2034 4750 
Q 2819 4750 3233 4129 
Q 3647 3509 3647 2328 
Q 3647 1150 3233 529 
Q 2819 -91 2034 -91 
Q 1250 -91 836 529 
Q 422 1150 422 2328 
Q 422 3509 836 4129 
Q 1250 4750 2034 4750 
z
" transform="scale(0.015625)"/>
        <path id="DejaVuSans-2e" d="M 684 794 
L 1344 794 
L 1344 0 
L 684 0 
L 684 794 
z
" transform="scale(0.015625)"/>
       </defs>
       <use xlink:href="#DejaVuSans-30"/>
       <use xlink:href="#DejaVuSans-2e" x="63.623047"/>
       <use xlink:href="#DejaVuSans-30" x="95.410156"/>
      </g>
     </g>
    </g>
    <g id="xtick_2">
     <g id="line2d_2">
      <g>
       <use xlink:href="#m3d141e32fd" x="138.763636" y="307.584" style="stroke: #000000; stroke-width: 0.8"/>
      </g>
     </g>
     <g id="text_2">
      <!-- 0.2 -->
      <g transform="translate(130.812074 322.182437)scale(0.1 -0.1)">
       <defs>
        <path id="DejaVuSans-32" d="M 1228 531 
L 3431 531 
L 3431 0 
L 469 0 
L 469 531 
Q 828 903 1448 1529 
Q 2069 2156 2228 2338 
Q 2531 2678 2651 2914 
Q 2772 3150 2772 3378 
Q 2772 3750 2511 3984 
Q 2250 4219 1831 4219 
Q 1534 4219 1204 4116 
Q 875 4013 500 3803 
L 500 4441 
Q 881 4594 1212 4672 
Q 1544 4750 1819 4750 
Q 2544 4750 2975 4387 
Q 3406 4025 3406 3419 
Q 3406 3131 3298 2873 
Q 3191 2616 2906 2266 
Q 2828 2175 2409 1742 
Q 1991 1309 1228 531 
z
" transform="scale(0.015625)"/>
       </defs>
       <use xlink:href="#DejaVuSans-30"/>
       <use xlink:href="#DejaVuSans-2e" x="63.623047"/>
       <use xlink:href="#DejaVuSans-32" x="95.410156"/>
      </g>
     </g>
    </g>
    <g id="xtick_3">
     <g id="line2d_3">
      <g>
       <use xlink:href="#m3d141e32fd" x="203.694545" y="307.584" style="stroke: #000000; stroke-width: 0.8"/>
      </g>
     </g>
     <g id="text_3">
      <!-- 0.4 -->
      <g transform="translate(195.742983 322.182437)scale(0.1 -0.1)">
       <defs>
        <path id="DejaVuSans-34" d="M 2419 4116 
L 825 1625 
L 2419 1625 
L 2419 4116 
z
M 2253 4666 
L 3047 4666 
L 3047 1625 
L 3713 1625 
L 3713 1100 
L 3047 1100 
L 3047 0 
L 2419 0 
L 2419 1100 
L 313 1100 
L 313 1709 
L 2253 4666 
z
" transform="scale(0.015625)"/>
       </defs>
       <use xlink:href="#DejaVuSans-30"/>
       <use xlink:href="#DejaVuSans-2e" x="63.623047"/>
       <use xlink:href="#DejaVuSans-34" x="95.410156"/>
      </g>
     </g>
    </g>
    <g id="xtick_4">
     <g id="line2d_4">
      <g>
       <use xlink:href="#m3d141e32fd" x="268.625455" y="307.584" style="stroke: #000000; stroke-width: 0.8"/>
      </g>
     </g>
     <g id="text_4">
      <!-- 0.6 -->
      <g transform="translate(260.673892 322.182437)scale(0.1 -0.1)">
       <defs>
        <path id="DejaVuSans-36" d="M 2113 2584 
Q 1688 2584 1439 2293 
Q 1191 2003 1191 1497 
Q 1191 994 1439 701 
Q 1688 409 2113 409 
Q 2538 409 2786 701 
Q 3034 994 3034 1497 
Q 3034 2003 2786 2293 
Q 2538 2584 2113 2584 
z
M 3366 4563 
L 3366 3988 
Q 3128 4100 2886 4159 
Q 2644 4219 2406 4219 
Q 1781 4219 1451 3797 
Q 1122 3375 1075 2522 
Q 1259 2794 1537 2939 
Q 1816 3084 2150 3084 
Q 2853 3084 3261 2657 
Q 3669 2231 3669 1497 
Q 3669 778 3244 343 
Q 2819 -91 2113 -91 
Q 1303 -91 875 529 
Q 447 1150 447 2328 
Q 447 3434 972 4092 
Q 1497 4750 2381 4750 
Q 2619 4750 2861 4703 
Q 3103 4656 3366 4563 
z
" transform="scale(0.015625)"/>
       </defs>
       <use xlink:href="#DejaVuSans-30"/>
       <use xlink:href="#DejaVuSans-2e" x="63.623047"/>
       <use xlink:href="#DejaVuSans-36" x="95.410156"/>
      </g>
     </g>
    </g>
    <g id="xtick_5">
     <g id="line2d_5">
      <g>
       <use xlink:href="#m3d141e32fd" x="333.556364" y="307.584" style="stroke: #000000; stroke-width: 0.8"/>
      </g>
     </g>
     <g id="text_5">
      <!-- 0.8 -->
      <g transform="translate(325.604801 322.182437)scale(0.1 -0.1)">
       <defs>
        <path id="DejaVuSans-38" d="M 2034 2216 
Q 1584 2216 1326 1975 
Q 1069 1734 1069 1313 
Q 1069 891 1326 650 
Q 1584 409 2034 409 
Q 2484 409 2743 651 
Q 3003 894 3003 1313 
Q 3003 1734 2745 1975 
Q 2488 2216 2034 2216 
z
M 1403 2484 
Q 997 2584 770 2862 
Q 544 3141 544 3541 
Q 544 4100 942 4425 
Q 1341 4750 2034 4750 
Q 2731 4750 3128 4425 
Q 3525 4100 3525 3541 
Q 3525 3141 3298 2862 
Q 3072 2584 2669 2484 
Q 3125 2378 3379 2068 
Q 3634 1759 3634 1313 
Q 3634 634 3220 271 
Q 2806 -91 2034 -91 
Q 1263 -91 848 271 
Q 434 634 434 1313 
Q 434 1759 690 2068 
Q 947 2378 1403 2484 
z
M 1172 3481 
Q 1172 3119 1398 2916 
Q 1625 2713 2034 2713 
Q 2441 2713 2670 2916 
Q 2900 3119 2900 3481 
Q 2900 3844 2670 4047 
Q 2441 4250 2034 4250 
Q 1625 4250 1398 4047 
Q 1172 3844 1172 3481 
z
" transform="scale(0.015625)"/>
       </defs>
       <use xlink:href="#DejaVuSans-30"/>
       <use xlink:href="#DejaVuSans-2e" x="63.623047"/>
       <use xlink:href="#DejaVuSans-38" x="95.410156"/>
      </g>
     </g>
    </g>
    <g id="xtick_6">
     <g id="line2d_6">
      <g>
       <use xlink:href="#m3d141e32fd" x="398.487273" y="307.584" style="stroke: #000000; stroke-width: 0.8"/>
      </g>
     </g>
     <g id="text_6">
      <!-- 1.0 -->
      <g transform="translate(390.53571 322.182437)scale(0.1 -0.1)">
       <defs>
        <path id="DejaVuSans-31" d="M 794 531 
L 1825 531 
L 1825 4091 
L 703 3866 
L 703 4441 
L 1819 4666 
L 2450 4666 
L 2450 531 
L 3481 531 
L 3481 0 
L 794 0 
L 794 531 
z
" transform="scale(0.015625)"/>
       </defs>
       <use xlink:href="#DejaVuSans-31"/>
       <use xlink:href="#DejaVuSans-2e" x="63.623047"/>
       <use xlink:href="#DejaVuSans-30" x="95.410156"/>
      </g>
     </g>
    </g>
    <g id="text_7">
     <!-- Recall -->
     <g transform="translate(221.242812 335.860562)scale(0.1 -0.1)">
      <defs>
       <path id="DejaVuSans-52" d="M 2841 2188 
Q 3044 2119 3236 1894 
Q 3428 1669 3622 1275 
L 4263 0 
L 3584 0 
L 2988 1197 
Q 2756 1666 2539 1819 
Q 2322 1972 1947 1972 
L 1259 1972 
L 1259 0 
L 628 0 
L 628 4666 
L 2053 4666 
Q 2853 4666 3247 4331 
Q 3641 3997 3641 3322 
Q 3641 2881 3436 2590 
Q 3231 2300 2841 2188 
z
M 1259 4147 
L 1259 2491 
L 2053 2491 
Q 2509 2491 2742 2702 
Q 2975 2913 2975 3322 
Q 2975 3731 2742 3939 
Q 2509 4147 2053 4147 
L 1259 4147 
z
" transform="scale(0.015625)"/>
       <path id="DejaVuSans-65" d="M 3597 1894 
L 3597 1613 
L 953 1613 
Q 991 1019 1311 708 
Q 1631 397 2203 397 
Q 2534 397 2845 478 
Q 3156 559 3463 722 
L 3463 178 
Q 3153 47 2828 -22 
Q 2503 -91 2169 -91 
Q 1331 -91 842 396 
Q 353 884 353 1716 
Q 353 2575 817 3079 
Q 1281 3584 2069 3584 
Q 2775 3584 3186 3129 
Q 3597 2675 3597 1894 
z
M 3022 2063 
Q 3016 2534 2758 2815 
Q 2500 3097 2075 3097 
Q 1594 3097 1305 2825 
Q 1016 2553 972 2059 
L 3022 2063 
z
" transform="scale(0.015625)"/>
       <path id="DejaVuSans-63" d="M 3122 3366 
L 3122 2828 
Q 2878 2963 2633 3030 
Q 2388 3097 2138 3097 
Q 1578 3097 1268 2742 
Q 959 2388 959 1747 
Q 959 1106 1268 751 
Q 1578 397 2138 397 
Q 2388 397 2633 464 
Q 2878 531 3122 666 
L 3122 134 
Q 2881 22 2623 -34 
Q 2366 -91 2075 -91 
Q 1284 -91 818 406 
Q 353 903 353 1747 
Q 353 2603 823 3093 
Q 1294 3584 2113 3584 
Q 2378 3584 2631 3529 
Q 2884 3475 3122 3366 
z
" transform="scale(0.015625)"/>
       <path id="DejaVuSans-61" d="M 2194 1759 
Q 1497 1759 1228 1600 
Q 959 1441 959 1056 
Q 959 750 1161 570 
Q 1363 391 1709 391 
Q 2188 391 2477 730 
Q 2766 1069 2766 1631 
L 2766 1759 
L 2194 1759 
z
M 3341 1997 
L 3341 0 
L 2766 0 
L 2766 531 
Q 2569 213 2275 61 
Q 1981 -91 1556 -91 
Q 1019 -91 701 211 
Q 384 513 384 1019 
Q 384 1609 779 1909 
Q 1175 2209 1959 2209 
L 2766 2209 
L 2766 2266 
Q 2766 2663 2505 2880 
Q 2244 3097 1772 3097 
Q 1472 3097 1187 3025 
Q 903 2953 641 2809 
L 641 3341 
Q 956 3463 1253 3523 
Q 1550 3584 1831 3584 
Q 2591 3584 2966 3190 
Q 3341 2797 3341 1997 
z
" transform="scale(0.015625)"/>
       <path id="DejaVuSans-6c" d="M 603 4863 
L 1178 4863 
L 1178 0 
L 603 0 
L 603 4863 
z
" transform="scale(0.015625)"/>
      </defs>
      <use xlink:href="#DejaVuSans-52"/>
      <use xlink:href="#DejaVuSans-65" x="64.982422"/>
      <use xlink:href="#DejaVuSans-63" x="126.505859"/>
      <use xlink:href="#DejaVuSans-61" x="181.486328"/>
      <use xlink:href="#DejaVuSans-6c" x="242.765625"/>
      <use xlink:href="#DejaVuSans-6c" x="270.548828"/>
     </g>
    </g>
   </g>
   <g id="matplotlib.axis_2">
    <g id="ytick_1">
     <g id="line2d_7">
      <defs>
       <path id="mb28cc70890" d="M 0 0 
L -3.5 0 
" style="stroke: #000000; stroke-width: 0.8"/>
      </defs>
      <g>
       <use xlink:href="#mb28cc70890" x="57.6" y="295.488" style="stroke: #000000; stroke-width: 0.8"/>
      </g>
     </g>
     <g id="text_8">
      <!-- 0.0 -->
      <g transform="translate(34.696875 299.287219)scale(0.1 -0.1)">
       <use xlink:href="#DejaVuSans-30"/>
       <use xlink:href="#DejaVuSans-2e" x="63.623047"/>
       <use xlink:href="#DejaVuSans-30" x="95.410156"/>
      </g>
     </g>
    </g>
    <g id="ytick_2">
     <g id="line2d_8">
      <g>
       <use xlink:href="#mb28cc70890" x="57.6" y="247.104" style="stroke: #000000; stroke-width: 0.8"/>
      </g>
     </g>
     <g id="text_9">
      <!-- 0.2 -->
      <g transform="translate(34.696875 250.903219)scale(0.1 -0.1)">
       <use xlink:href="#DejaVuSans-30"/>
       <use xlink:href="#DejaVuSans-2e" x="63.623047"/>
       <use xlink:href="#DejaVuSans-32" x="95.410156"/>
      </g>
     </g>
    </g>
    <g id="ytick_3">
     <g id="line2d_9">
      <g>
       <use xlink:href="#mb28cc70890" x="57.6" y="198.72" style="stroke: #000000; stroke-width: 0.8"/>
      </g>
     </g>
     <g id="text_10">
      <!-- 0.4 -->
      <g transform="translate(34.696875 202.519219)scale(0.1 -0.1)">
       <use xlink:href="#DejaVuSans-30"/>
       <use xlink:href="#DejaVuSans-2e" x="63.623047"/>
       <use xlink:href="#DejaVuSans-34" x="95.410156"/>
      </g>
     </g>
    </g>
    <g id="ytick_4">
     <g id="line2d_10">
      <g>
       <use xlink:href="#mb28cc70890" x="57.6" y="150.336" style="stroke: #000000; stroke-width: 0.8"/>
      </g>
     </g>
     <g id="text_11">
      <!-- 0.6 -->
      <g transform="translate(34.696875 154.135219)scale(0.1 -0.1)">
       <use xlink:href="#DejaVuSans-30"/>
       <use xlink:href="#DejaVuSans-2e" x="63.623047"/>
       <use xlink:href="#DejaVuSans-36" x="95.410156"/>
      </g>
     </g>
    </g>
    <g id="ytick_5">
     <g id="line2d_11">
      <g>
       <use xlink:href="#mb28cc70890" x="57.6" y="101.952" style="stroke: #000000; stroke-width: 0.8"/>
      </g>
     </g>
     <g id="text_12">
      <!-- 0.8 -->
      <g transform="translate(34.696875 105.751219)scale(0.1 -0.1)">
       <use xlink:href="#DejaVuSans-30"/>
       <use xlink:href="#DejaVuSans-2e" x="63.623047"/>
       <use xlink:href="#DejaVuSans-38" x="95.410156"/>
      </g>
     </g>
    </g>
    <g id="ytick_6">
     <g id="line2d_12">
      <g>
       <use xlink:href="#mb28cc70890" x="57.6" y="53.568" style="stroke: #000000; stroke-width: 0.8"/>
      </g>
     </g>
     <g id="text_13">
      <!-- 1.0 -->
      <g transform="translate(34.696875 57.367219)scale(0.1 -0.1)">
       <use xlink:href="#DejaVuSans-31"/>
       <use xlink:href="#DejaVuSans-2e" x="63.623047"/>
       <use xlink:href="#DejaVuSans-30" x="95.410156"/>
      </g>
     </g>
    </g>
    <g id="text_14">
     <!-- Precision -->
     <g transform="translate(28.617187 196.835031)rotate(-90)scale(0.1 -0.1)">
      <defs>
       <path id="DejaVuSans-50" d="M 1259 4147 
L 1259 2394 
L 2053 2394 
Q 2494 2394 2734 2622 
Q 2975 2850 2975 3272 
Q 2975 3691 2734 3919 
Q 2494 4147 2053 4147 
L 1259 4147 
z
M 628 4666 
L 2053 4666 
Q 2838 4666 3239 4311 
Q 3641 3956 3641 3272 
Q 3641 2581 3239 2228 
Q 2838 1875 2053 1875 
L 1259 1875 
L 1259 0 
L 628 0 
L 628 4666 
z
" transform="scale(0.015625)"/>
       <path id="DejaVuSans-72" d="M 2631 2963 
Q 2534 3019 2420 3045 
Q 2306 3072 2169 3072 
Q 1681 3072 1420 2755 
Q 1159 2438 1159 1844 
L 1159 0 
L 581 0 
L 581 3500 
L 1159 3500 
L 1159 2956 
Q 1341 3275 1631 3429 
Q 1922 3584 2338 3584 
Q 2397 3584 2469 3576 
Q 2541 3569 2628 3553 
L 2631 2963 
z
" transform="scale(0.015625)"/>
       <path id="DejaVuSans-69" d="M 603 3500 
L 1178 3500 
L 1178 0 
L 603 0 
L 603 3500 
z
M 603 4863 
L 1178 4863 
L 1178 4134 
L 603 4134 
L 603 4863 
z
" transform="scale(0.015625)"/>
       <path id="DejaVuSans-73" d="M 2834 3397 
L 2834 2853 
Q 2591 2978 2328 3040 
Q 2066 3103 1784 3103 
Q 1356 3103 1142 2972 
Q 928 2841 928 2578 
Q 928 2378 1081 2264 
Q 1234 2150 1697 2047 
L 1894 2003 
Q 2506 1872 2764 1633 
Q 3022 1394 3022 966 
Q 3022 478 2636 193 
Q 2250 -91 1575 -91 
Q 1294 -91 989 -36 
Q 684 19 347 128 
L 347 722 
Q 666 556 975 473 
Q 1284 391 1588 391 
Q 1994 391 2212 530 
Q 2431 669 2431 922 
Q 2431 1156 2273 1281 
Q 2116 1406 1581 1522 
L 1381 1569 
Q 847 1681 609 1914 
Q 372 2147 372 2553 
Q 372 3047 722 3315 
Q 1072 3584 1716 3584 
Q 2034 3584 2315 3537 
Q 2597 3491 2834 3397 
z
" transform="scale(0.015625)"/>
       <path id="DejaVuSans-6f" d="M 1959 3097 
Q 1497 3097 1228 2736 
Q 959 2375 959 1747 
Q 959 1119 1226 758 
Q 1494 397 1959 397 
Q 2419 397 2687 759 
Q 2956 1122 2956 1747 
Q 2956 2369 2687 2733 
Q 2419 3097 1959 3097 
z
M 1959 3584 
Q 2709 3584 3137 3096 
Q 3566 2609 3566 1747 
Q 3566 888 3137 398 
Q 2709 -91 1959 -91 
Q 1206 -91 779 398 
Q 353 888 353 1747 
Q 353 2609 779 3096 
Q 1206 3584 1959 3584 
z
" transform="scale(0.015625)"/>
       <path id="DejaVuSans-6e" d="M 3513 2113 
L 3513 0 
L 2938 0 
L 2938 2094 
Q 2938 2591 2744 2837 
Q 2550 3084 2163 3084 
Q 1697 3084 1428 2787 
Q 1159 2491 1159 1978 
L 1159 0 
L 581 0 
L 581 3500 
L 1159 3500 
L 1159 2956 
Q 1366 3272 1645 3428 
Q 1925 3584 2291 3584 
Q 2894 3584 3203 3211 
Q 3513 2838 3513 2113 
z
" transform="scale(0.015625)"/>
      </defs>
      <use xlink:href="#DejaVuSans-50"/>
      <use xlink:href="#DejaVuSans-72" x="58.552734"/>
      <use xlink:href="#DejaVuSans-65" x="97.416016"/>
      <use xlink:href="#DejaVuSans-63" x="158.939453"/>
      <use xlink:href="#DejaVuSans-69" x="213.919922"/>
      <use xlink:href="#DejaVuSans-73" x="241.703125"/>
      <use xlink:href="#DejaVuSans-69" x="293.802734"/>
      <use xlink:href="#DejaVuSans-6f" x="321.585938"/>
      <use xlink:href="#DejaVuSans-6e" x="382.767578"/>
     </g>
    </g>
   </g>
   <g id="line2d_13">
    <path d="M 334.023645 294.213362 
L 332.855441 294.033822 
L 330.943834 293.873288 
L 326.377218 293.354531 
L 323.085007 292.821561 
L 320.960999 292.623023 
L 320.854799 292.555957 
L 320.323797 292.486341 
L 319.898995 292.345742 
L 318.943192 292.247893 
L 318.518391 292.187215 
L 318.093589 292.089832 
L 317.350186 291.954645 
L 315.54478 291.787764 
L 315.013778 291.622114 
L 313.633173 291.479787 
L 313.208372 291.39778 
L 310.978164 291.202511 
L 310.340962 291.003189 
L 309.91616 290.878124 
L 308.854156 290.758968 
L 308.641756 290.691383 
L 308.216954 290.621818 
L 307.792153 290.45647 
L 304.924743 289.863036 
L 303.544138 289.687198 
L 303.013136 289.476077 
L 302.694535 289.414636 
L 302.163533 289.270241 
L 300.995329 289.055125 
L 299.614724 288.722387 
L 299.296123 288.582598 
L 298.765121 288.490765 
L 298.55272 288.279321 
L 296.534913 287.51938 
L 296.428713 287.343304 
L 294.835707 287.103417 
L 294.410906 286.816538 
L 293.667503 286.691991 
L 293.348902 286.418139 
L 291.224894 285.868531 
L 291.012494 285.734123 
L 290.481492 285.571054 
L 286.870679 284.246854 
L 286.764479 284.243602 
L 286.445877 283.96663 
L 285.914876 283.852581 
L 285.596274 283.76503 
L 285.383874 283.743967 
L 285.171473 283.358171 
L 285.065273 283.313961 
L 284.852872 283.048618 
L 284.32187 282.736067 
L 284.003269 282.552045 
L 283.897068 282.377206 
L 283.684668 281.678776 
L 281.879261 280.615682 
L 281.45446 280.447339 
L 281.135859 280.132994 
L 280.498656 279.954929 
L 280.286256 279.584697 
L 279.967655 279.462379 
L 279.649053 279.098971 
L 279.436653 279.029006 
L 279.224252 278.582621 
L 278.79945 278.378964 
L 278.58705 278.150835 
L 278.268449 277.958885 
L 278.056048 277.826187 
L 277.843647 277.705482 
L 277.418846 277.132873 
L 277.206445 276.939864 
L 276.463042 276.529469 
L 276.038241 276.367382 
L 275.71964 276.146202 
L 275.401038 276.042603 
L 275.294838 275.941095 
L 274.976237 275.887689 
L 274.551435 275.512081 
L 274.232834 275.1084 
L 273.914233 274.919505 
L 273.06463 274.364336 
L 272.746029 273.829563 
L 272.321228 273.584765 
L 272.108827 273.370345 
L 271.790226 272.60351 
L 271.259224 272.372803 
L 270.834422 271.73143 
L 270.622022 271.614231 
L 270.515821 271.610584 
L 270.30342 271.193569 
L 269.984819 270.753639 
L 269.878619 270.634958 
L 269.666218 270.580101 
L 269.453817 270.388493 
L 269.347617 270.327008 
L 268.922816 270.218935 
L 268.710415 269.925222 
L 268.285613 269.480748 
L 267.967012 269.106698 
L 267.754611 268.585082 
L 267.32981 268.494416 
L 267.117409 268.285825 
L 266.798808 267.61781 
L 266.692608 267.603092 
L 266.586407 267.433256 
L 266.267806 267.304958 
L 265.843005 266.538939 
L 265.524404 266.144166 
L 264.993402 265.913428 
L 264.781001 265.444337 
L 264.249999 265.195203 
L 264.037598 264.665014 
L 263.718997 264.615617 
L 263.506596 264.363586 
L 263.400396 264.356344 
L 262.869394 263.524105 
L 262.444593 263.297252 
L 262.125992 262.959245 
L 261.80739 262.592678 
L 261.59499 262.55141 
L 261.382589 262.29214 
L 261.276389 262.274808 
L 261.063988 261.9946 
L 260.851587 261.652632 
L 260.745387 261.390202 
L 260.214385 261.003789 
L 259.789583 260.831866 
L 259.577183 260.386118 
L 259.364782 259.622908 
L 259.152381 259.514383 
L 258.83378 259.019963 
L 258.408978 258.951942 
L 258.090377 258.827051 
L 257.665576 258.214879 
L 257.346975 257.816759 
L 257.134574 256.843491 
L 256.815973 256.429889 
L 256.603572 256.368925 
L 256.391171 256.118457 
L 256.178771 256.100873 
L 255.96637 255.31635 
L 255.647769 254.891348 
L 255.329168 254.447571 
L 255.222967 254.410422 
L 255.010567 253.744749 
L 254.904366 253.582727 
L 254.798166 253.207828 
L 254.585765 253.174996 
L 254.373364 252.892039 
L 254.267164 252.881793 
L 254.160964 252.734028 
L 253.948563 251.806927 
L 253.629962 251.277016 
L 253.09896 250.696845 
L 252.461758 250.280863 
L 252.355557 249.866784 
L 251.930756 249.474635 
L 251.187353 247.472027 
L 250.974952 246.999348 
L 250.656351 246.81165 
L 250.550151 246.251836 
L 249.806748 245.36779 
L 249.700548 245.316488 
L 249.275746 244.151861 
L 248.744744 243.472042 
L 248.638544 243.469669 
L 248.426143 243.32162 
L 247.895141 241.512111 
L 247.788941 241.464147 
L 247.682741 241.201086 
L 247.47034 241.006017 
L 247.257939 240.458698 
L 246.514537 240.193943 
L 245.983535 239.887217 
L 245.558733 238.638031 
L 244.284329 237.126118 
L 244.178128 236.818559 
L 243.116125 235.571828 
L 242.903724 235.525889 
L 242.691323 234.95089 
L 242.372722 234.508483 
L 242.266522 234.508165 
L 241.94792 233.829755 
L 241.310718 232.605547 
L 241.098317 232.341828 
L 240.885917 231.553161 
L 240.673516 231.23503 
L 240.354915 231.030811 
L 239.717713 229.884 
L 239.611512 229.846227 
L 239.08051 229.004863 
L 238.655709 228.644518 
L 238.549508 228.424922 
L 238.337108 227.539844 
L 238.018507 227.37503 
L 237.912306 227.220164 
L 237.593705 225.890866 
L 237.487505 225.478851 
L 236.425501 224.62909 
L 236.319301 224.294001 
L 235.788299 224.197565 
L 235.575898 222.759188 
L 235.257297 222.658053 
L 235.044896 222.4501 
L 234.620095 222.073111 
L 234.301493 221.715826 
L 233.982892 221.518949 
L 233.558091 220.560554 
L 233.34569 220.007352 
L 232.602287 218.683923 
L 232.389887 218.60708 
L 232.071286 218.202237 
L 231.858885 217.621472 
L 231.221683 217.513785 
L 230.903081 216.781515 
L 230.796881 215.960028 
L 230.265879 215.839328 
L 229.947278 215.590808 
L 229.841078 215.320962 
L 229.628677 213.789878 
L 229.522477 213.676069 
L 229.310076 213.351896 
L 228.991475 212.984471 
L 228.672874 212.592733 
L 228.566673 212.081128 
L 227.929471 211.005227 
L 227.71707 210.631529 
L 227.504669 210.563633 
L 227.186068 210.326498 
L 226.124065 209.93602 
L 225.911664 209.568 
L 225.699263 209.538783 
L 225.486862 209.079356 
L 225.168261 208.849146 
L 224.74346 208.081867 
L 224.531059 208.026986 
L 224.318658 206.240242 
L 224.000057 205.610207 
L 223.787656 205.548284 
L 223.681456 205.303292 
L 223.044254 204.84864 
L 222.513252 204.662578 
L 222.194651 204.023253 
L 221.663649 203.754783 
L 221.557448 203.343772 
L 220.601645 203.054093 
L 220.495445 202.166346 
L 219.858242 201.601463 
L 219.22104 199.741114 
L 218.690038 199.284245 
L 218.371437 198.190979 
L 218.265237 198.089776 
L 218.052836 197.566283 
L 217.946636 197.52159 
L 217.840435 197.065102 
L 217.734235 195.79165 
L 217.521834 195.574154 
L 217.309433 195.538789 
L 216.990832 195.270372 
L 216.884632 195.190604 
L 216.672231 194.843892 
L 216.35363 194.159461 
L 216.141229 193.514801 
L 215.822628 193.034075 
L 215.610227 192.894861 
L 215.185426 192.449434 
L 214.654424 192.440804 
L 214.548224 191.986547 
L 214.335823 191.673482 
L 214.123422 191.289656 
L 213.911022 191.038743 
L 213.273819 190.72515 
L 213.061419 189.874573 
L 212.636617 189.526391 
L 212.424216 188.90272 
L 212.318016 188.876415 
L 212.105615 188.352 
L 211.999415 188.142188 
L 211.787014 187.385461 
L 211.574613 187.029569 
L 211.362213 185.870645 
L 210.937411 185.167011 
L 210.831211 185.018336 
L 210.51261 184.883723 
L 210.087808 184.676376 
L 209.556806 184.434207 
L 209.238205 181.962788 
L 208.813404 181.816902 
L 208.707203 181.527169 
L 208.494802 181.368 
L 208.388602 180.689258 
L 207.8576 180.582829 
L 207.538999 179.898899 
L 207.114198 179.694865 
L 207.007997 179.032077 
L 206.689396 178.321171 
L 206.370795 177.965166 
L 206.158394 177.04701 
L 205.945993 176.957681 
L 205.839793 176.53762 
L 205.627392 176.304705 
L 204.88399 176.028504 
L 204.352988 175.018113 
L 204.140587 174.969998 
L 203.715786 174.230557 
L 203.397184 173.578706 
L 203.078583 172.660866 
L 202.972383 172.659307 
L 202.759982 172.088471 
L 202.653782 172.034504 
L 202.441381 171.612685 
L 202.22898 171.502718 
L 201.591778 171.328546 
L 201.485578 171.113389 
L 200.848375 170.72029 
L 200.635975 170.497745 
L 200.529774 170.440097 
L 200.211173 169.333399 
L 199.786372 169.259615 
L 199.467771 168.686334 
L 199.36157 168.568586 
L 199.149169 166.609625 
L 198.936769 165.950836 
L 198.830568 165.943032 
L 198.299566 164.708369 
L 197.980965 164.620587 
L 197.556164 164.156779 
L 197.343763 162.899423 
L 197.237563 162.888453 
L 196.60036 161.871411 
L 196.281759 161.70682 
L 196.069359 160.710691 
L 195.963158 160.5011 
L 195.750757 159.482045 
L 195.432156 158.968335 
L 195.219756 158.802602 
L 194.901154 158.14298 
L 194.476353 157.871015 
L 194.263952 156.933818 
L 194.051551 156.54663 
L 193.839151 155.657003 
L 193.308149 155.126989 
L 193.095748 154.357527 
L 192.883347 154.315527 
L 192.033744 153.699185 
L 191.715143 152.652255 
L 191.608943 152.628958 
L 191.184141 152.152021 
L 191.077941 152.128 
L 190.653139 151.488 
L 190.228338 151.309468 
L 190.122138 151.205647 
L 189.591136 149.640212 
L 189.484935 148.308737 
L 189.272535 147.753708 
L 188.953933 147.496307 
L 188.847733 147.214452 
L 188.422932 147.005816 
L 188.10433 146.144386 
L 187.679529 146.01351 
L 186.829926 144.96 
L 186.617525 144.359153 
L 186.298924 143.624763 
L 185.980323 143.51446 
L 185.767922 142.711679 
L 185.23692 142.612048 
L 183.431514 142.039051 
L 182.794312 140.840075 
L 182.581911 140.465422 
L 182.26331 140.239527 
L 182.157109 139.902628 
L 181.519907 139.7376 
L 181.095106 138.759841 
L 180.564104 138.731327 
L 180.245503 138.185054 
L 179.714501 137.638366 
L 179.3959 136.972192 
L 179.183499 136.872904 
L 178.864898 136.300455 
L 178.652497 136.198447 
L 178.333896 135.723383 
L 177.378093 135.357654 
L 176.316089 134.818489 
L 175.785087 134.766062 
L 175.254085 134.151687 
L 175.041684 133.812151 
L 174.829284 133.583764 
L 174.723083 132.723127 
L 173.76728 132.650575 
L 173.342478 132.292147 
L 173.023877 132.22696 
L 171.855673 131.543683 
L 171.749473 131.238928 
L 170.793669 130.411049 
L 170.581269 130.030703 
L 170.156467 129.636571 
L 169.519265 129.60526 
L 169.413065 129.410197 
L 169.306864 128.832 
L 169.094463 128.819613 
L 168.988263 128.620933 
L 168.669662 127.498451 
L 168.457261 127.482762 
L 167.926259 127.245363 
L 167.820059 126.905953 
L 167.289057 126.795765 
L 167.076656 126.375134 
L 166.864256 125.950464 
L 164.634048 125.66731 
L 164.209246 125.344264 
L 163.784445 125.300093 
L 163.678244 124.9344 
L 163.465844 124.768535 
L 162.51004 124.73297 
L 162.40384 124.35884 
L 161.979038 124.30846 
L 161.554237 123.224276 
L 161.341836 122.598078 
L 160.917035 122.537346 
L 159.961231 122.168989 
L 159.74883 121.52064 
L 157.731023 121.111358 
L 157.624823 121.013704 
L 157.518623 120.755681 
L 157.306222 119.749442 
L 157.093821 119.709242 
L 156.88142 119.177245 
L 156.66902 118.970133 
L 156.031817 118.673949 
L 155.713216 118.355692 
L 155.394615 117.523862 
L 154.757413 117.378783 
L 154.332611 116.933609 
L 153.483008 116.729379 
L 153.058207 116.270205 
L 152.952006 115.975649 
L 152.421005 115.928522 
L 151.890003 114.601733 
L 151.677602 114.541714 
L 151.359001 114.172189 
L 150.827999 113.922783 
L 150.403197 113.796 
L 150.296997 113.479223 
L 149.978396 113.094057 
L 149.872196 112.192 
L 149.553594 112.184111 
L 149.341194 111.328343 
L 148.38539 111.092951 
L 148.066789 110.676984 
L 147.960589 110.334316 
L 147.748188 110.051524 
L 147.535787 109.971448 
L 147.323387 109.4784 
L 147.110986 109.395692 
L 146.898585 108.265323 
L 146.579984 108.239186 
L 146.155182 107.634499 
L 146.048982 107.26649 
L 145.730381 107.23531 
L 145.305579 106.829645 
L 144.774578 106.699963 
L 144.668377 106.541115 
L 144.349776 105.612255 
L 143.924975 105.408 
L 143.818774 104.787904 
L 143.500173 104.743385 
L 143.393973 104.575229 
L 143.075372 104.297891 
L 142.969171 103.894423 
L 142.438169 103.733006 
L 142.331969 103.085534 
L 142.119568 102.96998 
L 141.907167 101.406999 
L 141.482366 101.403567 
L 141.376166 101.218909 
L 141.057564 100.906856 
L 140.951364 100.719287 
L 140.420362 100.521625 
L 140.101761 100.19941 
L 139.78316 100.127376 
L 139.570759 99.738353 
L 137.340551 99.194703 
L 136.809549 98.969425 
L 135.004143 98.393347 
L 134.897943 98.177362 
L 134.26074 97.995202 
L 133.623538 96.654482 
L 133.198737 95.1424 
L 132.773935 94.190249 
L 132.667735 93.34067 
L 132.136733 92.718412 
L 131.711931 92.334841 
L 131.39333 90.612 
L 131.18093 90.406681 
L 129.056922 89.935059 
L 128.632121 88.814623 
L 127.676317 88.303135 
L 127.570117 88.010847 
L 127.357716 87.774746 
L 127.251516 87.478154 
L 126.614313 87.470284 
L 126.401913 87.226435 
L 126.295712 86.557091 
L 126.083312 85.937577 
L 125.65851 85.795353 
L 125.55231 85.479016 
L 125.339909 85.217032 
L 125.127508 84.190785 
L 124.915108 83.917964 
L 124.596506 83.697231 
L 124.171705 83.136 
L 123.959304 82.45397 
L 123.746903 82.162672 
L 123.428302 81.921573 
L 122.153898 81.337027 
L 122.047697 80.973 
L 121.304295 80.928 
L 120.136091 79.788368 
L 119.81749 79.05957 
L 119.605089 78.264 
L 119.074087 78.066228 
L 117.374881 77.972211 
L 116.206677 77.596172 
L 112.595864 77.461333 
L 112.489664 76.979613 
L 111.640061 76.344183 
L 111.109059 74.932364 
L 109.622254 74.547512 
L 109.516053 74.002659 
L 108.56025 73.897412 
L 100.489021 72.245647 
L 99.745619 71.895273 
L 92.523993 71.393684 
L 91.56819 71.04 
L 90.824787 70.44614 
L 89.656583 68.783094 
L 87.001574 68.229818 
L 86.258171 67.224774 
L 86.04577 65.564033 
L 84.665165 64.872673 
L 81.479154 60.106378 
L 76.806338 53.568 
L 76.806338 53.568 
" clip-path="url(#p4a0b332857)" style="fill: none; stroke: #1f77b4; stroke-width: 1.5; stroke-linecap: square"/>
   </g>
   <g id="line2d_14">
    <path d="M 298.234119 285.655027 
L 297.172115 285.128445 
L 296.853514 285.007711 
L 295.79151 284.746507 
L 295.048108 284.344272 
L 294.092304 283.968264 
L 293.667503 283.615681 
L 293.455102 283.55017 
L 293.136501 283.403996 
L 292.9241 282.787446 
L 292.7117 282.664989 
L 292.605499 282.63087 
L 292.499299 282.351408 
L 292.286898 282.303668 
L 292.074497 282.048 
L 290.906293 281.802121 
L 290.587692 281.585178 
L 290.05669 281.430431 
L 289.419488 280.920126 
L 289.207087 280.807756 
L 288.676085 280.386662 
L 287.614082 279.624781 
L 287.401681 279.342337 
L 286.976879 279.220043 
L 286.870679 279.150419 
L 286.658278 278.83481 
L 286.445877 278.636678 
L 285.490074 277.726108 
L 285.277673 277.655245 
L 285.065273 277.432507 
L 284.746671 277.178747 
L 284.42807 276.876603 
L 284.21567 276.666088 
L 284.003269 276.616161 
L 283.578467 276.356423 
L 282.091662 275.722767 
L 281.985462 275.555964 
L 281.773061 275.067265 
L 281.56066 274.928584 
L 281.348259 274.629699 
L 281.029658 274.5332 
L 280.711057 274.295386 
L 280.498656 273.811219 
L 280.073855 273.331396 
L 279.755254 273.203778 
L 279.542853 272.974353 
L 279.436653 272.945904 
L 279.118052 272.632117 
L 278.480849 272.019422 
L 278.268449 271.641618 
L 278.056048 271.522816 
L 277.949847 271.339974 
L 277.206445 271.078031 
L 276.994044 270.727797 
L 276.781643 270.529348 
L 276.356842 270.442319 
L 276.038241 270.122304 
L 275.93204 270.090871 
L 275.71964 269.462879 
L 275.401038 269.312868 
L 275.294838 269.132849 
L 275.082437 269.107611 
L 274.976237 268.932043 
L 274.763836 268.441221 
L 274.445235 268.263713 
L 274.232834 267.98616 
L 274.126634 267.97919 
L 273.595632 267.244981 
L 273.383231 267.222381 
L 272.427428 265.772393 
L 271.684025 265.515468 
L 271.365424 264.998015 
L 271.046823 264.094189 
L 270.622022 264.023287 
L 270.30342 263.094254 
L 270.09102 263.080014 
L 269.560018 262.588165 
L 269.347617 262.514377 
L 269.135216 261.896118 
L 268.604214 261.585556 
L 268.498014 261.019336 
L 268.073213 260.61201 
L 267.32981 260.234202 
L 267.117409 259.877 
L 266.905008 259.552829 
L 266.586407 259.352307 
L 266.267806 258.511278 
L 265.843005 258.228322 
L 265.418203 257.649984 
L 265.205802 257.129897 
L 265.099602 257.053109 
L 264.781001 255.61522 
L 264.037598 255.130444 
L 263.931398 255.119136 
L 263.506596 254.576238 
L 263.294196 254.223512 
L 263.081795 254.15913 
L 262.763194 253.532874 
L 262.338392 253.42629 
L 261.913591 252.903732 
L 261.59499 252.737919 
L 261.170188 252.542757 
L 260.957787 251.853745 
L 260.745387 251.786963 
L 260.320585 250.878999 
L 260.214385 250.640678 
L 259.895784 250.517831 
L 259.789583 250.366364 
L 259.577183 249.611595 
L 259.470982 249.603 
L 259.258581 249.289562 
L 259.046181 248.32631 
L 258.621379 247.70269 
L 258.408978 247.627219 
L 257.665576 246.504081 
L 257.453175 246.278626 
L 257.240774 245.980257 
L 256.922173 245.889941 
L 256.603572 245.446615 
L 256.391171 244.674158 
L 256.07257 244.243127 
L 255.116767 243.784301 
L 254.904366 243.130346 
L 254.798166 243.107863 
L 254.691965 242.864452 
L 254.373364 242.646679 
L 254.054763 241.097666 
L 253.736162 240.962657 
L 253.417561 240.191066 
L 252.780359 239.921588 
L 252.461758 238.96495 
L 252.355557 238.943573 
L 252.143156 238.311243 
L 251.930756 238.266584 
L 251.187353 237.822228 
L 250.868752 236.468442 
L 250.125349 235.316109 
L 249.912949 234.381455 
L 249.594347 233.796536 
L 249.488147 233.748194 
L 249.381947 233.536991 
L 249.169546 233.487081 
L 248.957145 232.891722 
L 248.426143 232.448456 
L 248.213743 232.405161 
L 248.107542 232.06082 
L 247.788941 232.014516 
L 247.47034 230.772817 
L 247.045538 230.172403 
L 246.939338 230.049965 
L 246.726937 229.583422 
L 246.089735 229.372711 
L 245.877334 228.92713 
L 245.558733 228.158458 
L 245.240132 227.957927 
L 244.70913 226.618701 
L 244.390529 226.306462 
L 244.178128 225.646445 
L 244.071928 225.247507 
L 243.116125 224.392779 
L 243.009924 223.922808 
L 242.266522 223.515552 
L 241.416919 222.967149 
L 241.204518 222.378523 
L 240.779716 222.142149 
L 240.567316 221.708979 
L 240.354915 221.659553 
L 240.036314 221.338999 
L 239.717713 220.556602 
L 239.611512 220.485593 
L 239.505312 219.690611 
L 239.292911 219.298115 
L 239.08051 218.76001 
L 238.97431 218.668396 
L 238.761909 218.119433 
L 238.443308 218.077595 
L 238.124707 217.58412 
L 237.912306 217.571302 
L 237.806106 217.279357 
L 237.275104 216.874216 
L 236.956503 216.037686 
L 235.682098 215.373684 
L 235.575898 215.234426 
L 235.363497 215.147319 
L 234.832495 214.812523 
L 234.620095 214.812476 
L 233.45189 213.317207 
L 233.027089 213.257143 
L 232.814688 212.785502 
L 231.965085 211.245979 
L 231.327883 210.853096 
L 230.796881 209.639798 
L 230.58448 209.528944 
L 230.37208 208.663047 
L 230.265879 208.658526 
L 229.310076 207.122012 
L 228.991475 205.346424 
L 228.672874 204.697946 
L 228.460473 203.974485 
L 227.61087 203.930196 
L 227.504669 203.729615 
L 226.867467 203.215178 
L 226.336465 201.849962 
L 226.124065 201.294875 
L 225.699263 200.86393 
L 225.274462 200.739876 
L 225.062061 200.32389 
L 224.74346 199.623996 
L 224.424859 199.12773 
L 224.106257 198.842941 
L 223.575256 198.000947 
L 222.725653 196.517519 
L 222.619452 196.501458 
L 222.407051 196.003556 
L 222.300851 195.986923 
L 221.98225 195.10775 
L 221.87605 195.09012 
L 221.451248 194.445692 
L 221.345048 194.275084 
L 221.238847 193.827401 
L 221.026447 193.789146 
L 220.389244 192.224901 
L 220.176844 191.115502 
L 219.752042 191.026001 
L 219.11484 189.381376 
L 218.690038 188.836778 
L 218.265237 187.827267 
L 217.203233 187.559381 
L 217.097033 187.389265 
L 216.672231 187.063342 
L 215.716428 186.92061 
L 215.610227 186.526057 
L 215.185426 186.262925 
L 214.866825 185.727235 
L 214.548224 185.448865 
L 214.335823 185.426047 
L 214.123422 185.060799 
L 213.273819 184.541105 
L 212.955218 183.106723 
L 212.742817 182.959067 
L 212.211816 181.812645 
L 211.893214 181.333372 
L 211.468413 181.228408 
L 211.043611 180.702602 
L 210.72501 180.673979 
L 210.61881 180.509048 
L 210.300209 180.309341 
L 209.981608 179.720385 
L 208.494802 178.62912 
L 208.388602 178.185038 
L 208.176201 178.145669 
L 207.963801 177.925491 
L 207.538999 177.845173 
L 207.432799 177.711158 
L 206.795596 175.200534 
L 206.583196 175.153738 
L 206.264595 174.430921 
L 206.158394 174.430843 
L 205.945993 174.137806 
L 205.521192 173.395692 
L 205.308791 172.491302 
L 205.202591 172.489628 
L 204.777789 171.305086 
L 204.671589 171.250634 
L 204.459188 170.514627 
L 204.034387 169.972164 
L 203.821986 169.590857 
L 203.715786 169.586655 
L 203.397184 169.358769 
L 203.184784 169.295897 
L 202.547581 167.673248 
L 201.910379 167.074479 
L 201.697978 165.976359 
L 201.591778 165.911081 
L 201.273177 164.661502 
L 201.166977 164.534465 
L 200.954576 163.92133 
L 200.742175 163.722093 
L 200.529774 163.400787 
L 200.423574 163.390593 
L 200.211173 162.761029 
L 199.998772 162.677945 
L 199.573971 161.890388 
L 199.149169 161.592315 
L 198.724368 160.973617 
L 198.618168 160.897091 
L 198.405767 160.422717 
L 198.299566 160.15137 
L 197.980965 160.110078 
L 197.768565 159.167073 
L 197.662364 159.152224 
L 197.449963 158.725067 
L 197.237563 158.22675 
L 197.131362 158.210815 
L 197.025162 157.179868 
L 194.688754 156.86516 
L 194.476353 156.759519 
L 193.62675 155.546585 
L 193.414349 155.002224 
L 192.352345 154.651944 
L 192.139945 154.16714 
L 191.502742 153.738999 
L 191.184141 153.371254 
L 190.334538 153.113408 
L 190.015937 151.962794 
L 189.697336 151.889132 
L 189.484935 151.052211 
L 188.529132 150.898293 
L 188.316731 150.201226 
L 187.679529 150.200471 
L 187.360928 149.29666 
L 187.254727 149.268102 
L 186.829926 148.736073 
L 185.767922 148.69256 
L 185.449321 147.319049 
L 184.918319 146.196956 
L 184.812119 146.163487 
L 184.599718 145.385347 
L 183.856315 145.230734 
L 183.431514 144.635166 
L 183.112913 144.526399 
L 182.794312 143.398588 
L 182.157109 142.979718 
L 181.944709 142.332179 
L 181.201306 142.145605 
L 181.095106 141.912136 
L 180.139302 141.146432 
L 179.926902 140.764517 
L 178.971098 140.471301 
L 178.864898 140.125091 
L 178.440096 139.436134 
L 178.333896 139.082428 
L 177.909094 138.480318 
L 177.059491 138.094265 
L 176.209888 138.019479 
L 175.041684 136.925579 
L 174.935484 136.545391 
L 174.298282 136.33896 
L 173.236278 136.249519 
L 173.130078 135.293099 
L 172.705276 135.069538 
L 172.599076 134.784 
L 172.174274 134.671116 
L 171.643272 133.915614 
L 171.218471 133.560526 
L 171.00607 133.202956 
L 170.89987 132.664082 
L 170.262667 132.412009 
L 170.050267 132.043168 
L 169.837866 132.038314 
L 169.731666 131.729559 
L 169.625465 130.675432 
L 168.669662 130.576122 
L 168.563462 130.38269 
L 167.926259 129.973622 
L 167.820059 129.776545 
L 167.607658 129.637565 
L 166.545654 129.453283 
L 166.333254 129.311091 
L 165.589851 129.204086 
L 165.058849 128.169739 
L 164.952649 127.689002 
L 164.315447 126.8171 
L 164.103046 126.243556 
L 163.359643 125.821977 
L 163.147242 125.375358 
L 162.40384 125.081514 
L 162.085239 124.539429 
L 160.704634 124.302394 
L 160.492233 124.128 
L 159.324029 123.905974 
L 159.005428 123.636946 
L 158.899227 123.393933 
L 158.580626 123.273763 
L 158.368226 123.09022 
L 158.262025 122.843117 
L 157.624823 122.594087 
L 157.412422 122.562441 
L 156.77522 121.670594 
L 156.031817 121.46748 
L 155.925617 121.206397 
L 155.500815 121.133286 
L 154.226411 119.058867 
L 154.120211 118.095643 
L 153.90781 117.875848 
L 153.589209 117.01853 
L 153.483008 116.022125 
L 153.270608 115.968 
L 153.058207 115.195972 
L 152.739606 115.019566 
L 152.208604 114.96529 
L 151.571402 114.419043 
L 151.465201 113.923811 
L 151.2528 113.861141 
L 150.615598 113.102015 
L 150.296997 113.098052 
L 150.190797 112.969133 
L 150.084596 112.647411 
L 149.553594 111.989106 
L 149.447394 111.463385 
L 149.128793 111.254617 
L 148.810192 109.638686 
L 148.491591 109.21225 
L 148.38539 108.864 
L 148.066789 108.634873 
L 147.217186 108.500617 
L 147.004785 107.782054 
L 146.367583 107.725091 
L 146.048982 107.4816 
L 144.880778 107.077662 
L 144.774578 106.479158 
L 144.562177 106.159304 
L 144.243576 106.12205 
L 143.606373 105.820411 
L 142.225769 105.723713 
L 142.013368 105.386849 
L 141.694767 105.344236 
L 141.588566 105.173623 
L 140.526563 104.145733 
L 140.420362 103.968 
L 139.88936 103.80107 
L 139.67696 102.450162 
L 139.464559 102.077185 
L 139.358358 101.637818 
L 138.933557 100.61683 
L 138.721156 99.709033 
L 138.614956 99.510311 
L 138.296355 99.170567 
L 137.871553 99.151849 
L 137.765353 98.948405 
L 137.659152 97.941913 
L 137.446752 97.793484 
L 137.234351 97.100308 
L 136.597149 96.358864 
L 136.490948 96.140514 
L 135.747546 95.998099 
L 135.216544 95.7312 
L 135.110343 95.505421 
L 133.411137 95.019581 
L 133.198737 94.547019 
L 132.986336 94.369433 
L 132.773935 93.888 
L 132.349134 93.827002 
L 132.242933 92.658732 
L 131.39333 92.200186 
L 131.28713 91.944112 
L 131.18093 91.048563 
L 130.968529 90.844981 
L 129.906525 90.786462 
L 129.481724 89.698909 
L 129.375523 88.749176 
L 128.632121 88.471881 
L 128.313519 87.954622 
L 127.039115 87.950466 
L 126.932915 87.652948 
L 126.508113 87.52904 
L 126.401913 87.226435 
L 125.977111 87.097263 
L 123.640703 85.764377 
L 123.322102 85.16203 
L 123.003501 84.944842 
L 121.198094 84.753 
L 120.242291 84.471952 
L 119.92369 83.808 
L 115.463274 83.334443 
L 115.250873 82.990703 
L 114.507471 82.975706 
L 114.40127 82.553806 
L 113.764068 81.962366 
L 113.551667 81.59183 
L 112.064862 81.504708 
L 111.958662 81.045333 
L 111.42766 80.312925 
L 111.002858 79.488 
L 110.365656 79.330909 
L 109.940855 79.033263 
L 105.480439 78.995027 
L 105.268038 78.493091 
L 104.418435 78.43828 
L 104.206034 77.912151 
L 103.993634 76.681376 
L 103.568832 76.272466 
L 103.462632 75.632365 
L 102.188227 75.035304 
L 101.657225 74.641171 
L 101.444825 74.011944 
L 95.710004 73.9968 
L 93.054995 73.216325 
L 92.417793 72.666947 
L 92.311592 71.583319 
L 91.67439 70.94347 
L 91.143388 70.1568 
L 88.488379 69.913946 
L 88.275978 68.583724 
L 87.638776 67.592348 
L 87.532576 66.019765 
L 86.04577 65.564033 
L 82.328757 62.312096 
L 77.33734 60.683294 
L 77.018739 53.568 
L 77.018739 53.568 
" clip-path="url(#p4a0b332857)" style="fill: none; stroke: #ff7f0e; stroke-width: 1.5; stroke-linecap: square"/>
   </g>
   <g id="line2d_15">
    <path d="M 251.824555 234.836105 
L 251.187353 234.478275 
L 250.33775 232.506947 
L 250.23155 232.277504 
L 250.019149 231.293298 
L 249.912949 231.167384 
L 249.594347 230.098877 
L 248.744744 228.769608 
L 248.319943 228.267543 
L 248.107542 227.626338 
L 247.045538 226.807144 
L 246.833138 226.567454 
L 246.620737 225.376878 
L 246.514537 225.294938 
L 246.195935 224.255025 
L 245.983535 224.226448 
L 245.771134 223.423882 
L 245.452533 222.956883 
L 245.346332 222.934462 
L 245.027731 222.404222 
L 244.921531 222.394767 
L 244.178128 221.772255 
L 244.071928 221.50903 
L 243.859527 220.237578 
L 243.434726 219.704116 
L 243.009924 219.5962 
L 242.797523 219.481934 
L 242.585123 219.472402 
L 242.478922 219.066882 
L 241.94792 218.356205 
L 241.310718 217.422144 
L 240.673516 216.850235 
L 240.248714 216.724518 
L 239.930113 216.249701 
L 239.717713 215.783499 
L 239.08051 215.617955 
L 238.761909 215.106793 
L 238.018507 214.393395 
L 237.806106 214.375192 
L 237.487505 212.973896 
L 236.956503 212.857553 
L 236.637902 212.372052 
L 236.1069 212.232649 
L 236.000699 212.118142 
L 235.788299 212.095595 
L 235.469698 211.500263 
L 235.257297 210.799285 
L 235.151096 210.69878 
L 234.938696 210.319135 
L 234.513894 210.127701 
L 234.089093 210.094484 
L 233.876692 209.523973 
L 233.34569 209.443993 
L 233.133289 209.293226 
L 232.708488 208.468928 
L 232.602287 208.422425 
L 232.283686 207.794939 
L 232.177486 207.704422 
L 231.965085 207.090729 
L 231.752684 206.992295 
L 231.434083 206.887487 
L 231.115482 206.162764 
L 230.903081 206.105117 
L 230.159679 204.829589 
L 230.053478 204.729438 
L 229.734877 203.981028 
L 229.310076 203.899978 
L 229.097675 202.510334 
L 228.566673 202.116493 
L 228.354272 201.947314 
L 228.141872 201.576763 
L 227.71707 201.408 
L 226.867467 198.247632 
L 226.548866 197.768629 
L 226.017864 197.502878 
L 225.805463 197.417881 
L 225.593063 196.996923 
L 225.062061 196.552308 
L 224.95586 196.136727 
L 224.74346 196.132994 
L 224.637259 195.943984 
L 224.424859 195.417242 
L 224.212458 195.295335 
L 224.000057 195.202195 
L 223.893857 194.741475 
L 223.575256 194.508959 
L 223.469055 193.919085 
L 223.044254 193.60023 
L 222.831853 193.224137 
L 222.619452 193.030346 
L 222.407051 193.021733 
L 222.194651 192.607562 
L 221.98225 192.472615 
L 221.769849 190.76626 
L 221.663649 190.711199 
L 221.557448 190.492456 
L 221.345048 189.251237 
L 221.132647 188.729158 
L 219.752042 186.397721 
L 218.902439 185.809036 
L 218.477638 185.215229 
L 218.265237 185.192593 
L 218.159036 184.902975 
L 217.521834 184.608 
L 216.884632 184.535926 
L 216.672231 184.284172 
L 216.566031 184.024003 
L 216.035029 183.556113 
L 215.716428 182.833723 
L 215.079226 182.552373 
L 214.973025 182.478622 
L 214.017222 181.154165 
L 213.698621 181.045241 
L 213.48622 180.682948 
L 212.849018 180.375939 
L 212.742817 180.296387 
L 212.530417 179.245351 
L 212.211816 178.998067 
L 211.999415 178.223499 
L 211.680814 177.924481 
L 210.937411 177.676336 
L 210.72501 177.234348 
L 210.406409 177.195559 
L 210.300209 176.972102 
L 209.663007 176.664774 
L 209.132005 175.282821 
L 208.707203 175.143934 
L 207.220398 173.850082 
L 206.795596 173.308153 
L 206.370795 173.254737 
L 206.052194 172.903385 
L 205.945993 172.902061 
L 205.733593 172.598577 
L 205.521192 171.886517 
L 205.414992 171.680119 
L 205.202591 171.109347 
L 205.09639 170.847266 
L 204.88399 170.789053 
L 204.671589 169.942322 
L 204.565389 169.885503 
L 204.140587 169.174877 
L 203.928186 169.111881 
L 203.290984 168.43049 
L 202.972383 168.029282 
L 202.653782 167.845999 
L 202.22898 167.711119 
L 202.01658 167.081034 
L 201.910379 167.074479 
L 201.591778 166.656765 
L 201.379377 165.895707 
L 200.742175 165.147874 
L 200.423574 164.411345 
L 199.998772 164.314581 
L 199.573971 163.673329 
L 199.25537 163.643275 
L 199.042969 163.31762 
L 198.724368 163.224904 
L 198.511967 162.956931 
L 198.193366 162.862382 
L 197.980965 162.591158 
L 197.874765 162.45478 
L 197.343763 161.062314 
L 196.49416 160.568831 
L 196.38796 160.359404 
L 195.856958 160.224701 
L 195.750757 159.814253 
L 195.538357 159.585882 
L 195.219756 159.541805 
L 195.007355 159.176533 
L 194.794954 159.078653 
L 193.839151 158.939748 
L 193.62675 158.63456 
L 193.52055 158.618602 
L 193.201948 157.528548 
L 192.989548 157.423788 
L 192.777147 157.177433 
L 192.670947 157.159702 
L 192.564746 156.7872 
L 192.246145 156.661031 
L 192.033744 155.8319 
L 191.821344 155.502 
L 191.715143 155.26283 
L 191.077941 154.993692 
L 190.971741 154.899085 
L 190.75934 154.335949 
L 190.546939 154.293056 
L 190.334538 153.873144 
L 189.803536 153.838327 
L 189.378735 153.212886 
L 188.847733 153.019615 
L 188.635332 152.661392 
L 187.254727 152.267069 
L 187.042327 152.058234 
L 186.723726 151.420235 
L 186.192724 151.371243 
L 185.13072 151.271754 
L 184.387317 150.58655 
L 184.068716 150.503612 
L 183.750115 150.251805 
L 183.325314 149.71388 
L 183.219113 149.68484 
L 182.688111 148.325982 
L 182.581911 148.294845 
L 182.475711 148.088262 
L 182.157109 147.728479 
L 182.050909 147.341077 
L 181.626108 147.299225 
L 181.095106 145.953606 
L 179.183499 145.871641 
L 178.971098 145.518808 
L 178.758697 145.351719 
L 178.121495 145.034903 
L 177.802894 144.249379 
L 177.059491 144.171243 
L 176.953291 144.034538 
L 176.63469 143.916117 
L 175.997488 142.176379 
L 175.466486 141.75796 
L 174.616883 141.715676 
L 174.404482 140.900794 
L 173.87348 140.77745 
L 173.661079 140.580098 
L 171.324671 139.640589 
L 171.00607 139.60293 
L 170.581269 139.18366 
L 170.475068 138.799601 
L 169.944066 138.655908 
L 169.519265 138.449153 
L 169.413065 137.828333 
L 168.13866 137.644532 
L 167.820059 137.364514 
L 167.289057 136.496514 
L 166.864256 136.387459 
L 166.545654 135.974284 
L 166.333254 135.857455 
L 166.120853 135.252878 
L 165.696051 134.888767 
L 165.483651 134.394667 
L 164.952649 134.082588 
L 164.209246 133.891516 
L 163.996845 133.25255 
L 162.40384 132.250718 
L 161.979038 131.172452 
L 161.341836 130.87852 
L 160.917035 130.861942 
L 160.704634 129.889205 
L 160.492233 129.739285 
L 160.386033 129.524364 
L 160.279832 128.886579 
L 159.53643 128.767727 
L 159.430229 128.689437 
L 159.217829 128.244939 
L 159.111628 128.165209 
L 159.005428 127.940642 
L 158.793027 127.779161 
L 158.686827 127.552222 
L 158.155825 127.435087 
L 157.943424 126.825465 
L 157.624823 126.272681 
L 157.412422 126.100954 
L 157.093821 125.689182 
L 155.288415 125.412253 
L 155.076014 125.231514 
L 154.863613 124.734105 
L 154.651212 124.70774 
L 153.589209 124.251506 
L 153.270608 123.1488 
L 152.527205 122.954102 
L 152.314804 122.420352 
L 151.890003 122.013659 
L 151.783802 121.741151 
L 150.615598 121.45003 
L 150.403197 120.187176 
L 149.872196 119.635492 
L 149.765995 119.165064 
L 149.447394 119.005377 
L 149.341194 118.891368 
L 149.022593 118.363533 
L 148.17299 118.16444 
L 147.960589 116.610712 
L 147.748188 116.55461 
L 147.429587 114.244151 
L 147.217186 113.587325 
L 147.004785 112.721684 
L 146.367583 112.709947 
L 146.261383 112.572878 
L 145.305579 112.552989 
L 145.199379 112.413405 
L 145.093179 111.442286 
L 144.668377 111.286356 
L 144.562177 110.930474 
L 144.137375 110.556083 
L 144.031175 109.97858 
L 143.712574 109.526131 
L 142.225769 108.905389 
L 142.013368 108.589516 
L 141.800967 108.496696 
L 141.588566 107.720409 
L 140.420362 107.29465 
L 140.207961 106.723955 
L 139.358358 106.305947 
L 138.296355 105.519772 
L 137.765353 105.362883 
L 137.340551 104.632908 
L 137.234351 104.194967 
L 136.597149 103.575624 
L 136.384748 102.672195 
L 134.473141 102.560179 
L 134.04834 100.922553 
L 132.773935 100.617753 
L 132.561534 99.900632 
L 132.349134 99.461647 
L 132.242933 98.950334 
L 132.030533 98.501135 
L 131.818132 98.341254 
L 131.499531 98.246919 
L 131.18093 97.852902 
L 131.074729 97.319489 
L 130.862328 97.150534 
L 129.800325 96.592774 
L 128.632121 96.395943 
L 128.52592 95.826462 
L 128.313519 95.641043 
L 127.994918 95.521712 
L 127.676317 94.745872 
L 126.826714 94.2912 
L 126.720514 94.022849 
L 125.764711 93.956688 
L 125.446109 93.124627 
L 125.233709 92.911391 
L 119.286488 92.862247 
L 118.967887 92.695101 
L 118.755486 92.448 
L 118.649285 92.120988 
L 118.330684 91.535324 
L 116.631478 90.669176 
L 116.525278 89.881573 
L 116.312877 89.598638 
L 114.507471 89.5872 
L 114.082669 88.984216 
L 113.976469 88.59714 
L 113.657868 88.364712 
L 113.445467 87.090402 
L 111.53386 87.037515 
L 111.215259 86.259892 
L 109.409853 86.074047 
L 109.091252 84.681071 
L 108.135448 84.298378 
L 107.923048 83.890398 
L 107.710647 82.891636 
L 107.073445 82.788674 
L 106.967244 82.270373 
L 105.69284 82.029176 
L 105.268038 81.731821 
L 104.949437 81.341293 
L 104.737036 80.857756 
L 104.206034 80.614957 
L 97.515411 79.69536 
L 95.497604 79.033263 
L 93.904598 77.76 
L 93.692197 76.941913 
L 93.373596 76.210759 
L 92.099192 75.328 
L 90.399986 74.789053 
L 89.762783 72.862233 
L 89.656583 70.2 
L 88.80698 69.589192 
L 88.594579 68.279351 
L 87.638776 67.592348 
L 87.213974 66.300632 
L 83.815562 65.786182 
L 83.496961 61.288851 
L 77.868342 59.771077 
L 77.231139 53.568 
L 77.231139 53.568 
" clip-path="url(#p4a0b332857)" style="fill: none; stroke: #2ca02c; stroke-width: 1.5; stroke-linecap: square"/>
   </g>
   <g id="line2d_16">
    <path d="M 221.663649 190.416973 
L 221.557448 190.295527 
L 221.451248 189.709831 
L 219.752042 189.052496 
L 219.327241 187.740796 
L 218.902439 187.59942 
L 218.796239 187.466803 
L 218.477638 186.671937 
L 218.052836 186.08828 
L 217.946636 185.509628 
L 217.734235 185.450538 
L 217.415634 185.101284 
L 217.097033 184.295468 
L 216.672231 183.787897 
L 216.45983 183.10524 
L 216.141229 182.810628 
L 215.822628 181.997811 
L 215.716428 181.963195 
L 215.291626 181.138305 
L 215.079226 181.066378 
L 214.866825 180.254944 
L 212.636617 178.726759 
L 212.211816 178.522597 
L 212.105615 178.351578 
L 211.893214 178.226255 
L 211.468413 177.130763 
L 211.256012 176.550128 
L 211.043611 176.371902 
L 210.72501 176.330614 
L 210.51261 175.691524 
L 210.087808 175.602577 
L 209.769207 175.232621 
L 209.450606 174.999763 
L 209.025804 174.765083 
L 208.919604 174.71789 
L 208.601003 173.421805 
L 208.282402 172.734204 
L 207.645199 172.626573 
L 207.432799 172.075445 
L 207.114198 171.969041 
L 206.158394 171.23725 
L 205.839793 170.506055 
L 205.521192 170.391753 
L 205.414992 169.969206 
L 204.777789 169.946182 
L 204.459188 169.081203 
L 204.140587 168.635077 
L 203.928186 167.969928 
L 203.715786 167.848587 
L 203.503385 167.781852 
L 202.972383 167.69707 
L 202.866183 167.300996 
L 202.547581 167.001129 
L 202.22898 166.868264 
L 202.01658 166.456873 
L 201.591778 166.370981 
L 201.166977 165.996 
L 200.423574 165.416444 
L 200.211173 165.223385 
L 199.36157 165.214907 
L 199.25537 165.087489 
L 198.936769 165.061565 
L 198.724368 163.776 
L 198.511967 162.956931 
L 198.087166 162.789266 
L 197.874765 162.45478 
L 197.662364 162.432 
L 197.025162 162.046631 
L 195.856958 161.72184 
L 194.263952 160.87697 
L 194.157752 160.664901 
L 193.095748 160.325731 
L 192.989548 159.906462 
L 192.352345 159.545039 
L 192.033744 159.293281 
L 191.821344 158.428785 
L 191.502742 158.309208 
L 190.86554 157.498435 
L 190.546939 157.373673 
L 190.334538 156.905107 
L 190.015937 156.193011 
L 189.591136 155.30044 
L 189.060134 155.197674 
L 188.635332 154.661118 
L 188.529132 154.563728 
L 187.89193 153.741093 
L 186.723726 153.488574 
L 186.192724 153.213759 
L 185.980323 152.928 
L 185.874123 152.824165 
L 185.767922 152.479767 
L 185.02452 152.466972 
L 184.705918 152.148341 
L 184.599718 151.87812 
L 184.174917 151.279807 
L 183.856315 151.116387 
L 183.643915 150.307919 
L 183.431514 150.167022 
L 182.900512 150.10951 
L 182.36951 149.277332 
L 182.26331 149.160796 
L 182.050909 149.100542 
L 181.944709 148.721278 
L 180.670304 146.909538 
L 180.457903 146.750903 
L 180.139302 146.46528 
L 180.033102 146.430699 
L 179.926902 146.211854 
L 179.714501 146.141721 
L 178.971098 146.08014 
L 178.864898 145.670292 
L 178.652497 145.597831 
L 178.333896 144.823899 
L 177.059491 144.462798 
L 176.953291 144.132124 
L 176.63469 144.014158 
L 176.422289 143.639579 
L 174.723083 143.387404 
L 174.616883 143.245241 
L 174.510682 142.492563 
L 173.87348 141.509189 
L 173.130078 141.088546 
L 172.917677 140.891178 
L 172.174274 140.672575 
L 171.218471 139.152101 
L 171.00607 138.830675 
L 170.581269 138.738982 
L 170.156467 137.744334 
L 170.050267 137.691369 
L 169.944066 137.296092 
L 169.519265 136.964422 
L 169.200664 136.101236 
L 168.988263 135.87068 
L 168.882063 135.459619 
L 168.351061 134.689792 
L 168.24486 134.147505 
L 168.03246 133.904386 
L 165.802252 133.834667 
L 165.589851 133.45786 
L 164.952649 133.199212 
L 164.846448 132.752176 
L 164.103046 132.546637 
L 163.996845 132.090959 
L 163.572044 131.425079 
L 163.359643 131.286261 
L 163.041042 130.139912 
L 162.828641 129.588687 
L 162.40384 129.565895 
L 161.979038 129.130419 
L 161.448036 129.029284 
L 161.341836 128.81402 
L 161.129435 128.800456 
L 160.704634 128.491747 
L 160.598433 128.272569 
L 160.279832 128.178841 
L 160.067432 127.734763 
L 159.961231 127.511014 
L 157.837224 127.334467 
L 157.731023 126.954667 
L 157.306222 126.916085 
L 157.093821 126.144 
L 156.88142 125.207676 
L 156.77522 124.964968 
L 156.562819 123.539387 
L 156.350418 123.036771 
L 155.819417 122.56 
L 155.288415 122.559165 
L 154.438812 122.264151 
L 154.332611 121.507583 
L 153.801609 121.166699 
L 153.589209 120.625709 
L 153.483008 120.521751 
L 153.270608 120.482043 
L 153.058207 120.101878 
L 152.739606 119.95425 
L 152.527205 119.740235 
L 152.102403 119.654627 
L 151.890003 119.437307 
L 151.677602 119.042866 
L 151.0404 118.905831 
L 150.934199 118.793915 
L 148.916392 118.06327 
L 148.597791 117.709628 
L 148.17299 116.666458 
L 147.748188 116.55461 
L 146.898585 116.519226 
L 146.155182 116.219752 
L 146.048982 116.09258 
L 145.942782 115.374316 
L 145.624181 115.181583 
L 145.305579 114.384374 
L 145.199379 114.250274 
L 144.668377 113.979969 
L 144.349776 113.568544 
L 144.031175 113.566362 
L 143.924975 113.219507 
L 143.393973 112.933161 
L 142.013368 112.767247 
L 141.800967 112.475234 
L 141.482366 110.712173 
L 141.376166 110.558769 
L 141.163765 110.473187 
L 141.057564 109.644117 
L 140.738963 109.622634 
L 140.526563 108.38731 
L 140.101761 108.195097 
L 139.995561 107.796643 
L 138.402555 107.636966 
L 137.552952 106.978909 
L 136.278548 106.828902 
L 135.322744 105.945808 
L 135.004143 105.901714 
L 134.897943 105.714467 
L 134.26074 105.360265 
L 134.15454 104.64 
L 133.623538 104.194517 
L 132.880136 103.881846 
L 132.561534 103.548603 
L 130.649928 103.174181 
L 130.543727 102.096862 
L 130.331327 101.66053 
L 129.269323 101.506065 
L 128.950722 100.826791 
L 127.251516 100.478769 
L 126.932915 99.442619 
L 126.720514 99.272756 
L 124.384106 98.979604 
L 124.065505 98.537639 
L 123.003501 98.289127 
L 122.6849 97.475189 
L 122.366299 97.356387 
L 120.667093 97.185546 
L 120.560892 96.525757 
L 118.967887 96.232186 
L 118.755486 96.010105 
L 118.436885 95.475402 
L 118.012083 93.807198 
L 117.481081 92.984701 
L 115.038473 92.755905 
L 114.507471 92.296421 
L 113.126866 92.055273 
L 112.489664 91.648 
L 112.383463 91.262512 
L 112.064862 91.048563 
L 111.852461 90.257289 
L 111.640061 89.942606 
L 111.53386 89.536921 
L 110.790458 88.637484 
L 110.684257 87.700277 
L 110.153255 87.606995 
L 109.940855 87.253063 
L 108.66645 87.220913 
L 108.241649 87.025021 
L 107.923048 85.037268 
L 107.498246 84.804923 
L 103.356431 84.661166 
L 101.551025 84.313686 
L 100.17042 83.487435 
L 98.683615 83.468225 
L 98.365014 83.003133 
L 98.152613 82.412308 
L 95.922405 81.363064 
L 95.710004 80.679724 
L 95.603804 79.863652 
L 91.355789 78.54887 
L 91.249589 75.072 
L 90.612386 74.543723 
L 90.506186 73.374316 
L 90.187585 72.400096 
L 89.975184 71.269463 
L 89.868984 69.994667 
L 88.594579 69.804242 
L 88.275978 68.583724 
L 84.665165 67.008 
L 84.240364 63.055059 
L 78.293143 59.194047 
L 77.868342 53.568 
L 77.868342 53.568 
" clip-path="url(#p4a0b332857)" style="fill: none; stroke: #d62728; stroke-width: 1.5; stroke-linecap: square"/>
   </g>
   <g id="line2d_17">
    <path d="M 154.757413 119.251824 
L 154.332611 118.825803 
L 153.058207 118.727647 
L 151.890003 118.385211 
L 151.465201 118.290084 
L 151.2528 118.24209 
L 151.1466 118.128725 
L 150.403197 118.047186 
L 150.296997 117.750857 
L 150.084596 117.700323 
L 149.978396 117.401101 
L 149.765995 117.349174 
L 149.659795 117.047008 
L 149.553594 116.928 
L 149.341194 116.688499 
L 149.234993 116.381431 
L 147.217186 116.124567 
L 146.473784 116.015896 
L 146.367583 115.888696 
L 144.880778 115.46077 
L 143.924975 115.276713 
L 142.75677 115.021241 
L 142.225769 114.959054 
L 142.119568 114.820683 
L 142.013368 114.470937 
L 141.800967 114.401684 
L 141.163765 114.190979 
L 140.951364 114.119744 
L 140.845164 113.976086 
L 140.632763 113.68671 
L 140.101761 113.391402 
L 139.995561 113.24355 
L 139.88936 113.094982 
L 139.570759 113.090339 
L 139.464559 112.717144 
L 139.252158 112.638037 
L 139.145958 112.260414 
L 138.508755 112.014426 
L 137.552952 111.751291 
L 137.340551 111.431817 
L 136.490948 111.316645 
L 136.384748 111.153097 
L 136.278548 110.508858 
L 136.066147 110.174118 
L 135.853746 110.079496 
L 135.641345 109.984126 
L 135.216544 109.791108 
L 135.110343 109.618706 
L 134.685542 109.170581 
L 134.473141 109.069215 
L 134.366941 108.89206 
L 134.26074 108.713943 
L 134.04834 108.609744 
L 132.030533 108.503289 
L 131.818132 108.128681 
L 131.499531 108.094904 
L 131.39333 107.904824 
L 130.543727 107.718698 
L 130.331327 107.602686 
L 130.225126 107.406712 
L 129.906525 107.367588 
L 129.800325 107.169182 
L 129.481724 106.848 
L 123.640703 106.701844 
L 123.109701 106.513455 
L 122.7911 106.462373 
L 122.260098 106.267554 
L 122.047697 105.795979 
L 121.729096 105.408 
L 121.410495 105.347368 
L 120.454692 105.160258 
L 119.711289 105.124721 
L 116.312877 104.999811 
L 115.994276 104.928 
L 115.781875 103.603663 
L 115.569475 103.418182 
L 115.144673 103.040393 
L 104.524636 101.817972 
L 104.418435 101.412903 
L 104.206034 101.136539 
L 103.675033 100.704275 
L 103.462632 100.41378 
L 103.250231 100.118204 
L 102.93163 99.375337 
L 101.020023 97.623719 
L 100.807622 96.628194 
L 98.046413 96.362513 
L 97.940212 95.794036 
L 97.090609 95.56166 
L 96.772008 95.278345 
L 96.665808 93.888 
L 95.922405 93.402217 
L 95.391403 93.390222 
L 94.3294 93.364364 
L 92.736394 93.320113 
L 92.311592 92.134957 
L 92.205392 91.331122 
L 92.099192 89.496713 
L 91.67439 89.180589 
L 90.824787 88.497626 
L 89.656583 87.129156 
L 89.231782 86.688 
L 88.80698 86.219779 
L 87.744976 85.610384 
L 86.470572 85.353109 
L 85.83337 85.203692 
L 84.558965 84.850759 
L 80.523351 83.808 
L 77.018739 82.029176 
L 76.381536 72.177231 
L 75.213332 70.848 
L 74.788531 53.568 
" clip-path="url(#p4a0b332857)" style="fill: none; stroke: #9467bd; stroke-width: 1.5; stroke-linecap: square"/>
   </g>
   <g id="line2d_18">
    <path d="M 350.484703 295.088973 
L 345.068484 294.916129 
L 344.112681 294.876213 
L 336.784855 294.634444 
L 334.660848 294.544613 
L 331.262436 294.407682 
L 330.519033 294.348502 
L 321.385801 293.771258 
L 319.261793 293.60124 
L 317.456387 293.474129 
L 315.332379 293.307815 
L 310.765763 292.800241 
L 310.128561 292.682484 
L 307.792153 292.367448 
L 307.367351 292.301143 
L 305.986746 292.157393 
L 304.07514 291.867908 
L 303.013136 291.733229 
L 301.632531 291.577685 
L 301.101529 291.452008 
L 300.676728 291.234181 
L 298.658921 290.681432 
L 298.021718 290.591942 
L 297.596917 290.398024 
L 297.172115 290.287626 
L 292.9241 289.545145 
L 292.286898 289.434261 
L 291.862097 289.32816 
L 291.755896 289.256111 
L 291.331095 289.205638 
L 291.118694 289.042009 
L 289.631889 288.845008 
L 288.888486 288.528573 
L 288.251284 288.44788 
L 287.932683 288.306913 
L 287.614082 288.113016 
L 287.29548 287.953537 
L 286.552078 287.574655 
L 285.808675 287.555936 
L 285.596274 287.398034 
L 285.490074 287.386467 
L 285.277673 287.217976 
L 284.21567 287.087293 
L 284.003269 286.91806 
L 283.684668 286.868409 
L 283.259866 286.675634 
L 282.728864 286.552228 
L 282.091662 286.263174 
L 281.135859 286.139175 
L 280.817258 286.03167 
L 280.392456 285.774443 
L 279.861454 285.433482 
L 279.542853 285.399319 
L 279.330452 285.214881 
L 279.118052 285.088103 
L 278.905651 284.87969 
L 278.056048 284.641618 
L 277.843647 284.465032 
L 277.206445 284.217978 
L 276.994044 283.863833 
L 274.870037 283.323563 
L 274.657636 283.093107 
L 274.445235 283.048583 
L 274.232834 282.913891 
L 273.914233 282.814142 
L 273.595632 282.643959 
L 273.170831 282.524177 
L 273.06463 282.469012 
L 272.321228 282.33918 
L 272.108827 282.168881 
L 269.347617 280.708192 
L 268.179413 279.025962 
L 267.967012 278.900237 
L 267.648411 278.770696 
L 267.43601 278.403466 
L 267.22361 278.381786 
L 267.011209 278.043598 
L 266.798808 277.849517 
L 265.949205 277.386777 
L 265.843005 277.125642 
L 265.524404 277.028241 
L 265.205802 276.806198 
L 264.993402 276.499817 
L 264.781001 276.470329 
L 264.4624 275.80589 
L 262.869394 274.026869 
L 262.656993 273.072358 
L 262.444593 272.98735 
L 262.019791 272.705143 
L 261.488789 272.551227 
L 259.895784 270.079221 
L 259.789583 269.627077 
L 259.364782 269.283 
L 259.152381 269.138184 
L 258.93998 268.390348 
L 258.515179 268.281191 
L 258.196578 268.028008 
L 257.984177 267.607548 
L 257.559376 267.436954 
L 257.346975 267.06939 
L 257.134574 266.697135 
L 256.709773 266.652516 
L 256.391171 266.21442 
L 256.07257 266.164364 
L 255.86017 265.657001 
L 255.647769 265.360187 
L 255.541568 265.26125 
L 255.329168 264.446534 
L 254.904366 263.953321 
L 254.798166 263.650521 
L 254.585765 263.641156 
L 254.054763 262.694786 
L 253.736162 262.608308 
L 253.311361 261.893522 
L 252.567958 261.085688 
L 252.036956 261.059897 
L 251.930756 260.634062 
L 251.718355 260.446838 
L 251.505954 260.171058 
L 251.399754 259.956531 
L 251.293553 259.484409 
L 250.23155 258.174496 
L 249.594347 257.823127 
L 249.381947 257.293754 
L 249.169546 257.22668 
L 248.957145 256.613894 
L 248.638544 256.525151 
L 248.532344 256.476295 
L 248.213743 255.257836 
L 247.895141 254.711891 
L 247.57654 254.601521 
L 246.726937 254.4624 
L 246.302136 253.41045 
L 245.664934 252.005823 
L 245.558733 251.897111 
L 244.815331 250.055689 
L 244.70913 249.908459 
L 244.496729 249.112545 
L 244.390529 249.108208 
L 243.753327 247.965348 
L 243.540926 246.682526 
L 242.054121 244.826805 
L 241.416919 244.615164 
L 241.098317 244.019136 
L 240.992117 243.333216 
L 240.567316 242.896696 
L 240.354915 242.8032 
L 240.036314 240.760507 
L 239.717713 240.499781 
L 239.505312 239.660308 
L 239.399111 239.621716 
L 238.655709 238.574276 
L 238.337108 237.100016 
L 237.487505 236.519522 
L 237.275104 235.81259 
L 236.744102 235.496846 
L 236.425501 235.067197 
L 236.2131 235.008 
L 236.000699 234.498758 
L 235.575898 234.152198 
L 235.257297 233.310388 
L 234.832495 233.030452 
L 234.620095 232.738834 
L 234.407694 232.148945 
L 234.089093 231.93346 
L 233.876692 231.064349 
L 233.558091 230.884364 
L 233.23949 229.930694 
L 233.027089 229.852148 
L 232.708488 227.916618 
L 232.496087 227.842767 
L 231.434083 224.789048 
L 231.327883 224.034632 
L 231.115482 223.945764 
L 230.903081 223.597367 
L 230.690681 222.640734 
L 230.47828 222.635407 
L 230.265879 222.300865 
L 229.947278 221.875415 
L 229.734877 221.299874 
L 228.885274 220.354369 
L 228.460473 220.111257 
L 228.248072 219.77735 
L 227.929471 218.424132 
L 227.398469 217.351677 
L 227.186068 217.302575 
L 226.548866 216.888596 
L 226.124065 214.960312 
L 225.380662 214.202424 
L 225.168261 214.18234 
L 224.74346 213.286106 
L 224.106257 213.259607 
L 223.787656 212.335361 
L 223.681456 212.313263 
L 223.575256 211.450749 
L 222.938053 211.331489 
L 222.831853 211.01469 
L 222.619452 209.443339 
L 222.300851 209.233432 
L 222.08845 208.893046 
L 221.132647 207.303233 
L 220.814046 206.155748 
L 220.601645 206.070124 
L 219.964443 205.373782 
L 219.645842 204.908191 
L 219.433441 204.867148 
L 218.371437 203.697334 
L 218.265237 203.688 
L 217.946636 202.092427 
L 217.840435 202.081531 
L 217.628035 201.361655 
L 217.415634 201.229833 
L 216.990832 200.412735 
L 216.672231 200.123873 
L 216.35363 199.662545 
L 216.24743 199.478909 
L 215.928829 199.295144 
L 215.822628 198.850103 
L 214.866825 198.3396 
L 214.548224 197.16162 
L 214.442023 196.842456 
L 213.804821 196.619609 
L 213.273819 195.254185 
L 212.955218 194.848051 
L 212.742817 194.132664 
L 212.530417 193.667981 
L 212.424216 193.548833 
L 212.318016 193.131193 
L 211.787014 192.924658 
L 211.680814 192.73533 
L 211.468413 192.624378 
L 210.61881 191.485009 
L 210.194008 191.251329 
L 210.087808 191.192516 
L 209.344405 189.772274 
L 209.025804 189.439736 
L 208.707203 189.360746 
L 208.494802 188.939004 
L 208.070001 188.83056 
L 207.963801 188.241612 
L 207.645199 188.043798 
L 207.538999 187.673034 
L 207.114198 187.518725 
L 206.583196 187.139738 
L 206.370795 186.21686 
L 206.052194 185.121419 
L 205.733593 184.941775 
L 205.521192 184.671303 
L 205.308791 183.610167 
L 204.88399 181.805867 
L 204.671589 181.730198 
L 204.565389 181.387034 
L 204.352988 181.309935 
L 203.609585 181.258386 
L 203.503385 181.130927 
L 203.184784 181.101913 
L 202.972383 180.62087 
L 202.759982 178.572841 
L 202.547581 178.205184 
L 202.335181 177.691944 
L 202.01658 176.789854 
L 201.697978 176.553055 
L 201.166977 175.97334 
L 200.954576 175.131292 
L 200.848375 174.578547 
L 200.529774 174.375721 
L 200.317374 173.296855 
L 200.104973 173.294763 
L 199.892572 172.875259 
L 199.573971 172.29089 
L 199.467771 172.235907 
L 199.25537 171.751525 
L 198.936769 170.98745 
L 198.405767 170.917254 
L 198.193366 170.415894 
L 197.449963 169.098916 
L 197.131362 168.225145 
L 196.38796 167.71881 
L 196.175559 167.412706 
L 196.069359 167.170065 
L 195.856958 167.156476 
L 195.750757 166.971498 
L 195.644557 166.546439 
L 195.432156 165.38072 
L 195.113555 164.738999 
L 194.370153 164.611356 
L 193.945351 162.214001 
L 193.839151 162.201993 
L 193.62675 161.589197 
L 193.095748 160.928238 
L 192.670947 160.807164 
L 192.458546 160.712618 
L 192.139945 159.993339 
L 191.715143 159.38501 
L 191.502742 158.938148 
L 190.971741 158.29635 
L 190.75934 157.409244 
L 190.653139 157.391477 
L 190.546939 156.289005 
L 190.334538 156.104471 
L 189.909737 155.584 
L 189.803536 155.563932 
L 189.591136 155.076498 
L 189.378735 155.03498 
L 189.272535 154.788674 
L 189.060134 153.911301 
L 188.741533 153.537111 
L 188.635332 152.817231 
L 188.210531 152.251145 
L 188.10433 151.672575 
L 187.467128 151.118563 
L 187.254727 151.066222 
L 187.042327 149.789288 
L 186.936126 149.761303 
L 186.511325 148.982795 
L 185.661722 147.897177 
L 185.343121 144.915386 
L 185.23692 144.880237 
L 185.13072 144.306032 
L 184.599718 143.851846 
L 184.281117 143.097449 
L 183.962516 142.982809 
L 183.856315 142.665366 
L 183.006712 142.445686 
L 182.581911 142.192158 
L 182.475711 141.961846 
L 182.26331 141.209224 
L 181.944709 140.695693 
L 181.732308 140.61042 
L 181.519907 139.935127 
L 179.714501 139.274114 
L 179.5021 138.7755 
L 179.289699 138.579731 
L 178.971098 138.232058 
L 178.758697 137.72103 
L 178.440096 137.679258 
L 178.121495 137.216554 
L 177.484293 137.022282 
L 177.271892 136.814545 
L 177.059491 136.06682 
L 176.422289 135.860459 
L 176.316089 135.479227 
L 176.103688 135.151482 
L 175.891287 135.042783 
L 175.572686 134.095688 
L 175.254085 134.038943 
L 174.829284 133.811317 
L 174.616883 133.468183 
L 173.979681 133.463455 
L 173.87348 132.942608 
L 173.236278 132.934432 
L 173.130078 132.75764 
L 172.386675 132.569451 
L 171.643272 132.497276 
L 171.11227 132.307794 
L 170.368868 130.393946 
L 168.351061 130.120258 
L 168.03246 129.786811 
L 167.607658 129.508699 
L 166.864256 129.404991 
L 166.227053 129.108237 
L 165.37745 128.793324 
L 165.27125 128.586462 
L 164.846448 128.155119 
L 164.421647 127.989818 
L 164.315447 127.777797 
L 164.209246 127.01507 
L 163.890645 126.780632 
L 163.572044 125.983522 
L 162.722441 125.330824 
L 162.616241 125.10458 
L 161.979038 124.745143 
L 161.766638 124.283077 
L 160.492233 124.276621 
L 158.474426 123.642866 
L 158.262025 122.997955 
L 157.306222 122.625164 
L 156.987621 122.340505 
L 156.77522 120.867372 
L 156.456619 120.730563 
L 155.819417 119.297208 
L 154.01401 118.844286 
L 153.483008 117.431081 
L 153.270608 117.206069 
L 153.058207 116.802535 
L 152.952006 116.688 
L 152.845806 116.216606 
L 152.314804 115.629972 
L 151.996203 114.906742 
L 151.890003 114.785561 
L 151.1466 114.668945 
L 150.721799 114.173217 
L 149.872196 113.921208 
L 149.659795 113.666021 
L 149.341194 113.472 
L 149.234993 113.149146 
L 148.38539 112.877419 
L 148.17299 112.215273 
L 147.960589 112.143635 
L 147.748188 111.871511 
L 146.686184 111.500062 
L 146.579984 111.155186 
L 146.155182 111.000296 
L 145.942782 110.297831 
L 145.730381 110.216688 
L 145.51798 109.289596 
L 144.880778 108.816166 
L 144.562177 108.140651 
L 144.243576 107.67423 
L 144.031175 107.138035 
L 143.712574 105.984 
L 142.969171 105.512222 
L 142.75677 104.946641 
L 142.013368 104.686231 
L 141.907167 104.278727 
L 141.588566 104.230305 
L 141.482366 103.099685 
L 141.269965 102.982737 
L 141.163765 102.317622 
L 140.845164 102.258228 
L 140.738963 101.829042 
L 140.207961 101.641846 
L 140.101761 101.204757 
L 139.358358 100.370824 
L 139.252158 100.17644 
L 139.039757 99.267551 
L 138.190154 98.968536 
L 136.703349 97.947807 
L 135.322744 97.925687 
L 135.110343 97.771513 
L 133.411137 97.360818 
L 132.773935 96.870249 
L 132.349134 96.832382 
L 132.136733 96.664527 
L 131.18093 95.737541 
L 130.862328 94.698139 
L 130.437527 93.698704 
L 130.331327 92.808567 
L 129.800325 92.151732 
L 129.375523 91.745391 
L 129.056922 89.935059 
L 128.844521 89.716966 
L 127.145315 88.950857 
L 126.932915 88.364712 
L 126.720514 88.128 
L 125.65851 88.006524 
L 125.339909 87.084448 
L 124.915108 86.951226 
L 124.490306 86.437565 
L 124.384106 85.735869 
L 123.959304 85.586824 
L 123.853104 85.258627 
L 123.640703 84.986182 
L 123.322102 83.978206 
L 122.8973 83.40633 
L 122.260098 82.934012 
L 122.047697 82.222602 
L 121.835297 81.918 
L 120.136091 81.10361 
L 120.02989 80.722286 
L 119.286488 80.671071 
L 118.118284 79.931077 
L 117.905883 79.580903 
L 117.587282 78.339765 
L 115.038473 78.208 
L 111.215259 77.139692 
L 110.578057 76.938862 
L 110.153255 76.608 
L 109.728454 75.086491 
L 108.347849 74.634067 
L 108.241649 74.069695 
L 107.179645 74.021878 
L 100.913823 73.582964 
L 99.108416 73.183135 
L 98.471214 72.768 
L 91.56819 72.280044 
L 90.718587 71.852651 
L 89.975184 71.269463 
L 89.550383 70.304604 
L 88.91318 69.483789 
L 87.426375 69.460555 
L 85.93957 67.563372 
L 85.83337 65.765647 
L 84.452765 65.088 
L 81.372954 60.195945 
L 76.806338 53.568 
L 76.806338 53.568 
" clip-path="url(#p4a0b332857)" style="fill: none; stroke: #8c564b; stroke-width: 1.5; stroke-linecap: square"/>
   </g>
   <g id="patch_3">
    <path d="M 57.6 307.584 
L 57.6 41.472 
" style="fill: none; stroke: #000000; stroke-width: 0.8; stroke-linejoin: miter; stroke-linecap: square"/>
   </g>
   <g id="patch_4">
    <path d="M 414.72 307.584 
L 414.72 41.472 
" style="fill: none; stroke: #000000; stroke-width: 0.8; stroke-linejoin: miter; stroke-linecap: square"/>
   </g>
   <g id="patch_5">
    <path d="M 57.6 307.584 
L 414.72 307.584 
" style="fill: none; stroke: #000000; stroke-width: 0.8; stroke-linejoin: miter; stroke-linecap: square"/>
   </g>
   <g id="patch_6">
    <path d="M 57.6 41.472 
L 414.72 41.472 
" style="fill: none; stroke: #000000; stroke-width: 0.8; stroke-linejoin: miter; stroke-linecap: square"/>
   </g>
   <g id="text_15">
    <!-- English -->
    <g transform="translate(214.495313 35.472)scale(0.12 -0.12)">
     <defs>
      <path id="DejaVuSans-45" d="M 628 4666 
L 3578 4666 
L 3578 4134 
L 1259 4134 
L 1259 2753 
L 3481 2753 
L 3481 2222 
L 1259 2222 
L 1259 531 
L 3634 531 
L 3634 0 
L 628 0 
L 628 4666 
z
" transform="scale(0.015625)"/>
      <path id="DejaVuSans-67" d="M 2906 1791 
Q 2906 2416 2648 2759 
Q 2391 3103 1925 3103 
Q 1463 3103 1205 2759 
Q 947 2416 947 1791 
Q 947 1169 1205 825 
Q 1463 481 1925 481 
Q 2391 481 2648 825 
Q 2906 1169 2906 1791 
z
M 3481 434 
Q 3481 -459 3084 -895 
Q 2688 -1331 1869 -1331 
Q 1566 -1331 1297 -1286 
Q 1028 -1241 775 -1147 
L 775 -588 
Q 1028 -725 1275 -790 
Q 1522 -856 1778 -856 
Q 2344 -856 2625 -561 
Q 2906 -266 2906 331 
L 2906 616 
Q 2728 306 2450 153 
Q 2172 0 1784 0 
Q 1141 0 747 490 
Q 353 981 353 1791 
Q 353 2603 747 3093 
Q 1141 3584 1784 3584 
Q 2172 3584 2450 3431 
Q 2728 3278 2906 2969 
L 2906 3500 
L 3481 3500 
L 3481 434 
z
" transform="scale(0.015625)"/>
      <path id="DejaVuSans-68" d="M 3513 2113 
L 3513 0 
L 2938 0 
L 2938 2094 
Q 2938 2591 2744 2837 
Q 2550 3084 2163 3084 
Q 1697 3084 1428 2787 
Q 1159 2491 1159 1978 
L 1159 0 
L 581 0 
L 581 4863 
L 1159 4863 
L 1159 2956 
Q 1366 3272 1645 3428 
Q 1925 3584 2291 3584 
Q 2894 3584 3203 3211 
Q 3513 2838 3513 2113 
z
" transform="scale(0.015625)"/>
     </defs>
     <use xlink:href="#DejaVuSans-45"/>
     <use xlink:href="#DejaVuSans-6e" x="63.183594"/>
     <use xlink:href="#DejaVuSans-67" x="126.5625"/>
     <use xlink:href="#DejaVuSans-6c" x="190.039062"/>
     <use xlink:href="#DejaVuSans-69" x="217.822266"/>
     <use xlink:href="#DejaVuSans-73" x="245.605469"/>
     <use xlink:href="#DejaVuSans-68" x="297.705078"/>
    </g>
   </g>
   <g id="legend_1">
    <g id="patch_7">
     <path d="M 349.629375 137.54075 
L 407.72 137.54075 
Q 409.72 137.54075 409.72 135.54075 
L 409.72 48.472 
Q 409.72 46.472 407.72 46.472 
L 349.629375 46.472 
Q 347.629375 46.472 347.629375 48.472 
L 347.629375 135.54075 
Q 347.629375 137.54075 349.629375 137.54075 
z
" style="fill: #ffffff; opacity: 0.8; stroke: #cccccc; stroke-linejoin: miter"/>
    </g>
    <g id="line2d_19">
     <path d="M 351.629375 54.570438 
L 361.629375 54.570438 
L 371.629375 54.570438 
" style="fill: none; stroke: #1f77b4; stroke-width: 1.5; stroke-linecap: square"/>
    </g>
    <g id="text_16">
     <!-- 0.01 -->
     <g transform="translate(379.629375 58.070438)scale(0.1 -0.1)">
      <use xlink:href="#DejaVuSans-30"/>
      <use xlink:href="#DejaVuSans-2e" x="63.623047"/>
      <use xlink:href="#DejaVuSans-30" x="95.410156"/>
      <use xlink:href="#DejaVuSans-31" x="159.033203"/>
     </g>
    </g>
    <g id="line2d_20">
     <path d="M 351.629375 69.248563 
L 361.629375 69.248563 
L 371.629375 69.248563 
" style="fill: none; stroke: #ff7f0e; stroke-width: 1.5; stroke-linecap: square"/>
    </g>
    <g id="text_17">
     <!-- 0.03 -->
     <g transform="translate(379.629375 72.748563)scale(0.1 -0.1)">
      <defs>
       <path id="DejaVuSans-33" d="M 2597 2516 
Q 3050 2419 3304 2112 
Q 3559 1806 3559 1356 
Q 3559 666 3084 287 
Q 2609 -91 1734 -91 
Q 1441 -91 1130 -33 
Q 819 25 488 141 
L 488 750 
Q 750 597 1062 519 
Q 1375 441 1716 441 
Q 2309 441 2620 675 
Q 2931 909 2931 1356 
Q 2931 1769 2642 2001 
Q 2353 2234 1838 2234 
L 1294 2234 
L 1294 2753 
L 1863 2753 
Q 2328 2753 2575 2939 
Q 2822 3125 2822 3475 
Q 2822 3834 2567 4026 
Q 2313 4219 1838 4219 
Q 1578 4219 1281 4162 
Q 984 4106 628 3988 
L 628 4550 
Q 988 4650 1302 4700 
Q 1616 4750 1894 4750 
Q 2613 4750 3031 4423 
Q 3450 4097 3450 3541 
Q 3450 3153 3228 2886 
Q 3006 2619 2597 2516 
z
" transform="scale(0.015625)"/>
      </defs>
      <use xlink:href="#DejaVuSans-30"/>
      <use xlink:href="#DejaVuSans-2e" x="63.623047"/>
      <use xlink:href="#DejaVuSans-30" x="95.410156"/>
      <use xlink:href="#DejaVuSans-33" x="159.033203"/>
     </g>
    </g>
    <g id="line2d_21">
     <path d="M 351.629375 83.926688 
L 361.629375 83.926688 
L 371.629375 83.926688 
" style="fill: none; stroke: #2ca02c; stroke-width: 1.5; stroke-linecap: square"/>
    </g>
    <g id="text_18">
     <!-- 0.08 -->
     <g transform="translate(379.629375 87.426688)scale(0.1 -0.1)">
      <use xlink:href="#DejaVuSans-30"/>
      <use xlink:href="#DejaVuSans-2e" x="63.623047"/>
      <use xlink:href="#DejaVuSans-30" x="95.410156"/>
      <use xlink:href="#DejaVuSans-38" x="159.033203"/>
     </g>
    </g>
    <g id="line2d_22">
     <path d="M 351.629375 98.604813 
L 361.629375 98.604813 
L 371.629375 98.604813 
" style="fill: none; stroke: #d62728; stroke-width: 1.5; stroke-linecap: square"/>
    </g>
    <g id="text_19">
     <!-- 0.15 -->
     <g transform="translate(379.629375 102.104813)scale(0.1 -0.1)">
      <defs>
       <path id="DejaVuSans-35" d="M 691 4666 
L 3169 4666 
L 3169 4134 
L 1269 4134 
L 1269 2991 
Q 1406 3038 1543 3061 
Q 1681 3084 1819 3084 
Q 2600 3084 3056 2656 
Q 3513 2228 3513 1497 
Q 3513 744 3044 326 
Q 2575 -91 1722 -91 
Q 1428 -91 1123 -41 
Q 819 9 494 109 
L 494 744 
Q 775 591 1075 516 
Q 1375 441 1709 441 
Q 2250 441 2565 725 
Q 2881 1009 2881 1497 
Q 2881 1984 2565 2268 
Q 2250 2553 1709 2553 
Q 1456 2553 1204 2497 
Q 953 2441 691 2322 
L 691 4666 
z
" transform="scale(0.015625)"/>
      </defs>
      <use xlink:href="#DejaVuSans-30"/>
      <use xlink:href="#DejaVuSans-2e" x="63.623047"/>
      <use xlink:href="#DejaVuSans-31" x="95.410156"/>
      <use xlink:href="#DejaVuSans-35" x="159.033203"/>
     </g>
    </g>
    <g id="line2d_23">
     <path d="M 351.629375 113.282938 
L 361.629375 113.282938 
L 371.629375 113.282938 
" style="fill: none; stroke: #9467bd; stroke-width: 1.5; stroke-linecap: square"/>
    </g>
    <g id="text_20">
     <!-- 0.50 -->
     <g transform="translate(379.629375 116.782938)scale(0.1 -0.1)">
      <use xlink:href="#DejaVuSans-30"/>
      <use xlink:href="#DejaVuSans-2e" x="63.623047"/>
      <use xlink:href="#DejaVuSans-35" x="95.410156"/>
      <use xlink:href="#DejaVuSans-30" x="159.033203"/>
     </g>
    </g>
    <g id="line2d_24">
     <path d="M 351.629375 127.961063 
L 361.629375 127.961063 
L 371.629375 127.961063 
" style="fill: none; stroke: #8c564b; stroke-width: 1.5; stroke-linecap: square"/>
    </g>
    <g id="text_21">
     <!-- None -->
     <g transform="translate(379.629375 131.461063)scale(0.1 -0.1)">
      <defs>
       <path id="DejaVuSans-4e" d="M 628 4666 
L 1478 4666 
L 3547 763 
L 3547 4666 
L 4159 4666 
L 4159 0 
L 3309 0 
L 1241 3903 
L 1241 0 
L 628 0 
L 628 4666 
z
" transform="scale(0.015625)"/>
      </defs>
      <use xlink:href="#DejaVuSans-4e"/>
      <use xlink:href="#DejaVuSans-6f" x="74.804688"/>
      <use xlink:href="#DejaVuSans-6e" x="135.986328"/>
      <use xlink:href="#DejaVuSans-65" x="199.365234"/>
     </g>
    </g>
   </g>
  </g>
 </g>
 <defs>
  <clipPath id="p4a0b332857">
   <rect x="57.6" y="41.472" width="357.12" height="266.112"/>
  </clipPath>
 </defs>
</svg>
