<?xml version="1.0" encoding="utf-8"?>
<svg width="378" height="400" version="1.1" style="fill:#e6e6e6;stroke-width:2;stroke:#000" xmlns="http://www.w3.org/2000/svg">
  <path d="m279.66 374.71 12.011-5.5728m24.022-11.146 12.011-5.5728m-24.022 11.146 12.011-5.5728m-24.022 11.146 12.011-5.5728" style="stroke-width:3"/>
  <path d="m256.36 487.8 24.898 0.51336c-2.313-9.6706-7.1359-25.469-1.7967-33.111 5.0811-4.463 14.469-17.943 2e-5 -24.384-7.8996-10.468 5.2163-16.879 6.4169-23.101 2.7633-8.9883-2.1186-13.729-5.1335-19.507-2.0818-20.237 1.2614-41.888 14.887-66.223 32.357-44.68 26.743-48.177 17.063-38.641-6.3752 6.2804-12.334 19.813-18.09 25.294-6.4282 3.9244-9.7077-2.2129-3.6935-6.4734 5.7705-4.0879 8.1098-47.29 9.8148-71.18 5.9663-83.6-7.5269-107.39-25.34-114.82-9.5804-3.9934-23.41-4.0368-29.375-4.3999-51.48-3.1335-93.106 45.505-87.106 70.161 5.9554 37.026-32.418 49.453-51.161 9.4099l-3.0801 33.111c-3.876-6.6414-9.8362-19.951-14.988-23.932-19.005-13.98-34.016 6.9613-22.743 23.355 12.588 18.306 11.947 15.858 9.724 28.531-2.6781 15.267-30.943 47.203 9.5267 74.973 64.714 8.2859 178.72-34.066 178.9 25.668 1.0911 18.285-15.333 38.921-16.027 54.415-1.3563 30.306 11.051 52.548 7.2998 80.34z"/>
  <path d="m360.83 487.8 170.95 1.0267c-6.3912-59.243-13.328-118.18 2.5668-178.65 6.4666-12.733 15.101-30.264 23.104-37.388 12.911-11.493 25.29-25.102 32.852-45.262 19.289-44.528 28.826-117.25 27.742-188.53-0.95993-63.116-10.818-134.38-54.95-198.03-36.116-51.883-129.93-106.41-283.88-86.243-175.2 52.486-194.47 120.95-200.21 138.09-3.7765 36.542 13.747 56.022 8.2136 85.217-19.752 40.433-51.633 78.907-82.137 113.96 0.6087 7.415-8.4371 18.968 18.994 14.887l32.341-46.202c14.192-19.712 45.295-55.755 131.93-44.662 46.124-6.5966 63.522-3.9834 82.177 21.841 7.5834 17.492 12.913 21.503 31.408 29.448 32.157 55.976 40.741 131.37 49.148 189.99z"/>
  <path d="m261.51 111.56c8.8683 1.3027 17.746 2.7569 26.417 5.0396 8.0337 2.2645 12.706 13.309 17.368 20.238 16.459 43.63 28.952 14.046 20.624-5.9085-3.4359-13.212-5.7342-25.642-13.98-36.649-5.9203-4.3923-16.27-0.193-23.17-1.2124-4.9981-0.3467-10.013-0.39425-15.021-0.34063-22.484 0.24075-47.333 3.0618-67.391 2.973-9.4222-0.0614-18.84 0.1289-28.252 0.53684-25.001 0.77055-50.04 1.5774-75.036 0.22535-14.065-0.6658-28.234-1.5132-42.255 0.15081-5.5901 1.0402-11.564 4.5223-12.914 10.416-0.45006 4.5603 3.3045 8.0942 6.823 10.349 8.6606 6.988 12.235 18.902 10.565 29.688-0.88827 7.026-4.2341 13.377-7.5748 19.507-1.8302 4.5751-0.48331 10.627 4.0838 13.035 6.8404 4.4663 17.549 2.4874 21.358-5.0394 3.3734-7.1966 1.5215-16.019 6.3604-22.655 1.0953-1.529 3.3851-2.2874 4.8047-0.73102 1.6344 1.3045 1.4817 3.5052 1.3075 5.337 0.49815 6.2392 0.84163 12.492 1.5203 18.715 6.129-3.6955 8.8157-10.898 10.067-17.614 20.142-8.7131 26.893-20.128 33.45-31.839 5.9279-6.0256 13.361-10.903 21.817-12.311 8.4765-1.5458 16.941-3.2442 25.525-4.1028 17.49-1.9559 35.182-1.5932 52.643 0.49719z"/>
  <path d="m333.11 488.83 17.35 0.44037c3.4481 0.0874 1.2558-58.443 0.94941-73.935-0.71851-36.326-5.8817-78.831-2.8988-97.966-5.2029-18.85-13.474-25.607-24.128 0.51334-4.63 8.529-4.8185 23.45-0.25508 30.366 16.283 24.679 11.595 34.661 12.576 50.23 0.74515 30.757 1.1258 60.012-3.5935 90.35z"/>
  <path style="fill: none; stroke: rgb(255, 0, 0); stroke-width: 9px; stroke-linecap: round;" d="M 142.443 130.948 C 150.004 128.428 260.934 126.71 272.225 130.379 C 287.404 135.312 287.024 147.918 287.024 152.579 C 287.024 169.899 287.594 198.003 287.594 211.778"/>
</svg>